<?xml version="1.0" encoding="UTF-8"?>
<!DOCTYPE svg PUBLIC "-//W3C//DTD SVG 1.1//EN" "http://www.w3.org/Graphics/SVG/1.1/DTD/svg11.dtd">
<!-- Creator: CorelDRAW -->
<svg xmlns="http://www.w3.org/2000/svg" xml:space="preserve" width="56.923mm" height="49.5378mm" version="1.1" style="shape-rendering:geometricPrecision; text-rendering:geometricPrecision; image-rendering:optimizeQuality; fill-rule:evenodd; clip-rule:evenodd"
viewBox="0 0 1752.26 1524.92"
 xmlns:xlink="http://www.w3.org/1999/xlink">
 <defs>
  <style type="text/css">
   <![CDATA[
    .fil2 {fill:white;fill-rule:nonzero}
    .fil1 {fill:white;fill-rule:nonzero}
    .fil0 {fill:#C8D42B;fill-rule:nonzero}
   ]]>
  </style>
 </defs>
 <g id="Layer_x0020_1">
  <metadata id="CorelCorpID_0Corel-Layer"/>
  <polygon class="fil0" points="-0,1468.67 705.38,1468.67 705.38,1468.2 1610.53,1197.53 1752.26,1161.83 1752.07,884.21 1752.07,0 705.38,313 705.38,313.47 -0,313.47 "/>
  <path class="fil1" d="M593.87 1393.49l0 -43.03c-13.56,-7.03 -35.98,-13.3 -66.23,-13.3 -45.37,0 -80.83,20.6 -92.05,56.32l158.28 0zm-183.56 0c-11.22,-39.63 -45.12,-53.71 -93.35,-53.71l-58.93 0 0 53.71 152.29 0zm-152.29 75.09l0 53.73 58.93 0c48.23,0 82.14,-14.08 93.35,-53.73l-152.29 0zm-95.97 0l16.44 53.73 67.79 0 -17.21 -53.73 -67.02 0zm376.28 -37.54l0 37.54 -103.26 0c10.43,38.07 44.59,56.33 87.88,56.33 29.72,0 55.27,-10.96 70.92,-25.81l0 -68.06 -55.54 0zm-411.21 -91.27l-61.29 182.53 66.5 0 39.63 -128.82 35.46 0 -18.51 -53.71 -61.8 0z"/>
  <path class="fil2" d="M354.99 690.56c49,0 86.11,-32.42 86.11,-81.78 0,-47.92 -34.59,-81.42 -85.39,-81.42l-22.7 0 0 -36.39 86.11 0 0 -59.09 -140.87 0 0 258.68 76.74 0zm-21.98 -58l0 -47.2 29.18 0c14.05,0 24.5,9.01 24.5,23.42 0,14.05 -9.73,23.78 -24.5,23.78l-29.18 0zm371.8 -200.67l-52.96 0 -113.12 159.96 0 -159.96 -54.76 0 0 258.68 53.68 0 112.4 -158.88 0 158.88 54.76 0 0 -258.68z"/>
  <path class="fil2" d="M359.08 1047.78l54.76 0 0 -101.6 88.27 101.6 73.86 0 -119.62 -135.83 106.65 -122.86 -70.26 0 -78.91 90.79 0 -90.79 -54.76 0 0 258.69zm346.24 5.41c73.14,-23.54 135.47,-99.09 135.47,-178.35 0,-79.26 -62.33,-114.68 -135.47,-91.15 -73.14,0 -135.47,55.49 -135.47,134.75 0,79.27 62.33,134.75 135.47,134.75zm0 -210.41c44.68,-14.38 79.26,5.47 79.26,50.15 0,44.67 -34.59,86.79 -79.26,101.17 -44.68,0 -79.26,-30.99 -79.26,-75.66 0,-44.67 34.58,-75.66 79.26,-75.66z"/>
  <path class="fil2" d="M742.3 486.38l73.14 -22.49 0 200.31 54.4 -16.72 0 -200.31 73.13 -22.48 0 -58.36 -200.67 61.7 0 58.36zm234.54 -130.47l0 258.68 78.18 -24.04c48.64,-14.95 87.91,-54.41 87.91,-102.68 0,-30.98 -14.05,-47.92 -34.94,-52.3 13.69,-15.02 21.62,-33.31 21.62,-55.64 0,-47.2 -36.75,-59.68 -85.03,-44.84l-67.73 20.82zm86.47 127.61c15.13,-4.65 25.22,3.78 25.22,17.47 0,14.41 -10.81,28.54 -24.86,32.86l-32.06 9.86 0 -50.44 31.7 -9.75zm-12.97 -96.17c15.13,-4.65 24.5,3.28 24.5,17.33 0,14.77 -10.45,28.07 -23.78,32.17l-19.45 5.98 0 -49.72 18.73 -5.76zm264.08 -135.23l-51.88 15.95 -103.4 290.46 58 -17.83 19.81 -55.81 104.12 -32.01 19.45 43.74 56.92 -17.5 -103.04 -227zm-25.22 85.57l29.18 65.61 -59.81 18.39 30.62 -83.99z"/>
  <path class="fil2" d="M1600.17 575.97c15.49,-4.99 25.22,1.61 25.22,16.38 0,15.13 -10.45,27.5 -25.22,32.26l-27.02 8.7 0 -48.64 27.02 -8.7zm-81.79 -30.96l0 258.69 54.76 -17.63 0 -95.48 20.9 -6.72c50.44,-16.24 85.75,-61.47 85.75,-109.02 0,-49.36 -37.11,-69.84 -86.11,-54.07l-75.3 24.24z"/>
  <polygon class="fil2" points="1334.99,858.83 1480.19,812.09 1480.19,753 1389.75,782.11 1389.75,737.79 1469.37,712.16 1469.37,653.08 1389.75,678.71 1389.75,641.6 1480.19,612.49 1480.19,553.4 1334.99,600.14 "/>
  <polygon class="fil2" points="1075.96,940.55 1130.73,922.92 1130.73,819.52 1239.89,784.38 1239.89,887.78 1294.66,870.16 1294.66,611.47 1239.89,629.09 1239.89,725.29 1130.73,760.43 1130.73,664.23 1075.96,681.86 "/>
  <path class="fil2" d="M960.92 773.44c15.49,-4.98 25.22,1.61 25.22,16.39 0,15.13 -10.45,27.5 -25.22,32.25l-27.02 8.7 0 -48.64 27.02 -8.7zm-81.79 -30.96l0 258.69 54.76 -17.63 0 -95.48 20.9 -6.73c50.44,-16.23 85.75,-61.46 85.75,-109.02 0,-49.36 -37.11,-69.85 -86.11,-54.07l-75.3 24.24z"/>
  <path class="fil2" d="M189.95 860.86c-10.74,0 -18.77,-4.57 -23.46,-10.5l-4.45 16.3c3.33,6.3 12.35,14.45 27.91,14.45 17.91,0 31.61,-10.62 31.61,-27.78 0,-11.36 -4.57,-17.66 -11.48,-21.61 4.2,-3.21 8.27,-9.76 8.27,-17.53 0,-16.92 -12.22,-25.44 -26.79,-25.44 -12.6,0 -23.22,7.29 -26.8,13.58l4.2 16.05c6.3,-6.42 13.46,-9.39 21.36,-9.39 5.68,0 9.26,2.84 9.26,7.29 0,5.06 -4.32,7.29 -9.01,7.29l-7.78 0 0 20.25 11.11 0c5.19,0 9.01,2.84 9.01,7.78 0,5.43 -5.06,9.26 -12.97,9.26zm90.39 -70.26l-17.78 0 -35.44 88.66 19.88 0 6.79 -17.04 35.69 0 6.67 17.04 19.51 0 -35.32 -88.66zm-8.64 26.67l10 25.56 -20.5 0 10.49 -25.56z"/>
 </g>
</svg>
