<?xml version="1.0" encoding="utf-8"?>
<svg version="1.1" id="Слой_1" xmlns="http://www.w3.org/2000/svg" xmlns:xlink="http://www.w3.org/1999/xlink" x="0px" y="0px"
	 viewBox="0 0 386.9 510.3" style="enable-background:new 0 0 386.9 510.3;" xml:space="preserve">
<style type="text/css">
	.st0{clip-path:url(#SVGID_2_);fill:#e51a4b;}
</style>
<g>
	<defs>
		<rect id="SVGID_1_" width="386.9" height="510.3"/>
	</defs>
	<clipPath id="SVGID_2_">
		<use xlink:href="#SVGID_1_"  style="overflow:visible;"/>
	</clipPath>
	<g class="st0">
		<path d="M174.9,77.2c0,10.2,8.3,18.5,18.5,18.5c10.2,0,18.5-8.3,18.5-18.5c0-10.2-8.3-18.5-18.5-18.5
			C183.2,58.7,174.9,67,174.9,77.2"/>
	</g>
	<g class="st0">
		<path d="M124.2,426.5H44.3c-3.9,0-7.1-3.2-7.1-7.1s3.2-7.1,7.1-7.1h79.9c3.9,0,7.1,3.2,7.1,7.1S128.1,426.5,124.2,426.5z"/>
	</g>
	<g class="st0">
		<path d="M338.9,510.3h-291c-13.6,0-26.7-5.8-35.8-16C3.1,484-1.2,470.4,0.3,456.9l23.7-207.2c0.4-3.6,3.4-6.3,7-6.3h324.7
			c3.6,0,6.6,2.7,7,6.3l23.7,207.2c1.6,13.6-2.8,27.2-11.9,37.4C365.6,504.4,352.6,510.3,338.9,510.3z M37.4,257.6l-23,200.9
			c-1.1,9.6,1.9,19.1,8.3,26.3c6.4,7.2,15.6,11.3,25.2,11.3h291c9.6,0,18.8-4.1,25.2-11.3c6.4-7.2,9.4-16.8,8.3-26.3l-23-200.9H37.4
			z"/>
	</g>
	<g class="st0">
		<path d="M342.9,426.5h-80.2c-3.9,0-7.1-3.2-7.1-7.1s3.2-7.1,7.1-7.1h80.2c3.9,0,7.1,3.2,7.1,7.1S346.9,426.5,342.9,426.5z"/>
	</g>
	<g class="st0">
		<path d="M193.4,230.3c-3.9,0-7.1-3.2-7.1-7.1V117.1c0-3.9,3.2-7.1,7.1-7.1c3.9,0,7.1,3.2,7.1,7.1v106.1
			C200.5,227.1,197.4,230.3,193.4,230.3z"/>
	</g>
	<g class="st0">
		<path d="M16.6,154.5c-2.8,0-5.5-1.7-6.6-4.5c-1.4-3.6,0.4-7.8,4-9.2l139.8-55c3.6-1.4,7.8,0.4,9.2,4c1.4,3.6-0.4,7.8-4,9.2
			L19.2,154C18.4,154.3,17.5,154.5,16.6,154.5z"/>
	</g>
	<g class="st0">
		<path d="M230.9,70.2c-2.8,0-5.5-1.7-6.6-4.5c-1.4-3.6,0.4-7.8,4-9.2L370.9,0.5c3.6-1.4,7.8,0.4,9.2,4c1.4,3.6-0.4,7.8-4,9.2
			L233.5,69.8C232.6,70.1,231.8,70.2,230.9,70.2z"/>
	</g>
	<g class="st0">
		<path d="M262.7,479.7c-3.9,0-7.1-3.2-7.1-7.1V282.8c0-3.9,3.2-7.1,7.1-7.1s7.1,3.2,7.1,7.1v189.8
			C269.8,476.5,266.6,479.7,262.7,479.7z"/>
	</g>
	<g class="st0">
		<path d="M124.2,479.7c-3.9,0-7.1-3.2-7.1-7.1V282.8c0-3.9,3.2-7.1,7.1-7.1s7.1,3.2,7.1,7.1v189.8
			C131.3,476.5,128.1,479.7,124.2,479.7z"/>
	</g>
</g>
</svg>
