<?xml version="1.0" encoding="utf-8"?>
<svg version="1.1" id="Слой_1" xmlns="http://www.w3.org/2000/svg" xmlns:xlink="http://www.w3.org/1999/xlink" x="0px" y="0px"
	 viewBox="0 0 608 293.3" style="enable-background:new 0 0 608 293.3;" xml:space="preserve">
<style type="text/css">
	.st0{clip-path:url(#SVGID_2_);fill:#e51a4b;}
</style>
<g>
	<defs>
		<rect id="SVGID_1_" width="608" height="293.3"/>
	</defs>
	<clipPath id="SVGID_2_">
		<use xlink:href="#SVGID_1_"  style="overflow:visible;"/>
	</clipPath>
	<g class="st0">
		<path d="M101.8,263.3c0,16.6,13.4,30,30,30s30-13.4,30-30s-13.4-30-30-30S101.8,246.7,101.8,263.3"/>
	</g>
	<g class="st0">
		<path d="M404.1,263.3c0,16.6,13.4,30,30,30c16.6,0,30-13.4,30-30s-13.4-30-30-30C417.5,233.3,404.1,246.7,404.1,263.3"/>
	</g>
	<g class="st0">
		<path d="M376.6,270.4H189.3c-3.9,0-7.1-3.2-7.1-7.1s3.2-7.1,7.1-7.1h187.3c3.9,0,7.1,3.2,7.1,7.1S380.5,270.4,376.6,270.4z"/>
	</g>
	<g class="st0">
		<path d="M600.9,270.4H491.6c-3.9,0-7.1-3.2-7.1-7.1s3.2-7.1,7.1-7.1h102.2V41.9c0-15.3-12.5-27.8-27.8-27.8H139.4
			c-53.6,0-98.4,38.4-106.6,91.4L14.5,224.2c-1.2,8,1.1,16.2,6.4,22.3c5.3,6.2,13,9.7,21.1,9.7h32.3c3.9,0,7.1,3.2,7.1,7.1
			s-3.2,7.1-7.1,7.1H41.9c-12.3,0-23.9-5.3-31.8-14.6c-8-9.3-11.5-21.6-9.6-33.7l18.3-118.7c4.4-28.8,19.1-55.1,41.2-74
			S110.3,0,139.4,0H566C589.1,0,608,18.8,608,41.9v221.4C608,267.2,604.8,270.4,600.9,270.4z"/>
	</g>
	<g class="st0">
		<path d="M558.6,162.1H62.4c-3.9,0-7.1-3.2-7.1-7.1s3.2-7.1,7.1-7.1h496.2c3.9,0,7.1,3.2,7.1,7.1S562.5,162.1,558.6,162.1z"/>
	</g>
</g>
</svg>
