<?xml version="1.0" encoding="utf-8"?>
<!-- Generator: Adobe Illustrator 22.0.1, SVG Export Plug-In . SVG Version: 6.00 Build 0)  -->
<svg version="1.1" id="Слой_1" xmlns="http://www.w3.org/2000/svg" xmlns:xlink="http://www.w3.org/1999/xlink" x="0px" y="0px"
	 viewBox="0 0 29.6 21.4" style="enable-background:new 0 0 29.6 21.4;" xml:space="preserve">
<style type="text/css">
	.st0{fill:#FFFFFF;}
</style>
<g>
	<g>
		<path class="st0" d="M17.9,11.4H0.7c-0.4,0-0.7-0.3-0.7-0.7S0.3,10,0.7,10h17.2c0.4,0,0.7,0.3,0.7,0.7S18.3,11.4,17.9,11.4z"/>
	</g>
	<g>
		<path class="st0" d="M13.7,15.5c-0.2,0-0.4-0.1-0.5-0.2c-0.3-0.3-0.3-0.7,0-1l3.7-3.6L13.2,7c-0.3-0.3-0.3-0.7,0-1s0.7-0.3,1,0
			l4.2,4.2c0.1,0.1,0.2,0.3,0.2,0.5s-0.1,0.4-0.2,0.5l-4.2,4.1C14.1,15.4,13.9,15.5,13.7,15.5z"/>
	</g>
	<g>
		<path class="st0" d="M29.6,21.4H9.5c-0.4,0-0.7-0.3-0.7-0.7v-6c0-0.4,0.3-0.7,0.7-0.7s0.7,0.3,0.7,0.7V20h18.7V1.4H10.2v5.3
			c0,0.4-0.3,0.7-0.7,0.7S8.8,7.1,8.8,6.7v-6C8.8,0.3,9.1,0,9.5,0h20.1c0.4,0,0.7,0.3,0.7,0.7v20C30.3,21.1,30,21.4,29.6,21.4z"/>
	</g>
</g>
</svg>
