<svg id="Layer_1" data-name="Layer 1" xmlns="http://www.w3.org/2000/svg" viewBox="0 0 100.83 15.72"><defs><style>.cls-1{fill:#fff;}</style></defs><path class="cls-1" d="M47.87,7.73a2.11,2.11,0,0,0-1.2-.32H46v2.88h.9A1.46,1.46,0,0,0,48,9.91a1.45,1.45,0,0,0,.39-1.1A1.2,1.2,0,0,0,47.87,7.73Z"/><path class="cls-1" d="M59.49,8.31H57.72v2h1.77a1.06,1.06,0,0,0,.87-.3,1.1,1.1,0,0,0,.24-.72,1,1,0,0,0-.32-.72A1.12,1.12,0,0,0,59.49,8.31Z"/><path class="cls-1" d="M59.29,6.62c.19-.08.29-.28.29-.61a.67.67,0,0,0-.21-.5.69.69,0,0,0-.51-.21H57.72V6.73h.88A2,2,0,0,0,59.29,6.62Z"/><path class="cls-1" d="M30.89,6.31a2.35,2.35,0,0,0-.7-.5,2.16,2.16,0,0,0-.88-.18,2,2,0,0,0-.88.19,2.38,2.38,0,0,0-.7.51,2.18,2.18,0,0,0-.45.73,2.37,2.37,0,0,0-.16.88,2.5,2.5,0,0,0,.35,1.26,2.07,2.07,0,0,0,1,.86,2,2,0,0,0,.85.18,2,2,0,0,0,.88-.19,2.38,2.38,0,0,0,.7-.51,2.21,2.21,0,0,0,.46-.73,2.36,2.36,0,0,0,.17-.87,2.39,2.39,0,0,0-.17-.89A2.25,2.25,0,0,0,30.89,6.31Z"/><path class="cls-1" d="M100.83,8.18,99.8,7l.92,0-.84-1.09L99,4.75l-1.77.08-.42-.49.52,0-.55-.58s-3.8.17-3.85.15l-.57-.69,1.81-.06-.91-1-.5-.65L91.49,0,77.93.57,71.07,2.05l-.13-.18,2.57-1L73.16.4,29,2.05l-1-1.17L5,1.72l.84,1.16-1.28,0,.72,1L1.25,4,0,4.08,1,5.41l.82,0-.55,1-.45,0-.55,1L1.52,9.05l-.23.43.66.91,1.88-.09.85,1.16h-.8L5,13l-.73.86,1.37.95,16.58-.66.59.81L47.66,14l.12.17-2,.45.95,1.11,33.05-1.28-.58-.71,15.45-.61,3.81-1.93,1.11-.56L98.49,9.32,100,9.26ZM15.1,12.28H12.77V5.57H9.71v6.71H7.38V5.57H6.7v-2h8.4ZM23.61,8.5a2.9,2.9,0,0,1-.83,1.08,3.46,3.46,0,0,1-1.25.6,6.53,6.53,0,0,1-1.58.18H19v1.92H16.61V3.58h3.71a3.93,3.93,0,0,1,2.62.82,3.06,3.06,0,0,1,1,2.48A3.91,3.91,0,0,1,23.61,8.5Zm10,1.22a4.6,4.6,0,0,1-1,1.41,5.06,5.06,0,0,1-1.49.93,4.61,4.61,0,0,1-1.77.34,4.67,4.67,0,0,1-1.78-.35,4.73,4.73,0,0,1-1.48-.94,4.53,4.53,0,0,1-1-1.42,4.14,4.14,0,0,1-.38-1.75,4,4,0,0,1,.39-1.78,4.6,4.6,0,0,1,1-1.41,4.78,4.78,0,0,1,6.52,0,4.6,4.6,0,0,1,1,1.42A4.16,4.16,0,0,1,34,7.94,4.24,4.24,0,0,1,33.58,9.72ZM42.21,8.5a2.9,2.9,0,0,1-.83,1.08,3.38,3.38,0,0,1-1.25.6,6.45,6.45,0,0,1-1.57.18h-.94v1.92h-2.4V3.58h3.71a4,4,0,0,1,2.62.82,3.09,3.09,0,0,1,1,2.48A3.9,3.9,0,0,1,42.21,8.5Zm7.7,2.95a3.92,3.92,0,0,1-2.62.83H43.58V3.58H46V5.49h.94a6.49,6.49,0,0,1,1.57.19,3.23,3.23,0,0,1,1.25.6,2.9,2.9,0,0,1,.83,1.08A3.91,3.91,0,0,1,50.87,9,3.07,3.07,0,0,1,49.91,11.45Zm4,.83H51.57V3.58H53.9Zm8.9-1.66a2.69,2.69,0,0,1-.53.88,2.28,2.28,0,0,1-.82.57,2.67,2.67,0,0,1-1.08.21H55.29V3.6h4.4a1.73,1.73,0,0,1,.79.17,2,2,0,0,1,.62.46,2.25,2.25,0,0,1,.4.67,2.27,2.27,0,0,1-.24,2,3,3,0,0,1,1.27,1A2.69,2.69,0,0,1,63,9.51,3.23,3.23,0,0,1,62.8,10.62Zm9.33,1.66H69.8V9H66.61v3.31H64.28V5.57h-.77v-2h3.1V7.05H69.8V3.58h2.33ZM87.54,1.06a.67.67,0,0,0,1.34,0h1.46a2.06,2.06,0,0,1-.16.84,2,2,0,0,1-.45.65,1.88,1.88,0,0,1-.68.41,2.32,2.32,0,0,1-.84.14A2.33,2.33,0,0,1,87.36,3a2,2,0,0,1-.68-.41,2,2,0,0,1-.45-.65,2.24,2.24,0,0,1-.16-.84ZM82.27,9.72a4.47,4.47,0,0,1-1,1.41,4.89,4.89,0,0,1-1.48.93A4.68,4.68,0,0,1,78,12.4a4.83,4.83,0,0,1-3.26-1.29,4.38,4.38,0,0,1-1-1.42,4.29,4.29,0,0,1,0-3.53,4.81,4.81,0,0,1,1-1.41,4.73,4.73,0,0,1,1.48-.94A4.8,4.8,0,0,1,78,3.47a4.87,4.87,0,0,1,1.79.34,5,5,0,0,1,1.48.94,4.77,4.77,0,0,1,1,1.42,4.31,4.31,0,0,1,.37,1.77A4.24,4.24,0,0,1,82.27,9.72Zm9.62,2.56h-2.4V7.8L85,12.28H83.9V3.58h2.41V8.06l4.45-4.48h1.13Z"/><path class="cls-1" d="M19.92,5.57H19V8.45h.69a2.16,2.16,0,0,0,1.19-.32,1.2,1.2,0,0,0,.5-1.08A1.49,1.49,0,0,0,21,5.94,1.5,1.5,0,0,0,19.92,5.57Z"/><path class="cls-1" d="M38.52,5.57h-.9V8.45h.69a2.19,2.19,0,0,0,1.2-.32A1.2,1.2,0,0,0,40,7.05a1.49,1.49,0,0,0-.39-1.11A1.5,1.5,0,0,0,38.52,5.57Z"/><path class="cls-1" d="M79.58,6.31a2.4,2.4,0,0,0-.71-.5A2.12,2.12,0,0,0,78,5.63a2,2,0,0,0-.88.19,2.38,2.38,0,0,0-.7.51,2.21,2.21,0,0,0-.46.73,2.59,2.59,0,0,0-.16.88,2.41,2.41,0,0,0,.36,1.26,2.07,2.07,0,0,0,1,.86,2.12,2.12,0,0,0,1.73,0A2.3,2.3,0,0,0,80,8.81a2.35,2.35,0,0,0,.16-.87A2.38,2.38,0,0,0,80,7.05,2.43,2.43,0,0,0,79.58,6.31Z"/></svg>