<?xml version="1.0" encoding="utf-8"?>
<!-- Generator: Adobe Illustrator 19.1.0, SVG Export Plug-In . SVG Version: 6.00 Build 0)  -->
<svg version="1.1" id="Слой_1" xmlns="http://www.w3.org/2000/svg" xmlns:xlink="http://www.w3.org/1999/xlink" x="0px" y="0px"
	 viewBox="-270 381.2 70 30.8" style="enable-background:new -270 381.2 70 30.8;" xml:space="preserve">
<style type="text/css">
	.st0{fill:#FEFEFE;}
	.st1{fill:#FBFBFC;}
	.st2{fill:#FFFFFF;}
</style>
<g id="Layer_x0020_1">
	<path class="st0" d="M-263.6,381.8h-2.5v6.2h0.7v-2.2h1.7c1.4,0,2.1-0.9,2.1-2S-262.2,381.8-263.6,381.8L-263.6,381.8z
		 M-263.6,385.1h-1.7v-2.6h1.7c1,0,1.4,0.6,1.4,1.3C-262.2,384.5-262.7,385.1-263.6,385.1L-263.6,385.1z M-257.7,383
		c-0.9,0-1.4,0.5-1.7,1.2v-1.1h-0.8v4.8h0.7v-2.2c0-1.2,0.7-1.9,1.7-1.9c0.1,0,0.2,0,0.3,0v-0.7C-257.5,383-257.6,383-257.7,383z
		 M-254.1,383c-1.4,0-2.5,1.1-2.5,2.5c0,1.5,1,2.5,2.5,2.5c1,0,1.9-0.5,2.3-1.5h-0.8c-0.3,0.6-0.8,0.8-1.5,0.8c-1,0-1.7-0.6-1.8-1.6
		h4.1C-251.6,384.2-252.6,383-254.1,383L-254.1,383z M-254.1,383.7c0.9,0,1.5,0.6,1.6,1.4h-3.3C-255.6,384.3-255,383.7-254.1,383.7z
		 M-248.3,388.1c1.1,0,2-0.5,2-1.5c0-0.9-0.7-1.1-2-1.4c-1-0.2-1.4-0.4-1.4-0.7c0-0.4,0.5-0.7,1.2-0.7s1.1,0.2,1.3,0.7h0.7
		c-0.2-0.9-0.9-1.4-2.1-1.4c-1.1,0-2,0.5-2,1.5c0,0.8,0.6,1,1.9,1.4c1.1,0.1,1.7,0.2,1.7,0.7s-0.5,0.7-1.2,0.7
		c-0.9,0-1.4-0.2-1.6-0.9h-0.7C-250.4,387.5-249.5,388.1-248.3,388.1L-248.3,388.1z M-242.7,383c-1.4,0-2.5,1.1-2.5,2.5
		c0,1.5,1,2.5,2.5,2.5c1,0,1.9-0.5,2.3-1.5h-0.8c-0.3,0.6-0.8,0.8-1.5,0.8c-1,0-1.7-0.6-1.8-1.6h4.1
		C-240.2,384.2-241.2,383-242.7,383L-242.7,383z M-242.7,383.7c0.9,0,1.5,0.6,1.6,1.4h-3.3C-244.2,384.3-243.6,383.7-242.7,383.7z
		 M-236.5,383c-0.8,0-1.4,0.4-1.7,1.1v-1h-0.8v4.8h0.7v-2.4c0-1.1,0.5-1.8,1.5-1.8c0.8,0,1.2,0.4,1.2,1.3v2.9h0.7v-3
		C-234.8,383.7-235.4,383-236.5,383L-236.5,383z M-229.9,387.2c-0.4,0.1-0.7,0.2-1.1,0.2c-0.8,0-1.1-0.5-1.1-1.3v-2.3h2.2v-0.7h-2.2
		v-1.3l-0.7,0.2v1.2h-0.9v0.7h0.9v2.3c0,1.3,0.7,1.9,1.7,1.9c0.5,0,1-0.2,1.3-0.3L-229.9,387.2L-229.9,387.2z M-226.5,383
		c-1.4,0-2.5,1.1-2.5,2.5c0,1.5,1,2.5,2.5,2.5c1,0,1.9-0.5,2.3-1.5h-0.8c-0.3,0.6-0.8,0.8-1.5,0.8c-1,0-1.7-0.6-1.8-1.6h4.1
		C-224,384.2-225,383-226.5,383L-226.5,383z M-226.5,383.7c0.9,0,1.5,0.6,1.6,1.4h-3.3C-228,384.3-227.4,383.7-226.5,383.7z
		 M-218.8,381.2v2.9c-0.4-0.7-1-1.1-1.9-1.1c-1.3,0-2.3,1-2.3,2.5s0.9,2.5,2.3,2.5c0.8,0,1.5-0.4,1.9-1.1v1h0.8v-6.7H-218.8
		L-218.8,381.2z M-220.5,387.4c-1,0-1.7-0.8-1.7-1.8c0-1.1,0.7-1.8,1.7-1.8s1.7,0.8,1.7,1.8S-219.5,387.4-220.5,387.4z M-211.5,383
		c-0.8,0-1.5,0.4-1.9,1.1v-2.9h-0.7v6.8h0.7v-1c0.4,0.7,1,1.1,1.9,1.1c1.3,0,2.3-1.1,2.3-2.5C-209.2,384.1-210.2,383-211.5,383
		L-211.5,383z M-211.6,387.4c-1,0-1.7-0.8-1.7-1.8s0.7-1.8,1.7-1.8s1.7,0.8,1.7,1.8C-210,386.6-210.7,387.4-211.6,387.4z
		 M-204.6,383.1l-1.6,3.5l-1.6-3.5h-0.8l2,4.2l-1.2,2.9h0.8l3.3-7L-204.6,383.1L-204.6,383.1z"/>
	<path class="st1" d="M-200.7,411.3h-68.6v-17.9h68.6C-200.7,393.4-200.7,411.3-200.7,411.3z M-270,412h70v-19.3h-70V412z"/>
	<path class="st2" d="M-212.3,399.4c0-0.1,0.1-0.4,0.5-0.4h3.9c0.4,0,0.5,0.3,0.5,0.4v6c0,0.1-0.1,0.5-0.5,0.5h-3.9
		c-0.4,0-0.5-0.4-0.5-0.5C-212.3,405.3-212.3,399.4-212.3,399.4z M-236.7,408.1h3.6v-9.2h3.4v-2.2h-10.4v2.2h3.4V408.1z
		 M-225.1,398.9h4.1c0.5,0,0.5,0.3,0.5,0.5v1.2c0,0.2-0.1,0.5-0.5,0.5h-4.1V398.9L-225.1,398.9z M-225.1,403.7h1.4l2.3,4.4h4.1
		l-2.8-4.4h0.5c1.1-0.1,2.2-0.8,2.2-2.1v-2.8c-0.1-1.3-1.1-2-2.2-2.1h-9.2v11.4h3.6L-225.1,403.7L-225.1,403.7z M-241,405.9h-5.8
		v-2.4h5.7v-2.3h-5.7V399h5.7v-2.2h-9.3v11.4h9.4C-241,408.1-241,405.9-241,405.9z M-262.5,400.9l2.4,7.2h2.3l2.4-7.2v7.2h3.6v-11.4
		h-4.8l-2.4,5.7l-2.3-5.7h-4.8v11.4h3.6V400.9L-262.5,400.9z M-213.7,408.1h7.6c1.1-0.1,2.1-0.8,2.2-2.1v-7.4
		c-0.1-1.3-1.1-1.9-2.2-2h-7.6c-1.1,0.1-2.1,0.7-2.2,2v7.4C-215.8,407.3-214.8,408-213.7,408.1z"/>
</g>
</svg>
