<?xml version="1.0" encoding="utf-8"?>
<!-- Generator: Adobe Illustrator 24.0.1, SVG Export Plug-In . SVG Version: 6.00 Build 0)  -->
<svg version="1.1" id="Слой_1" xmlns="http://www.w3.org/2000/svg" xmlns:xlink="http://www.w3.org/1999/xlink" x="0px" y="0px"
	 viewBox="0 0 113.6 18.3" style="enable-background:new 0 0 113.6 18.3;" xml:space="preserve">
<style type="text/css">
	.st0{fill:#FF352E;}
	.st1{fill:#FFFFFF;}
</style>
<g id="g38">
</g>
<path id="path26" class="st0" d="M2.1,9.9c0,0,0.4,2.2,0.9,0.2c0.5-2.5,2.7-4.8,2.7-4.8c-1,1.8,0.1,4.2,0.1,4.2l2.1-1.9
	c2.5-2.9,8.8-4.2,8.8-4.2s-0.9-1.6-2.8-2.8c-2.1-1.2-7.7-0.8-9.4,1.8C2.7,5.2,2.1,8.9,2.1,8.9V9.9"/>
<path id="path108" class="st1" d="M0.3,11.1c0,0-0.3,0.6-0.3,0.7c0,0.1-0.1,0.7,0.3,1.5c0,0,0-0.1,0.1,0c0.1,0.1,0.1,0.4,0.1,0.4
	S1,14,1.3,14c0,0,0.4,0.3,0.7,0.3c0,0-0.1-0.1,0.4-0.1c0.4,0,0.9,0,1.2-0.1c0,0-0.3-0.1,0.3-0.3c0.4-0.3,0.9-1,0.9-1.3
	c0,0,0-0.7-0.4-1.5c0,0,0-0.1-0.3-0.6c-0.3-0.3-0.3,0-0.6-0.3C3.2,9.8,2.8,9.4,1.9,9.5c0,0,0.3,0.3-0.1,0.3c-0.4,0-1.2,0.4-1.5,0.6
	C0.5,10.4,0.6,10.8,0.3,11.1"/>
<path id="path112_1_" class="st1" d="M8.5,10.1C8,10,10.2,9.3,10.6,8.8c0.7-0.7,1.9-0.6,2.5-1C14,7.2,13.7,7.3,14,7.4
	c0.8,0.1,1.5-1,2.9-1.3c0.6-0.2,0.8-0.2,1.2-0.4c0.8-0.4,0.1-1.4,0.1-1.4c0.1-0.4-1.2-1.7-1.5-2c-1.9,0.3-3.6,1.3-3.6,1.3
	c0-0.3,0.6-0.7,0.6-0.7c-1,0.3-1.5,1-1.5,1c0.1-0.4,0.4-0.6,0.4-0.6c-3,0.9-5.4,3.5-5.4,3.5c0-0.4,0.4-0.9,0.4-0.9s-3,1.6-3,3.2
	s0.5,3,1.2,2.7C6.5,11.6,8.5,10.9,8.5,10.1"/>
<path class="st1" d="M17.5,6.1c-0.2,0-0.3,0.1-0.6,0.1c-0.7,0.1-1.2,0.5-1.7,0.8c-0.3,0.2-0.6,0.4-1,0.5c0.5,0.1,1,0.3,1.4,0.5
	l-0.1,0.8l2.7,0.3L18.8,6c-0.1-0.1-0.2-0.2-0.4-0.3c-0.1,0.1-0.2,0.1-0.3,0.2C17.9,6,17.7,6.1,17.5,6.1z"/>
<path class="st1" d="M12.9,10.9V14h2.5v0.4C14.7,14.8,14,15,13.2,15c-2.1,0-3.5-1.8-3.5-3.9c0-0.6,0.2-1.2,0.4-1.7
	C9.9,9.5,9.7,9.6,9.5,9.7C9.2,9.8,8.8,10,8.7,10.1l0,0c0,0.7-1.2,1.3-2.3,1.7C6.2,11.9,6.1,12,6,12c-0.1,0-0.1,0-0.2,0
	c0.5,3.6,3.6,6.2,7.4,6.2c2.2,0,4.3-0.7,6.1-2.1v-5.3H12.9z"/>
<path class="st1" d="M24.2,4.1v2.6h1.2L19.8,18h4.1l1-2.2h5.4l1,2.2h4.1L28.5,4.1H24.2z M26.2,12.7l1.3-3.1l1.4,3.1H26.2z"/>
<path class="st1" d="M42.4,9.4c-0.5-0.1-0.9-0.2-1.2-0.3C40.7,9,40,8.7,40,8.1c0-0.7,0.8-0.9,1.4-0.9c1.3,0,2.9,0.5,4.1,0.9l1.5-2.9
	C45.3,4.4,43.5,4,41.5,4c-2.7,0-5.3,1.3-5.3,4.4c0,3.1,2.6,3.8,5.2,4.4c0.4,0.1,0.8,0.2,1.1,0.3c0.5,0.2,1.2,0.4,1.2,1
	c0,0.7-0.5,1-1.6,1c-1,0-2.1-0.1-3.1-0.4l0.1-1l-2.8-0.3L36,16.9l0,0c2.1,1.1,3.6,1.3,6,1.3c2.8,0,5.6-1.3,5.6-4.5
	C47.6,10.8,44.9,10,42.4,9.4z"/>
<polygon class="st1" points="48.3,7.3 52.4,7.3 52.4,15.5 50.8,15.5 50.8,18.1 58,18.1 58,15.5 56.3,15.5 56.3,7.3 60.4,7.3 
	60.4,4.2 48.3,4.2 "/>
<path class="st1" d="M71.5,14.3c1.9-1,2.6-2.8,2.6-4.9c0-3.5-2.2-5.3-5.7-5.3h-6.5v13.9h3.8V15h2.1l2.2,3.1h4.3v-2.6h-1.8L71.5,14.3
	z M67.4,12h-1.7V7.3h2c1.6,0,2.4,0.9,2.4,2.4C70.1,11.3,68.9,12,67.4,12z"/>
<polygon class="st1" points="80,12.8 84.9,12.8 84.9,9.8 80,9.8 80,7.3 87.1,7.3 87.1,4.2 76.3,4.2 76.3,18 87.5,18 87.5,14.9 
	80,14.9 "/>
<polygon class="st1" points="93.2,12.8 98.1,12.8 98.1,9.8 93.2,9.8 93.2,7.3 100.3,7.3 100.3,4.2 89.5,4.2 89.5,18 100.7,18 
	100.7,14.9 93.2,14.9 "/>
<polygon class="st1" points="101.5,7.3 105.6,7.3 105.6,15.5 104,15.5 104,18.1 111.2,18.1 111.2,15.5 109.5,15.5 109.5,7.3 
	113.6,7.3 113.6,4.2 101.5,4.2 "/>
</svg>
