<svg xmlns="http://www.w3.org/2000/svg" xmlns:xlink="http://www.w3.org/1999/xlink" preserveAspectRatio="xMidYMid" width="250" height="50" viewBox="0 0 250 50">
  <defs>
    <style>
      .cls-1 {
        fill: #fff;
      }

      .cls-1, .cls-2 {
        fill-rule: evenodd;
      }

      .cls-2 {
        fill: red;
      }
    </style>
  </defs>
  <g>
    <path d="M249.089,31.335 L249.089,25.167 L249.999,25.167 L249.999,31.335 L249.089,31.335 ZM246.871,30.542 C246.529,31.052 246.017,31.391 245.335,31.391 C244.140,31.391 243.287,30.486 243.287,29.128 C243.287,27.826 244.197,26.864 245.335,26.864 C246.017,26.864 246.529,27.204 246.871,27.713 L246.871,26.977 L247.781,26.864 L247.781,31.278 L246.871,31.278 L246.871,30.542 ZM245.505,27.770 C244.766,27.770 244.197,28.336 244.197,29.184 C244.197,30.033 244.766,30.599 245.505,30.599 C246.245,30.599 246.871,30.033 246.871,29.184 C246.871,28.336 246.245,27.770 245.505,27.770 ZM241.581,39.540 C241.808,39.540 242.149,39.426 242.491,39.313 L242.661,40.105 C242.434,40.275 241.922,40.445 241.410,40.445 C240.500,40.445 239.817,39.879 239.817,38.691 L239.817,36.823 L239.021,36.823 L239.021,35.975 L239.817,35.975 L239.817,34.956 L240.727,34.730 L240.727,35.918 L242.548,35.918 L242.548,36.767 L240.727,36.767 L240.727,38.578 C240.727,39.200 241.012,39.540 241.581,39.540 ZM241.239,28.788 C241.239,28.109 240.955,27.770 240.272,27.770 C239.476,27.770 239.078,28.279 239.078,29.128 L239.078,31.391 L238.168,31.391 L238.168,26.977 L239.078,26.977 L239.078,27.713 C239.419,27.204 239.874,26.864 240.557,26.864 C241.524,26.864 242.092,27.543 242.149,28.618 L242.149,31.391 L241.239,31.391 L241.239,28.788 ZM237.144,37.729 C237.144,37.050 236.859,36.710 236.177,36.710 C235.380,36.710 234.982,37.220 234.982,38.068 L234.982,40.332 L234.072,40.332 L234.072,35.918 L234.982,35.918 L234.982,36.654 C235.323,36.144 235.779,35.805 236.461,35.805 C237.485,35.805 238.054,36.427 238.054,37.559 L238.054,40.332 L237.144,40.332 L237.144,37.729 ZM234.698,31.391 C233.446,31.391 232.422,30.429 232.422,29.128 C232.422,27.826 233.446,26.864 234.698,26.864 C235.949,26.864 236.973,27.826 236.973,29.128 C236.973,30.429 236.006,31.391 234.698,31.391 ZM236.063,29.128 C236.063,28.279 235.437,27.713 234.698,27.713 C233.901,27.713 233.276,28.336 233.333,29.128 C233.333,29.977 233.958,30.542 234.698,30.542 C235.437,30.542 236.063,29.977 236.063,29.128 ZM232.764,35.805 L232.764,40.219 L231.854,40.219 L231.854,39.483 C231.512,39.992 231.000,40.332 230.318,40.332 C229.123,40.332 228.270,39.426 228.270,38.068 C228.270,36.767 229.180,35.805 230.318,35.805 C231.000,35.805 231.512,36.144 231.854,36.654 L231.854,35.918 L232.764,35.805 ZM230.488,36.710 C229.749,36.710 229.180,37.276 229.180,38.125 C229.180,38.974 229.749,39.540 230.488,39.540 C231.285,39.540 231.854,38.917 231.854,38.125 C231.854,37.276 231.228,36.710 230.488,36.710 ZM231.228,31.335 L230.318,31.335 L230.318,26.921 L231.228,26.921 L231.228,31.335 ZM230.716,26.129 C230.432,26.129 230.147,25.902 230.147,25.563 C230.147,25.223 230.375,24.997 230.716,24.997 C231.057,24.997 231.342,25.223 231.285,25.563 C231.285,25.902 231.057,26.129 230.716,26.129 ZM228.099,30.656 C228.327,30.656 228.668,30.542 229.010,30.429 L229.180,31.221 C228.953,31.391 228.441,31.561 227.929,31.561 C227.019,31.561 226.336,30.995 226.336,29.807 L226.336,27.939 L225.540,27.939 L225.540,27.091 L226.336,27.091 L226.336,26.072 L227.246,25.846 L227.246,27.034 L229.066,27.034 L229.066,27.883 L227.246,27.883 L227.246,29.694 C227.246,30.316 227.531,30.656 228.099,30.656 ZM225.710,36.767 C225.995,36.144 226.507,35.805 227.189,35.805 C227.303,35.805 227.417,35.805 227.474,35.861 L227.474,36.767 C227.360,36.767 227.303,36.767 227.189,36.767 C226.336,36.767 225.710,37.220 225.710,38.295 L225.710,40.332 L224.800,40.332 L224.800,35.918 L225.710,35.918 L225.710,36.767 ZM223.606,30.542 C223.264,31.052 222.752,31.391 222.070,31.391 C220.875,31.391 220.022,30.486 220.022,29.128 C220.022,27.826 220.932,26.864 222.070,26.864 C222.752,26.864 223.264,27.204 223.606,27.713 L223.606,26.977 L224.516,26.864 L224.516,31.278 L223.606,31.278 L223.606,30.542 ZM222.240,27.770 C221.501,27.770 220.932,28.336 220.932,29.184 C220.932,30.033 221.501,30.599 222.240,30.599 C222.980,30.599 223.606,30.033 223.606,29.184 C223.606,28.336 222.980,27.770 222.240,27.770 ZM220.420,38.521 C220.420,39.200 220.705,39.540 221.387,39.540 C222.184,39.540 222.582,39.030 222.582,38.182 L222.582,35.918 L223.435,35.861 L223.435,40.275 L222.525,40.275 L222.525,39.540 C222.184,40.049 221.729,40.388 221.046,40.388 C220.079,40.388 219.510,39.766 219.510,38.691 L219.510,35.918 L220.420,35.918 L220.420,38.521 ZM217.917,28.788 C217.917,28.109 217.633,27.770 216.950,27.770 C216.154,27.770 215.756,28.279 215.756,29.128 L215.756,31.391 L214.846,31.391 L214.846,26.977 L215.756,26.977 L215.756,27.713 C216.097,27.204 216.552,26.864 217.235,26.864 C218.259,26.864 218.828,27.543 218.828,28.618 L218.828,31.391 L217.917,31.391 L217.917,28.788 ZM212.115,29.354 L212.115,31.391 L211.205,31.391 L211.205,26.977 L212.115,26.977 L212.115,27.826 C212.400,27.204 212.912,26.864 213.594,26.864 C213.708,26.864 213.822,26.864 213.879,26.921 L213.879,27.826 C213.765,27.826 213.708,27.826 213.594,27.826 C212.741,27.826 212.115,28.279 212.115,29.354 ZM212.912,36.767 L211.092,36.767 L211.092,38.578 C211.092,39.200 211.376,39.540 211.945,39.540 C212.172,39.540 212.514,39.426 212.855,39.313 L213.026,40.105 C212.798,40.275 212.286,40.445 211.774,40.445 C210.864,40.445 210.181,39.879 210.181,38.691 L210.181,36.823 L209.385,36.823 L209.385,35.975 L210.181,35.975 L210.181,34.956 L211.092,34.730 L211.092,35.918 L212.912,35.918 L212.912,36.767 ZM206.484,29.411 C206.541,30.203 207.110,30.656 207.849,30.656 C208.418,30.656 208.816,30.429 209.044,29.977 L209.954,29.977 C209.613,30.995 208.759,31.448 207.849,31.448 C206.541,31.448 205.574,30.486 205.574,29.184 C205.574,27.826 206.541,26.864 207.849,26.864 C209.271,26.864 210.181,27.996 210.068,29.411 L206.484,29.411 ZM207.849,27.656 C207.167,27.656 206.712,28.109 206.541,28.675 L209.101,28.675 C208.987,28.053 208.532,27.656 207.849,27.656 ZM203.754,30.656 C203.981,30.656 204.323,30.542 204.664,30.429 L204.834,31.221 C204.607,31.391 204.095,31.561 203.583,31.561 C202.673,31.561 201.990,30.995 201.990,29.807 L201.990,27.939 L201.194,27.939 L201.194,27.091 L201.990,27.091 L201.990,26.072 L202.900,25.846 L202.900,27.034 L204.721,27.034 L204.721,27.883 L202.900,27.883 L202.900,29.694 C202.900,30.316 203.185,30.656 203.754,30.656 ZM203.526,38.351 L199.943,38.351 C199.999,39.143 200.568,39.596 201.308,39.596 C201.877,39.596 202.275,39.370 202.502,38.917 L203.412,38.917 C203.071,39.936 202.218,40.388 201.308,40.388 C199.999,40.388 199.032,39.426 199.032,38.125 C199.032,36.767 199.999,35.805 201.308,35.805 C202.730,35.805 203.640,36.880 203.526,38.351 ZM199.999,37.616 L202.559,37.616 C202.445,36.993 201.990,36.597 201.308,36.597 C200.625,36.597 200.170,36.993 199.999,37.616 ZM199.317,28.788 C199.317,28.109 199.032,27.770 198.350,27.770 C197.553,27.770 197.155,28.279 197.155,29.128 L197.155,31.391 L196.245,31.391 L196.245,26.977 L197.155,26.977 L197.155,27.713 C197.497,27.204 197.952,26.864 198.634,26.864 C199.601,26.864 200.227,27.543 200.227,28.618 L200.227,31.391 L199.317,31.391 L199.317,28.788 ZM193.856,25.733 L194.766,25.733 L194.766,31.335 L193.856,31.335 L193.856,25.733 ZM193.685,45.255 C193.685,44.123 194.652,43.557 195.733,43.557 C197.155,43.557 197.781,44.236 197.952,45.142 L197.042,45.142 C196.871,44.632 196.473,44.349 195.733,44.349 C194.994,44.349 194.596,44.689 194.596,45.198 C194.596,45.594 194.937,45.707 195.847,45.934 C197.269,46.217 198.065,46.556 198.009,47.631 C198.009,48.876 196.928,49.329 195.904,49.329 C194.368,49.329 193.685,48.480 193.515,47.518 L194.425,47.518 C194.596,48.141 194.994,48.480 195.904,48.480 C196.643,48.480 197.098,48.197 197.098,47.688 C197.098,47.179 196.643,47.066 195.619,46.839 C194.539,46.613 193.685,46.273 193.685,45.255 ZM177.417,44.859 L180.375,44.859 L180.375,49.159 L168.031,49.159 L168.031,44.859 L170.876,44.859 L170.876,31.108 L163.879,31.108 L163.879,25.733 L184.414,25.733 L184.414,31.108 L177.417,31.108 L177.417,44.859 ZM142.662,25.733 L160.921,25.733 L160.921,31.108 L148.976,31.108 L148.976,35.239 L157.281,35.239 L157.281,40.445 L148.976,40.445 L148.976,43.840 L161.661,43.840 L161.661,49.159 L142.662,49.159 L142.662,25.733 ZM120.591,25.789 C120.591,25.733 138.851,25.733 138.851,25.733 L138.851,31.108 L126.905,31.108 L126.905,35.239 L135.210,35.239 L135.210,40.445 L126.905,40.445 L126.905,43.840 L139.590,43.840 L139.590,49.216 L120.591,49.216 L120.591,25.789 ZM110.011,49.103 L109.215,48.028 L106.257,43.953 L102.787,43.953 L102.787,49.103 L96.189,49.103 L96.189,25.676 L107.224,25.676 C109.044,25.676 110.580,25.902 111.775,26.412 C113.026,26.921 114.050,27.543 114.789,28.392 C115.529,29.184 116.098,30.146 116.439,31.221 C116.780,32.297 116.951,33.428 116.951,34.560 C116.951,36.484 116.610,38.182 115.870,39.540 C115.131,40.898 114.050,41.973 112.571,42.708 L114.221,44.746 L117.008,44.802 L117.008,49.103 L115.358,49.103 L110.011,49.103 ZM110.011,33.598 C109.841,33.089 109.613,32.693 109.329,32.297 C108.987,31.900 108.589,31.618 108.020,31.391 C107.508,31.165 106.883,31.052 106.143,31.052 L102.730,31.052 L102.730,38.861 L105.631,38.861 C106.485,38.861 107.224,38.747 107.793,38.521 C108.419,38.295 108.874,38.012 109.215,37.672 C109.613,37.333 109.841,36.937 110.011,36.484 C110.182,36.031 110.239,35.579 110.239,35.069 C110.239,34.560 110.125,34.051 110.011,33.598 ZM86.803,44.859 L89.818,44.859 L89.818,49.159 L77.474,49.159 L77.474,44.859 L80.319,44.859 L80.319,31.108 L73.265,31.108 L73.265,25.733 L93.800,25.733 L93.800,31.108 L86.803,31.108 L86.803,44.859 ZM41.752,45.255 L32.651,45.255 L30.945,48.933 L24.119,48.933 L33.504,30.033 L31.570,30.033 L31.570,25.733 L35.723,25.733 L38.794,25.733 L50.341,48.933 L43.516,48.933 L41.752,45.255 ZM37.259,35.013 L35.040,40.105 L39.534,40.105 L37.259,35.013 ZM16.269,49.046 C15.074,49.329 13.823,49.442 12.515,49.442 C10.808,49.442 9.159,49.103 7.623,48.480 C6.087,47.858 4.779,47.009 3.641,45.934 C2.503,44.859 1.593,43.557 0.967,42.143 C0.285,40.671 0.000,39.143 0.000,37.446 C0.000,35.805 0.342,34.220 0.967,32.749 C1.650,31.278 2.503,30.033 3.641,28.958 C4.779,27.883 6.144,27.034 7.623,26.412 C9.159,25.789 10.751,25.450 12.515,25.450 C13.994,25.450 15.302,25.619 16.553,25.959 C17.805,26.298 18.885,26.751 19.909,27.374 C20.592,27.770 21.275,28.279 21.900,28.845 L21.218,34.277 L16.610,33.711 L16.781,32.297 C15.586,31.618 14.164,31.221 12.515,31.221 C11.718,31.221 10.922,31.391 10.182,31.674 C9.443,32.014 8.817,32.410 8.305,32.976 C7.736,33.541 7.338,34.220 6.997,34.956 C6.713,35.692 6.542,36.540 6.542,37.389 C6.542,38.295 6.713,39.200 6.997,39.992 C7.281,40.784 7.736,41.463 8.305,42.086 C8.874,42.652 9.500,43.104 10.182,43.444 C10.922,43.784 11.661,43.953 12.515,43.953 C13.197,43.953 13.880,43.840 14.506,43.670 C15.131,43.501 15.700,43.218 16.269,42.878 L16.269,42.199 L12.060,42.199 L12.060,37.050 L22.753,37.050 L22.753,45.990 C21.843,46.669 20.876,47.292 19.796,47.858 C18.715,48.367 17.520,48.763 16.269,49.046 ZM197.269,40.275 L195.676,38.182 L194.823,38.182 L194.823,40.275 L193.913,40.275 L193.913,34.673 L196.245,34.673 C197.497,34.673 198.179,35.352 198.179,36.427 C198.179,37.333 197.667,37.955 196.757,38.125 L198.407,40.275 L197.269,40.275 ZM197.155,36.484 C197.155,35.975 196.814,35.579 196.075,35.579 L194.766,35.579 L194.766,37.389 L196.075,37.389 C196.814,37.389 197.155,36.993 197.155,36.484 ZM200.113,45.538 C200.454,45.028 200.910,44.746 201.592,44.746 C202.616,44.746 203.185,45.368 203.185,46.443 L203.185,49.216 L202.275,49.216 L202.275,46.613 C202.275,45.934 201.990,45.594 201.308,45.594 C200.511,45.594 200.113,46.104 200.113,46.952 L200.113,49.216 L199.203,49.216 L199.203,43.048 L200.113,43.048 L200.113,45.538 ZM208.532,38.974 C208.532,39.936 207.679,40.388 206.655,40.388 C205.460,40.388 204.664,39.823 204.436,38.861 L205.346,38.861 C205.460,39.370 205.858,39.596 206.598,39.596 C207.224,39.596 207.565,39.426 207.565,39.087 C207.565,38.691 207.167,38.634 206.427,38.464 C205.176,38.125 204.664,37.899 204.664,37.163 C204.664,36.258 205.460,35.748 206.541,35.748 C207.679,35.748 208.304,36.314 208.475,37.106 L207.565,37.106 C207.451,36.767 207.110,36.597 206.541,36.597 C205.972,36.597 205.631,36.823 205.631,37.106 C205.631,37.333 205.858,37.446 206.655,37.616 C207.849,37.899 208.532,38.125 208.532,38.974 ZM206.655,44.746 C207.906,44.746 208.930,45.707 208.930,47.009 C208.930,48.310 207.963,49.272 206.655,49.272 C205.403,49.272 204.379,48.310 204.379,47.009 C204.379,45.707 205.403,44.746 206.655,44.746 ZM205.289,47.009 C205.289,47.858 205.915,48.424 206.655,48.424 C207.394,48.424 208.020,47.858 208.020,47.009 C208.020,46.160 207.394,45.594 206.655,45.594 C205.858,45.594 205.289,46.160 205.289,47.009 ZM210.864,46.160 L211.376,48.197 L211.888,46.160 L212.286,44.802 L213.367,44.802 L213.765,46.160 L214.277,48.197 L214.789,46.160 L215.187,44.802 L216.097,44.802 L214.846,49.216 L213.765,49.216 L213.367,47.745 L212.912,45.764 L212.741,45.764 L212.286,47.745 L211.888,49.216 L210.807,49.216 L209.556,44.802 L210.466,44.802 L210.864,46.160 ZM215.813,40.332 C214.618,40.332 213.765,39.426 213.765,38.068 C213.765,36.767 214.675,35.805 215.813,35.805 C216.495,35.805 217.007,36.144 217.349,36.654 L217.349,35.918 L218.259,35.805 L218.259,40.219 L217.349,40.219 L217.349,39.483 C217.007,39.992 216.495,40.332 215.813,40.332 ZM217.349,38.125 C217.349,37.276 216.723,36.710 215.983,36.710 C215.244,36.710 214.675,37.276 214.675,38.125 C214.675,38.974 215.244,39.540 215.983,39.540 C216.780,39.540 217.349,38.917 217.349,38.125 Z" class="cls-1"/>
    <path d="M59.137,34.524 C60.507,34.287 61.842,34.152 63.245,34.152 C68.154,34.152 70.793,37.667 70.793,42.298 C70.793,47.808 66.050,50.005 61.342,50.005 C57.968,50.005 55.363,49.768 52.324,48.281 L52.325,48.281 L54.663,43.346 C56.867,44.225 59.238,44.563 61.576,44.563 C62.778,44.563 63.713,43.954 64.281,42.906 C64.415,42.602 64.481,42.332 64.481,42.061 C64.514,41.487 64.448,40.980 64.214,40.540 C63.679,39.323 62.444,38.986 61.242,38.986 C60.741,38.986 60.173,39.019 59.572,39.053 C58.937,39.121 58.370,39.188 57.869,39.222 C57.267,39.324 56.666,39.391 56.032,39.459 L53.460,38.005 L53.794,25.803 L70.080,25.803 L70.080,31.245 L59.238,31.245 L59.137,34.524 Z" class="cls-2"/>
    <path d="M249.089,6.335 L249.089,0.167 L249.999,0.167 L249.999,6.335 L249.089,6.335 ZM246.871,5.542 C246.529,6.052 246.017,6.391 245.335,6.391 C244.140,6.391 243.287,5.486 243.287,4.128 C243.287,2.826 244.197,1.864 245.335,1.864 C246.017,1.864 246.529,2.204 246.871,2.713 L246.871,1.977 L247.781,1.864 L247.781,6.278 L246.871,6.278 L246.871,5.542 ZM245.505,2.770 C244.766,2.770 244.197,3.336 244.197,4.184 C244.197,5.033 244.766,5.599 245.505,5.599 C246.245,5.599 246.871,5.033 246.871,4.184 C246.871,3.336 246.245,2.770 245.505,2.770 ZM241.581,14.540 C241.808,14.540 242.149,14.426 242.491,14.313 L242.661,15.105 C242.434,15.275 241.922,15.445 241.410,15.445 C240.500,15.445 239.817,14.879 239.817,13.691 L239.817,11.823 L239.021,11.823 L239.021,10.975 L239.817,10.975 L239.817,9.956 L240.727,9.730 L240.727,10.918 L242.548,10.918 L242.548,11.767 L240.727,11.767 L240.727,13.578 C240.727,14.200 241.012,14.540 241.581,14.540 ZM241.239,3.788 C241.239,3.109 240.955,2.770 240.272,2.770 C239.476,2.770 239.078,3.279 239.078,4.128 L239.078,6.391 L238.168,6.391 L238.168,1.977 L239.078,1.977 L239.078,2.713 C239.419,2.204 239.874,1.864 240.557,1.864 C241.524,1.864 242.092,2.543 242.149,3.618 L242.149,6.391 L241.239,6.391 L241.239,3.788 ZM237.144,12.729 C237.144,12.050 236.859,11.710 236.177,11.710 C235.380,11.710 234.982,12.220 234.982,13.068 L234.982,15.332 L234.072,15.332 L234.072,10.918 L234.982,10.918 L234.982,11.654 C235.323,11.144 235.779,10.805 236.461,10.805 C237.485,10.805 238.054,11.427 238.054,12.559 L238.054,15.332 L237.144,15.332 L237.144,12.729 ZM234.698,6.391 C233.446,6.391 232.422,5.429 232.422,4.128 C232.422,2.826 233.446,1.864 234.698,1.864 C235.949,1.864 236.973,2.826 236.973,4.128 C236.973,5.429 236.006,6.391 234.698,6.391 ZM236.063,4.128 C236.063,3.279 235.437,2.713 234.698,2.713 C233.901,2.713 233.276,3.336 233.333,4.128 C233.333,4.977 233.958,5.542 234.698,5.542 C235.437,5.542 236.063,4.977 236.063,4.128 ZM232.764,10.805 L232.764,15.219 L231.854,15.219 L231.854,14.483 C231.512,14.992 231.000,15.332 230.318,15.332 C229.123,15.332 228.270,14.426 228.270,13.068 C228.270,11.767 229.180,10.805 230.318,10.805 C231.000,10.805 231.512,11.144 231.854,11.654 L231.854,10.918 L232.764,10.805 ZM230.488,11.710 C229.749,11.710 229.180,12.276 229.180,13.125 C229.180,13.974 229.749,14.540 230.488,14.540 C231.285,14.540 231.854,13.917 231.854,13.125 C231.854,12.276 231.228,11.710 230.488,11.710 ZM231.228,6.335 L230.318,6.335 L230.318,1.921 L231.228,1.921 L231.228,6.335 ZM230.716,1.129 C230.432,1.129 230.147,0.902 230.147,0.563 C230.147,0.223 230.375,-0.003 230.716,-0.003 C231.057,-0.003 231.342,0.223 231.285,0.563 C231.285,0.902 231.057,1.129 230.716,1.129 ZM228.099,5.656 C228.327,5.656 228.668,5.542 229.010,5.429 L229.180,6.221 C228.953,6.391 228.441,6.561 227.929,6.561 C227.019,6.561 226.336,5.995 226.336,4.807 L226.336,2.939 L225.540,2.939 L225.540,2.091 L226.336,2.091 L226.336,1.072 L227.246,0.846 L227.246,2.034 L229.066,2.034 L229.066,2.883 L227.246,2.883 L227.246,4.694 C227.246,5.316 227.531,5.656 228.099,5.656 ZM225.710,11.767 C225.995,11.144 226.507,10.805 227.189,10.805 C227.303,10.805 227.417,10.805 227.474,10.861 L227.474,11.767 C227.360,11.767 227.303,11.767 227.189,11.767 C226.336,11.767 225.710,12.220 225.710,13.295 L225.710,15.332 L224.800,15.332 L224.800,10.918 L225.710,10.918 L225.710,11.767 ZM223.606,5.542 C223.264,6.052 222.752,6.391 222.070,6.391 C220.875,6.391 220.022,5.486 220.022,4.128 C220.022,2.826 220.932,1.864 222.070,1.864 C222.752,1.864 223.264,2.204 223.606,2.713 L223.606,1.977 L224.516,1.864 L224.516,6.278 L223.606,6.278 L223.606,5.542 ZM222.240,2.770 C221.501,2.770 220.932,3.336 220.932,4.184 C220.932,5.033 221.501,5.599 222.240,5.599 C222.980,5.599 223.606,5.033 223.606,4.184 C223.606,3.336 222.980,2.770 222.240,2.770 ZM220.420,13.521 C220.420,14.200 220.705,14.540 221.387,14.540 C222.184,14.540 222.582,14.030 222.582,13.182 L222.582,10.918 L223.435,10.861 L223.435,15.275 L222.525,15.275 L222.525,14.540 C222.184,15.049 221.729,15.388 221.046,15.388 C220.079,15.388 219.510,14.766 219.510,13.691 L219.510,10.918 L220.420,10.918 L220.420,13.521 ZM217.917,3.788 C217.917,3.109 217.633,2.770 216.950,2.770 C216.154,2.770 215.756,3.279 215.756,4.128 L215.756,6.391 L214.846,6.391 L214.846,1.977 L215.756,1.977 L215.756,2.713 C216.097,2.204 216.552,1.864 217.235,1.864 C218.259,1.864 218.828,2.543 218.828,3.618 L218.828,6.391 L217.917,6.391 L217.917,3.788 ZM212.115,4.354 L212.115,6.391 L211.205,6.391 L211.205,1.977 L212.115,1.977 L212.115,2.826 C212.400,2.204 212.912,1.864 213.594,1.864 C213.708,1.864 213.822,1.864 213.879,1.921 L213.879,2.826 C213.765,2.826 213.708,2.826 213.594,2.826 C212.741,2.826 212.115,3.279 212.115,4.354 ZM212.912,11.767 L211.092,11.767 L211.092,13.578 C211.092,14.200 211.376,14.540 211.945,14.540 C212.172,14.540 212.514,14.426 212.855,14.313 L213.026,15.105 C212.798,15.275 212.286,15.445 211.774,15.445 C210.864,15.445 210.181,14.879 210.181,13.691 L210.181,11.823 L209.385,11.823 L209.385,10.975 L210.181,10.975 L210.181,9.956 L211.092,9.730 L211.092,10.918 L212.912,10.918 L212.912,11.767 ZM206.484,4.411 C206.541,5.203 207.110,5.656 207.849,5.656 C208.418,5.656 208.816,5.429 209.044,4.977 L209.954,4.977 C209.613,5.995 208.759,6.448 207.849,6.448 C206.541,6.448 205.574,5.486 205.574,4.184 C205.574,2.826 206.541,1.864 207.849,1.864 C209.271,1.864 210.181,2.996 210.068,4.411 L206.484,4.411 ZM207.849,2.656 C207.167,2.656 206.712,3.109 206.541,3.675 L209.101,3.675 C208.987,3.053 208.532,2.656 207.849,2.656 ZM203.754,5.656 C203.981,5.656 204.323,5.542 204.664,5.429 L204.834,6.221 C204.607,6.391 204.095,6.561 203.583,6.561 C202.673,6.561 201.990,5.995 201.990,4.807 L201.990,2.939 L201.194,2.939 L201.194,2.091 L201.990,2.091 L201.990,1.072 L202.900,0.846 L202.900,2.034 L204.721,2.034 L204.721,2.883 L202.900,2.883 L202.900,4.694 C202.900,5.316 203.185,5.656 203.754,5.656 ZM203.526,13.351 L199.943,13.351 C199.999,14.143 200.568,14.596 201.308,14.596 C201.877,14.596 202.275,14.370 202.502,13.917 L203.412,13.917 C203.071,14.936 202.218,15.388 201.308,15.388 C199.999,15.388 199.032,14.426 199.032,13.125 C199.032,11.767 199.999,10.805 201.308,10.805 C202.730,10.805 203.640,11.880 203.526,13.351 ZM199.999,12.616 L202.559,12.616 C202.445,11.993 201.990,11.597 201.308,11.597 C200.625,11.597 200.170,11.993 199.999,12.616 ZM199.317,3.788 C199.317,3.109 199.032,2.770 198.350,2.770 C197.553,2.770 197.155,3.279 197.155,4.128 L197.155,6.391 L196.245,6.391 L196.245,1.977 L197.155,1.977 L197.155,2.713 C197.497,2.204 197.952,1.864 198.634,1.864 C199.601,1.864 200.227,2.543 200.227,3.618 L200.227,6.391 L199.317,6.391 L199.317,3.788 ZM193.856,0.733 L194.766,0.733 L194.766,6.335 L193.856,6.335 L193.856,0.733 ZM193.685,20.255 C193.685,19.123 194.652,18.557 195.733,18.557 C197.155,18.557 197.781,19.236 197.952,20.142 L197.042,20.142 C196.871,19.632 196.473,19.349 195.733,19.349 C194.994,19.349 194.596,19.689 194.596,20.198 C194.596,20.594 194.937,20.707 195.847,20.934 C197.269,21.217 198.065,21.556 198.009,22.631 C198.009,23.876 196.928,24.329 195.904,24.329 C194.368,24.329 193.685,23.480 193.515,22.518 L194.425,22.518 C194.596,23.141 194.994,23.480 195.904,23.480 C196.643,23.480 197.098,23.197 197.098,22.688 C197.098,22.179 196.643,22.066 195.619,21.839 C194.539,21.613 193.685,21.273 193.685,20.255 ZM177.417,19.859 L180.375,19.859 L180.375,24.159 L168.031,24.159 L168.031,19.859 L170.876,19.859 L170.876,6.108 L163.879,6.108 L163.879,0.733 L184.414,0.733 L184.414,6.108 L177.417,6.108 L177.417,19.859 ZM142.662,0.733 L160.921,0.733 L160.921,6.108 L148.976,6.108 L148.976,10.239 L157.281,10.239 L157.281,15.445 L148.976,15.445 L148.976,18.840 L161.661,18.840 L161.661,24.159 L142.662,24.159 L142.662,0.733 ZM120.591,0.789 C120.591,0.733 138.851,0.733 138.851,0.733 L138.851,6.108 L126.905,6.108 L126.905,10.239 L135.210,10.239 L135.210,15.445 L126.905,15.445 L126.905,18.840 L139.590,18.840 L139.590,24.216 L120.591,24.216 L120.591,0.789 ZM110.011,24.103 L109.215,23.028 L106.257,18.953 L102.787,18.953 L102.787,24.103 L96.189,24.103 L96.189,0.676 L107.224,0.676 C109.044,0.676 110.580,0.902 111.775,1.412 C113.026,1.921 114.050,2.543 114.789,3.392 C115.529,4.184 116.098,5.146 116.439,6.221 C116.780,7.297 116.951,8.428 116.951,9.560 C116.951,11.484 116.610,13.182 115.870,14.540 C115.131,15.898 114.050,16.973 112.571,17.708 L114.221,19.746 L117.008,19.802 L117.008,24.103 L115.358,24.103 L110.011,24.103 ZM110.011,8.598 C109.841,8.089 109.613,7.693 109.329,7.297 C108.987,6.900 108.589,6.618 108.020,6.391 C107.508,6.165 106.883,6.052 106.143,6.052 L102.730,6.052 L102.730,13.861 L105.631,13.861 C106.485,13.861 107.224,13.747 107.793,13.521 C108.419,13.295 108.874,13.012 109.215,12.672 C109.613,12.333 109.841,11.937 110.011,11.484 C110.182,11.031 110.239,10.579 110.239,10.069 C110.239,9.560 110.125,9.051 110.011,8.598 ZM86.803,19.859 L89.818,19.859 L89.818,24.159 L77.474,24.159 L77.474,19.859 L80.319,19.859 L80.319,6.108 L73.265,6.108 L73.265,0.733 L93.800,0.733 L93.800,6.108 L86.803,6.108 L86.803,19.859 ZM69.113,22.518 C68.316,23.197 67.292,23.650 66.155,23.989 C65.017,24.329 63.709,24.499 62.287,24.499 C61.263,24.499 60.296,24.499 59.443,24.442 C58.589,24.386 57.793,24.272 56.997,24.103 C56.200,23.933 55.461,23.707 54.665,23.424 C53.868,23.141 53.015,22.745 52.048,22.292 L52.048,22.122 L52.787,16.181 L57.452,16.746 L57.224,18.501 C57.622,18.614 58.021,18.727 58.476,18.784 C59.784,19.010 61.092,19.123 62.457,19.123 C64.221,19.123 65.131,18.557 65.131,17.482 C65.131,17.256 65.074,17.029 64.960,16.860 C64.847,16.633 64.619,16.464 64.335,16.294 C64.050,16.124 63.652,15.954 63.140,15.784 C62.628,15.615 62.002,15.445 61.206,15.275 C59.955,14.992 58.817,14.653 57.736,14.313 C56.655,13.974 55.745,13.521 54.949,13.012 C54.153,12.446 53.527,11.767 53.072,10.975 C52.617,10.182 52.389,9.164 52.389,7.919 C52.389,6.844 52.617,5.825 53.015,4.920 C53.413,4.015 54.039,3.222 54.835,2.543 C55.632,1.864 56.599,1.355 57.679,1.015 C58.817,0.676 60.068,0.450 61.434,0.450 C63.424,0.450 65.188,0.676 66.724,1.072 C68.259,1.468 69.625,1.921 70.876,2.374 L68.259,7.353 C67.748,7.127 67.179,6.957 66.553,6.787 C65.927,6.618 65.358,6.448 64.733,6.278 C64.107,6.165 63.538,6.052 62.969,5.938 C62.401,5.825 61.832,5.825 61.263,5.825 C60.467,5.825 59.898,5.995 59.500,6.278 C59.101,6.561 58.931,6.957 58.931,7.410 C58.931,7.693 58.988,7.919 59.101,8.089 C59.215,8.315 59.443,8.485 59.727,8.655 C60.012,8.824 60.467,8.994 60.979,9.164 C61.490,9.334 62.173,9.503 62.969,9.673 C64.278,9.956 65.529,10.296 66.610,10.692 C67.691,11.088 68.601,11.541 69.340,12.106 C70.080,12.672 70.649,13.351 71.104,14.143 C71.502,14.936 71.729,15.898 71.729,16.973 C71.729,18.161 71.502,19.236 71.047,20.142 C70.592,21.047 69.966,21.839 69.113,22.518 ZM41.752,20.255 L32.651,20.255 L30.945,23.933 L24.119,23.933 L33.504,5.033 L31.570,5.033 L31.570,0.733 L35.723,0.733 L38.794,0.733 L50.341,23.933 L43.516,23.933 L41.752,20.255 ZM37.259,10.013 L35.040,15.105 L39.534,15.105 L37.259,10.013 ZM16.269,24.046 C15.074,24.329 13.823,24.442 12.515,24.442 C10.808,24.442 9.159,24.103 7.623,23.480 C6.087,22.858 4.779,22.009 3.641,20.934 C2.503,19.859 1.593,18.557 0.967,17.143 C0.285,15.671 0.000,14.143 0.000,12.446 C0.000,10.805 0.342,9.220 0.967,7.749 C1.650,6.278 2.503,5.033 3.641,3.958 C4.779,2.883 6.144,2.034 7.623,1.412 C9.159,0.789 10.751,0.450 12.515,0.450 C13.994,0.450 15.302,0.619 16.553,0.959 C17.805,1.298 18.885,1.751 19.909,2.374 C20.592,2.770 21.275,3.279 21.900,3.845 L21.218,9.277 L16.610,8.711 L16.781,7.297 C15.586,6.618 14.164,6.221 12.515,6.221 C11.718,6.221 10.922,6.391 10.182,6.674 C9.443,7.014 8.817,7.410 8.305,7.976 C7.736,8.541 7.338,9.220 6.997,9.956 C6.713,10.692 6.542,11.540 6.542,12.389 C6.542,13.295 6.713,14.200 6.997,14.992 C7.281,15.784 7.736,16.463 8.305,17.086 C8.874,17.652 9.500,18.104 10.182,18.444 C10.922,18.784 11.661,18.953 12.515,18.953 C13.197,18.953 13.880,18.840 14.506,18.670 C15.131,18.501 15.700,18.218 16.269,17.878 L16.269,17.199 L12.060,17.199 L12.060,12.050 L22.753,12.050 L22.753,20.990 C21.843,21.669 20.876,22.292 19.796,22.858 C18.715,23.367 17.520,23.763 16.269,24.046 ZM197.269,15.275 L195.676,13.182 L194.823,13.182 L194.823,15.275 L193.913,15.275 L193.913,9.673 L196.245,9.673 C197.497,9.673 198.179,10.352 198.179,11.427 C198.179,12.333 197.667,12.955 196.757,13.125 L198.407,15.275 L197.269,15.275 ZM197.155,11.484 C197.155,10.975 196.814,10.579 196.075,10.579 L194.766,10.579 L194.766,12.389 L196.075,12.389 C196.814,12.389 197.155,11.993 197.155,11.484 ZM200.113,20.538 C200.454,20.028 200.910,19.746 201.592,19.746 C202.616,19.746 203.185,20.368 203.185,21.443 L203.185,24.216 L202.275,24.216 L202.275,21.613 C202.275,20.934 201.990,20.594 201.308,20.594 C200.511,20.594 200.113,21.104 200.113,21.952 L200.113,24.216 L199.203,24.216 L199.203,18.048 L200.113,18.048 L200.113,20.538 ZM208.532,13.974 C208.532,14.936 207.679,15.388 206.655,15.388 C205.460,15.388 204.664,14.823 204.436,13.861 L205.346,13.861 C205.460,14.370 205.858,14.596 206.598,14.596 C207.224,14.596 207.565,14.426 207.565,14.087 C207.565,13.691 207.167,13.634 206.427,13.464 C205.176,13.125 204.664,12.899 204.664,12.163 C204.664,11.258 205.460,10.748 206.541,10.748 C207.679,10.748 208.304,11.314 208.475,12.106 L207.565,12.106 C207.451,11.767 207.110,11.597 206.541,11.597 C205.972,11.597 205.631,11.823 205.631,12.106 C205.631,12.333 205.858,12.446 206.655,12.616 C207.849,12.899 208.532,13.125 208.532,13.974 ZM206.655,19.746 C207.906,19.746 208.930,20.707 208.930,22.009 C208.930,23.310 207.963,24.272 206.655,24.272 C205.403,24.272 204.379,23.310 204.379,22.009 C204.379,20.707 205.403,19.746 206.655,19.746 ZM205.289,22.009 C205.289,22.858 205.915,23.424 206.655,23.424 C207.394,23.424 208.020,22.858 208.020,22.009 C208.020,21.160 207.394,20.594 206.655,20.594 C205.858,20.594 205.289,21.160 205.289,22.009 ZM210.864,21.160 L211.376,23.197 L211.888,21.160 L212.286,19.802 L213.367,19.802 L213.765,21.160 L214.277,23.197 L214.789,21.160 L215.187,19.802 L216.097,19.802 L214.846,24.216 L213.765,24.216 L213.367,22.745 L212.912,20.764 L212.741,20.764 L212.286,22.745 L211.888,24.216 L210.807,24.216 L209.556,19.802 L210.466,19.802 L210.864,21.160 ZM215.813,15.332 C214.618,15.332 213.765,14.426 213.765,13.068 C213.765,11.767 214.675,10.805 215.813,10.805 C216.495,10.805 217.007,11.144 217.349,11.654 L217.349,10.918 L218.259,10.805 L218.259,15.219 L217.349,15.219 L217.349,14.483 C217.007,14.992 216.495,15.332 215.813,15.332 ZM217.349,13.125 C217.349,12.276 216.723,11.710 215.983,11.710 C215.244,11.710 214.675,12.276 214.675,13.125 C214.675,13.974 215.244,14.540 215.983,14.540 C216.780,14.540 217.349,13.917 217.349,13.125 Z" class="cls-1"/>
  </g>
</svg>
