<?xml version="1.0" encoding="utf-8"?>
<!-- Generator: Adobe Illustrator 19.1.0, SVG Export Plug-In . SVG Version: 6.00 Build 0)  -->
<svg version="1.1" id="Слой_1" xmlns="http://www.w3.org/2000/svg" xmlns:xlink="http://www.w3.org/1999/xlink" x="0px" y="0px"
	 viewBox="-205 395.9 184.4 24.1" style="enable-background:new -205 395.9 184.4 24.1;" xml:space="preserve">
<style type="text/css">
	.st0{fill:#FFFFFF;}
</style>
<g>
	<path class="st0" d="M-27.5,415.4h3v4.3h-12.4v-4.3h2.8v-13.8h-7v-5.4h20.6v5.4h-7V415.4z M-62.2,396.2h18.3v5.4h-12v4.1h8.3v5.2
		h-8.3v3.4h12.7v5.3h-19V396.2z M-66,396.2v5.4h-11.9v4.1h8.3v5.2h-8.3v3.4h12.7v5.4h-19v-23.5H-66z M-94.9,419.6l-0.8-1.1l-3-4.1
		h-3.5v5.1h-6.6v-23.4h11c1.8,0,3.4,0.2,4.6,0.7c1.3,0.5,2.3,1.1,3,2c0.7,0.8,1.3,1.8,1.7,2.8c0.3,1.1,0.5,2.2,0.5,3.3
		c0,1.9-0.3,3.6-1.1,5c-0.7,1.4-1.8,2.4-3.3,3.2l1.7,2l2.8,0.1v4.3h-1.7h-5.3V419.6z M-94.9,404.1c-0.2-0.5-0.4-0.9-0.7-1.3
		c-0.3-0.4-0.7-0.7-1.3-0.9c-0.5-0.2-1.1-0.3-1.9-0.3h-3.4v7.8h2.9c0.9,0,1.6-0.1,2.2-0.3c0.6-0.2,1.1-0.5,1.4-0.8
		c0.4-0.3,0.6-0.7,0.8-1.2c0.2-0.5,0.2-0.9,0.2-1.4C-94.7,405.1-94.8,404.6-94.9,404.1z M-118.1,415.4h3v4.3h-12.3v-4.3h2.8v-13.8
		h-7.1v-5.4h20.5v5.4h-7L-118.1,415.4L-118.1,415.4z M-135.8,418c-0.8,0.7-1.8,1.1-3,1.5c-1.1,0.3-2.4,0.5-3.9,0.5c-1,0-2,0-2.8-0.1
		c-0.9-0.1-1.7-0.2-2.4-0.3c-0.8-0.2-1.5-0.4-2.3-0.7c-0.8-0.3-1.7-0.7-2.6-1.1v-0.2l0.7-5.9l4.7,0.6l-0.2,1.8
		c0.4,0.1,0.8,0.2,1.3,0.3c1.3,0.2,2.6,0.3,4,0.3c1.8,0,2.7-0.6,2.7-1.6c0-0.2-0.1-0.5-0.2-0.6c-0.1-0.2-0.3-0.4-0.6-0.6
		c-0.3-0.2-0.7-0.3-1.2-0.5s-1.1-0.3-1.9-0.5c-1.3-0.3-2.4-0.6-3.5-1c-1.1-0.3-2-0.8-2.8-1.3c-0.8-0.6-1.4-1.2-1.9-2
		s-0.7-1.8-0.7-3.1c0-1.1,0.2-2.1,0.6-3s1-1.7,1.8-2.4c0.8-0.7,1.8-1.2,2.8-1.5c1.1-0.3,2.4-0.6,3.8-0.6c2,0,3.8,0.2,5.3,0.6
		s2.9,0.8,4.2,1.3l-2.6,5c-0.5-0.2-1.1-0.4-1.7-0.6c-0.6-0.2-1.2-0.3-1.8-0.5c-0.6-0.1-1.2-0.2-1.8-0.3c-0.6-0.1-1.1-0.1-1.7-0.1
		c-0.8,0-1.4,0.2-1.8,0.5c-0.4,0.3-0.6,0.7-0.6,1.1c0,0.3,0.1,0.5,0.2,0.7s0.3,0.4,0.6,0.6c0.3,0.2,0.7,0.3,1.3,0.5
		c0.5,0.2,1.2,0.3,2,0.5c1.3,0.3,2.6,0.6,3.6,1c1.1,0.4,2,0.8,2.7,1.4s1.3,1.2,1.8,2c0.4,0.8,0.6,1.8,0.6,2.8c0,1.2-0.2,2.3-0.7,3.2
		C-134.3,416.5-134.9,417.3-135.8,418z M-163.1,415.8h-9.1l-1.7,3.7h-6.8l9.4-18.9h-1.9v-4.3h4.2h3.1l11.5,23.2h-6.8L-163.1,415.8z
		 M-167.6,405.5l-2.2,5.1h4.5L-167.6,405.5z M-188.6,419.5c-1.2,0.3-2.4,0.4-3.8,0.4c-1.7,0-3.4-0.3-4.9-1c-1.5-0.6-2.8-1.5-4-2.5
		c-1.1-1.1-2-2.4-2.7-3.8c-0.7-1.5-1-3-1-4.7c0-1.6,0.3-3.2,1-4.7s1.5-2.7,2.7-3.8c1.1-1.1,2.5-1.9,4-2.5s3.1-1,4.9-1
		c1.5,0,2.8,0.2,4,0.5c1.3,0.3,2.3,0.8,3.4,1.4c0.7,0.4,1.4,0.9,2,1.5l-0.7,5.4l-4.6-0.6l0.2-1.4c-1.2-0.7-2.6-1.1-4.3-1.1
		c-0.8,0-1.6,0.2-2.3,0.5s-1.4,0.7-1.9,1.3c-0.6,0.6-1,1.2-1.3,2c-0.3,0.7-0.5,1.6-0.5,2.4c0,0.9,0.2,1.8,0.5,2.6
		c0.3,0.8,0.7,1.5,1.3,2.1s1.2,1,1.9,1.4c0.7,0.3,1.5,0.5,2.3,0.5c0.7,0,1.4-0.1,2-0.3c0.6-0.2,1.2-0.5,1.8-0.8v-0.7h-4.2v-5.1h10.7
		v8.9c-0.9,0.7-1.9,1.3-3,1.9C-186.2,418.9-187.4,419.3-188.6,419.5z"/>
</g>
</svg>
