<?xml version="1.0" encoding="utf-8"?>
<!-- Generator: Adobe Illustrator 17.1.0, SVG Export Plug-In . SVG Version: 6.00 Build 0)  -->
<!DOCTYPE svg PUBLIC "-//W3C//DTD SVG 1.1//EN" "http://www.w3.org/Graphics/SVG/1.1/DTD/svg11.dtd">
<svg version="1.1" id="Слой_1" xmlns="http://www.w3.org/2000/svg" xmlns:xlink="http://www.w3.org/1999/xlink" x="0px" y="0px"
	 viewBox="0 0 70 30.8" enable-background="new 0 0 70 30.8" xml:space="preserve">
<g id="Layer_x0020_1">
	<path fill="#FEFEFE" d="M6.4,0.6H3.9v6.2h0.7V4.6h1.7c1.4,0,2.1-0.9,2.1-2S7.8,0.6,6.4,0.6L6.4,0.6z M6.4,3.9H4.7V1.3h1.7
		c1,0,1.4,0.6,1.4,1.3C7.8,3.3,7.3,3.9,6.4,3.9L6.4,3.9z M12.3,1.8c-0.9,0-1.4,0.5-1.7,1.2V1.9H9.8v4.8h0.7V4.5
		c0-1.2,0.7-1.9,1.7-1.9c0.1,0,0.2,0,0.3,0V1.9C12.5,1.8,12.4,1.8,12.3,1.8z M15.9,1.8c-1.4,0-2.5,1.1-2.5,2.5c0,1.5,1,2.5,2.5,2.5
		c1,0,1.9-0.5,2.3-1.5h-0.8c-0.3,0.6-0.8,0.8-1.5,0.8c-1,0-1.7-0.6-1.8-1.6h4.1C18.4,3,17.4,1.8,15.9,1.8L15.9,1.8z M15.9,2.5
		c0.9,0,1.5,0.6,1.6,1.4h-3.3C14.4,3.1,15,2.5,15.9,2.5z M21.7,6.9c1.1,0,2-0.5,2-1.5c0-0.9-0.7-1.1-2-1.4c-1-0.2-1.4-0.4-1.4-0.7
		c0-0.4,0.5-0.7,1.2-0.7c0.7,0,1.1,0.2,1.3,0.7h0.7c-0.2-0.9-0.9-1.4-2.1-1.4c-1.1,0-2,0.5-2,1.5c0,0.8,0.6,1,1.9,1.4
		C22.4,4.9,23,5,23,5.5c0,0.5-0.5,0.7-1.2,0.7c-0.9,0-1.4-0.2-1.6-0.9h-0.7C19.6,6.3,20.5,6.9,21.7,6.9L21.7,6.9z M27.3,1.8
		c-1.4,0-2.5,1.1-2.5,2.5c0,1.5,1,2.5,2.5,2.5c1,0,1.9-0.5,2.3-1.5h-0.8c-0.3,0.6-0.8,0.8-1.5,0.8c-1,0-1.7-0.6-1.8-1.6h4.1
		C29.8,3,28.8,1.8,27.3,1.8L27.3,1.8z M27.3,2.5c0.9,0,1.5,0.6,1.6,1.4h-3.3C25.8,3.1,26.4,2.5,27.3,2.5z M33.5,1.8
		c-0.8,0-1.4,0.4-1.7,1.1v-1H31v4.8h0.7V4.3c0-1.1,0.5-1.8,1.5-1.8c0.8,0,1.2,0.4,1.2,1.3v2.9h0.7V3.7C35.2,2.5,34.6,1.8,33.5,1.8
		L33.5,1.8z M40.1,6c-0.4,0.1-0.7,0.2-1.1,0.2c-0.8,0-1.1-0.5-1.1-1.3V2.6h2.2V1.9h-2.2V0.6l-0.7,0.2v1.2h-0.9v0.7h0.9v2.3
		c0,1.3,0.7,1.9,1.7,1.9c0.5,0,1-0.2,1.3-0.3L40.1,6L40.1,6z M43.5,1.8c-1.4,0-2.5,1.1-2.5,2.5c0,1.5,1,2.5,2.5,2.5
		c1,0,1.9-0.5,2.3-1.5h-0.8c-0.3,0.6-0.8,0.8-1.5,0.8c-1,0-1.7-0.6-1.8-1.6h4.1C46,3,45,1.8,43.5,1.8L43.5,1.8z M43.5,2.5
		c0.9,0,1.5,0.6,1.6,1.4h-3.3C42,3.1,42.6,2.5,43.5,2.5z M51.2,0v2.9c-0.4-0.7-1-1.1-1.9-1.1c-1.3,0-2.3,1-2.3,2.5
		c0,1.5,0.9,2.5,2.3,2.5c0.8,0,1.5-0.4,1.9-1.1v1H52V0L51.2,0L51.2,0z M49.5,6.2c-1,0-1.7-0.8-1.7-1.8c0-1.1,0.7-1.8,1.7-1.8
		c1,0,1.7,0.8,1.7,1.8S50.5,6.2,49.5,6.2z M58.5,1.8c-0.8,0-1.5,0.4-1.9,1.1V0h-0.7v6.8h0.7v-1c0.4,0.7,1,1.1,1.9,1.1
		c1.3,0,2.3-1.1,2.3-2.5C60.8,2.9,59.8,1.8,58.5,1.8L58.5,1.8z M58.4,6.2c-1,0-1.7-0.8-1.7-1.8s0.7-1.8,1.7-1.8c1,0,1.7,0.8,1.7,1.8
		C60,5.4,59.3,6.2,58.4,6.2z M65.4,1.9l-1.6,3.5l-1.6-3.5h-0.8l2,4.2L62.2,9H63l3.3-7L65.4,1.9L65.4,1.9z"/>
	<path fill="#FBFBFC" d="M69.3,30.1H0.7V12.2h68.6V30.1z M0,30.8h70V11.5H0V30.8z"/>
	<path fill="#FFE500" d="M57.7,18.2c0-0.1,0.1-0.4,0.5-0.4h3.9c0.4,0,0.5,0.3,0.5,0.4v6c0,0.1-0.1,0.5-0.5,0.5h-3.9
		c-0.4,0-0.5-0.4-0.5-0.5C57.7,24.1,57.7,18.2,57.7,18.2z M33.3,26.9h3.6v-9.2h3.4v-2.2H29.9v2.2h3.4C33.3,17.7,33.3,26.9,33.3,26.9
		z M44.9,17.7H49c0.5,0,0.5,0.3,0.5,0.5v1.2c0,0.2-0.1,0.5-0.5,0.5h-4.1L44.9,17.7L44.9,17.7z M44.9,22.5h1.4l2.3,4.4h4.1l-2.8-4.4
		h0.5c1.1-0.1,2.2-0.8,2.2-2.1v-2.8c-0.1-1.3-1.1-2-2.2-2.1h-9.2v11.4h3.6L44.9,22.5L44.9,22.5z M29,24.7h-5.8v-2.4h5.7V20h-5.7
		v-2.2h5.7v-2.2h-9.3v11.4l9.4,0C29,26.9,29,24.7,29,24.7z M7.5,19.7l2.4,7.2h2.3l2.4-7.2v7.2h3.6V15.5h-4.8L11,21.2l-2.3-5.7H3.9
		v11.4h3.6L7.5,19.7L7.5,19.7z M56.3,26.9h7.6c1.1-0.1,2.1-0.8,2.2-2.1v-7.4c-0.1-1.3-1.1-1.9-2.2-2h-7.6c-1.1,0.1-2.1,0.7-2.2,2
		v7.4C54.2,26.1,55.2,26.8,56.3,26.9z"/>
</g>
</svg>
