<svg xmlns="http://www.w3.org/2000/svg" width="185" height="25" viewBox="0 0 185 25"><g fill-rule="evenodd" clip-rule="evenodd" fill="#fff"><path d="M127.471 5.226h-.94v1.012h3.032v-1.012h-.94v-3.877h.94v-1.012h-3.032v1.011h.94v3.878zm6.406.085h-.683v.927h2.392v-.927h-.683v-1.771c0-1.104-.683-1.77-1.666-1.77-.384 0-.726.169-.974.337-.145.101-.282.211-.393.337h-.085l-.051-.506h-1.572v.927h.683v2.445h-.683v.927h2.392v-.926h-.683v-2.108c.102-.093.214-.177.333-.253.205-.126.487-.253.82-.253.512 0 .854.337.854.843v1.771h-.001zm3.758-2.445h1.281v-.927h-1.281v-1.222h-.512l-.512 1.222h-.683v.927h.683v1.686c0 1.189.683 1.854 1.751 1.854.273 0 .521-.067.7-.143.103-.042.197-.093.282-.152l-.214-.843-.196.11c-.128.059-.29.101-.487.101-.453 0-.812-.354-.812-.927v-1.686zm6.364 1.644l.06-.185c.034-.11.068-.244.068-.405 0-1.138-1.025-2.149-2.264-2.149-1.239 0-2.264 1.003-2.264 2.318s1.017 2.318 2.392 2.318c.607 0 1.059-.177 1.367-.354.179-.101.342-.219.47-.362l-.47-.759c-.111.11-.231.202-.367.278-.239.135-.564.27-1 .27-.683 0-1.281-.59-1.281-.969h3.289v-.001zm-2.135-1.812c.641 0 1.11.463 1.11.885h-2.221c0-.422.47-.885 1.111-.885zm6.534-.717l-.231-.101c-.145-.059-.333-.11-.564-.11-.376 0-.675.169-.906.337-.128.101-.248.211-.35.337h-.085l-.043-.506h-1.58v.927h.683v2.445h-.683v.927h2.392v-.926h-.683v-2.108c.094-.076.196-.152.308-.211.196-.101.461-.211.76-.211.196 0 .359.034.487.067l.197.059.298-.926zm3.972 3.33h-.683v.927h2.392v-.927h-.683v-1.771c0-1.104-.683-1.77-1.666-1.77-.384 0-.726.169-.974.337-.145.101-.282.211-.393.337h-.085l-.051-.506h-1.572v.927h.683v2.445h-.683v.927h2.392v-.926h-.683v-2.108c.102-.093.214-.177.333-.253.205-.126.487-.253.82-.253.512 0 .854.337.854.843v1.771h-.001zm6.236-1.771c0-.978-.811-1.77-2.007-1.77-.513 0-.923.152-1.222.295-.171.093-.316.186-.444.295l.47.759c.103-.076.214-.152.342-.211.214-.101.512-.211.854-.211.555 0 .982.337.982.843v.042h-1.281c-1.153 0-1.794.624-1.794 1.433 0 .767.641 1.391 1.666 1.391.402 0 .76-.169 1.008-.337.145-.101.282-.211.401-.337h.085l.043.506h1.58v-.927h-.683v-1.771zm-2.307 1.939c-.478 0-.683-.202-.683-.464 0-.295.205-.506.683-.506h1.281v.379c-.12.11-.248.211-.384.295-.239.161-.555.296-.897.296zm4.955-2.613h1.281v-.927h-1.281v-1.222h-.512l-.513 1.222h-.683v.927h.683v1.686c0 1.189.683 1.854 1.751 1.854.273 0 .521-.067.7-.143.103-.042.197-.093.282-.152l-.214-.843-.196.11c-.128.059-.29.101-.487.101-.453 0-.812-.354-.812-.927v-1.686h.001zm2.22-.927v.927h.683v2.445h-.683v.927h2.392v-.927h-.683v-3.372h-1.709zm1.88-1.265c0-.379-.299-.674-.683-.674-.384 0-.683.295-.683.674s.299.674.683.674c.384.001.683-.294.683-.674zm.939 3.414c0 1.315 1.016 2.318 2.392 2.318 1.358 0 2.392-1.003 2.392-2.318s-1.033-2.318-2.392-2.318c-1.375 0-2.392 1.003-2.392 2.318zm3.716 0c0 .809-.606 1.391-1.324 1.391-.718 0-1.324-.59-1.324-1.391s.606-1.391 1.324-1.391c.718.001 1.324.591 1.324 1.391zm5.296 1.223h-.683v.927h2.392v-.927h-.683v-1.771c0-1.104-.683-1.77-1.666-1.77-.384 0-.726.169-.974.337-.145.101-.282.211-.393.337h-.085l-.051-.506h-1.572v.927h.683v2.445h-.683v.927h2.392v-.926h-.683v-2.108c.102-.093.214-.177.333-.253.205-.126.487-.253.82-.253.512 0 .854.337.854.843v1.771h-.001zm6.236-1.771c0-.978-.812-1.77-2.007-1.77-.513 0-.923.152-1.222.295-.171.093-.316.186-.444.295l.47.759c.103-.076.214-.152.342-.211.214-.101.512-.211.854-.211.555 0 .982.337.982.843v.042h-1.281c-1.153 0-1.794.624-1.794 1.433 0 .767.641 1.391 1.666 1.391.402 0 .76-.169 1.008-.337.145-.101.282-.211.401-.337h.085l.043.506h1.58v-.927h-.683v-1.771zm-2.307 1.939c-.478 0-.683-.202-.683-.464 0-.295.205-.506.683-.506h1.281v.379c-.12.11-.248.211-.384.295-.239.161-.555.296-.897.296zm3.374-5.142v.927h.683v4.046h-.683v.927h2.392v-.926h-.683v-4.974h-1.709zm-54.07 12.816h1.153l1.58 2.36h1.538v-1.012h-.812l-1.11-1.602v-.042c.231-.051.436-.135.615-.261.307-.211.624-.582.624-1.214 0-1.012-.769-1.77-2.093-1.77h-3.502v1.011h.854v3.878h-.854v1.012h2.862v-1.012h-.854v-1.348h-.001zm0-2.529h1.495c.513 0 .854.329.854.759s-.342.759-.854.759h-1.495v-1.518zm8.969 3.162l.06-.185c.034-.11.068-.245.068-.405 0-1.138-1.025-2.149-2.264-2.149s-2.264 1.003-2.264 2.318 1.016 2.318 2.392 2.318c.606 0 1.059-.177 1.367-.354.179-.101.342-.219.47-.362l-.47-.759c-.111.11-.231.202-.367.278-.239.135-.564.27-1 .27-.683 0-1.281-.59-1.281-.969h3.289v-.001zm-2.135-1.813c.641 0 1.11.464 1.11.885h-2.221c0-.421.47-.885 1.111-.885zm6.705 2.234c0-1.517-2.648-1.138-2.648-1.77 0-.261.205-.464.811-.464.265 0 .444.051.572.109l.196.11v.455h.94v-.902c-.137-.126-.29-.245-.47-.346-.299-.177-.726-.354-1.238-.354-1.239 0-1.879.624-1.879 1.391 0 1.517 2.648 1.138 2.648 1.77 0 .261-.299.548-.982.548-.453 0-.786-.152-1.016-.312-.137-.093-.256-.202-.35-.32l-.555.674c.128.169.29.32.478.447.316.228.794.438 1.444.438 1.4.001 2.049-.631 2.049-1.474zm2.178-2.065h1.281v-.927h-1.281v-1.223h-.512l-.513 1.222h-.683v.927h.683v1.686c0 1.189.683 1.855 1.751 1.855.273 0 .521-.067.7-.143.103-.042.197-.093.282-.152l-.214-.843-.196.109c-.128.059-.29.101-.487.101-.453 0-.812-.354-.812-.927v-1.685h.001zm6.15.674c0-.978-.811-1.77-2.007-1.77-.512 0-.923.152-1.222.295-.171.093-.316.186-.444.295l.47.759c.103-.076.214-.152.342-.211.214-.101.512-.211.854-.211.555 0 .982.337.982.843v.042h-1.281c-1.153 0-1.794.624-1.794 1.433 0 .767.641 1.391 1.666 1.391.402 0 .76-.169 1.008-.337.145-.101.282-.211.401-.337h.085l.043.506h1.58v-.927h-.683v-1.771zm-2.306 1.939c-.478 0-.683-.202-.683-.464 0-.295.205-.506.683-.506h1.281v.379c-.12.11-.248.211-.384.295-.239.161-.555.296-.897.296zm5.04-3.54h-1.708v.927h.683v1.77c0 1.104.683 1.77 1.666 1.77.384 0 .726-.169.974-.337.145-.101.282-.211.393-.337h.085l.051.506h1.572v-.927h-.683v-2.445h.683v-.927h-2.392v.927h.683v2.107c-.102.093-.214.177-.333.253-.205.126-.504.253-.82.253-.512 0-.854-.337-.854-.843v-2.697zm7.986.042l-.231-.101c-.145-.059-.333-.11-.564-.11-.376 0-.675.169-.906.337-.128.101-.248.211-.35.337h-.085l-.043-.506h-1.58v.927h.683v2.445h-.683v.927h2.392v-.927h-.683v-2.107c.094-.076.196-.152.307-.211.196-.101.461-.211.76-.211.196 0 .359.034.487.067l.197.059.299-.926zm4.186 1.559c0-.978-.811-1.77-2.007-1.77-.512 0-.923.152-1.222.295-.171.093-.316.186-.444.295l.47.759c.103-.076.214-.152.342-.211.214-.101.513-.211.854-.211.555 0 .982.337.982.843v.042h-1.281c-1.153 0-1.794.624-1.794 1.433 0 .767.641 1.391 1.666 1.391.402 0 .76-.169 1.008-.337.145-.101.282-.211.401-.337h.085l.043.506h1.58v-.927h-.683v-1.771zm-2.306 1.939c-.478 0-.683-.202-.683-.464 0-.295.205-.506.683-.506h1.281v.379c-.12.11-.248.211-.384.295-.24.161-.556.296-.897.296zm7.132-.169h-.683v.927h2.392v-.927h-.683v-1.77c0-1.104-.683-1.77-1.666-1.77-.384 0-.726.169-.974.337-.145.101-.282.211-.393.337h-.085l-.051-.506h-1.572v.927h.683v2.445h-.683v.927h2.392v-.927h-.683v-2.107c.102-.093.214-.177.333-.253.205-.126.487-.253.82-.253.513 0 .854.337.854.843v1.77h-.001zm3.758-2.444h1.281v-.927h-1.281v-1.223h-.512l-.512 1.222h-.683v.927h.683v1.686c0 1.189.683 1.855 1.751 1.855.273 0 .521-.067.7-.143.103-.042.197-.093.282-.152l-.213-.843-.196.109c-.128.059-.29.101-.487.101-.453 0-.812-.354-.812-.927v-1.685h-.001zm-42.538 10.919c0-2.031-3.331-1.467-3.331-2.571 0-.472.342-.843 1.025-.843.316 0 .581.11.777.211.111.059.205.135.29.211v.674h1.025v-1.265c-.171-.143-.367-.278-.581-.396-.367-.202-.897-.405-1.512-.405-1.461 0-2.263.843-2.263 1.812 0 2.023 3.331 1.475 3.331 2.571 0 .548-.419.97-1.239.97-.555 0-1.008-.211-1.315-.438-.179-.126-.342-.278-.478-.447l-.641.801c.179.202.384.379.624.531.41.261 1.016.523 1.811.523 1.538 0 2.477-.927 2.477-1.939zm4.271.801h-.683v.927h2.392v-.927h-.683v-1.77c0-1.104-.683-1.77-1.666-1.77-.384 0-.701.152-.931.295-.128.093-.248.186-.35.295h-.085v-2.023h-1.708v.927h.683v4.046h-.683v.927h2.392v-.927h-.683v-2.107c.103-.093.214-.177.333-.253.205-.126.487-.253.82-.253.512 0 .854.337.854.843v1.77h-.002zm2.136-1.222c0 1.315 1.016 2.318 2.392 2.318 1.358 0 2.392-1.003 2.392-2.318 0-1.315-1.033-2.318-2.392-2.318-1.376 0-2.392 1.003-2.392 2.318zm3.715 0c0 .809-.606 1.391-1.324 1.391-.717 0-1.324-.59-1.324-1.391s.606-1.391 1.324-1.391c.718 0 1.324.59 1.324 1.391zm5.211-.717l.812 2.866h1.239l1.025-3.372h.641v-.927h-1.495l-.811 2.908h-.085l-.812-2.908h-1.11l-.812 2.908h-.085l-.812-2.908h-1.495v.927h.641l1.025 3.372h1.239l.811-2.866h.084zM14.553 7.718v5.661c-.567.447-1.197.839-1.891 1.174-.694.336-1.445.587-2.252.755-.765.168-1.565.252-2.4.252-1.105 0-2.142-.199-3.112-.597-.97-.398-1.82-.94-2.549-1.625-.729-.685-1.303-1.489-1.721-2.411-.419-.923-.628-1.909-.628-2.957 0-1.048.209-2.034.627-2.956.418-.923.991-1.726 1.721-2.411.729-.685 1.579-1.227 2.549-1.625.97-.398 2.008-.598 3.113-.598.935 0 1.795.105 2.581.315.786.21 1.505.503 2.156.881.439.252.864.566 1.275.943l-.489 3.774-2.953-.357.149-1.216c-.779-.447-1.686-.671-2.719-.671-.524 0-1.016.101-1.477.304-.46.203-.864.482-1.211.839-.347.356-.62.772-.818 1.248-.198.475-.297.985-.297 1.53 0 .587.099 1.132.297 1.635.198.503.471.94.818 1.31.347.37.751.661 1.211.87.46.21.953.315 1.477.315.453 0 .878-.059 1.275-.178.397-.119.772-.29 1.126-.514v-.419h-2.699v-3.271h6.841zm18.059 4.906v2.726h-4.78l-1.105-2.474h-5.779l-1.083 2.474h-4.335l5.991-12.056h-1.508v-2.725h4.802l5.991 12.056h1.806v-.001zm-7.351-3.019l-1.424-3.208-1.423 3.208h2.847zm15.381-3.438c.85.182 1.618.395 2.305.64s1.271.545 1.753.902c.482.356.85.783 1.105 1.279.255.496.382 1.094.382 1.793 0 .755-.145 1.426-.436 2.013-.29.587-.697 1.087-1.222 1.499-.524.412-1.154.727-1.891.943-.736.217-1.558.325-2.464.325-.666 0-1.268-.017-1.806-.052-.538-.035-1.059-.105-1.562-.21-.503-.105-1.005-.252-1.508-.44-.503-.189-1.052-.43-1.647-.723l.531-4.172 2.974.356-.191 1.468c.567.154 1.122.259 1.668.315.545.056 1.108.084 1.689.084 1.133 0 1.7-.349 1.7-1.048 0-.14-.035-.273-.106-.398-.071-.126-.202-.245-.393-.356-.191-.112-.446-.22-.765-.325-.319-.105-.733-.213-1.243-.325-.793-.182-1.53-.381-2.209-.597-.68-.217-1.271-.496-1.774-.839-.503-.342-.899-.772-1.19-1.289-.29-.517-.436-1.16-.436-1.929 0-.685.131-1.314.393-1.887s.644-1.069 1.147-1.489c.503-.419 1.108-.744 1.816-.975.708-.231 1.508-.346 2.401-.346 1.006 0 1.99.105 2.953.315.963.21 1.976.51 3.038.902l-.529 4.189-2.974-.377.149-1.238c-.467-.126-.938-.227-1.413-.304-.475-.077-.917-.115-1.328-.115-.496 0-.867.094-1.115.283-.248.189-.372.423-.372.702 0 .168.039.314.117.44.078.126.213.245.404.356.191.112.453.217.786.314.332.099.754.204 1.263.316zm14.894 6.457h1.933v2.726h-7.989v-2.726h1.912v-8.68h-1.445v1.698h-2.996v-5.073h13.045v5.074h-2.996v-1.699h-1.466v8.68h.002zm21.33 0v2.726h-4.929l-2.401-3.25h-2.21v3.25h-6.055v-2.726h1.912v-9.33h-1.912v-2.725h8.944c1.147 0 2.117.154 2.911.461.793.308 1.43.72 1.912 1.237.482.517.829 1.115 1.041 1.793.213.678.319 1.38.319 2.107 0 1.23-.227 2.278-.68 3.145-.453.867-1.154 1.537-2.103 2.013l1.041 1.3h2.21v-.001zm-7.712-3.752c.552 0 1.013-.07 1.381-.21.368-.14.666-.322.892-.545.227-.224.39-.479.489-.765.099-.286.149-.584.149-.891 0-.321-.042-.632-.127-.933-.085-.301-.227-.57-.425-.807-.198-.238-.46-.426-.786-.566-.326-.14-.729-.21-1.211-.21h-2.188v4.927h1.826zm22.966 6.478h-13.98v-2.726h1.912v-9.33h-1.912v-2.725h13.533v3.376h-7.606v2.6h4.164v3.271h-4.164v2.16h5.056v-2.14h2.996v5.514h.001zm15.106 0h-13.98v-2.726h1.912v-9.33h-1.912v-2.725h13.533v3.376h-7.606v2.6h4.164v3.271h-4.164v2.16h5.056v-2.14h2.996v5.514h.001zm9.433-2.726h1.933v2.726h-7.988v-2.726h1.912v-8.68h-1.445v1.698h-2.996v-5.073h13.045v5.074h-2.996v-1.699h-1.466v8.68h.001z"/></g></svg>