<?xml version="1.0" standalone="no"?>
<!DOCTYPE svg PUBLIC "-//W3C//DTD SVG 1.1//EN" "http://www.w3.org/Graphics/SVG/1.1/DTD/svg11.dtd" >
<svg xmlns="http://www.w3.org/2000/svg" xmlns:xlink="http://www.w3.org/1999/xlink" version="1.1">
<metadata>
Created by FontForge 20150102 at Sun Feb  8 13:33:03 2015
 By uniteet7
Copyright (c) 2014 by Typetype. Designer Ivan Gladkikh, technical designers Kirill Troshin, Olexa Volochay, Nadyr Rakhimov. All rights reserved.
</metadata>
<defs>
<font id="TTSlabsLight" horiz-adv-x="680" >
  <font-face 
    font-family="TTSlabsLight"
    font-weight="300"
    font-stretch="normal"
    units-per-em="1000"
    panose-1="2 0 8 3 3 0 0 2 0 3"
    ascent="766"
    descent="-234"
    x-height="510"
    cap-height="700"
    bbox="-80 -290 1220 1015"
    underline-thickness="50"
    underline-position="-50"
    unicode-range="U+000D-F6D4"
  />
<missing-glyph horiz-adv-x="0" 
 />
    <glyph glyph-name=".notdef" horiz-adv-x="0" 
 />
    <glyph glyph-name=".null" horiz-adv-x="0" 
 />
    <glyph glyph-name="nonmarkingreturn" horiz-adv-x="333" 
 />
    <glyph glyph-name="CR" unicode="&#xd;" horiz-adv-x="0" 
 />
    <glyph glyph-name="space" unicode=" " horiz-adv-x="240" 
 />
    <glyph glyph-name="exclam" unicode="!" horiz-adv-x="280" 
d="M130 160l-15 180v360h50v-360l-15 -180h-20zM185 35q0 -19 -13 -32t-32 -13t-32 13t-13 32t13 32t32 13t32 -13t13 -32z" />
    <glyph glyph-name="quotedbl" unicode="&#x22;" horiz-adv-x="370" 
d="M110 445h-15l-15 125v130h45v-130zM275 445h-15l-15 125v130h45v-130z" />
    <glyph glyph-name="numbersign" unicode="#" horiz-adv-x="765" 
d="M165 0h-50l60 190h-135v40h150l75 240h-165v40h180l60 190h50l-60 -190h210l60 190h50l-60 -190h135v-40h-150l-75 -240h165v-40h-180l-60 -190h-50l60 190h-210zM315 470l-75 -240h210l75 240h-210z" />
    <glyph glyph-name="dollar" unicode="$" horiz-adv-x="620" 
d="M290 -120v96q-96 5 -176 58q-35 22 -64 51l30 35q24 -25 62 -50q80 -50 168 -50q94 0 149.5 50.5t55.5 124.5q0 37 -23.5 64t-61.5 42.5t-84 28.5t-92 28.5t-84 36t-61.5 56t-23.5 84.5q0 73 56 125.5t149 62.5v97h50v-96q78 -4 149 -49q33 -20 56 -45v-135h-45v115
q-15 15 -46 35q-64 35 -129 35q-80 0 -132.5 -45t-52.5 -100q0 -53 44.5 -87t107.5 -52t126 -37.5t107.5 -60t44.5 -103.5q0 -86 -63.5 -147.5t-166.5 -71.5v-96h-50z" />
    <glyph glyph-name="percent" unicode="%" horiz-adv-x="880" 
d="M245 0h-55l445 700h55zM95 540q0 -58 34.5 -96.5t80.5 -38.5t80.5 38.5t34.5 96.5t-34.5 96.5t-80.5 38.5t-80.5 -38.5t-34.5 -96.5zM380 540q0 -78 -49 -129t-121 -51t-121 51t-49 129t49 129t121 51t121 -51t49 -129zM840 160q0 -78 -49 -129t-121 -51t-121 51t-49 129
t49 129t121 51t121 -51t49 -129zM555 160q0 -58 34.5 -96.5t80.5 -38.5t80.5 38.5t34.5 96.5t-34.5 96.5t-80.5 38.5t-80.5 -38.5t-34.5 -96.5z" />
    <glyph glyph-name="ampersand" unicode="&#x26;" horiz-adv-x="710" 
d="M590 0l-100 105q-26 -34 -65 -65q-81 -65 -170 -65q-96 0 -155.5 54.5t-59.5 135.5q0 89 95 152q40 28 95 48v5q-34 24 -58 51q-57 63 -57 134q0 65 55.5 117.5t129.5 52.5q73 0 129 -51.5t56 -113.5q0 -79 -88 -149q-39 -30 -87 -51v-5l185 -185l90 105l30 -35l-90 -105
l90 -90h95v-45h-120zM255 20q76 0 147 57q32 26 58 58l-195 200q-49 -17 -85 -40q-85 -59 -85 -130q0 -60 46.5 -102.5t113.5 -42.5zM170 555q0 -61 52 -121q21 -25 53 -49q41 16 77 42q78 57 78 133q0 42 -41 81t-89 39t-89 -40t-41 -85z" />
    <glyph glyph-name="quotesingle" unicode="'" horiz-adv-x="205" 
d="M110 445h-15l-15 125v130h45v-130z" />
    <glyph glyph-name="parenleft" unicode="(" horiz-adv-x="320" 
d="M140 310q0 -180 75 -355q32 -78 75 -145h-40q-47 69 -80 145q-80 182 -80 355t80 355q33 76 80 145h40q-43 -67 -75 -145q-75 -175 -75 -355z" />
    <glyph glyph-name="parenright" unicode=")" horiz-adv-x="320" 
d="M180 310q0 171 -75 355q-32 78 -75 145h40q47 -69 80 -145q80 -182 80 -355t-80 -355q-33 -76 -80 -145h-40q43 67 75 145q75 184 75 355z" />
    <glyph glyph-name="asterisk" unicode="*" horiz-adv-x="490" 
d="M245 460l-100 -144l-40 29l105 145l-170 50l15 45l165 -55v170h50v-170l165 55l15 -45l-170 -50l105 -145l-40 -29z" />
    <glyph glyph-name="plus" unicode="+" horiz-adv-x="525" 
d="M485 315h-200v-200h-45v200h-200v45h200v200h45v-200h200v-45z" />
    <glyph glyph-name="comma" unicode="," horiz-adv-x="200" 
d="M55 35q0 19 13 32t32 13q20 0 32.5 -15.5t12.5 -44.5q0 -60 -38 -98q-15 -15 -37 -27l-10 20l20 21q20 24 20 54q-19 0 -32 13t-13 32z" />
    <glyph glyph-name="hyphen" unicode="-" horiz-adv-x="505" 
d="M40 360h425v-45h-425v45z" />
    <glyph glyph-name="period" unicode="." horiz-adv-x="200" 
d="M145 35q0 -19 -13 -32t-32 -13t-32 13t-13 32t13 32t32 13t32 -13t13 -32z" />
    <glyph glyph-name="slash" unicode="/" horiz-adv-x="480" 
d="M390 750h50l-350 -800h-50z" />
    <glyph glyph-name="zero" unicode="0" horiz-adv-x="720" 
d="M610 350q0 155 -72 242.5t-178 87.5t-178 -87.5t-72 -242.5t72 -242.5t178 -87.5t178 87.5t72 242.5zM665 350q0 -171 -88 -273t-217 -102t-217 102t-88 273t88 273t217 102t217 -102t88 -273z" />
    <glyph glyph-name="one" unicode="1" horiz-adv-x="430" 
d="M220 635l-165 -130l-25 35l195 160h50v-655h135v-45h-320v45h135v590h-5z" />
    <glyph glyph-name="two" unicode="2" horiz-adv-x="615" 
d="M70 495v140q30 27 62 45q76 45 163 45q114 0 184.5 -64t70.5 -156q0 -68 -47 -130.5t-128 -129.5l-239 -195v-5h424v-45h-505v45l285 235q74 60 114.5 113.5t40.5 111.5q0 73 -56 124t-144 51q-67 0 -131 -35q-29 -18 -49 -35v-115h-45z" />
    <glyph glyph-name="three" unicode="3" horiz-adv-x="610" 
d="M300 20q95 0 150 48t55 122t-55 122t-150 48h-75v45l260 245v5h-360v-155h-45v200h470v-50l-255 -240v-5q124 0 194.5 -61t70.5 -154t-70 -154t-190 -61q-102 0 -185 52q-38 23 -65 53l35 40q22 -26 57 -50q74 -50 158 -50z" />
    <glyph glyph-name="four" unicode="4" horiz-adv-x="620" 
d="M485 420v-195h125v-45h-125v-180h-50v180h-410v50l290 470h55l-290 -470v-5h355v195h50z" />
    <glyph glyph-name="five" unicode="5" horiz-adv-x="600" 
d="M300 20q88 0 146.5 53.5t58.5 126.5t-58.5 126.5t-146.5 53.5q-60 0 -126 -30q-28 -14 -54 -30l-35 15l35 365h415v-45h-370l-25 -275h5q19 11 46 22q59 23 109 23q117 0 188.5 -64.5t71.5 -160.5t-71.5 -160.5t-188.5 -64.5q-102 0 -185 52q-38 23 -65 53l35 40
q22 -26 57 -50q74 -50 158 -50z" />
    <glyph glyph-name="six" unicode="6" horiz-adv-x="630" 
d="M340 20q79 0 134.5 55.5t55.5 134.5q0 83 -58.5 139t-156.5 56q-77 0 -149 -48q-32 -21 -56 -47q0 -130 68 -210t162 -80zM340 -25q-121 0 -203 94.5t-82 255.5q0 196 84.5 298t225.5 102q69 0 141 -35q34 -19 54 -35l-25 -35q-24 17 -49 30q-62 30 -121 30
q-113 0 -186.5 -85.5t-73.5 -234.5h5q22 26 52 45q68 45 153 45q118 0 194 -70t76 -170q0 -98 -70.5 -166.5t-174.5 -68.5z" />
    <glyph glyph-name="seven" unicode="7" horiz-adv-x="580" 
d="M45 495v205h500v-50l-305 -650h-55l305 650v5h-400v-160h-45z" />
    <glyph glyph-name="eight" unicode="8" horiz-adv-x="650" 
d="M325 725q116 0 178 -51.5t62 -133.5q0 -83 -75 -132q-32 -20 -75 -31v-4q49 -11 90 -36q90 -58 90 -152q0 -86 -74 -148t-196 -62t-196 62t-74 148q0 94 90 152q41 25 90 36v4q-43 11 -75 31q-75 46 -75 132q0 82 62 133.5t178 51.5zM325 20q97 0 156 49t59 116t-59 116
t-156 49t-156 -49t-59 -116t59 -116t156 -49zM325 400q86 0 135.5 40.5t49.5 99.5t-49.5 99.5t-135.5 40.5t-135.5 -40.5t-49.5 -99.5t49.5 -99.5t135.5 -40.5z" />
    <glyph glyph-name="nine" unicode="9" horiz-adv-x="630" 
d="M290 680q-79 0 -134.5 -55.5t-55.5 -134.5q0 -83 58.5 -139t156.5 -56q79 0 149 47q33 22 56 48q0 130 -68 210t-162 80zM290 725q121 0 203 -95t82 -255q0 -196 -84.5 -298t-225.5 -102q-77 0 -141 35q-28 14 -54 35l25 35q24 -17 49 -30q62 -30 121 -30
q113 0 186.5 85.5t73.5 234.5h-5q-23 -26 -52 -45q-68 -45 -153 -45q-118 0 -194 70t-76 170q0 98 70.5 166.5t174.5 68.5z" />
    <glyph glyph-name="colon" unicode=":" horiz-adv-x="220" 
d="M155 35q0 -19 -13 -32t-32 -13t-32 13t-13 32t13 32t32 13t32 -13t13 -32zM155 475q0 -19 -13 -32t-32 -13t-32 13t-13 32t13 32t32 13t32 -13t13 -32z" />
    <glyph glyph-name="semicolon" unicode=";" horiz-adv-x="220" 
d="M155 475q0 -19 -13 -32t-32 -13t-32 13t-13 32t13 32t32 13t32 -13t13 -32zM65 35q0 19 13 32t32 13q20 0 32.5 -15.5t12.5 -44.5q0 -60 -38 -98q-15 -15 -37 -27l-10 20l20 21q20 24 20 54q-19 0 -32 13t-13 32z" />
    <glyph glyph-name="less" unicode="&#x3c;" horiz-adv-x="545" 
d="M485 450l-400 -190v-5l400 -190v-50l-455 220v45l455 220v-50z" />
    <glyph glyph-name="equal" unicode="=" horiz-adv-x="525" 
d="M50 465h425v-45h-425v45zM50 250h425v-45h-425v45z" />
    <glyph glyph-name="greater" unicode="&#x3e;" horiz-adv-x="545" 
d="M460 260l-400 190v50l455 -220v-45l-455 -220v50l400 190v5z" />
    <glyph glyph-name="question" unicode="?" horiz-adv-x="575" 
d="M40 495v140q26 25 60 45q76 45 165 45q116 0 185.5 -59.5t69.5 -145.5q0 -47 -24.5 -87t-60 -68.5t-71 -55t-60 -58.5t-24.5 -66v-25h-50v25q0 34 17.5 65t43.5 53t56.5 47.5t56.5 48t43.5 54.5t17.5 67q0 70 -54.5 117.5t-145.5 47.5q-69 0 -131 -38q-21 -13 -49 -37
v-115h-45zM300 35q0 -19 -13 -32t-32 -13t-32 13t-13 32t13 32t32 13t32 -13t13 -32z" />
    <glyph glyph-name="at" unicode="@" horiz-adv-x="820" 
d="M620 195q-42 0 -73 20q-15 8 -27 20h-5q-9 -9 -31 -23q-38 -22 -79 -22q-58 0 -91.5 27.5t-33.5 67.5t33.5 67.5t91.5 27.5h105q0 42 -24 66t-66 24q-32 0 -66 -15q-14 -7 -24 -15l-25 30q18 12 33 20q38 20 82 20q60 0 95 -35t35 -95v-120q11 -9 20 -13q21 -12 50 -12
q48 0 76.5 37.5t28.5 112.5q0 121 -89.5 205.5t-220.5 84.5q-133 0 -224 -90t-91 -230q0 -135 91.5 -227.5t223.5 -92.5q104 0 183 35q38 15 67 35l20 -40q-32 -21 -73 -38q-92 -37 -197 -37q-154 0 -259.5 105.5t-105.5 259.5q0 153 107 259t258 106q148 0 254 -100.5
t106 -234.5q0 -91 -42.5 -140.5t-112.5 -49.5zM510 275v65h-105q-36 0 -55.5 -17t-19.5 -38q0 -24 19 -39.5t56 -15.5q39 0 77 22q17 11 28 23z" />
    <glyph glyph-name="A" unicode="A" horiz-adv-x="765" 
d="M415 700l255 -655h95v-45h-254v45h104l-75 200h-315l-75 -200h104v-45h-254v45h95l255 655h65zM380 640l-135 -350h275l-135 350h-5z" />
    <glyph glyph-name="B" unicode="B" horiz-adv-x="700" 
d="M425 0h-395v45h115v610h-115v45h355q102 0 158.5 -49.5t56.5 -129.5q0 -77 -60 -116q-24 -17 -60 -25v-5q48 -7 87 -30q88 -50 88 -150q0 -81 -64 -138t-166 -57zM195 345v-300h230q77 0 126 44t49 106t-49 106t-126 44h-230zM195 655v-265h190q77 0 118.5 36t41.5 95
q0 61 -41.5 97.5t-118.5 36.5h-190z" />
    <glyph glyph-name="C" unicode="C" horiz-adv-x="740" 
d="M680 620v-140h-45v115q-21 23 -55 42q-74 43 -160 43q-135 0 -227.5 -95.5t-92.5 -234.5t92.5 -234.5t227.5 -95.5q97 0 181 55q37 24 64 55l30 -30q-30 -37 -68 -63q-94 -62 -207 -62q-161 0 -268 107t-107 268t107 268t268 107q106 0 192 -53q38 -22 68 -52z" />
    <glyph glyph-name="D" unicode="D" horiz-adv-x="755" 
d="M195 45h150q135 0 222.5 86.5t87.5 218.5t-87.5 218.5t-222.5 86.5h-150v-610zM710 350q0 -151 -102.5 -250.5t-262.5 -99.5h-315v45h115v610h-115v45h315q160 0 262.5 -99.5t102.5 -250.5z" />
    <glyph glyph-name="E" unicode="E" horiz-adv-x="690" 
d="M30 0v45h115v610h-115v45h590v-210h-45v165h-380v-270h260v-45h-260v-295h380v165h45v-210h-590z" />
    <glyph glyph-name="F" unicode="F" horiz-adv-x="660" 
d="M30 0v45h115v610h-115v45h580v-220h-45v175h-370v-305h265v-45h-265v-260h115v-45h-280z" />
    <glyph glyph-name="G" unicode="G" horiz-adv-x="765" 
d="M695 375v-285q-33 -35 -70 -58q-92 -57 -205 -57q-161 0 -268 107t-107 268t107 268t268 107q107 0 201 -58q41 -25 69 -57l-30 -35q-32 32 -64 52q-80 53 -176 53q-135 0 -227.5 -95.5t-92.5 -234.5t92.5 -234.5t227.5 -95.5q89 0 165 45q35 19 60 45v220h-230v45h280z
" />
    <glyph glyph-name="H" unicode="H" horiz-adv-x="810" 
d="M195 700v-315h420v270h-115v45h280v-45h-115v-610h115v-45h-165v340h-420v-295h115v-45h-280v45h115v610h-115v45h165z" />
    <glyph glyph-name="I" unicode="I" horiz-adv-x="360" 
d="M155 45v610h-125v45h300v-45h-125v-610h125v-45h-300v45h125z" />
    <glyph glyph-name="J" unicode="J" horiz-adv-x="490" 
d="M285 205v450h-125v45h300v-45h-125v-450q0 -107 -56 -168.5t-144 -61.5q-55 0 -98 27q-21 12 -37 28l25 35q9 -9 31 -23q38 -22 79 -22q67 0 108.5 47.5t41.5 137.5z" />
    <glyph glyph-name="K" unicode="K" horiz-adv-x="740" 
d="M375 340h-180v-295h115v-45h-280v45h115v610h-115v45h280v-45h-115v-270h180l200 315h135v-45h-105l-190 -290l210 -320h105v-45h-135z" />
    <glyph glyph-name="L" unicode="L" horiz-adv-x="650" 
d="M30 655v45h280v-45h-115v-610h370v165h45v-210h-580v45h115v610h-115z" />
    <glyph glyph-name="M" unicode="M" horiz-adv-x="985" 
d="M480 225l-280 385h-5v-565h115v-45h-280v45h115v610h-115v45h165l295 -410h5l295 410h165v-45h-115v-610h115v-45h-280v45h115v565h-5l-280 -385h-25z" />
    <glyph glyph-name="N" unicode="N" horiz-adv-x="820" 
d="M30 700h170l420 -615h5v570h-115v45h280v-45h-115v-655h-55l-420 615h-5v-570h115v-45h-280v45h115v610h-115v45z" />
    <glyph glyph-name="O" unicode="O" horiz-adv-x="820" 
d="M45 350q0 160 105.5 267.5t259.5 107.5t259.5 -107.5t105.5 -267.5t-105.5 -267.5t-259.5 -107.5t-259.5 107.5t-105.5 267.5zM720 350q0 137 -92.5 233.5t-217.5 96.5t-217.5 -96.5t-92.5 -233.5t92.5 -233.5t217.5 -96.5t217.5 96.5t92.5 233.5z" />
    <glyph glyph-name="P" unicode="P" horiz-adv-x="690" 
d="M195 290v-245h115v-45h-280v45h115v610h-115v45h395q106 0 170.5 -58.5t64.5 -146.5t-64.5 -146.5t-170.5 -58.5h-230zM195 655v-320h230q81 0 130.5 45.5t49.5 114.5t-49.5 114.5t-130.5 45.5h-230z" />
    <glyph glyph-name="Q" unicode="Q" horiz-adv-x="835" 
d="M45 350q0 160 105.5 267.5t259.5 107.5t259.5 -107.5t105.5 -267.5q0 -106 -48 -194q-20 -38 -47 -66l125 -125l-30 -35l-130 125q-26 -23 -59 -40q-78 -40 -176 -40q-154 0 -259.5 107.5t-105.5 267.5zM720 350q0 137 -92.5 233.5t-217.5 96.5t-217.5 -96.5
t-92.5 -233.5t92.5 -233.5t217.5 -96.5q77 0 145 37q29 15 55 38l-145 145l30 35l150 -150q23 30 37 58q38 78 38 167z" />
    <glyph glyph-name="R" unicode="R" horiz-adv-x="745" 
d="M195 310v-265h115v-45h-280v45h115v610h-115v45h390q109 0 169.5 -53.5t60.5 -141.5q0 -112 -93 -163q-41 -23 -92 -27v-5l180 -265h100v-45h-135l-205 310h-210zM195 655v-300h225q85 0 130 40t45 110t-45 110t-130 40h-225z" />
    <glyph glyph-name="S" unicode="S" horiz-adv-x="610" 
d="M560 190q0 -90 -70.5 -152.5t-189.5 -62.5q-102 0 -190 55q-40 24 -70 55l30 35q24 -25 62 -50q80 -50 168 -50q94 0 149.5 49.5t55.5 120.5q0 51 -44.5 83t-107.5 50t-126 39t-107.5 64t-44.5 109q0 78 67 134t173 56q83 0 161 -48q33 -21 59 -47v-135h-45v115
q-15 15 -46 35q-64 35 -129 35q-80 0 -132.5 -45t-52.5 -100q0 -44 32 -75t79.5 -46.5t103.5 -34t103.5 -37.5t79.5 -58t32 -94z" />
    <glyph glyph-name="T" unicode="T" horiz-adv-x="700" 
d="M375 655v-610h125v-45h-300v45h125v610h-230v-175h-45v220h600v-220h-45v175h-230z" />
    <glyph glyph-name="U" unicode="U" horiz-adv-x="810" 
d="M195 700v-458q0 -102 57.5 -162t152.5 -60t152.5 60t57.5 162v413h-115v45h280v-45h-115v-413q0 -125 -69.5 -196t-190.5 -71t-190.5 71t-69.5 196v413h-115v45h165z" />
    <glyph glyph-name="V" unicode="V" horiz-adv-x="745" 
d="M370 65h5l235 635h135v-45h-100l-245 -655h-55l-245 655h-100v45h135z" />
    <glyph glyph-name="W" unicode="W" horiz-adv-x="1055" 
d="M530 625h-5l-185 -625h-60l-180 655h-100v45h135l175 -625h5l185 625h55l185 -625h5l175 625h135v-45h-100l-180 -655h-60z" />
    <glyph glyph-name="X" unicode="X" horiz-adv-x="705" 
d="M350 410h5l180 290h140v-45h-105l-180 -285l210 -325h105v-45h-140l-210 330h-5l-210 -330h-140v45h105l210 325l-180 285h-105v45h140z" />
    <glyph glyph-name="Y" unicode="Y" horiz-adv-x="700" 
d="M375 275v-230h125v-45h-300v45h125v230l-225 380h-100v45h135l212 -370h6l212 370h135v-45h-100z" />
    <glyph glyph-name="Z" unicode="Z" horiz-adv-x="660" 
d="M50 55l490 595v5h-435v-165h-45v210h540v-55l-490 -595v-5h455v164h45v-209h-560v55z" />
    <glyph glyph-name="bracketleft" unicode="[" horiz-adv-x="345" 
d="M100 -180v980h225v-45h-175v-890h175v-45h-225z" />
    <glyph glyph-name="backslash" unicode="\" horiz-adv-x="480" 
d="M40 750h50l350 -800h-50z" />
    <glyph glyph-name="bracketright" unicode="]" horiz-adv-x="345" 
d="M245 800v-980h-225v45h175v890h-175v45h225z" />
    <glyph glyph-name="asciicircum" unicode="^" horiz-adv-x="525" 
d="M435 365l-170 275h-5l-170 -275h-50l200 325h45l200 -325h-50z" />
    <glyph glyph-name="underscore" unicode="_" horiz-adv-x="465" 
d="M25 -110h415v-45h-415v45z" />
    <glyph glyph-name="grave" unicode="`" horiz-adv-x="245" 
d="M40 700h60l105 -200h-40z" />
    <glyph glyph-name="a" unicode="a" horiz-adv-x="600" 
d="M485 335v-290h95v-45h-140l-5 70h-5q-25 -25 -56 -45q-68 -45 -134 -45q-90 0 -142.5 44.5t-52.5 110.5q0 70 52 115t143 45h195v40q0 64 -43.5 107t-111.5 43q-58 0 -114 -33q-24 -14 -41 -32l-30 35q25 23 49 37q64 38 136 38q89 0 147 -56t58 -139zM240 25
q65 0 137 50q37 26 58 50v125h-195q-66 0 -103 -32t-37 -83q0 -47 37 -78.5t103 -31.5z" />
    <glyph glyph-name="b" unicode="b" horiz-adv-x="670" 
d="M375 -20q-71 0 -139 45q-29 18 -56 45h-5l-5 -70h-140v45h95v610h-95v45h145v-280h5q27 27 56 45q68 45 139 45q102 0 176 -77t74 -188t-74 -188t-176 -77zM375 25q77 0 136 64.5t59 155.5t-59 155.5t-136 64.5q-69 0 -141 -50q-36 -26 -59 -50v-240q23 -24 59 -50
q72 -50 141 -50z" />
    <glyph glyph-name="c" unicode="c" horiz-adv-x="565" 
d="M475 335v85q-19 19 -42 32q-56 33 -113 33q-91 0 -155.5 -66.5t-64.5 -163.5t64.5 -163.5t155.5 -66.5q68 0 126 42q27 19 44 43l35 -35q-23 -28 -52 -48q-69 -47 -153 -47q-120 0 -197.5 77.5t-77.5 197.5t77.5 197.5t197.5 77.5q73 0 145 -43q30 -17 55 -42v-110h-45z
" />
    <glyph glyph-name="d" unicode="d" horiz-adv-x="660" 
d="M295 -20q-102 0 -176 77t-74 188t74 188t176 77q71 0 139 -45q29 -18 56 -45h5v235h-95v45h145v-655h95v-45h-140l-5 70h-5q-27 -27 -56 -45q-68 -45 -139 -45zM295 25q69 0 141 50q36 26 59 50v240q-23 24 -59 50q-72 50 -141 50q-77 0 -136 -64.5t-59 -155.5t59 -155.5
t136 -64.5z" />
    <glyph glyph-name="e" unicode="e" horiz-adv-x="590" 
d="M535 235h-435q0 -82 64 -146t146 -64q73 0 131 42q27 19 44 43l30 -35q-23 -28 -52 -48q-69 -47 -153 -47q-113 0 -189 78t-76 197q0 118 73.5 196.5t176.5 78.5q106 0 178 -71t72 -164q0 -25 -5 -43zM295 485q-76 0 -135.5 -61.5t-59.5 -143.5h390v15q0 73 -57.5 131.5
t-137.5 58.5z" />
    <glyph glyph-name="f" unicode="f" horiz-adv-x="375" 
d="M175 520v-35h180v-45h-180v-395h95v-45h-240v45h95v395h-95v45h95v35q0 92 50 146t130 54q40 0 75 -20q14 -8 30 -20l-20 -35q-10 7 -24 15q-32 15 -61 15q-58 0 -94 -41t-36 -114z" />
    <glyph glyph-name="g" unicode="g" horiz-adv-x="670" 
d="M545 465v-410q0 -119 -76 -197t-189 -78q-89 0 -158 47q-30 20 -52 48l35 35q17 -23 46 -43q62 -42 129 -42q88 0 151.5 66.5t63.5 163.5v55h-5q-27 -27 -56 -45q-68 -45 -139 -45q-102 0 -176 75t-74 180t74 180t176 75q71 0 139 -45q29 -18 56 -45h5l5 70h140v-45h-95z
M295 485q-76 0 -135.5 -62t-59.5 -148t59.5 -148t135.5 -62q69 0 141 50q36 26 59 50v220q-23 24 -59 50q-72 50 -141 50z" />
    <glyph glyph-name="h" unicode="h" 
d="M515 45v295q0 68 -38 106.5t-102 38.5q-69 0 -141 -50q-36 -26 -59 -50v-340h95v-45h-240v45h95v610h-95v45h145v-260h5q27 27 56 45q68 45 139 45q87 0 138.5 -51.5t51.5 -138.5v-295h95v-45h-240v45h95z" />
    <glyph glyph-name="i" unicode="i" horiz-adv-x="290" 
d="M30 510h145v-465h95v-45h-240v45h95v420h-95v45zM195 665q0 -19 -13 -32t-32 -13t-32 13t-13 32t13 32t32 13t32 -13t13 -32z" />
    <glyph glyph-name="j" unicode="j" horiz-adv-x="305" 
d="M155 -35v500h-95v45h145v-545q0 -89 -44.5 -137t-120.5 -48q-41 0 -73 17q-17 7 -27 18l20 40q10 -8 23 -15q28 -15 57 -15q51 0 83 37t32 103zM225 665q0 -19 -13 -32t-32 -13t-32 13t-13 32t13 32t32 13t32 -13t13 -32z" />
    <glyph glyph-name="k" unicode="k" horiz-adv-x="595" 
d="M175 700v-400h135l145 210h110v-45h-80l-130 -185l150 -235h85v-45h-120l-160 256h-135v-211h96v-45h-241v45h95v610h-95v45h145z" />
    <glyph glyph-name="l" unicode="l" horiz-adv-x="290" 
d="M30 700h145v-655h95v-45h-240v45h95v610h-95v45z" />
    <glyph glyph-name="m" unicode="m" horiz-adv-x="980" 
d="M815 0v340q0 66 -35 105.5t-85 39.5q-66 0 -129 -53q-26 -21 -51 -52l2 -11q3 -21 3 -29v-295h95v-45h-145v340q0 66 -35 105.5t-85 39.5q-63 0 -125 -50q-31 -26 -50 -50v-340h95v-45h-240v45h95v420h-95v45h140l5 -70h5q20 24 47 45q61 45 123 45q68 0 116 -50
q21 -22 34 -50h5q25 28 56 50q70 50 134 50q73 0 121.5 -52.5t48.5 -137.5v-295h95v-45h-145z" />
    <glyph glyph-name="n" unicode="n" 
d="M30 510h140l5 -70h5q27 27 56 45q68 45 139 45q87 0 138.5 -51.5t51.5 -138.5v-295h95v-45h-240v45h95v295q0 68 -38 106.5t-102 38.5q-69 0 -141 -50q-36 -26 -59 -50v-340h95v-45h-240v45h95v420h-95v45z" />
    <glyph glyph-name="o" unicode="o" horiz-adv-x="620" 
d="M45 255q0 116 77.5 195.5t187.5 79.5t187.5 -79.5t77.5 -195.5t-77.5 -195.5t-187.5 -79.5t-187.5 79.5t-77.5 195.5zM520 255q0 96 -63 163t-147 67q-83 0 -146.5 -67.5t-63.5 -162.5q0 -96 63 -163t147 -67t147 67t63 163z" />
    <glyph glyph-name="p" unicode="p" horiz-adv-x="660" 
d="M20 -200v45h95v620h-95v45h140l5 -70h5q27 27 56 45q68 45 139 45q102 0 176 -77t74 -188t-74 -188t-176 -77q-71 0 -139 45q-29 18 -56 45h-5v-245h95v-45h-240zM365 485q-69 0 -141 -50q-36 -26 -59 -50v-240q23 -24 59 -50q72 -50 141 -50q77 0 136 64.5t59 155.5
t-59 155.5t-136 64.5z" />
    <glyph glyph-name="q" unicode="q" horiz-adv-x="660" 
d="M640 -155v-45h-240v45h95v245h-5q-27 -27 -56 -45q-68 -45 -139 -45q-102 0 -176 77t-74 188t74 188t176 77q71 0 139 -45q29 -18 56 -45h5l5 70h140v-45h-95v-620h95zM295 485q-77 0 -136 -64.5t-59 -155.5t59 -155.5t136 -64.5q69 0 141 50q36 26 59 50v240
q-23 24 -59 50q-72 50 -141 50z" />
    <glyph glyph-name="r" unicode="r" horiz-adv-x="430" 
d="M420 515l-15 -50l-15 7q-22 8 -45 8q-62 0 -123 -45q-27 -21 -47 -45v-345h95v-45h-240v45h95v420h-95v45h140l5 -70h5q20 26 45 45q57 45 120 45q28 0 54 -8q7 -3 21 -7z" />
    <glyph glyph-name="s" unicode="s" horiz-adv-x="515" 
d="M470 140q0 -68 -58 -114t-162 -46q-89 0 -158 47q-30 20 -52 48l30 35q19 -24 45 -43q62 -42 135 -42q78 0 121.5 33.5t43.5 81.5q0 35 -35.5 56.5t-86 33t-101.5 26t-86.5 46.5t-35.5 83q0 60 53.5 102.5t146.5 42.5q72 0 136 -40q28 -18 49 -40v-100h-45v80
q-16 14 -38 27q-45 28 -102 28q-68 0 -106.5 -29.5t-38.5 -70.5q0 -37 35.5 -59.5t86 -34t101.5 -25.5t86.5 -45t35.5 -81z" />
    <glyph glyph-name="t" unicode="t" horiz-adv-x="410" 
d="M165 465v-285q0 -73 36 -114t94 -41q33 0 61 15q14 6 24 15l20 -35q-16 -12 -30 -20q-35 -20 -75 -20q-80 0 -130 54t-50 146v285h-95v45h95l25 155h25v-155h180v-45h-180z" />
    <glyph glyph-name="u" unicode="u" 
d="M650 0h-140l-5 70h-5q-27 -27 -56 -45q-68 -45 -139 -45q-87 0 -138.5 51.5t-51.5 138.5v295h-95v45h145v-340q0 -68 38 -106.5t102 -38.5q69 0 141 50q36 26 59 50v340h-95v45h240v-45h-95v-420h95v-45z" />
    <glyph glyph-name="v" unicode="v" horiz-adv-x="590" 
d="M500 465l-175 -465h-60l-175 465h-90v45h125l168 -450h4l168 450h125v-45h-90z" />
    <glyph glyph-name="w" unicode="w" horiz-adv-x="860" 
d="M433 445h-6l-137 -445h-60l-145 465h-85v45h120l138 -440h4l138 440h60l138 -440h4l138 440h120v-45h-85l-145 -465h-60z" />
    <glyph glyph-name="x" unicode="x" horiz-adv-x="540" 
d="M268 230l-148 -230h-120v45h90l140 220l-125 200h-85v45h115l133 -210h4l133 210h115v-45h-85l-125 -200l140 -220h90v-45h-120l-148 230h-4z" />
    <glyph glyph-name="y" unicode="y" horiz-adv-x="590" 
d="M280 0l-190 465h-90v45h125l178 -450h4l158 450h125v-45h-90l-165 -465q-42 -119 -90.5 -169.5t-119.5 -50.5q-40 0 -75 20q-14 8 -30 20l20 36q8 -6 26 -16q30 -15 59 -15q50 0 88 41.5t67 133.5z" />
    <glyph glyph-name="z" unicode="z" horiz-adv-x="545" 
d="M490 460l-380 -410v-5h345v130h45v-175h-455v50l380 410v5h-325v-130h-45v175h435v-50z" />
    <glyph glyph-name="braceleft" unicode="{" horiz-adv-x="365" 
d="M185 195v-215q0 -61 30 -90.5t95 -29.5h25v-45h-25q-90 0 -132.5 40.5t-42.5 124.5v215q0 39 -26.5 64.5t-67.5 25.5h-21v45h21q41 0 67.5 25.5t26.5 64.5v215q0 84 42.5 124.5t132.5 40.5h25v-45h-25q-65 0 -95 -29.5t-30 -90.5v-215q0 -57 -38 -89q-16 -13 -37 -21v-5
q21 -8 37 -21q38 -32 38 -89z" />
    <glyph glyph-name="bar" unicode="|" horiz-adv-x="270" 
d="M160 -180h-50v990h50v-990z" />
    <glyph glyph-name="braceright" unicode="}" horiz-adv-x="365" 
d="M180 -20v215q0 58 37 89q16 13 38 21v5q-22 8 -38 21q-37 31 -37 89v215q0 61 -30 90.5t-95 29.5h-25v45h25q90 0 132.5 -40.5t42.5 -124.5v-215q0 -39 26.5 -64.5t67.5 -25.5h21v-45h-21q-41 0 -67.5 -25.5t-26.5 -64.5v-215q0 -84 -42.5 -124.5t-132.5 -40.5h-25v45h25
q65 0 95 29.5t30 90.5z" />
    <glyph glyph-name="asciitilde" unicode="~" horiz-adv-x="540" 
d="M375 290q28 0 49 22t21 58v45h45v-45q0 -56 -32.5 -90.5t-82.5 -34.5q-37 0 -67.5 20.5t-48.5 44.5t-43 44.5t-51 20.5q-28 0 -49 -22t-21 -58v-45h-45v45q0 56 32.5 90.5t82.5 34.5q37 0 68 -20.5t48.5 -44.5t42.5 -44.5t51 -20.5z" />
    <glyph glyph-name="nbspace" unicode="&#xa0;" horiz-adv-x="240" 
 />
    <glyph glyph-name="exclamdown" unicode="&#xa1;" horiz-adv-x="280" 
d="M150 350l15 -180v-370h-50v370l15 180h20zM95 475q0 19 13 32t32 13t32 -13t13 -32t-13 -32t-32 -13t-32 13t-13 32z" />
    <glyph glyph-name="cent" unicode="&#xa2;" horiz-adv-x="565" 
d="M335 -115h-45v97q-107 10 -176 84.5t-69 188.5t69 188.5t176 84.5v107h45v-106q70 -6 134 -45q29 -18 51 -39v-110h-45v85q-19 19 -42 32q-56 33 -113 33q-91 0 -155.5 -66.5t-64.5 -163.5t64.5 -163.5t155.5 -66.5q68 0 126 42q27 19 44 43l35 -35q-18 -23 -48 -44
q-62 -45 -142 -51v-95z" />
    <glyph glyph-name="sterling" unicode="&#xa3;" horiz-adv-x="600" 
d="M565 0h-530v45h35q31 15 57 41q58 58 58 139v139h-94v43h94v118q0 93 48 144t132 51q40 0 75 -20q14 -8 30 -20l-20 -35q-10 7 -24 15q-32 15 -61 15q-61 0 -95.5 -38t-34.5 -112v-118h182v-43h-182v-139q0 -82 -50 -136q-23 -26 -50 -39v-5h385v140h45v-185z" />
    <glyph glyph-name="currency" unicode="&#xa4;" horiz-adv-x="720" 
d="M50 355h125v300h-115v45h395q99 0 159.5 -55.5t60.5 -139.5t-60.5 -139.5t-159.5 -55.5h-230v-95h325v-45h-325v-125h115v-45h-280v45h115v125h-125v45h125v95h-125v45zM225 655v-300h230q77 0 123.5 42.5t46.5 107.5t-46.5 107.5t-123.5 42.5h-230z" />
    <glyph glyph-name="yen" unicode="&#xa5;" horiz-adv-x="700" 
d="M615 205h-240v-160h125v-45h-300v45h125v160h-240v45h240v25l-55 90h-185v45h160l-145 245h-100v45h135l212 -370h6l212 370h135v-45h-100l-145 -245h160v-45h-185l-55 -90v-25h240v-45z" />
    <glyph glyph-name="brokenbar" unicode="&#xa6;" horiz-adv-x="270" 
d="M160 -180h-50v390h50v-390zM160 810v-390h-50v390h50z" />
    <glyph glyph-name="section" unicode="&#xa7;" horiz-adv-x="530" 
d="M480 245q0 -82 -68 -129q-29 -20 -67 -31v-5q33 -13 62 -34q63 -47 63 -106q0 -64 -59 -112t-156 -48q-86 0 -156 45q-31 19 -54 45l30 35q22 -22 49 -40q62 -40 131 -40q71 0 115.5 35t44.5 80q0 38 -37.5 66.5t-91.5 48.5t-107.5 42.5t-91 62.5t-37.5 95q0 76 77 129
q35 22 78 36v5q-37 15 -60 32q-60 45 -60 103q0 67 55.5 113.5t149.5 46.5q66 0 134 -35q32 -19 51 -35l-30 -35q-19 16 -44 30q-56 30 -111 30q-68 0 -109 -34t-41 -81q0 -38 35 -66.5t85 -48.5t100 -43t85 -63t35 -94zM425 245q0 66 -90 114q-41 23 -90 36
q-36 -10 -70 -29q-70 -42 -70 -111q0 -65 92 -113q39 -21 93 -37q35 10 67 29q68 41 68 111z" />
    <glyph glyph-name="dieresis" unicode="&#xa8;" horiz-adv-x="360" 
d="M120 670q0 -15 -12.5 -27.5t-27.5 -12.5t-27.5 12.5t-12.5 27.5t12.5 27.5t27.5 12.5t27.5 -12.5t12.5 -27.5zM320 670q0 -15 -12.5 -27.5t-27.5 -12.5t-27.5 12.5t-12.5 27.5t12.5 27.5t27.5 12.5t27.5 -12.5t12.5 -27.5z" />
    <glyph glyph-name="copyright" unicode="&#xa9;" horiz-adv-x="840" 
d="M510 390v55q-7 7 -19 12q-24 13 -56 13q-46 0 -78 -34.5t-32 -85.5t32 -85.5t78 -34.5q34 0 72 22q17 12 28 23l25 -30q-15 -16 -34 -28q-41 -27 -91 -27q-69 0 -112 44t-43 116t43 116t112 44q41 0 83 -23q21 -12 32 -22v-75h-40zM60 355q0 153 105 259t255 106
t255 -106t105 -259t-105 -259t-255 -106t-255 106t-105 259zM725 355q0 132 -89 226t-216 94q-128 0 -216.5 -94t-88.5 -226q0 -130 89 -225t216 -95t216 94t89 226z" />
    <glyph glyph-name="ordfeminine" unicode="&#xaa;" horiz-adv-x="420" 
d="M285 545v15q0 42 -27.5 68.5t-72.5 26.5q-25 0 -57 -15l-23 -15l-25 40q17 10 32 17q38 18 73 18q67 0 108.5 -39.5t41.5 -100.5v-165h65v-45h-110l-5 40h-5q-13 -15 -29 -25q-37 -25 -81 -25q-58 0 -94 30.5t-36 74.5q0 40 36 70t94 30h115zM285 440v65h-115
q-33 0 -54 -18t-21 -42q0 -25 19.5 -42.5t55.5 -17.5q48 0 84 27q18 12 31 28z" />
    <glyph glyph-name="guillemotleft" unicode="&#xab;" horiz-adv-x="540" 
d="M235 35l-180 225l180 225l35 -30l-160 -195l160 -195zM450 35l-180 225l180 225l35 -30l-160 -195l160 -195z" />
    <glyph glyph-name="logicalnot" unicode="&#xac;" horiz-adv-x="530" 
d="M430 215v150h-390v45h440v-195h-50z" />
    <glyph glyph-name="uni00AD" unicode="&#xad;" horiz-adv-x="505" 
d="M40 360h425v-45h-425v45z" />
    <glyph glyph-name="registered" unicode="&#xae;" horiz-adv-x="840" 
d="M415 205h-145v40h50v215h-50v40h177q54 0 83.5 -26t29.5 -69q0 -45 -38 -69q-18 -12 -37 -16v-5l50 -70h45v-40h-70l-70 105h-75v-65h50v-40zM365 460v-110h82q29 0 46 15.5t17 39.5t-17 39.5t-46 15.5h-82zM60 355q0 153 105 259t255 106t255 -106t105 -259t-105 -259
t-255 -106t-255 106t-105 259zM725 355q0 132 -89 226t-216 94q-128 0 -216.5 -94t-88.5 -226q0 -130 89 -225t216 -95t216 94t89 226z" />
    <glyph glyph-name="macron" unicode="&#xaf;" horiz-adv-x="410" 
d="M40 695h330v-45h-330v45z" />
    <glyph glyph-name="degree" unicode="&#xb0;" horiz-adv-x="420" 
d="M90 540q0 -52 35.5 -88.5t84.5 -36.5t84.5 36.5t35.5 88.5t-35.5 88.5t-84.5 36.5t-84.5 -36.5t-35.5 -88.5zM375 540q0 -68 -48.5 -116.5t-116.5 -48.5t-116.5 48.5t-48.5 116.5t48.5 116.5t116.5 48.5t116.5 -48.5t48.5 -116.5z" />
    <glyph glyph-name="plusminus" unicode="&#xb1;" horiz-adv-x="530" 
d="M45 80v40h200v205h-205v40h205v205h40v-205h205v-40h-205v-205h200v-40h-440z" />
    <glyph glyph-name="twosuperior" unicode="&#xb2;" horiz-adv-x="370" 
d="M45 350v50l125 85q24 15 45 35q45 41 45 80q0 27 -21.5 46t-58.5 19q-33 0 -61 -15q-14 -10 -19 -15v-53h-45v78q20 16 36 25q48 25 89 25q62 0 98.5 -31.5t36.5 -78.5q0 -51 -53 -104q-22 -22 -52 -41l-85 -55v-5h195v-45h-275z" />
    <glyph glyph-name="threesuperior" unicode="&#xb3;" horiz-adv-x="350" 
d="M295 650l-115 -95v-5q35 -3 62 -15q63 -30 63 -90q0 -44 -38.5 -74.5t-106.5 -30.5q-51 0 -95 25q-18 10 -35 25l25 40q11 -11 30 -23q38 -22 75 -22q43 0 66.5 17.5t23.5 42.5t-23.5 42.5t-66.5 17.5h-50v45l120 100v5h-185v45h250v-50z" />
    <glyph glyph-name="acute" unicode="&#xb4;" horiz-adv-x="245" 
d="M145 770h60l-125 -200h-40z" />
    <glyph glyph-name="mu" unicode="&#xb5;" 
d="M170 40h-5v-240h-50v665h-95v45h145v-340q0 -68 38 -106.5t102 -38.5q69 0 141 50q36 26 59 50v340h-95v45h240v-45h-95v-420h95v-45h-140l-5 70h-5q-27 -27 -56 -45q-68 -45 -139 -45q-53 0 -99 30q-20 14 -36 30z" />
    <glyph glyph-name="paragraph" unicode="&#xb6;" horiz-adv-x="590" 
d="M250 700h310v-45h-100v-855h-45v855h-120v-855h-45v530q-82 0 -138.5 54.5t-56.5 130.5t56.5 130.5t138.5 54.5z" />
    <glyph glyph-name="periodcentered" unicode="&#xb7;" horiz-adv-x="240" 
d="M165 350q0 -19 -13 -32t-32 -13t-32 13t-13 32t13 32t32 13t32 -13t13 -32z" />
    <glyph glyph-name="cedilla" unicode="&#xb8;" horiz-adv-x="295" 
d="M210 -185q0 27 -20 46t-50 19q-13 0 -34 -3l-11 -2l25 135h40l-15 -90q48 0 79 -30t31 -75q0 -46 -33.5 -75.5t-91.5 -29.5q-34 0 -64 15q-15 7 -26 15l15 35q14 -10 21 -13q22 -12 54 -12q37 0 58.5 19t21.5 46z" />
    <glyph glyph-name="onesuperior" unicode="&#xb9;" horiz-adv-x="330" 
d="M160 640l-85 -55l-25 35l120 80h45v-305h75v-45h-200v45h75v245h-5z" />
    <glyph glyph-name="ordmasculine" unicode="&#xba;" horiz-adv-x="420" 
d="M95 520q0 -58 34.5 -96.5t80.5 -38.5t80.5 38.5t34.5 96.5t-34.5 96.5t-80.5 38.5t-80.5 -38.5t-34.5 -96.5zM380 520q0 -78 -49 -129t-121 -51t-121 51t-49 129t49 129t121 51t121 -51t49 -129z" />
    <glyph glyph-name="guillemotright" unicode="&#xbb;" horiz-adv-x="540" 
d="M485 260l-180 -225l-35 30l160 195l-160 195l35 30zM270 260l-180 -225l-35 30l160 195l-160 195l35 30z" />
    <glyph glyph-name="onequarter" unicode="&#xbc;" horiz-adv-x="850" 
d="M500 121l130 230h55l-130 -225v-5h140v105h50v-105h55v-45h-55v-75h-50v75h-195v45zM235 0h-55l445 700h55zM160 640l-85 -55l-25 35l120 80h45v-305h75v-45h-200v45h75v245h-5z" />
    <glyph glyph-name="onehalf" unicode="&#xbd;" horiz-adv-x="860" 
d="M160 640l-85 -55l-25 35l120 80h45v-305h75v-45h-200v45h75v245h-5zM235 0h-55l445 700h55zM530 1v50l125 85q24 15 45 35q45 41 45 80q0 27 -21.5 46t-58.5 19q-33 0 -61 -15q-14 -10 -19 -15v-53h-45v78q20 16 36 25q48 25 89 25q62 0 98.5 -31.5t36.5 -78.5
q0 -51 -53 -104q-22 -22 -52 -41l-85 -55v-5h195v-45h-275z" />
    <glyph glyph-name="threequarters" unicode="&#xbe;" horiz-adv-x="865" 
d="M515 121l130 230h55l-130 -225v-5h140v105h50v-105h55v-45h-55v-75h-50v75h-195v45zM251 0h-55l445 700h55zM310 650l-115 -95v-5q35 -3 62 -15q63 -30 63 -90q0 -44 -38.5 -74.5t-106.5 -30.5q-51 0 -95 25q-18 10 -35 25l25 40q11 -11 30 -23q38 -22 75 -22
q43 0 66.5 17.5t23.5 42.5t-23.5 42.5t-66.5 17.5h-50v45l120 100v5h-185v45h250v-50z" />
    <glyph glyph-name="questiondown" unicode="&#xbf;" horiz-adv-x="575" 
d="M535 5v-140q-25 -25 -60 -45q-76 -45 -165 -45q-116 0 -185.5 59.5t-69.5 145.5q0 47 24.5 88t60 71.5t71 58.5t60 60.5t24.5 66.5v25h50v-25q0 -34 -17.5 -65.5t-43.5 -55t-56.5 -50t-56.5 -50.5t-43.5 -56.5t-17.5 -67.5q0 -70 54.5 -117.5t145.5 -47.5q71 0 131 37
q24 15 49 38v115h45zM275 475q0 19 13 32t32 13t32 -13t13 -32t-13 -32t-32 -13t-32 13t-13 32z" />
    <glyph glyph-name="Agrave" unicode="&#xc0;" horiz-adv-x="765" 
d="M415 700l255 -655h95v-45h-254v45h104l-75 200h-315l-75 -200h104v-45h-254v45h95l255 655h65zM380 640l-135 -350h275l-135 350h-5zM235 970h60l105 -200h-40z" />
    <glyph glyph-name="Aacute" unicode="&#xc1;" horiz-adv-x="765" 
d="M415 700l255 -655h95v-45h-254v45h104l-75 200h-315l-75 -200h104v-45h-254v45h95l255 655h65zM380 640l-135 -350h275l-135 350h-5zM475 970h60l-125 -200h-40z" />
    <glyph glyph-name="Acircumflex" unicode="&#xc2;" horiz-adv-x="765" 
d="M415 700l255 -655h95v-45h-254v45h104l-75 200h-315l-75 -200h104v-45h-254v45h95l255 655h65zM380 640l-135 -350h275l-135 350h-5zM195 770l165 205h45l165 -205h-55l-130 160h-5l-130 -160h-55z" />
    <glyph glyph-name="Atilde" unicode="&#xc3;" horiz-adv-x="765" 
d="M415 700l255 -655h95v-45h-254v45h104l-75 200h-315l-75 -200h104v-45h-254v45h95l255 655h65zM380 640l-135 -350h275l-135 350h-5zM470 825q20 0 32.5 15.5t12.5 44.5v45h40v-45q0 -48 -23 -74t-62 -26q-22 0 -41 11.5t-33 27.5t-26.5 32t-28 27.5t-31.5 11.5
q-20 0 -32.5 -15.5t-12.5 -44.5v-45h-40v45q0 48 23 74t62 26q27 0 50.5 -17t37 -38t33 -38t39.5 -17z" />
    <glyph glyph-name="Adieresis" unicode="&#xc4;" horiz-adv-x="765" 
d="M415 700l255 -655h95v-45h-254v45h104l-75 200h-315l-75 -200h104v-45h-254v45h95l255 655h65zM380 640l-135 -350h275l-135 350h-5zM320 865q0 -15 -12.5 -27.5t-27.5 -12.5t-27.5 12.5t-12.5 27.5t12.5 27.5t27.5 12.5t27.5 -12.5t12.5 -27.5zM520 865
q0 -15 -12.5 -27.5t-27.5 -12.5t-27.5 12.5t-12.5 27.5t12.5 27.5t27.5 12.5t27.5 -12.5t12.5 -27.5z" />
    <glyph glyph-name="Aring" unicode="&#xc5;" horiz-adv-x="765" 
d="M415 700l255 -655h95v-45h-254v45h104l-75 200h-315l-75 -200h104v-45h-254v45h95l255 655h65zM380 640l-135 -350h275l-135 350h-5zM290 885q0 -42 25.5 -68.5t64.5 -26.5t64.5 26.5t25.5 68.5t-25.5 68.5t-64.5 26.5t-64.5 -26.5t-25.5 -68.5zM515 885
q0 -57 -37.5 -93.5t-97.5 -36.5t-97.5 36.5t-37.5 93.5t37.5 93.5t97.5 36.5t97.5 -36.5t37.5 -93.5z" />
    <glyph glyph-name="AE" unicode="&#xc6;" horiz-adv-x="1085" 
d="M449 0v45h116v220h-310l-100 -220h110v-45h-265v45h105l285 655h625v-210h-45v165h-355v-270h235v-45h-235v-295h355v165h45v-210h-566zM420 655l-150 -345h295v345h-145z" />
    <glyph glyph-name="Ccedilla" unicode="&#xc7;" horiz-adv-x="740" 
d="M465 -185q0 27 -20 46t-50 19q-13 0 -34 -3l-11 -2l20 105q-142 14 -233.5 118t-91.5 252q0 161 107 268t268 107q106 0 192 -53q38 -22 68 -52v-140h-45v115q-21 23 -55 42q-74 43 -160 43q-135 0 -227.5 -95.5t-92.5 -234.5t92.5 -234.5t227.5 -95.5q97 0 181 55
q37 24 64 55l30 -30q-30 -37 -68 -63q-94 -62 -207 -62h-10l-10 -55q48 0 79 -30t31 -75q0 -46 -33 -75.5t-92 -29.5q-34 0 -64 15q-15 7 -26 15l15 35q14 -10 21 -13q22 -12 54 -12q37 0 58.5 19t21.5 46z" />
    <glyph glyph-name="Egrave" unicode="&#xc8;" horiz-adv-x="690" 
d="M30 0v45h115v610h-115v45h590v-210h-45v165h-380v-270h260v-45h-260v-295h380v165h45v-210h-590zM240 970h60l105 -200h-40z" />
    <glyph glyph-name="Eacute" unicode="&#xc9;" horiz-adv-x="690" 
d="M30 0v45h115v610h-115v45h590v-210h-45v165h-380v-270h260v-45h-260v-295h380v165h45v-210h-590zM445 970h60l-125 -200h-40z" />
    <glyph glyph-name="Ecircumflex" unicode="&#xca;" horiz-adv-x="690" 
d="M30 0v45h115v610h-115v45h590v-210h-45v165h-380v-270h260v-45h-260v-295h380v165h45v-210h-590zM170 770l165 205h45l165 -205h-55l-130 160h-5l-130 -160h-55z" />
    <glyph glyph-name="Edieresis" unicode="&#xcb;" horiz-adv-x="690" 
d="M30 0v45h115v610h-115v45h590v-210h-45v165h-380v-270h260v-45h-260v-295h380v165h45v-210h-590zM300 860q0 -15 -12.5 -27.5t-27.5 -12.5t-27.5 12.5t-12.5 27.5t12.5 27.5t27.5 12.5t27.5 -12.5t12.5 -27.5zM500 860q0 -15 -12.5 -27.5t-27.5 -12.5t-27.5 12.5
t-12.5 27.5t12.5 27.5t27.5 12.5t27.5 -12.5t12.5 -27.5z" />
    <glyph glyph-name="Igrave" unicode="&#xcc;" horiz-adv-x="360" 
d="M155 45v610h-125v45h300v-45h-125v-610h125v-45h-300v45h125zM45 970h60l105 -200h-40z" />
    <glyph glyph-name="Iacute" unicode="&#xcd;" horiz-adv-x="360" 
d="M155 45v610h-125v45h300v-45h-125v-610h125v-45h-300v45h125zM265 970h60l-125 -200h-40z" />
    <glyph glyph-name="Icircumflex" unicode="&#xce;" horiz-adv-x="360" 
d="M155 45v610h-125v45h300v-45h-125v-610h125v-45h-300v45h125zM-4 775l165 205h45l165 -205h-55l-130 160h-5l-130 -160h-55z" />
    <glyph glyph-name="Idieresis" unicode="&#xcf;" horiz-adv-x="360" 
d="M155 45v610h-125v45h300v-45h-125v-610h125v-45h-300v45h125zM120 860q0 -15 -12.5 -27.5t-27.5 -12.5t-27.5 12.5t-12.5 27.5t12.5 27.5t27.5 12.5t27.5 -12.5t12.5 -27.5zM320 860q0 -15 -12.5 -27.5t-27.5 -12.5t-27.5 12.5t-12.5 27.5t12.5 27.5t27.5 12.5
t27.5 -12.5t12.5 -27.5z" />
    <glyph glyph-name="Eth" unicode="&#xd0;" horiz-adv-x="770" 
d="M35 330v45h125v280h-115v45h315q160 0 262.5 -99.5t102.5 -250.5t-102.5 -250.5t-262.5 -99.5h-315v45h115v285h-125zM210 45h150q135 0 222.5 86.5t87.5 218.5t-87.5 218.5t-222.5 86.5h-150v-280h225v-45h-225v-285z" />
    <glyph glyph-name="Ntilde" unicode="&#xd1;" horiz-adv-x="820" 
d="M30 700h170l420 -615h5v570h-115v45h280v-45h-115v-655h-55l-420 615h-5v-570h115v-45h-280v45h115v610h-115v45zM490 840q20 0 32.5 15.5t12.5 44.5v45h40v-45q0 -48 -23 -74t-62 -26q-22 0 -41 11.5t-33 27.5t-26.5 32t-28 27.5t-31.5 11.5q-20 0 -32.5 -15.5
t-12.5 -44.5v-45h-40v45q0 48 23 74t62 26q27 0 50.5 -17t37 -38t33 -38t39.5 -17z" />
    <glyph glyph-name="Ograve" unicode="&#xd2;" horiz-adv-x="820" 
d="M45 350q0 160 105.5 267.5t259.5 107.5t259.5 -107.5t105.5 -267.5t-105.5 -267.5t-259.5 -107.5t-259.5 107.5t-105.5 267.5zM720 350q0 137 -92.5 233.5t-217.5 96.5t-217.5 -96.5t-92.5 -233.5t92.5 -233.5t217.5 -96.5t217.5 96.5t92.5 233.5zM275 980h60l105 -200
h-40z" />
    <glyph glyph-name="Oacute" unicode="&#xd3;" horiz-adv-x="820" 
d="M45 350q0 160 105.5 267.5t259.5 107.5t259.5 -107.5t105.5 -267.5t-105.5 -267.5t-259.5 -107.5t-259.5 107.5t-105.5 267.5zM720 350q0 137 -92.5 233.5t-217.5 96.5t-217.5 -96.5t-92.5 -233.5t92.5 -233.5t217.5 -96.5t217.5 96.5t92.5 233.5zM490 980h60l-125 -200
h-40z" />
    <glyph glyph-name="Ocircumflex" unicode="&#xd4;" horiz-adv-x="820" 
d="M45 350q0 160 105.5 267.5t259.5 107.5t259.5 -107.5t105.5 -267.5t-105.5 -267.5t-259.5 -107.5t-259.5 107.5t-105.5 267.5zM720 350q0 137 -92.5 233.5t-217.5 96.5t-217.5 -96.5t-92.5 -233.5t92.5 -233.5t217.5 -96.5t217.5 96.5t92.5 233.5zM225 780l165 205h45
l165 -205h-55l-130 160h-5l-130 -160h-55z" />
    <glyph glyph-name="Otilde" unicode="&#xd5;" horiz-adv-x="820" 
d="M45 350q0 160 105.5 267.5t259.5 107.5t259.5 -107.5t105.5 -267.5t-105.5 -267.5t-259.5 -107.5t-259.5 107.5t-105.5 267.5zM720 350q0 137 -92.5 233.5t-217.5 96.5t-217.5 -96.5t-92.5 -233.5t92.5 -233.5t217.5 -96.5t217.5 96.5t92.5 233.5zM490 835
q20 0 32.5 15.5t12.5 44.5v45h40v-45q0 -48 -23 -74t-62 -26q-22 0 -41 11.5t-33 27.5t-26.5 32t-28 27.5t-31.5 11.5q-20 0 -32.5 -15.5t-12.5 -44.5v-45h-40v45q0 48 23 74t62 26q27 0 50.5 -17t37 -38t33 -38t39.5 -17z" />
    <glyph glyph-name="Odieresis" unicode="&#xd6;" horiz-adv-x="820" 
d="M45 350q0 160 105.5 267.5t259.5 107.5t259.5 -107.5t105.5 -267.5t-105.5 -267.5t-259.5 -107.5t-259.5 107.5t-105.5 267.5zM720 350q0 137 -92.5 233.5t-217.5 96.5t-217.5 -96.5t-92.5 -233.5t92.5 -233.5t217.5 -96.5t217.5 96.5t92.5 233.5zM350 875
q0 -15 -12.5 -27.5t-27.5 -12.5t-27.5 12.5t-12.5 27.5t12.5 27.5t27.5 12.5t27.5 -12.5t12.5 -27.5zM550 875q0 -15 -12.5 -27.5t-27.5 -12.5t-27.5 12.5t-12.5 27.5t12.5 27.5t27.5 12.5t27.5 -12.5t12.5 -27.5z" />
    <glyph glyph-name="multiply" unicode="&#xd7;" horiz-adv-x="490" 
d="M245 305l-145 -145l-30 30l145 145l-145 145l30 30l145 -145l145 145l30 -30l-145 -145l145 -145l-30 -30z" />
    <glyph glyph-name="Oslash" unicode="&#xd8;" horiz-adv-x="820" 
d="M45 350q0 160 105.5 267.5t259.5 107.5q92 0 174 -43q37 -19 61 -42l75 80h55l-100 -110q25 -25 50 -68q50 -88 50 -192q0 -160 -105.5 -267.5t-259.5 -107.5q-94 0 -174 42q-38 20 -61 43l-75 -80h-55l100 110q-25 25 -50 68q-50 88 -50 192zM100 350q0 -89 40 -163
q19 -34 40 -57l430 470q-23 22 -55 40q-70 40 -145 40q-125 0 -217.5 -96.5t-92.5 -233.5zM720 350q0 84 -40 162q-18 33 -40 58l-430 -470q23 -22 55 -40q70 -40 145 -40q125 0 217.5 96.5t92.5 233.5z" />
    <glyph glyph-name="Ugrave" unicode="&#xd9;" horiz-adv-x="810" 
d="M195 700v-458q0 -102 57.5 -162t152.5 -60t152.5 60t57.5 162v413h-115v45h280v-45h-115v-413q0 -125 -69.5 -196t-190.5 -71t-190.5 71t-69.5 196v413h-115v45h165zM265 970h60l105 -200h-40z" />
    <glyph glyph-name="Uacute" unicode="&#xda;" horiz-adv-x="810" 
d="M195 700v-458q0 -102 57.5 -162t152.5 -60t152.5 60t57.5 162v413h-115v45h280v-45h-115v-413q0 -125 -69.5 -196t-190.5 -71t-190.5 71t-69.5 196v413h-115v45h165zM480 970h60l-125 -200h-40z" />
    <glyph glyph-name="Ucircumflex" unicode="&#xdb;" horiz-adv-x="810" 
d="M195 700v-458q0 -102 57.5 -162t152.5 -60t152.5 60t57.5 162v413h-115v45h280v-45h-115v-413q0 -125 -69.5 -196t-190.5 -71t-190.5 71t-69.5 196v413h-115v45h165zM210 775l165 205h45l165 -205h-55l-130 160h-5l-130 -160h-55z" />
    <glyph glyph-name="Udieresis" unicode="&#xdc;" horiz-adv-x="810" 
d="M195 700v-458q0 -102 57.5 -162t152.5 -60t152.5 60t57.5 162v413h-115v45h280v-45h-115v-413q0 -125 -69.5 -196t-190.5 -71t-190.5 71t-69.5 196v413h-115v45h165zM340 850q0 -15 -12.5 -27.5t-27.5 -12.5t-27.5 12.5t-12.5 27.5t12.5 27.5t27.5 12.5t27.5 -12.5
t12.5 -27.5zM540 850q0 -15 -12.5 -27.5t-27.5 -12.5t-27.5 12.5t-12.5 27.5t12.5 27.5t27.5 12.5t27.5 -12.5t12.5 -27.5z" />
    <glyph glyph-name="Yacute" unicode="&#xdd;" horiz-adv-x="700" 
d="M375 275v-230h125v-45h-300v45h125v230l-225 380h-100v45h135l212 -370h6l212 370h135v-45h-100zM440 965h60l-125 -200h-40z" />
    <glyph glyph-name="Thorn" unicode="&#xde;" horiz-adv-x="745" 
d="M215 175v-130h115v-45h-280v45h115v610h-115v45h165v-115h245q106 0 170.5 -58.5t64.5 -146.5t-64.5 -146.5t-170.5 -58.5h-245zM215 540v-320h245q81 0 130.5 45.5t49.5 114.5t-49.5 114.5t-130.5 45.5h-245z" />
    <glyph glyph-name="germandbls" unicode="&#xdf;" horiz-adv-x="620" 
d="M495 550q0 -35 -11.5 -65.5t-26 -47.5t-26 -39t-11.5 -43q0 -26 18.5 -47t45 -37t53 -33.5t45 -46t18.5 -66.5q0 -61 -46 -103t-119 -42q-41 0 -77 17q-15 7 -28 18l20 40q10 -9 24 -15q28 -15 61 -15q52 0 81 27t29 73q0 30 -18.5 53.5t-45 40l-53 33t-45 43t-18.5 60.5
q0 30 18.5 59t37.5 62.5t19 73.5q0 53 -37 89t-93 36q-57 0 -96 -40t-39 -100v-535h-145v45h95v420h-95v45h95v25q0 84 51 134.5t134 50.5q78 0 131.5 -50.5t53.5 -119.5z" />
    <glyph glyph-name="agrave" unicode="&#xe0;" horiz-adv-x="600" 
d="M485 335v-290h95v-45h-140l-5 70h-5q-25 -25 -56 -45q-68 -45 -134 -45q-90 0 -142.5 44.5t-52.5 110.5q0 70 52 115t143 45h195v40q0 64 -43.5 107t-111.5 43q-58 0 -114 -33q-24 -14 -41 -32l-30 35q25 23 49 37q64 38 136 38q89 0 147 -56t58 -139zM240 25
q65 0 137 50q37 26 58 50v125h-195q-66 0 -103 -32t-37 -83q0 -47 37 -78.5t103 -31.5zM165 790h60l105 -200h-40z" />
    <glyph glyph-name="aacute" unicode="&#xe1;" horiz-adv-x="600" 
d="M485 335v-290h95v-45h-140l-5 70h-5q-25 -25 -56 -45q-68 -45 -134 -45q-90 0 -142.5 44.5t-52.5 110.5q0 70 52 115t143 45h195v40q0 64 -43.5 107t-111.5 43q-58 0 -114 -33q-24 -14 -41 -32l-30 35q25 23 49 37q64 38 136 38q89 0 147 -56t58 -139zM240 25
q65 0 137 50q37 26 58 50v125h-195q-66 0 -103 -32t-37 -83q0 -47 37 -78.5t103 -31.5zM375 790h60l-125 -200h-40z" />
    <glyph glyph-name="acircumflex" unicode="&#xe2;" horiz-adv-x="600" 
d="M485 335v-290h95v-45h-140l-5 70h-5q-25 -25 -56 -45q-68 -45 -134 -45q-90 0 -142.5 44.5t-52.5 110.5q0 70 52 115t143 45h195v40q0 64 -43.5 107t-111.5 43q-58 0 -114 -33q-24 -14 -41 -32l-30 35q25 23 49 37q64 38 136 38q89 0 147 -56t58 -139zM240 25
q65 0 137 50q37 26 58 50v125h-195q-66 0 -103 -32t-37 -83q0 -47 37 -78.5t103 -31.5zM105 590l165 205h45l165 -205h-55l-130 160h-5l-130 -160h-55z" />
    <glyph glyph-name="atilde" unicode="&#xe3;" horiz-adv-x="600" 
d="M485 335v-290h95v-45h-140l-5 70h-5q-25 -25 -56 -45q-68 -45 -134 -45q-90 0 -142.5 44.5t-52.5 110.5q0 70 52 115t143 45h195v40q0 64 -43.5 107t-111.5 43q-58 0 -114 -33q-24 -14 -41 -32l-30 35q25 23 49 37q64 38 136 38q89 0 147 -56t58 -139zM240 25
q65 0 137 50q37 26 58 50v125h-195q-66 0 -103 -32t-37 -83q0 -47 37 -78.5t103 -31.5zM370 645q20 0 32.5 15.5t12.5 44.5v45h40v-45q0 -48 -23 -74t-62 -26q-22 0 -41 11.5t-33 27.5t-26.5 32t-28 27.5t-31.5 11.5q-20 0 -32.5 -15.5t-12.5 -44.5v-45h-40v45q0 48 23 74
t62 26q27 0 50.5 -17t37 -38t33 -38t39.5 -17z" />
    <glyph glyph-name="adieresis" unicode="&#xe4;" horiz-adv-x="600" 
d="M485 335v-290h95v-45h-140l-5 70h-5q-25 -25 -56 -45q-68 -45 -134 -45q-90 0 -142.5 44.5t-52.5 110.5q0 70 52 115t143 45h195v40q0 64 -43.5 107t-111.5 43q-58 0 -114 -33q-24 -14 -41 -32l-30 35q25 23 49 37q64 38 136 38q89 0 147 -56t58 -139zM240 25
q65 0 137 50q37 26 58 50v125h-195q-66 0 -103 -32t-37 -83q0 -47 37 -78.5t103 -31.5zM230 675q0 -15 -12.5 -27.5t-27.5 -12.5t-27.5 12.5t-12.5 27.5t12.5 27.5t27.5 12.5t27.5 -12.5t12.5 -27.5zM430 675q0 -15 -12.5 -27.5t-27.5 -12.5t-27.5 12.5t-12.5 27.5
t12.5 27.5t27.5 12.5t27.5 -12.5t12.5 -27.5z" />
    <glyph glyph-name="aring" unicode="&#xe5;" horiz-adv-x="600" 
d="M485 335v-290h95v-45h-140l-5 70h-5q-25 -25 -56 -45q-68 -45 -134 -45q-90 0 -142.5 44.5t-52.5 110.5q0 70 52 115t143 45h195v40q0 64 -43.5 107t-111.5 43q-58 0 -114 -33q-24 -14 -41 -32l-30 35q25 23 49 37q64 38 136 38q89 0 147 -56t58 -139zM240 25
q65 0 137 50q37 26 58 50v125h-195q-66 0 -103 -32t-37 -83q0 -47 37 -78.5t103 -31.5zM210 720q0 -42 25.5 -68.5t64.5 -26.5t64.5 26.5t25.5 68.5t-25.5 68.5t-64.5 26.5t-64.5 -26.5t-25.5 -68.5zM435 720q0 -57 -37.5 -93.5t-97.5 -36.5t-97.5 36.5t-37.5 93.5
t37.5 93.5t97.5 36.5t97.5 -36.5t37.5 -93.5z" />
    <glyph glyph-name="ae" unicode="&#xe6;" horiz-adv-x="940" 
d="M460 400h5q15 36 41 65q63 65 154 65q102 0 168.5 -66.5t66.5 -168.5q0 -25 -5 -43l-5 -17h-405q0 -83 57 -146.5t138 -63.5q72 0 126 40q25 18 39 40l30 -35q-21 -27 -47 -45q-63 -45 -148 -45q-101 0 -168 75q-31 34 -47 75h-5q-18 -42 -48 -75q-67 -75 -167 -75
q-90 0 -142.5 44.5t-52.5 110.5q0 70 52 115t143 45h190v40q0 65 -41.5 107.5t-108.5 42.5q-58 0 -114 -33q-24 -14 -41 -32l-30 35q25 23 49 37q64 38 136 38q91 0 146 -65q24 -30 34 -65zM660 485q-71 0 -125.5 -57.5t-54.5 -147.5h360v15q0 82 -52 136t-128 54zM240 25
q74 0 132 65t58 160h-190q-66 0 -103 -32t-37 -83q0 -47 37 -78.5t103 -31.5z" />
    <glyph glyph-name="ccedilla" unicode="&#xe7;" horiz-adv-x="565" 
d="M370 -185q0 27 -20 46t-50 19q-13 0 -34 -3l-11 -2l20 109q-102 14 -166 88.5t-64 182.5q0 120 77.5 197.5t197.5 77.5q73 0 145 -43q30 -17 55 -42v-110h-45v85q-19 19 -42 32q-56 33 -113 33q-91 0 -155.5 -66.5t-64.5 -163.5t64.5 -163.5t155.5 -66.5q68 0 126 42
q27 19 44 43l35 -35q-23 -28 -52 -48q-69 -47 -153 -47h-5l-10 -60q48 0 79 -30t31 -75q0 -46 -33.5 -75.5t-91.5 -29.5q-34 0 -64 15q-15 7 -26 15l15 35q14 -10 21 -13q22 -12 54 -12q37 0 58.5 19t21.5 46z" />
    <glyph glyph-name="egrave" unicode="&#xe8;" horiz-adv-x="590" 
d="M535 235h-435q0 -82 64 -146t146 -64q73 0 131 42q27 19 44 43l30 -35q-23 -28 -52 -48q-69 -47 -153 -47q-113 0 -189 78t-76 197q0 118 73.5 196.5t176.5 78.5q106 0 178 -71t72 -164q0 -25 -5 -43zM295 485q-76 0 -135.5 -61.5t-59.5 -143.5h390v15q0 73 -57.5 131.5
t-137.5 58.5zM165 790h60l105 -200h-40z" />
    <glyph glyph-name="eacute" unicode="&#xe9;" horiz-adv-x="590" 
d="M535 235h-435q0 -82 64 -146t146 -64q73 0 131 42q27 19 44 43l30 -35q-23 -28 -52 -48q-69 -47 -153 -47q-113 0 -189 78t-76 197q0 118 73.5 196.5t176.5 78.5q106 0 178 -71t72 -164q0 -25 -5 -43zM295 485q-76 0 -135.5 -61.5t-59.5 -143.5h390v15q0 73 -57.5 131.5
t-137.5 58.5zM380 790h60l-125 -200h-40z" />
    <glyph glyph-name="ecircumflex" unicode="&#xea;" horiz-adv-x="590" 
d="M535 235h-435q0 -82 64 -146t146 -64q73 0 131 42q27 19 44 43l30 -35q-23 -28 -52 -48q-69 -47 -153 -47q-113 0 -189 78t-76 197q0 118 73.5 196.5t176.5 78.5q106 0 178 -71t72 -164q0 -25 -5 -43zM295 485q-76 0 -135.5 -61.5t-59.5 -143.5h390v15q0 73 -57.5 131.5
t-137.5 58.5zM105 584l165 205h45l165 -205h-55l-130 160h-5l-130 -160h-55z" />
    <glyph glyph-name="edieresis" unicode="&#xeb;" horiz-adv-x="590" 
d="M535 235h-435q0 -82 64 -146t146 -64q73 0 131 42q27 19 44 43l30 -35q-23 -28 -52 -48q-69 -47 -153 -47q-113 0 -189 78t-76 197q0 118 73.5 196.5t176.5 78.5q106 0 178 -71t72 -164q0 -25 -5 -43zM295 485q-76 0 -135.5 -61.5t-59.5 -143.5h390v15q0 73 -57.5 131.5
t-137.5 58.5zM235 675q0 -15 -12.5 -27.5t-27.5 -12.5t-27.5 12.5t-12.5 27.5t12.5 27.5t27.5 12.5t27.5 -12.5t12.5 -27.5zM435 675q0 -15 -12.5 -27.5t-27.5 -12.5t-27.5 12.5t-12.5 27.5t12.5 27.5t27.5 12.5t27.5 -12.5t12.5 -27.5z" />
    <glyph glyph-name="igrave" unicode="&#xec;" horiz-adv-x="290" 
d="M30 510h145v-465h95v-45h-240v45h95v420h-95v45zM1 785h60l105 -200h-40z" />
    <glyph glyph-name="iacute" unicode="&#xed;" horiz-adv-x="290" 
d="M30 510h145v-465h95v-45h-240v45h95v420h-95v45zM230 785h60l-125 -200h-40z" />
    <glyph glyph-name="icircumflex" unicode="&#xee;" horiz-adv-x="290" 
d="M30 510h145v-465h95v-45h-240v45h95v420h-95v45zM-39 590l165 205h45l165 -205h-55l-130 160h-5l-130 -160h-55z" />
    <glyph glyph-name="idieresis" unicode="&#xef;" horiz-adv-x="290" 
d="M30 510h145v-465h95v-45h-240v45h95v420h-95v45zM96 670q0 -15 -12.5 -27.5t-27.5 -12.5t-27.5 12.5t-12.5 27.5t12.5 27.5t27.5 12.5t27.5 -12.5t12.5 -27.5zM296 670q0 -15 -12.5 -27.5t-27.5 -12.5t-27.5 12.5t-12.5 27.5t12.5 27.5t27.5 12.5t27.5 -12.5t12.5 -27.5z
" />
    <glyph glyph-name="eth" unicode="&#xf0;" horiz-adv-x="610" 
d="M370 775l-65 -80q72 -37 127 -96q128 -138 128 -340v-29q0 -102 -76 -176t-184 -74t-184 74t-76 176t76 176t184 74q78 0 144 -48q27 -20 51 -47h5q-23 117 -121 211q-44 41 -94 69l-70 -90l-30 25l65 80q-18 8 -29 12q-27 10 -71 23l15 35q34 -9 75 -26q26 -12 30 -14
l70 90zM95 230q0 -86 59.5 -145.5t145.5 -59.5t145.5 59.5t59.5 145.5t-59.5 145.5t-145.5 59.5t-145.5 -59.5t-59.5 -145.5z" />
    <glyph glyph-name="ntilde" unicode="&#xf1;" 
d="M30 510h140l5 -70h5q27 27 56 45q68 45 139 45q87 0 138.5 -51.5t51.5 -138.5v-295h95v-45h-240v45h95v295q0 68 -38 106.5t-102 38.5q-69 0 -141 -50q-36 -26 -59 -50v-340h95v-45h-240v45h95v420h-95v45zM425 655q20 0 32.5 15.5t12.5 44.5v45h40v-45q0 -48 -23 -74
t-62 -26q-22 0 -41 11.5t-33 27.5t-26.5 32t-28 27.5t-31.5 11.5q-20 0 -32.5 -15.5t-12.5 -44.5v-45h-40v45q0 48 23 74t62 26q27 0 50.5 -17t37 -38t33 -38t39.5 -17z" />
    <glyph glyph-name="ograve" unicode="&#xf2;" horiz-adv-x="620" 
d="M45 255q0 116 77.5 195.5t187.5 79.5t187.5 -79.5t77.5 -195.5t-77.5 -195.5t-187.5 -79.5t-187.5 79.5t-77.5 195.5zM520 255q0 96 -63 163t-147 67q-83 0 -146.5 -67.5t-63.5 -162.5q0 -96 63 -163t147 -67t147 67t63 163zM175 790h60l105 -200h-40z" />
    <glyph glyph-name="oacute" unicode="&#xf3;" horiz-adv-x="620" 
d="M45 255q0 116 77.5 195.5t187.5 79.5t187.5 -79.5t77.5 -195.5t-77.5 -195.5t-187.5 -79.5t-187.5 79.5t-77.5 195.5zM520 255q0 96 -63 163t-147 67q-83 0 -146.5 -67.5t-63.5 -162.5q0 -96 63 -163t147 -67t147 67t63 163zM385 790h60l-125 -200h-40z" />
    <glyph glyph-name="ocircumflex" unicode="&#xf4;" horiz-adv-x="620" 
d="M45 255q0 116 77.5 195.5t187.5 79.5t187.5 -79.5t77.5 -195.5t-77.5 -195.5t-187.5 -79.5t-187.5 79.5t-77.5 195.5zM520 255q0 96 -63 163t-147 67q-83 0 -146.5 -67.5t-63.5 -162.5q0 -96 63 -163t147 -67t147 67t63 163zM120 590l165 205h45l165 -205h-55l-130 160
h-5l-130 -160h-55z" />
    <glyph glyph-name="otilde" unicode="&#xf5;" horiz-adv-x="620" 
d="M45 255q0 116 77.5 195.5t187.5 79.5t187.5 -79.5t77.5 -195.5t-77.5 -195.5t-187.5 -79.5t-187.5 79.5t-77.5 195.5zM520 255q0 96 -63 163t-147 67q-83 0 -146.5 -67.5t-63.5 -162.5q0 -96 63 -163t147 -67t147 67t63 163zM380 650q20 0 32.5 15.5t12.5 44.5v45h40v-45
q0 -48 -23 -74t-62 -26q-22 0 -41 11.5t-33 27.5t-26.5 32t-28 27.5t-31.5 11.5q-20 0 -32.5 -15.5t-12.5 -44.5v-45h-40v45q0 48 23 74t62 26q27 0 50.5 -17t37 -38t33 -38t39.5 -17z" />
    <glyph glyph-name="odieresis" unicode="&#xf6;" horiz-adv-x="620" 
d="M45 255q0 116 77.5 195.5t187.5 79.5t187.5 -79.5t77.5 -195.5t-77.5 -195.5t-187.5 -79.5t-187.5 79.5t-77.5 195.5zM520 255q0 96 -63 163t-147 67q-83 0 -146.5 -67.5t-63.5 -162.5q0 -96 63 -163t147 -67t147 67t63 163zM245 670q0 -15 -12.5 -27.5t-27.5 -12.5
t-27.5 12.5t-12.5 27.5t12.5 27.5t27.5 12.5t27.5 -12.5t12.5 -27.5zM445 670q0 -15 -12.5 -27.5t-27.5 -12.5t-27.5 12.5t-12.5 27.5t12.5 27.5t27.5 12.5t27.5 -12.5t12.5 -27.5z" />
    <glyph glyph-name="divide" unicode="&#xf7;" horiz-adv-x="530" 
d="M40 360h450v-45h-450v45zM310 555q0 -19 -13 -32t-32 -13t-32 13t-13 32t13 32t32 13t32 -13t13 -32zM310 120q0 -19 -13 -32t-32 -13t-32 13t-13 32t13 32t32 13t32 -13t13 -32z" />
    <glyph glyph-name="oslash" unicode="&#xf8;" horiz-adv-x="625" 
d="M45 255q0 116 77.5 195.5t187.5 79.5q62 0 120 -30q26 -14 45 -30l50 60h55l-75 -85q17 -17 35 -48q35 -66 35 -142q0 -116 -77.5 -195.5t-187.5 -79.5q-62 0 -120 30q-26 14 -45 30l-50 -60h-55l75 85q-21 21 -35 48q-35 59 -35 142zM100 255q0 -59 25 -111
q9 -20 25 -39l290 330q-22 18 -35 25q-48 25 -95 25q-83 0 -146.5 -67.5t-63.5 -162.5zM520 255q0 55 -25 111q-9 20 -25 39l-290 -330q17 -15 35 -25q44 -25 95 -25q84 0 147 67t63 163z" />
    <glyph glyph-name="ugrave" unicode="&#xf9;" 
d="M650 0h-140l-5 70h-5q-27 -27 -56 -45q-68 -45 -139 -45q-87 0 -138.5 51.5t-51.5 138.5v295h-95v45h145v-340q0 -68 38 -106.5t102 -38.5q69 0 141 50q36 26 59 50v340h-95v45h240v-45h-95v-420h95v-45zM200 780h60l105 -200h-40z" />
    <glyph glyph-name="uacute" unicode="&#xfa;" 
d="M650 0h-140l-5 70h-5q-27 -27 -56 -45q-68 -45 -139 -45q-87 0 -138.5 51.5t-51.5 138.5v295h-95v45h145v-340q0 -68 38 -106.5t102 -38.5q69 0 141 50q36 26 59 50v340h-95v45h240v-45h-95v-420h95v-45zM410 780h60l-125 -200h-40z" />
    <glyph glyph-name="ucircumflex" unicode="&#xfb;" 
d="M650 0h-140l-5 70h-5q-27 -27 -56 -45q-68 -45 -139 -45q-87 0 -138.5 51.5t-51.5 138.5v295h-95v45h145v-340q0 -68 38 -106.5t102 -38.5q69 0 141 50q36 26 59 50v340h-95v45h240v-45h-95v-420h95v-45zM150 590l165 205h45l165 -205h-55l-130 160h-5l-130 -160h-55z
" />
    <glyph glyph-name="udieresis" unicode="&#xfc;" 
d="M650 0h-140l-5 70h-5q-27 -27 -56 -45q-68 -45 -139 -45q-87 0 -138.5 51.5t-51.5 138.5v295h-95v45h145v-340q0 -68 38 -106.5t102 -38.5q69 0 141 50q36 26 59 50v340h-95v45h240v-45h-95v-420h95v-45zM270 666q0 -15 -12.5 -27.5t-27.5 -12.5t-27.5 12.5t-12.5 27.5
t12.5 27.5t27.5 12.5t27.5 -12.5t12.5 -27.5zM470 666q0 -15 -12.5 -27.5t-27.5 -12.5t-27.5 12.5t-12.5 27.5t12.5 27.5t27.5 12.5t27.5 -12.5t12.5 -27.5z" />
    <glyph glyph-name="yacute" unicode="&#xfd;" horiz-adv-x="590" 
d="M280 0l-190 465h-90v45h125l178 -450h4l158 450h125v-45h-90l-165 -465q-42 -119 -90.5 -169.5t-119.5 -50.5q-40 0 -75 20q-14 8 -30 20l20 36q8 -6 26 -16q30 -15 59 -15q50 0 88 41.5t67 133.5zM375 780h60l-125 -200h-40z" />
    <glyph glyph-name="thorn" unicode="&#xfe;" horiz-adv-x="670" 
d="M30 -200v45h95v810h-95v45h145v-260h5q27 27 56 45q68 45 139 45q102 0 176 -77t74 -188t-74 -188t-176 -77q-71 0 -139 45q-29 18 -56 45h-5v-245h95v-45h-240zM375 485q-69 0 -141 -50q-36 -26 -59 -50v-240q23 -24 59 -50q72 -50 141 -50q77 0 136 64.5t59 155.5
t-59 155.5t-136 64.5z" />
    <glyph glyph-name="ydieresis" unicode="&#xff;" horiz-adv-x="590" 
d="M280 0l-190 465h-90v45h125l178 -450h4l158 450h125v-45h-90l-165 -465q-42 -119 -90.5 -169.5t-119.5 -50.5q-40 0 -75 20q-14 8 -30 20l20 36q8 -6 26 -16q30 -15 59 -15q50 0 88 41.5t67 133.5zM235 666q0 -15 -12.5 -27.5t-27.5 -12.5t-27.5 12.5t-12.5 27.5
t12.5 27.5t27.5 12.5t27.5 -12.5t12.5 -27.5zM435 666q0 -15 -12.5 -27.5t-27.5 -12.5t-27.5 12.5t-12.5 27.5t12.5 27.5t27.5 12.5t27.5 -12.5t12.5 -27.5z" />
    <glyph glyph-name="Amacron" unicode="&#x100;" horiz-adv-x="765" 
d="M415 700l255 -655h95v-45h-254v45h104l-75 200h-315l-75 -200h104v-45h-254v45h95l255 655h65zM380 640l-135 -350h275l-135 350h-5zM220 875h330v-45h-330v45z" />
    <glyph glyph-name="amacron" unicode="&#x101;" horiz-adv-x="600" 
d="M485 335v-290h95v-45h-140l-5 70h-5q-25 -25 -56 -45q-68 -45 -134 -45q-90 0 -142.5 44.5t-52.5 110.5q0 70 52 115t143 45h195v40q0 64 -43.5 107t-111.5 43q-58 0 -114 -33q-24 -14 -41 -32l-30 35q25 23 49 37q64 38 136 38q89 0 147 -56t58 -139zM240 25
q65 0 137 50q37 26 58 50v125h-195q-66 0 -103 -32t-37 -83q0 -47 37 -78.5t103 -31.5zM135 695h330v-45h-330v45z" />
    <glyph glyph-name="Abreve" unicode="&#x102;" horiz-adv-x="765" 
d="M415 700l255 -655h95v-45h-254v45h104l-75 200h-315l-75 -200h104v-45h-254v45h95l255 655h65zM380 640l-135 -350h275l-135 350h-5zM380 830q52 0 88.5 35.5t36.5 84.5h40q0 -69 -47 -117t-118 -48t-118 48t-47 117h40q0 -49 36.5 -84.5t88.5 -35.5z" />
    <glyph glyph-name="abreve" unicode="&#x103;" horiz-adv-x="600" 
d="M485 335v-290h95v-45h-140l-5 70h-5q-25 -25 -56 -45q-68 -45 -134 -45q-90 0 -142.5 44.5t-52.5 110.5q0 70 52 115t143 45h195v40q0 64 -43.5 107t-111.5 43q-58 0 -114 -33q-24 -14 -41 -32l-30 35q25 23 49 37q64 38 136 38q89 0 147 -56t58 -139zM240 25
q65 0 137 50q37 26 58 50v125h-195q-66 0 -103 -32t-37 -83q0 -47 37 -78.5t103 -31.5zM300 650q52 0 88.5 35.5t36.5 84.5h40q0 -69 -47 -117t-118 -48t-118 48t-47 117h40q0 -49 36.5 -84.5t88.5 -35.5z" />
    <glyph glyph-name="Aogonek" unicode="&#x104;" horiz-adv-x="765" 
d="M685 -265q-53 0 -84 30.5t-31 79.5q0 61 70 115q36 25 70 40h-199v45h104l-75 200h-315l-75 -200h104v-45h-254v45h95l255 655h65l255 -655h95v-45q-45 -23 -73 -46q-72 -56 -72 -109q0 -30 19 -50t46 -20q32 0 54 12q7 3 21 13l15 -35q-11 -8 -26 -15q-30 -15 -64 -15z
M380 640l-135 -350h275l-135 350h-5z" />
    <glyph glyph-name="aogonek" unicode="&#x105;" horiz-adv-x="600" 
d="M500 -265q-53 0 -84 30.5t-31 79.5q0 61 70 115q36 25 70 40h-85l-5 70h-5q-25 -25 -56 -45q-68 -45 -134 -45q-90 0 -142.5 44.5t-52.5 110.5q0 70 52 115t143 45h195v40q0 64 -43.5 107t-111.5 43q-58 0 -114 -33q-24 -14 -41 -32l-30 35q25 23 49 37q64 38 136 38
q89 0 147 -56t58 -139v-290h95v-45h-1q-5 -1 -26 -14t-48.5 -33.5t-48.5 -50t-21 -57.5q0 -30 19 -50t46 -20q32 0 54 12q7 3 21 13l15 -35q-11 -8 -26 -15q-30 -15 -64 -15zM240 25q65 0 137 50q37 26 58 50v125h-195q-66 0 -103 -32t-37 -83q0 -47 37 -78.5t103 -31.5z
" />
    <glyph glyph-name="Cacute" unicode="&#x106;" horiz-adv-x="740" 
d="M680 620v-140h-45v115q-21 23 -55 42q-74 43 -160 43q-135 0 -227.5 -95.5t-92.5 -234.5t92.5 -234.5t227.5 -95.5q97 0 181 55q37 24 64 55l30 -30q-30 -37 -68 -63q-94 -62 -207 -62q-161 0 -268 107t-107 268t107 268t268 107q106 0 192 -53q38 -22 68 -52zM505 980
h60l-125 -200h-40z" />
    <glyph glyph-name="cacute" unicode="&#x107;" horiz-adv-x="565" 
d="M475 335v85q-19 19 -42 32q-56 33 -113 33q-91 0 -155.5 -66.5t-64.5 -163.5t64.5 -163.5t155.5 -66.5q68 0 126 42q27 19 44 43l35 -35q-23 -28 -52 -48q-69 -47 -153 -47q-120 0 -197.5 77.5t-77.5 197.5t77.5 197.5t197.5 77.5q73 0 145 -43q30 -17 55 -42v-110h-45z
M390 790h60l-125 -200h-40z" />
    <glyph glyph-name="Ccircumflex" unicode="&#x108;" horiz-adv-x="740" 
d="M680 620v-140h-45v115q-21 23 -55 42q-74 43 -160 43q-135 0 -227.5 -95.5t-92.5 -234.5t92.5 -234.5t227.5 -95.5q97 0 181 55q37 24 64 55l30 -30q-30 -37 -68 -63q-94 -62 -207 -62q-161 0 -268 107t-107 268t107 268t268 107q106 0 192 -53q38 -22 68 -52zM230 780
l165 205h45l165 -205h-55l-130 160h-5l-130 -160h-55z" />
    <glyph glyph-name="ccircumflex" unicode="&#x109;" horiz-adv-x="565" 
d="M475 335v85q-19 19 -42 32q-56 33 -113 33q-91 0 -155.5 -66.5t-64.5 -163.5t64.5 -163.5t155.5 -66.5q68 0 126 42q27 19 44 43l35 -35q-23 -28 -52 -48q-69 -47 -153 -47q-120 0 -197.5 77.5t-77.5 197.5t77.5 197.5t197.5 77.5q73 0 145 -43q30 -17 55 -42v-110h-45z
M125 590l165 205h45l165 -205h-55l-130 160h-5l-130 -160h-55z" />
    <glyph glyph-name="Ccaron" unicode="&#x10c;" horiz-adv-x="740" 
d="M680 620v-140h-45v115q-21 23 -55 42q-74 43 -160 43q-135 0 -227.5 -95.5t-92.5 -234.5t92.5 -234.5t227.5 -95.5q97 0 181 55q37 24 64 55l30 -30q-30 -37 -68 -63q-94 -62 -207 -62q-161 0 -268 107t-107 268t107 268t268 107q106 0 192 -53q38 -22 68 -52zM395 780
l-165 205h55l130 -160h5l130 160h55l-165 -205h-45z" />
    <glyph glyph-name="ccaron" unicode="&#x10d;" horiz-adv-x="565" 
d="M475 335v85q-19 19 -42 32q-56 33 -113 33q-91 0 -155.5 -66.5t-64.5 -163.5t64.5 -163.5t155.5 -66.5q68 0 126 42q27 19 44 43l35 -35q-23 -28 -52 -48q-69 -47 -153 -47q-120 0 -197.5 77.5t-77.5 197.5t77.5 197.5t197.5 77.5q73 0 145 -43q30 -17 55 -42v-110h-45z
M280 585l-165 205h55l130 -160h5l130 160h55l-165 -205h-45z" />
    <glyph glyph-name="Dcaron" unicode="&#x10e;" horiz-adv-x="755" 
d="M195 45h150q135 0 222.5 86.5t87.5 218.5t-87.5 218.5t-222.5 86.5h-150v-610zM710 350q0 -151 -102.5 -250.5t-262.5 -99.5h-315v45h115v610h-115v45h315q160 0 262.5 -99.5t102.5 -250.5zM325 770l-165 205h55l130 -160h5l130 160h55l-165 -205h-45z" />
    <glyph glyph-name="dcaron" unicode="&#x10f;" horiz-adv-x="754" 
d="M295 -20q-102 0 -176 77t-74 188t74 188t176 77q71 0 139 -45q29 -18 56 -45h5v235h-95v45h145v-655h95v-45h-140l-5 70h-5q-27 -27 -56 -45q-68 -45 -139 -45zM295 25q69 0 141 50q36 26 59 50v240q-23 24 -59 50q-72 50 -141 50q-77 0 -136 -64.5t-59 -155.5t59 -155.5
t136 -64.5zM644 656q0 19 13 32t32 13q20 0 32.5 -15.5t12.5 -44.5q0 -60 -38 -98q-15 -15 -37 -27l-10 20l20 21q20 24 20 54q-19 0 -32 13t-13 32z" />
    <glyph glyph-name="Dcroat" unicode="&#x110;" horiz-adv-x="770" 
d="M35 330v45h125v280h-115v45h315q160 0 262.5 -99.5t102.5 -250.5t-102.5 -250.5t-262.5 -99.5h-315v45h115v285h-125zM210 45h150q135 0 222.5 86.5t87.5 218.5t-87.5 218.5t-222.5 86.5h-150v-280h225v-45h-225v-285z" />
    <glyph glyph-name="dcroat" unicode="&#x111;" horiz-adv-x="650" 
d="M285 25q69 0 141 50q36 26 59 50v190q-23 24 -59 50q-72 50 -141 50q-82 0 -138.5 -56t-56.5 -138q0 -83 56 -139.5t139 -56.5zM285 -20q-108 0 -179 69t-71 172q0 101 71 170t179 69q71 0 139 -45q29 -18 56 -45h5v180h-180v45h180v105h50v-105h95v-45h-95v-505h95v-45
h-140l-5 70h-5q-27 -27 -56 -45q-68 -45 -139 -45z" />
    <glyph glyph-name="Emacron" unicode="&#x112;" horiz-adv-x="690" 
d="M30 0v45h115v610h-115v45h590v-210h-45v165h-380v-270h260v-45h-260v-295h380v165h45v-210h-590zM200 885h330v-45h-330v45z" />
    <glyph glyph-name="emacron" unicode="&#x113;" horiz-adv-x="590" 
d="M535 235h-435q0 -82 64 -146t146 -64q73 0 131 42q27 19 44 43l30 -35q-23 -28 -52 -48q-69 -47 -153 -47q-113 0 -189 78t-76 197q0 118 73.5 196.5t176.5 78.5q106 0 178 -71t72 -164q0 -25 -5 -43zM295 485q-76 0 -135.5 -61.5t-59.5 -143.5h390v15q0 73 -57.5 131.5
t-137.5 58.5zM130 695h330v-45h-330v45z" />
    <glyph glyph-name="Edotaccent" unicode="&#x116;" horiz-adv-x="690" 
d="M30 0v45h115v610h-115v45h590v-210h-45v165h-380v-270h260v-45h-260v-295h380v165h45v-210h-590zM410 855q0 -19 -13 -32t-32 -13t-32 13t-13 32t13 32t32 13t32 -13t13 -32z" />
    <glyph glyph-name="edotaccent" unicode="&#x117;" horiz-adv-x="590" 
d="M535 235h-435q0 -82 64 -146t146 -64q73 0 131 42q27 19 44 43l30 -35q-23 -28 -52 -48q-69 -47 -153 -47q-113 0 -189 78t-76 197q0 118 73.5 196.5t176.5 78.5q106 0 178 -71t72 -164q0 -25 -5 -43zM295 485q-76 0 -135.5 -61.5t-59.5 -143.5h390v15q0 73 -57.5 131.5
t-137.5 58.5zM340 675q0 -19 -13 -32t-32 -13t-32 13t-13 32t13 32t32 13t32 -13t13 -32z" />
    <glyph glyph-name="Eogonek" unicode="&#x118;" horiz-adv-x="690" 
d="M30 0v45h115v610h-115v45h590v-210h-45v165h-380v-270h260v-45h-260v-295h380v165h45v-210h-180q-45 -23 -73 -46q-72 -56 -72 -109q0 -30 19 -50t46 -20q32 0 54 12q7 3 21 13l15 -35q-11 -8 -26 -15q-30 -15 -64 -15q-53 0 -84 30.5t-31 79.5q0 61 70 115q36 25 70 40
h-355z" />
    <glyph glyph-name="eogonek" unicode="&#x119;" horiz-adv-x="590" 
d="M330 -265q-53 0 -84 30.5t-31 79.5q0 78 100 135h-5q-113 0 -189 78t-76 197q0 118 73.5 196.5t176.5 78.5q106 0 178 -71t72 -164q0 -25 -5 -43l-5 -17h-435q0 -82 64 -146t146 -64q73 0 131 42q27 19 44 43l30 -35q-11 -11 -31 -26q-38 -29 -83 -53q-16 -8 -35 -20.5
t-44 -33t-41 -46.5t-16 -51q0 -30 19 -50t46 -20q32 0 54 12q7 3 21 13l15 -35q-11 -8 -26 -15q-30 -15 -64 -15zM295 485q-76 0 -135.5 -61.5t-59.5 -143.5h390v15q0 73 -57.5 131.5t-137.5 58.5z" />
    <glyph glyph-name="Ecaron" unicode="&#x11a;" horiz-adv-x="690" 
d="M30 0v45h115v610h-115v45h590v-210h-45v165h-380v-270h260v-45h-260v-295h380v165h45v-210h-590zM345 770l-165 205h55l130 -160h5l130 160h55l-165 -205h-45z" />
    <glyph glyph-name="ecaron" unicode="&#x11b;" horiz-adv-x="590" 
d="M535 235h-435q0 -82 64 -146t146 -64q73 0 131 42q27 19 44 43l30 -35q-23 -28 -52 -48q-69 -47 -153 -47q-113 0 -189 78t-76 197q0 118 73.5 196.5t176.5 78.5q106 0 178 -71t72 -164q0 -25 -5 -43zM295 485q-76 0 -135.5 -61.5t-59.5 -143.5h390v15q0 73 -57.5 131.5
t-137.5 58.5zM275 585l-165 205h55l130 -160h5l130 160h55l-165 -205h-45z" />
    <glyph glyph-name="Gbreve" unicode="&#x11e;" horiz-adv-x="765" 
d="M695 375v-285q-33 -35 -70 -58q-92 -57 -205 -57q-161 0 -268 107t-107 268t107 268t268 107q107 0 201 -58q41 -25 69 -57l-30 -35q-32 32 -64 52q-80 53 -176 53q-135 0 -227.5 -95.5t-92.5 -234.5t92.5 -234.5t227.5 -95.5q89 0 165 45q35 19 60 45v220h-230v45h280z
M405 840q52 0 88.5 35.5t36.5 84.5h40q0 -69 -47 -117t-118 -48t-118 48t-47 117h40q0 -49 36.5 -84.5t88.5 -35.5z" />
    <glyph glyph-name="gbreve" unicode="&#x11f;" horiz-adv-x="660" 
d="M545 465v-410q0 -119 -76 -197t-189 -78q-89 0 -158 47q-30 20 -52 48l35 35q17 -23 46 -43q62 -42 129 -42q88 0 151.5 66.5t63.5 163.5v55h-5q-27 -27 -56 -45q-68 -45 -139 -45q-102 0 -176 75t-74 180t74 180t176 75q71 0 139 -45q29 -18 56 -45h5l5 70h140v-45h-95z
M295 485q-76 0 -135.5 -62t-59.5 -148t59.5 -148t135.5 -62q69 0 141 50q36 26 59 50v220q-23 24 -59 50q-72 50 -141 50zM310 655q52 0 88.5 35.5t36.5 84.5h40q0 -69 -47 -117t-118 -48t-118 48t-47 117h40q0 -49 36.5 -84.5t88.5 -35.5z" />
    <glyph glyph-name="Gcommaaccent" unicode="&#x122;" horiz-adv-x="765" 
d="M695 375v-285q-33 -35 -70 -58q-92 -57 -205 -57q-161 0 -268 107t-107 268t107 268t268 107q107 0 201 -58q41 -25 69 -57l-30 -35q-32 32 -64 52q-80 53 -176 53q-135 0 -227.5 -95.5t-92.5 -234.5t92.5 -234.5t227.5 -95.5q89 0 165 45q35 19 60 45v220h-230v45h280z
M365 -130q0 40 40 40q19 0 32 -15t13 -40q0 -55 -35 -94q-18 -18 -35 -26l-10 20q11 9 20 20q20 22 20 50q-19 0 -32 13t-13 32z" />
    <glyph glyph-name="gcommaaccent" unicode="&#x123;" horiz-adv-x="660" 
d="M345 665q0 -40 -40 -40q-19 0 -32 15t-13 40q0 59 35 94q15 17 35 26l10 -20q-11 -9 -20 -20q-20 -24 -20 -50q19 0 32 -13t13 -32zM545 465v-410q0 -119 -76 -197t-189 -78q-89 0 -158 47q-30 20 -52 48l35 35q17 -23 46 -43q62 -42 129 -42q88 0 151.5 66.5t63.5 163.5
v55h-5q-27 -27 -56 -45q-68 -45 -139 -45q-102 0 -176 75t-74 180t74 180t176 75q71 0 139 -45q29 -18 56 -45h5l5 70h140v-45h-95zM295 485q-76 0 -135.5 -62t-59.5 -148t59.5 -148t135.5 -62q69 0 141 50q36 26 59 50v220q-23 24 -59 50q-72 50 -141 50z" />
    <glyph glyph-name="Imacron" unicode="&#x12a;" horiz-adv-x="360" 
d="M155 45v610h-125v45h300v-45h-125v-610h125v-45h-300v45h125zM16 875h330v-45h-330v45z" />
    <glyph glyph-name="imacron" unicode="&#x12b;" horiz-adv-x="290" 
d="M30 510h145v-465h95v-45h-240v45h95v420h-95v45zM-29 705h330v-45h-330v45z" />
    <glyph glyph-name="Iogonek" unicode="&#x12e;" horiz-adv-x="360" 
d="M200 -265q-53 0 -84 30.5t-31 79.5q0 61 70 115q36 25 70 40h-195v45h125v610h-125v45h300v-45h-125v-610h125v-45h-50q-45 -23 -73 -46q-72 -56 -72 -109q0 -30 19 -50t46 -20q32 0 54 12q7 3 21 13l15 -35q-11 -8 -26 -15q-30 -15 -64 -15z" />
    <glyph glyph-name="iogonek" unicode="&#x12f;" horiz-adv-x="290" 
d="M155 -265q-53 0 -84 30.5t-31 79.5q0 61 70 115q36 25 70 40h-150v45h95v420h-95v45h145v-465h95v-45h-35q-45 -23 -73 -46q-72 -56 -72 -109q0 -30 19 -50t46 -20q32 0 54 12q7 3 21 13l15 -35q-11 -8 -26 -15q-30 -15 -64 -15zM195 665q0 -19 -13 -32t-32 -13t-32 13
t-13 32t13 32t32 13t32 -13t13 -32z" />
    <glyph glyph-name="Idotaccent" unicode="&#x130;" horiz-adv-x="360" 
d="M155 45v610h-125v45h300v-45h-125v-610h125v-45h-300v45h125zM225 855q0 -19 -13 -32t-32 -13t-32 13t-13 32t13 32t32 13t32 -13t13 -32z" />
    <glyph glyph-name="dotlessi" unicode="&#x131;" horiz-adv-x="290" 
d="M30 510h145v-465h95v-45h-240v45h95v420h-95v45z" />
    <glyph glyph-name="Kcommaaccent" unicode="&#x136;" horiz-adv-x="740" 
d="M375 340h-180v-295h115v-45h-280v45h115v610h-115v45h280v-45h-115v-270h180l200 315h135v-45h-105l-190 -290l210 -320h105v-45h-135zM345 -130q0 40 40 40q19 0 32 -15t13 -40q0 -55 -35 -94q-18 -18 -35 -26l-10 20q11 9 20 20q20 22 20 50q-19 0 -32 13t-13 32z" />
    <glyph glyph-name="kcommaaccent" unicode="&#x137;" horiz-adv-x="595" 
d="M175 700v-400h135l145 210h110v-45h-80l-130 -185l150 -235h85v-45h-120l-160 256h-135v-211h96v-45h-241v45h95v610h-95v45h145zM270 -130q0 40 40 40q19 0 32 -15t13 -40q0 -55 -35 -94q-18 -18 -35 -26l-10 20q11 9 20 20q20 22 20 50q-19 0 -32 13t-13 32z" />
    <glyph glyph-name="Lacute" unicode="&#x139;" horiz-adv-x="650" 
d="M30 655v45h280v-45h-115v-610h370v165h45v-210h-580v45h115v610h-115zM260 970h60l-125 -200h-40z" />
    <glyph glyph-name="lacute" unicode="&#x13a;" horiz-adv-x="285" 
d="M30 700h145v-655h95v-45h-240v45h95v610h-95v45zM220 965h60l-125 -200h-40z" />
    <glyph glyph-name="Lcommaaccent" unicode="&#x13b;" horiz-adv-x="650" 
d="M30 655v45h280v-45h-115v-610h370v165h45v-210h-580v45h115v610h-115zM320 -130q0 40 40 40q19 0 32 -15t13 -40q0 -55 -35 -94q-18 -18 -35 -26l-10 20q11 9 20 20q20 22 20 50q-19 0 -32 13t-13 32z" />
    <glyph glyph-name="lcommaaccent" unicode="&#x13c;" horiz-adv-x="290" 
d="M30 700h145v-655h95v-45h-240v45h95v610h-95v45zM110 -130q0 40 40 40q19 0 32 -15t13 -40q0 -55 -35 -94q-18 -18 -35 -26l-10 20q11 9 20 20q20 22 20 50q-19 0 -32 13t-13 32z" />
    <glyph glyph-name="Lcaron" unicode="&#x13d;" horiz-adv-x="650" 
d="M30 655v45h280v-45h-115v-610h370v165h45v-210h-580v45h115v610h-115zM375 661q0 40 40 40q19 0 32 -15t13 -40q0 -55 -35 -94q-18 -18 -35 -26l-10 20q11 9 20 20q20 22 20 50q-19 0 -32 13t-13 32z" />
    <glyph glyph-name="lcaron" unicode="&#x13e;" horiz-adv-x="370" 
d="M30 700h145v-655h95v-45h-240v45h95v610h-95v45zM265 661q0 40 40 40q19 0 32 -15t13 -40q0 -55 -35 -94q-18 -18 -35 -26l-10 20q11 9 20 20q20 22 20 50q-19 0 -32 13t-13 32z" />
    <glyph glyph-name="Lslash" unicode="&#x141;" horiz-adv-x="660" 
d="M40 655v45h280v-45h-115v-270l145 65v-50l-145 -65v-290h370v165h45v-210h-580v45h115v265l-130 -60v50l130 60v295h-115z" />
    <glyph glyph-name="lslash" unicode="&#x142;" horiz-adv-x="320" 
d="M35 700h145v-310l130 63v-55l-130 -63v-290h95v-45h-240v45h95v265l-120 -57v55l120 57v290h-95v45z" />
    <glyph glyph-name="Nacute" unicode="&#x143;" horiz-adv-x="820" 
d="M30 700h170l420 -615h5v570h-115v45h280v-45h-115v-655h-55l-420 615h-5v-570h115v-45h-280v45h115v610h-115v45zM490 970h60l-125 -200h-40z" />
    <glyph glyph-name="nacute" unicode="&#x144;" 
d="M30 510h140l5 -70h5q27 27 56 45q68 45 139 45q87 0 138.5 -51.5t51.5 -138.5v-295h95v-45h-240v45h95v295q0 68 -38 106.5t-102 38.5q-69 0 -141 -50q-36 -26 -59 -50v-340h95v-45h-240v45h95v420h-95v45zM430 790h60l-125 -200h-40z" />
    <glyph glyph-name="Ncommaaccent" unicode="&#x145;" horiz-adv-x="820" 
d="M30 700h170l420 -615h5v570h-115v45h280v-45h-115v-655h-55l-420 615h-5v-570h115v-45h-280v45h115v610h-115v45zM370 -130q0 40 40 40q19 0 32 -15t13 -40q0 -55 -35 -94q-18 -18 -35 -26l-10 20q11 9 20 20q20 22 20 50q-19 0 -32 13t-13 32z" />
    <glyph glyph-name="ncommaaccent" unicode="&#x146;" 
d="M30 510h140l5 -70h5q27 27 56 45q68 45 139 45q87 0 138.5 -51.5t51.5 -138.5v-295h95v-45h-240v45h95v295q0 68 -38 106.5t-102 38.5q-69 0 -141 -50q-36 -26 -59 -50v-340h95v-45h-240v45h95v420h-95v45zM305 -130q0 40 40 40q19 0 32 -15t13 -40q0 -55 -35 -94
q-18 -18 -35 -26l-10 20q11 9 20 20q20 22 20 50q-19 0 -32 13t-13 32z" />
    <glyph glyph-name="Ncaron" unicode="&#x147;" horiz-adv-x="820" 
d="M30 700h170l420 -615h5v570h-115v45h280v-45h-115v-655h-55l-420 615h-5v-570h115v-45h-280v45h115v610h-115v45zM385 770l-165 205h55l130 -160h5l130 160h55l-165 -205h-45z" />
    <glyph glyph-name="ncaron" unicode="&#x148;" 
d="M30 510h140l5 -70h5q27 27 56 45q68 45 139 45q87 0 138.5 -51.5t51.5 -138.5v-295h95v-45h-240v45h95v295q0 68 -38 106.5t-102 38.5q-69 0 -141 -50q-36 -26 -59 -50v-340h95v-45h-240v45h95v420h-95v45zM320 590l-165 205h55l130 -160h5l130 160h55l-165 -205h-45z
" />
    <glyph glyph-name="Omacron" unicode="&#x14c;" horiz-adv-x="820" 
d="M45 350q0 160 105.5 267.5t259.5 107.5t259.5 -107.5t105.5 -267.5t-105.5 -267.5t-259.5 -107.5t-259.5 107.5t-105.5 267.5zM720 350q0 137 -92.5 233.5t-217.5 96.5t-217.5 -96.5t-92.5 -233.5t92.5 -233.5t217.5 -96.5t217.5 96.5t92.5 233.5zM245 885h330v-45h-330
v45z" />
    <glyph glyph-name="omacron" unicode="&#x14d;" horiz-adv-x="620" 
d="M45 255q0 116 77.5 195.5t187.5 79.5t187.5 -79.5t77.5 -195.5t-77.5 -195.5t-187.5 -79.5t-187.5 79.5t-77.5 195.5zM520 255q0 96 -63 163t-147 67q-83 0 -146.5 -67.5t-63.5 -162.5q0 -96 63 -163t147 -67t147 67t63 163zM145 695h330v-45h-330v45z" />
    <glyph glyph-name="Ohungarumlaut" unicode="&#x150;" horiz-adv-x="820" 
d="M45 350q0 160 105.5 267.5t259.5 107.5t259.5 -107.5t105.5 -267.5t-105.5 -267.5t-259.5 -107.5t-259.5 107.5t-105.5 267.5zM720 350q0 137 -92.5 233.5t-217.5 96.5t-217.5 -96.5t-92.5 -233.5t92.5 -233.5t217.5 -96.5t217.5 96.5t92.5 233.5zM405 980h60l-125 -200
h-40zM585 980h60l-125 -200h-40z" />
    <glyph glyph-name="ohungarumlaut" unicode="&#x151;" horiz-adv-x="620" 
d="M45 255q0 116 77.5 195.5t187.5 79.5t187.5 -79.5t77.5 -195.5t-77.5 -195.5t-187.5 -79.5t-187.5 79.5t-77.5 195.5zM520 255q0 96 -63 163t-147 67q-83 0 -146.5 -67.5t-63.5 -162.5q0 -96 63 -163t147 -67t147 67t63 163zM295 790h60l-125 -200h-40zM475 790h60
l-125 -200h-40z" />
    <glyph glyph-name="OE" unicode="&#x152;" horiz-adv-x="1050" 
d="M985 0h-580q-157 0 -258.5 99.5t-101.5 250.5t101.5 250.5t258.5 99.5h580v-210h-45v165h-365v-270h245v-45h-245v-295h365v165h45v-210zM100 350q0 -131 87 -218t218 -87h120v610h-120q-131 0 -218 -87t-87 -218z" />
    <glyph glyph-name="oe" unicode="&#x153;" horiz-adv-x="995" 
d="M45 255q0 118 71 196.5t179 78.5q101 0 172 -75q30 -33 48 -75h5q16 41 44 75q63 75 156 75q102 0 168.5 -66.5t66.5 -168.5q0 -25 -5 -43l-5 -17h-405q0 -83 57 -146.5t138 -63.5q72 0 126 40q25 18 39 40l30 -35q-21 -27 -47 -45q-63 -45 -148 -45q-101 0 -168 75
q-31 34 -47 75h-5q-15 -41 -44 -75q-63 -75 -176 -75q-108 0 -179 78.5t-71 196.5zM490 255q0 98 -58.5 164t-136.5 66t-136.5 -66t-58.5 -164t58.5 -164t136.5 -66t136.5 66t58.5 164zM720 485q-71 0 -125.5 -57.5t-54.5 -147.5h360v15q0 82 -52 136t-128 54z" />
    <glyph glyph-name="Racute" unicode="&#x154;" horiz-adv-x="745" 
d="M195 310v-265h115v-45h-280v45h115v610h-115v45h390q109 0 169.5 -53.5t60.5 -141.5q0 -112 -93 -163q-41 -23 -92 -27v-5l180 -265h100v-45h-135l-205 310h-210zM195 655v-300h225q85 0 130 40t45 110t-45 110t-130 40h-225zM465 970h60l-125 -200h-40z" />
    <glyph glyph-name="racute" unicode="&#x155;" horiz-adv-x="430" 
d="M420 515l-15 -50l-15 7q-22 8 -45 8q-62 0 -123 -45q-27 -21 -47 -45v-345h95v-45h-240v45h95v420h-95v45h140l5 -70h5q20 26 45 45q57 45 120 45q28 0 54 -8q7 -3 21 -7zM330 790h60l-125 -200h-40z" />
    <glyph glyph-name="Rcommaaccent" unicode="&#x156;" horiz-adv-x="745" 
d="M195 310v-265h115v-45h-280v45h115v610h-115v45h390q109 0 169.5 -53.5t60.5 -141.5q0 -112 -93 -163q-41 -23 -92 -27v-5l180 -265h100v-45h-135l-205 310h-210zM195 655v-300h225q85 0 130 40t45 110t-45 110t-130 40h-225zM355 -130q0 40 40 40q19 0 32 -15t13 -40
q0 -55 -35 -94q-18 -18 -35 -26l-10 20q11 9 20 20q20 22 20 50q-19 0 -32 13t-13 32z" />
    <glyph glyph-name="rcommaaccent" unicode="&#x157;" horiz-adv-x="430" 
d="M420 515l-15 -50l-15 7q-22 8 -45 8q-62 0 -123 -45q-27 -21 -47 -45v-345h95v-45h-240v45h95v420h-95v45h140l5 -70h5q20 26 45 45q57 45 120 45q28 0 54 -8q7 -3 21 -7zM110 -130q0 40 40 40q19 0 32 -15t13 -40q0 -55 -35 -94q-18 -18 -35 -26l-10 20q11 9 20 20
q20 22 20 50q-19 0 -32 13t-13 32z" />
    <glyph glyph-name="Rcaron" unicode="&#x158;" horiz-adv-x="745" 
d="M195 310v-265h115v-45h-280v45h115v610h-115v45h390q109 0 169.5 -53.5t60.5 -141.5q0 -112 -93 -163q-41 -23 -92 -27v-5l180 -265h100v-45h-135l-205 310h-210zM195 655v-300h225q85 0 130 40t45 110t-45 110t-130 40h-225zM340 770l-165 205h55l130 -160h5l130 160h55
l-165 -205h-45z" />
    <glyph glyph-name="rcaron" unicode="&#x159;" horiz-adv-x="440" 
d="M420 515l-15 -50l-15 7q-22 8 -45 8q-62 0 -123 -45q-27 -21 -47 -45v-345h95v-45h-240v45h95v420h-95v45h140l5 -70h5q20 26 45 45q57 45 120 45q28 0 54 -8q7 -3 21 -7zM220 590l-165 205h55l130 -160h5l130 160h55l-165 -205h-45z" />
    <glyph glyph-name="Sacute" unicode="&#x15a;" horiz-adv-x="610" 
d="M560 190q0 -90 -70.5 -152.5t-189.5 -62.5q-102 0 -190 55q-40 24 -70 55l30 35q24 -25 62 -50q80 -50 168 -50q94 0 149.5 49.5t55.5 120.5q0 51 -44.5 83t-107.5 50t-126 39t-107.5 64t-44.5 109q0 78 67 134t173 56q83 0 161 -48q33 -21 59 -47v-135h-45v115
q-15 15 -46 35q-64 35 -129 35q-80 0 -132.5 -45t-52.5 -100q0 -44 32 -75t79.5 -46.5t103.5 -34t103.5 -37.5t79.5 -58t32 -94zM390 975h60l-125 -200h-40z" />
    <glyph glyph-name="sacute" unicode="&#x15b;" horiz-adv-x="515" 
d="M470 140q0 -68 -58 -114t-162 -46q-89 0 -158 47q-30 20 -52 48l30 35q19 -24 45 -43q62 -42 135 -42q78 0 121.5 33.5t43.5 81.5q0 35 -35.5 56.5t-86 33t-101.5 26t-86.5 46.5t-35.5 83q0 60 53.5 102.5t146.5 42.5q72 0 136 -40q28 -18 49 -40v-100h-45v80
q-16 14 -38 27q-45 28 -102 28q-68 0 -106.5 -29.5t-38.5 -70.5q0 -37 35.5 -59.5t86 -34t101.5 -25.5t86.5 -45t35.5 -81zM340 790h60l-125 -200h-40z" />
    <glyph glyph-name="Scedilla" unicode="&#x15e;" horiz-adv-x="610" 
d="M370 -185q0 27 -20 46t-50 19q-13 0 -34 -3l-11 -2l18 101q-93 6 -171 59q-34 23 -62 50l30 35q24 -25 62 -50q80 -50 168 -50q94 0 149.5 50.5t55.5 124.5q0 37 -23.5 64t-61.5 42.5t-84 28.5t-92 28.5t-84 36t-61.5 56t-23.5 84.5q0 78 67 134t173 56q83 0 161 -48
q33 -21 59 -47v-135h-45v115q-15 15 -46 35q-64 35 -129 35q-80 0 -132.5 -45t-52.5 -100q0 -53 44.5 -87t107.5 -52t126 -37.5t107.5 -60t44.5 -103.5q0 -90 -66.5 -153t-179.5 -67l-9 -55q48 0 79 -30t31 -75q0 -46 -33.5 -75.5t-91.5 -29.5q-34 0 -64 15q-15 7 -26 15
l15 35q14 -10 21 -13q22 -12 54 -12q37 0 58.5 19t21.5 46z" />
    <glyph glyph-name="scedilla" unicode="&#x15f;" horiz-adv-x="515" 
d="M325 -185q0 27 -20 46t-50 19q-13 0 -34 -3l-11 -2l19 106q-81 5 -142 50q-28 19 -47 44l30 35q19 -24 45 -43q62 -42 135 -42q78 0 121.5 33.5t43.5 81.5q0 35 -35.5 56.5t-86 33t-101.5 26t-86.5 46.5t-35.5 83q0 60 53.5 102.5t146.5 42.5q72 0 136 -40q28 -18 49 -40
v-100h-45v80q-16 14 -38 27q-45 28 -102 28q-68 0 -106.5 -29.5t-38.5 -70.5q0 -37 35.5 -59.5t86 -34t101.5 -25.5t86.5 -45t35.5 -81q0 -64 -53 -109.5t-147 -49.5l-10 -61q48 0 79 -30t31 -75q0 -46 -33 -75.5t-92 -29.5q-34 0 -64 15q-15 7 -26 15l15 35q14 -10 21 -13
q22 -12 54 -12q37 0 58.5 19t21.5 46z" />
    <glyph glyph-name="Scaron" unicode="&#x160;" horiz-adv-x="610" 
d="M560 190q0 -90 -70.5 -152.5t-189.5 -62.5q-102 0 -190 55q-40 24 -70 55l30 35q24 -25 62 -50q80 -50 168 -50q94 0 149.5 49.5t55.5 120.5q0 51 -44.5 83t-107.5 50t-126 39t-107.5 64t-44.5 109q0 78 67 134t173 56q83 0 161 -48q33 -21 59 -47v-135h-45v115
q-15 15 -46 35q-64 35 -129 35q-80 0 -132.5 -45t-52.5 -100q0 -44 32 -75t79.5 -46.5t103.5 -34t103.5 -37.5t79.5 -58t32 -94zM280 774l-165 205h55l130 -160h5l130 160h55l-165 -205h-45z" />
    <glyph glyph-name="scaron" unicode="&#x161;" horiz-adv-x="515" 
d="M470 140q0 -68 -58 -114t-162 -46q-89 0 -158 47q-30 20 -52 48l30 35q19 -24 45 -43q62 -42 135 -42q78 0 121.5 33.5t43.5 81.5q0 35 -35.5 56.5t-86 33t-101.5 26t-86.5 46.5t-35.5 83q0 60 53.5 102.5t146.5 42.5q72 0 136 -40q28 -18 49 -40v-100h-45v80
q-16 14 -38 27q-45 28 -102 28q-68 0 -106.5 -29.5t-38.5 -70.5q0 -37 35.5 -59.5t86 -34t101.5 -25.5t86.5 -45t35.5 -81zM235 590l-165 205h55l130 -160h5l130 160h55l-165 -205h-45z" />
    <glyph glyph-name="Tcommaaccent" unicode="&#x162;" horiz-adv-x="700" 
d="M375 655v-610h125v-45h-300v45h125v610h-230v-175h-45v220h600v-220h-45v175h-230zM307 -130q0 40 40 40q19 0 32 -15t13 -40q0 -55 -35 -94q-18 -18 -35 -26l-10 20q11 9 20 20q20 22 20 50q-19 0 -32 13t-13 32z" />
    <glyph glyph-name="tcommaaccent" unicode="&#x163;" horiz-adv-x="410" 
d="M165 465v-285q0 -73 36 -114t94 -41q33 0 61 15q14 6 24 15l20 -35q-16 -12 -30 -20q-35 -20 -75 -20q-80 0 -130 54t-50 146v285h-95v45h95l25 155h25v-155h180v-45h-180zM162 -130q0 40 40 40q19 0 32 -15t13 -40q0 -55 -35 -94q-18 -18 -35 -26l-10 20q11 9 20 20
q20 22 20 50q-19 0 -32 13t-13 32z" />
    <glyph glyph-name="Tcaron" unicode="&#x164;" horiz-adv-x="700" 
d="M375 655v-610h125v-45h-300v45h125v610h-230v-175h-45v220h600v-220h-45v175h-230zM325 765l-165 205h55l130 -160h5l130 160h55l-165 -205h-45z" />
    <glyph glyph-name="tcaron" unicode="&#x165;" horiz-adv-x="475" 
d="M165 465v-285q0 -73 36 -114t94 -41q33 0 61 15q14 6 24 15l20 -35q-16 -12 -30 -20q-35 -20 -75 -20q-80 0 -130 54t-50 146v285h-95v45h95l25 155h25v-155h180v-45h-180zM370 661q0 40 40 40q19 0 32 -15t13 -40q0 -55 -35 -94q-18 -18 -35 -26l-10 20q11 9 20 20
q20 22 20 50q-19 0 -32 13t-13 32z" />
    <glyph glyph-name="Umacron" unicode="&#x16a;" horiz-adv-x="810" 
d="M195 700v-458q0 -102 57.5 -162t152.5 -60t152.5 60t57.5 162v413h-115v45h280v-45h-115v-413q0 -125 -69.5 -196t-190.5 -71t-190.5 71t-69.5 196v413h-115v45h165zM240 885h330v-45h-330v45z" />
    <glyph glyph-name="umacron" unicode="&#x16b;" 
d="M650 0h-140l-5 70h-5q-27 -27 -56 -45q-68 -45 -139 -45q-87 0 -138.5 51.5t-51.5 138.5v295h-95v45h145v-340q0 -68 38 -106.5t102 -38.5q69 0 141 50q36 26 59 50v340h-95v45h240v-45h-95v-420h95v-45zM185 715h330v-45h-330v45z" />
    <glyph glyph-name="Uring" unicode="&#x16e;" horiz-adv-x="810" 
d="M195 700v-458q0 -102 57.5 -162t152.5 -60t152.5 60t57.5 162v413h-115v45h280v-45h-115v-413q0 -125 -69.5 -196t-190.5 -71t-190.5 71t-69.5 196v413h-115v45h165zM305 885q0 -42 25.5 -68.5t64.5 -26.5t64.5 26.5t25.5 68.5t-25.5 68.5t-64.5 26.5t-64.5 -26.5
t-25.5 -68.5zM530 885q0 -57 -37.5 -93.5t-97.5 -36.5t-97.5 36.5t-37.5 93.5t37.5 93.5t97.5 36.5t97.5 -36.5t37.5 -93.5z" />
    <glyph glyph-name="uring" unicode="&#x16f;" 
d="M650 0h-140l-5 70h-5q-27 -27 -56 -45q-68 -45 -139 -45q-87 0 -138.5 51.5t-51.5 138.5v295h-95v45h145v-340q0 -68 38 -106.5t102 -38.5q69 0 141 50q36 26 59 50v340h-95v45h240v-45h-95v-420h95v-45zM250 705q0 -42 25.5 -68.5t64.5 -26.5t64.5 26.5t25.5 68.5
t-25.5 68.5t-64.5 26.5t-64.5 -26.5t-25.5 -68.5zM475 705q0 -57 -37.5 -93.5t-97.5 -36.5t-97.5 36.5t-37.5 93.5t37.5 93.5t97.5 36.5t97.5 -36.5t37.5 -93.5z" />
    <glyph glyph-name="Uhungarumlaut" unicode="&#x170;" horiz-adv-x="810" 
d="M195 700v-458q0 -102 57.5 -162t152.5 -60t152.5 60t57.5 162v413h-115v45h280v-45h-115v-413q0 -125 -69.5 -196t-190.5 -71t-190.5 71t-69.5 196v413h-115v45h165zM380 970h60l-125 -200h-40zM560 970h60l-125 -200h-40z" />
    <glyph glyph-name="uhungarumlaut" unicode="&#x171;" 
d="M650 0h-140l-5 70h-5q-27 -27 -56 -45q-68 -45 -139 -45q-87 0 -138.5 51.5t-51.5 138.5v295h-95v45h145v-340q0 -68 38 -106.5t102 -38.5q69 0 141 50q36 26 59 50v340h-95v45h240v-45h-95v-420h95v-45zM315 780h60l-125 -200h-40zM495 780h60l-125 -200h-40z" />
    <glyph glyph-name="Uogonek" unicode="&#x172;" horiz-adv-x="810" 
d="M450 -265q-53 0 -84 30.5t-31 79.5q0 75 92 131q-7 -1 -22 -1q-121 0 -190.5 71t-69.5 196v413h-115v45h165v-458q0 -102 57.5 -162t152.5 -60t152.5 60t57.5 162v413h-115v45h280v-45h-115v-413q0 -181 -136 -242q-5 -1 -26 -14t-48.5 -33.5t-48.5 -50t-21 -57.5
q0 -30 19 -50t46 -20q32 0 54 12q7 3 21 13l15 -35q-11 -8 -26 -15q-30 -15 -64 -15z" />
    <glyph glyph-name="uogonek" unicode="&#x173;" 
d="M570 -265q-53 0 -84 30.5t-31 79.5q0 61 70 115q36 25 70 40h-85l-5 70h-5q-27 -27 -56 -45q-68 -45 -139 -45q-87 0 -138.5 51.5t-51.5 138.5v295h-95v45h145v-340q0 -68 38 -106.5t102 -38.5q69 0 141 50q36 26 59 50v340h-95v45h240v-45h-95v-420h95v-45
q-45 -23 -73 -46q-72 -56 -72 -109q0 -30 19 -50t46 -20q32 0 54 12q7 3 21 13l15 -35q-11 -8 -26 -15q-30 -15 -64 -15z" />
    <glyph glyph-name="Ydieresis" unicode="&#x178;" horiz-adv-x="700" 
d="M375 275v-230h125v-45h-300v45h125v230l-225 380h-100v45h135l212 -370h6l212 370h135v-45h-100zM290 855q0 -15 -12.5 -27.5t-27.5 -12.5t-27.5 12.5t-12.5 27.5t12.5 27.5t27.5 12.5t27.5 -12.5t12.5 -27.5zM490 855q0 -15 -12.5 -27.5t-27.5 -12.5t-27.5 12.5
t-12.5 27.5t12.5 27.5t27.5 12.5t27.5 -12.5t12.5 -27.5z" />
    <glyph glyph-name="Zacute" unicode="&#x179;" horiz-adv-x="660" 
d="M50 55l490 595v5h-435v-165h-45v210h540v-55l-490 -595v-5h455v164h45v-209h-560v55zM415 975h60l-125 -200h-40z" />
    <glyph glyph-name="zacute" unicode="&#x17a;" horiz-adv-x="545" 
d="M490 460l-380 -410v-5h345v130h45v-175h-455v50l380 410v5h-325v-130h-45v175h435v-50zM350 780h60l-125 -200h-40z" />
    <glyph glyph-name="Zdotaccent" unicode="&#x17b;" horiz-adv-x="660" 
d="M50 55l490 595v5h-435v-165h-45v210h540v-55l-490 -595v-5h455v164h45v-209h-560v55zM375 855q0 -19 -13 -32t-32 -13t-32 13t-13 32t13 32t32 13t32 -13t13 -32z" />
    <glyph glyph-name="zdotaccent" unicode="&#x17c;" horiz-adv-x="545" 
d="M490 460l-380 -410v-5h345v130h45v-175h-455v50l380 410v5h-325v-130h-45v175h435v-50zM315 665q0 -19 -13 -32t-32 -13t-32 13t-13 32t13 32t32 13t32 -13t13 -32z" />
    <glyph glyph-name="Zcaron" unicode="&#x17d;" horiz-adv-x="660" 
d="M50 55l490 595v5h-435v-165h-45v210h540v-55l-490 -595v-5h455v164h45v-209h-560v55zM310 765l-165 205h55l130 -160h5l130 160h55l-165 -205h-45z" />
    <glyph glyph-name="zcaron" unicode="&#x17e;" horiz-adv-x="545" 
d="M490 460l-380 -410v-5h345v130h45v-175h-455v50l380 410v5h-325v-130h-45v175h435v-50zM241 580l-165 205h55l130 -160h5l130 160h55l-165 -205h-45z" />
    <glyph glyph-name="florin" unicode="&#x192;" horiz-adv-x="390" 
d="M135 -35v475h-95v45h95v35q0 92 50 146t130 54q40 0 75 -20q14 -8 30 -20l-20 -35q-10 7 -24 15q-32 15 -61 15q-58 0 -94 -41t-36 -114v-35h180v-45h-180v-475q0 -89 -44.5 -137t-120.5 -48q-41 0 -73 17q-17 7 -27 18l20 40q10 -8 23 -15q28 -15 57 -15q51 0 83 37
t32 103z" />
    <glyph glyph-name="Scommaaccent" unicode="&#x218;" horiz-adv-x="610" 
d="M560 190q0 -90 -70.5 -152.5t-189.5 -62.5q-102 0 -190 55q-40 24 -70 55l30 35q24 -25 62 -50q80 -50 168 -50q94 0 149.5 49.5t55.5 120.5q0 51 -44.5 83t-107.5 50t-126 39t-107.5 64t-44.5 109q0 78 67 134t173 56q83 0 161 -48q33 -21 59 -47v-135h-45v115
q-15 15 -46 35q-64 35 -129 35q-80 0 -132.5 -45t-52.5 -100q0 -44 32 -75t79.5 -46.5t103.5 -34t103.5 -37.5t79.5 -58t32 -94zM265 -130q0 40 40 40q19 0 32 -15t13 -40q0 -55 -35 -94q-18 -18 -35 -26l-10 20q11 9 20 20q20 22 20 50q-19 0 -32 13t-13 32z" />
    <glyph glyph-name="scommaaccent" unicode="&#x219;" horiz-adv-x="515" 
d="M470 140q0 -68 -58 -114t-162 -46q-89 0 -158 47q-30 20 -52 48l30 35q19 -24 45 -43q62 -42 135 -42q78 0 121.5 33.5t43.5 81.5q0 35 -35.5 56.5t-86 33t-101.5 26t-86.5 46.5t-35.5 83q0 60 53.5 102.5t146.5 42.5q72 0 136 -40q28 -18 49 -40v-100h-45v80
q-16 14 -38 27q-45 28 -102 28q-68 0 -106.5 -29.5t-38.5 -70.5q0 -37 35.5 -59.5t86 -34t101.5 -25.5t86.5 -45t35.5 -81zM215 -130q0 40 40 40q19 0 32 -15t13 -40q0 -55 -35 -94q-18 -18 -35 -26l-10 20q11 9 20 20q20 22 20 50q-19 0 -32 13t-13 32z" />
    <glyph glyph-name="afii57929" unicode="&#x2bc;" horiz-adv-x="165" 
d="M40 665q0 40 40 40q19 0 32 -15t13 -40q0 -55 -35 -94q-18 -18 -35 -26l-10 20q11 9 20 20q20 22 20 50q-19 0 -32 13t-13 32z" />
    <glyph glyph-name="circumflex" unicode="&#x2c6;" horiz-adv-x="455" 
d="M40 565l165 205h45l165 -205h-55l-130 160h-5l-130 -160h-55z" />
    <glyph glyph-name="caron" unicode="&#x2c7;" horiz-adv-x="455" 
d="M205 565l-165 205h55l130 -160h5l130 160h55l-165 -205h-45z" />
    <glyph glyph-name="breve" unicode="&#x2d8;" horiz-adv-x="410" 
d="M205 630q52 0 88.5 35.5t36.5 84.5h40q0 -69 -47 -117t-118 -48t-118 48t-47 117h40q0 -49 36.5 -84.5t88.5 -35.5z" />
    <glyph glyph-name="dotaccent" unicode="&#x2d9;" horiz-adv-x="170" 
d="M130 665q0 -19 -13 -32t-32 -13t-32 13t-13 32t13 32t32 13t32 -13t13 -32z" />
    <glyph glyph-name="ring" unicode="&#x2da;" horiz-adv-x="350" 
d="M85 695q0 -42 25.5 -68.5t64.5 -26.5t64.5 26.5t25.5 68.5t-25.5 68.5t-64.5 26.5t-64.5 -26.5t-25.5 -68.5zM310 695q0 -57 -37.5 -93.5t-97.5 -36.5t-97.5 36.5t-37.5 93.5t37.5 93.5t97.5 36.5t97.5 -36.5t37.5 -93.5z" />
    <glyph glyph-name="ogonek" unicode="&#x2db;" horiz-adv-x="285" 
d="M155 -265q-53 0 -84 30.5t-31 79.5q0 61 70 115q36 25 70 40h55q-45 -23 -73 -46q-72 -56 -72 -109q0 -30 19 -50t46 -20q32 0 54 12q7 3 21 13l15 -35q-11 -8 -26 -15q-30 -15 -64 -15z" />
    <glyph glyph-name="tilde" unicode="&#x2dc;" horiz-adv-x="410" 
d="M285 635q20 0 32.5 15.5t12.5 44.5v45h40v-45q0 -48 -23 -74t-62 -26q-22 0 -41 11.5t-33 27.5t-26.5 32t-28 27.5t-31.5 11.5q-20 0 -32.5 -15.5t-12.5 -44.5v-45h-40v45q0 48 23 74t62 26q27 0 50.5 -17t37 -38t33 -38t39.5 -17z" />
    <glyph glyph-name="hungarumlaut" unicode="&#x2dd;" horiz-adv-x="425" 
d="M145 770h60l-125 -200h-40zM325 770h60l-125 -200h-40z" />
    <glyph glyph-name="afii10023" unicode="&#x401;" 
d="M30 0v45h115v610h-115v45h590v-210h-45v165h-380v-270h260v-45h-260v-295h380v165h45v-210h-590zM300 870q0 -15 -12.5 -27.5t-27.5 -12.5t-27.5 12.5t-12.5 27.5t12.5 27.5t27.5 12.5t27.5 -12.5t12.5 -27.5zM500 870q0 -15 -12.5 -27.5t-27.5 -12.5t-27.5 12.5
t-12.5 27.5t12.5 27.5t27.5 12.5t27.5 -12.5t12.5 -27.5z" />
    <glyph glyph-name="afii10051" unicode="&#x402;" horiz-adv-x="825" 
d="M730 215q0 101 -55 158t-150 57q-67 0 -139 -35q-32 -17 -56 -35v-315h115v-45h-280v45h115v610h-195v-170h-45v215h515v-45h-225v-250q29 20 56 32q72 33 139 33q125 0 192.5 -67t67.5 -188q0 -133 -108 -208q-49 -34 -107 -47l-10 40q47 11 85 38q85 63 85 177z" />
    <glyph glyph-name="afii10052" unicode="&#x403;" horiz-adv-x="645" 
d="M30 0v45h115v610h-115v45h565v-220h-45v175h-355v-610h115v-45h-280zM435 970h60l-125 -200h-40z" />
    <glyph glyph-name="afii10053" unicode="&#x404;" horiz-adv-x="740" 
d="M680 620v-140h-45v115q-21 23 -55 42q-74 43 -160 43q-131 0 -219.5 -86t-100.5 -219h355v-45h-355q12 -136 100.5 -223t219.5 -87q97 0 181 55q37 24 64 55l30 -30q-30 -37 -68 -63q-94 -62 -207 -62q-161 0 -268 107t-107 268t107 268t268 107q106 0 192 -53
q38 -22 68 -52z" />
    <glyph glyph-name="afii10054" unicode="&#x405;" horiz-adv-x="610" 
d="M560 190q0 -90 -70.5 -152.5t-189.5 -62.5q-102 0 -190 55q-40 24 -70 55l30 35q24 -25 62 -50q80 -50 168 -50q94 0 149.5 49.5t55.5 120.5q0 51 -44.5 83t-107.5 50t-126 39t-107.5 64t-44.5 109q0 78 67 134t173 56q83 0 161 -48q33 -21 59 -47v-135h-45v115
q-15 15 -46 35q-64 35 -129 35q-80 0 -132.5 -45t-52.5 -100q0 -44 32 -75t79.5 -46.5t103.5 -34t103.5 -37.5t79.5 -58t32 -94z" />
    <glyph glyph-name="afii10055" unicode="&#x406;" horiz-adv-x="360" 
d="M155 45v610h-125v45h300v-45h-125v-610h125v-45h-300v45h125z" />
    <glyph glyph-name="afii10056" unicode="&#x407;" horiz-adv-x="360" 
d="M155 45v610h-125v45h300v-45h-125v-610h125v-45h-300v45h125zM120 860q0 -15 -12.5 -27.5t-27.5 -12.5t-27.5 12.5t-12.5 27.5t12.5 27.5t27.5 12.5t27.5 -12.5t12.5 -27.5zM320 860q0 -15 -12.5 -27.5t-27.5 -12.5t-27.5 12.5t-12.5 27.5t12.5 27.5t27.5 12.5
t27.5 -12.5t12.5 -27.5z" />
    <glyph glyph-name="afii10057" unicode="&#x408;" horiz-adv-x="490" 
d="M285 205v450h-125v45h300v-45h-125v-450q0 -107 -56 -168.5t-144 -61.5q-55 0 -98 27q-21 12 -37 28l25 35q9 -9 31 -23q38 -22 79 -22q67 0 108.5 47.5t41.5 137.5z" />
    <glyph glyph-name="afii10058" unicode="&#x409;" horiz-adv-x="1125" 
d="M320 655l-50 -405q-17 -143 -68.5 -209t-126.5 -66q-28 0 -54 10q-14 6 -21 10l15 40q7 -6 17 -10q22 -10 43 -10q117 0 145 235l50 405h-105v45h600v-45h-115v-235h195q110 0 175 -59t65 -151t-65 -151t-175 -59h-360v45h115v610h-280zM650 375v-330h195q85 0 135 46
t50 119t-50 119t-135 46h-195z" />
    <glyph glyph-name="afii10059" unicode="&#x40a;" horiz-adv-x="1120" 
d="M195 700v-290h380v245h-115v45h280v-45h-115v-245h220q106 0 170.5 -58.5t64.5 -146.5t-64.5 -146.5t-170.5 -58.5h-270v365h-380v-320h115v-45h-280v45h115v610h-115v45h165zM625 365v-320h220q81 0 130.5 45.5t49.5 114.5t-49.5 114.5t-130.5 45.5h-220z" />
    <glyph glyph-name="afii10060" unicode="&#x40b;" horiz-adv-x="895" 
d="M780 215v-170h115v-45h-280v45h115v170q0 101 -55 158t-150 57q-67 0 -139 -35q-32 -17 -56 -35v-315h115v-45h-280v45h115v610h-195v-170h-45v215h515v-45h-225v-250q29 20 56 32q72 33 139 33q121 0 188 -67t67 -188z" />
    <glyph glyph-name="afii10061" unicode="&#x40c;" horiz-adv-x="740" 
d="M375 340h-180v-295h115v-45h-280v45h115v610h-115v45h280v-45h-115v-270h180l200 315h135v-45h-105l-190 -290l210 -320h105v-45h-135zM465 970h60l-125 -200h-40z" />
    <glyph glyph-name="afii10062" unicode="&#x40e;" horiz-adv-x="740" 
d="M140 700l230 -490h5l215 490h140v-45h-105l-225 -505q-77 -175 -195 -175q-36 0 -66 15q-13 6 -24 15l20 40q9 -9 18 -13q21 -12 52 -12q79 0 140 130l-240 505h-105v45h140zM370 790q-71 0 -118 47t-47 118h40q0 -54 34 -87t91 -33t91 33t34 87h40q0 -71 -47 -118
t-118 -47z" />
    <glyph glyph-name="afii10145" unicode="&#x40f;" horiz-adv-x="810" 
d="M780 0h-350v-155h-50v155h-350v45h115v610h-115v45h165v-655h420v610h-115v45h280v-45h-115v-610h115v-45z" />
    <glyph glyph-name="afii10017" unicode="&#x410;" horiz-adv-x="765" 
d="M415 700l255 -655h95v-45h-254v45h104l-75 200h-315l-75 -200h104v-45h-254v45h95l255 655h65zM380 640l-135 -350h275l-135 350h-5z" />
    <glyph glyph-name="afii10018" unicode="&#x411;" horiz-adv-x="715" 
d="M195 655v-240h225q109 0 174.5 -60t65.5 -150q0 -88 -65.5 -146.5t-174.5 -58.5h-390v45h115v610h-115v45h575v-205h-45v160h-365zM195 370v-325h225q85 0 135 45.5t50 114.5t-52 117t-133 48h-225z" />
    <glyph glyph-name="afii10019" unicode="&#x412;" horiz-adv-x="700" 
d="M425 0h-395v45h115v610h-115v45h355q102 0 158.5 -49.5t56.5 -129.5q0 -77 -60 -116q-24 -17 -60 -25v-5q48 -7 87 -30q88 -50 88 -150q0 -81 -64 -138t-166 -57zM195 345v-300h230q77 0 126 44t49 106t-49 106t-126 44h-230zM195 655v-265h190q77 0 118.5 36t41.5 95
q0 61 -41.5 97.5t-118.5 36.5h-190z" />
    <glyph glyph-name="afii10020" unicode="&#x413;" horiz-adv-x="645" 
d="M30 0v45h115v610h-115v45h565v-220h-45v175h-355v-610h115v-45h-280z" />
    <glyph glyph-name="afii10021" unicode="&#x414;" horiz-adv-x="760" 
d="M680 0h-630v-155h-50v200h40q32 17 58 46q61 63 72 159l50 405h-110l5 45h615v-45h-115v-610h115v-200h-50v155zM270 655l-50 -405q-14 -97 -67 -156q-28 -29 -53 -44v-5h465v610h-295z" />
    <glyph glyph-name="afii10022" unicode="&#x415;" 
d="M30 0v45h115v610h-115v45h590v-210h-45v165h-380v-270h260v-45h-260v-295h380v165h45v-210h-590z" />
    <glyph glyph-name="afii10024" unicode="&#x416;" horiz-adv-x="1100" 
d="M735 340h-160v-295h115v-45h-280v45h115v295h-160l-220 -340h-135v45h105l210 320l-190 290h-105v45h135l200 -315h160v270h-115v45h165v-315h160l200 315h135v-45h-105l-190 -290l210 -320h105v-45h-135z" />
    <glyph glyph-name="afii10025" unicode="&#x417;" horiz-adv-x="620" 
d="M300 -25q-105 0 -189 55q-39 25 -66 55l30 35q28 -28 62 -50q78 -50 163 -50q94 0 152 49.5t58 115.5t-58 115.5t-152 49.5h-90v45h90q78 0 131.5 44t53.5 96q0 59 -50.5 102t-134.5 43q-61 0 -125 -35q-33 -20 -50 -35v-115h-45v140q28 26 61 45q76 45 159 45
q108 0 174 -56t66 -134t-75 -127q-33 -21 -75 -33v-5q49 -11 87 -34q88 -54 88 -151q0 -90 -71 -150t-194 -60z" />
    <glyph glyph-name="afii10026" unicode="&#x418;" horiz-adv-x="820" 
d="M620 700h170v-45h-115v-610h115v-45h-280v45h115v570h-5l-420 -615h-170v45h115v610h-115v45h281v-45h-116v-570h5z" />
    <glyph glyph-name="afii10027" unicode="&#x419;" horiz-adv-x="820" 
d="M620 700h170v-45h-115v-610h115v-45h-280v45h115v570h-5l-420 -615h-170v45h115v610h-115v45h281v-45h-116v-570h5zM410 790q-71 0 -118 47t-47 118h40q0 -54 34 -87t91 -33t91 33t34 87h40q0 -71 -47 -118t-118 -47z" />
    <glyph glyph-name="afii10028" unicode="&#x41a;" horiz-adv-x="740" 
d="M375 340h-180v-295h115v-45h-280v45h115v610h-115v45h280v-45h-115v-270h180l200 315h135v-45h-105l-190 -290l210 -320h105v-45h-135z" />
    <glyph glyph-name="afii10029" unicode="&#x41b;" horiz-adv-x="815" 
d="M320 655l-50 -405q-17 -143 -68.5 -209t-126.5 -66q-28 0 -54 10q-14 6 -21 10l15 40q7 -6 17 -10q22 -10 43 -10q117 0 145 235l50 405h-105v45h620v-45h-115v-610h115v-45h-280v45h115v610h-300z" />
    <glyph glyph-name="afii10030" unicode="&#x41c;" horiz-adv-x="985" 
d="M480 225l-280 385h-5v-565h115v-45h-280v45h115v610h-115v45h165l295 -410h5l295 410h165v-45h-115v-610h115v-45h-280v45h115v565h-5l-280 -385h-25z" />
    <glyph glyph-name="afii10031" unicode="&#x41d;" horiz-adv-x="810" 
d="M195 700v-315h420v270h-115v45h280v-45h-115v-610h115v-45h-165v340h-420v-295h115v-45h-280v45h115v610h-115v45h165z" />
    <glyph glyph-name="afii10032" unicode="&#x41e;" horiz-adv-x="820" 
d="M45 350q0 160 105.5 267.5t259.5 107.5t259.5 -107.5t105.5 -267.5t-105.5 -267.5t-259.5 -107.5t-259.5 107.5t-105.5 267.5zM720 350q0 137 -92.5 233.5t-217.5 96.5t-217.5 -96.5t-92.5 -233.5t92.5 -233.5t217.5 -96.5t217.5 96.5t92.5 233.5z" />
    <glyph glyph-name="afii10033" unicode="&#x41f;" horiz-adv-x="810" 
d="M30 700h750v-45h-115v-610h115v-45h-165v655h-420v-610h115v-45h-280v45h115v610h-115v45z" />
    <glyph glyph-name="afii10034" unicode="&#x420;" horiz-adv-x="690" 
d="M195 290v-245h115v-45h-280v45h115v610h-115v45h395q106 0 170.5 -58.5t64.5 -146.5t-64.5 -146.5t-170.5 -58.5h-230zM195 655v-320h230q81 0 130.5 45.5t49.5 114.5t-49.5 114.5t-130.5 45.5h-230z" />
    <glyph glyph-name="afii10035" unicode="&#x421;" horiz-adv-x="740" 
d="M680 620v-140h-45v115q-21 23 -55 42q-74 43 -160 43q-135 0 -227.5 -95.5t-92.5 -234.5t92.5 -234.5t227.5 -95.5q97 0 181 55q37 24 64 55l30 -30q-30 -37 -68 -63q-94 -62 -207 -62q-161 0 -268 107t-107 268t107 268t268 107q106 0 192 -53q38 -22 68 -52z" />
    <glyph glyph-name="afii10036" unicode="&#x422;" horiz-adv-x="700" 
d="M375 655v-610h125v-45h-300v45h125v610h-230v-175h-45v220h600v-220h-45v175h-230z" />
    <glyph glyph-name="afii10037" unicode="&#x423;" horiz-adv-x="740" 
d="M140 700l230 -490h5l215 490h140v-45h-105l-225 -505q-77 -175 -195 -175q-36 0 -66 15q-13 6 -24 15l20 40q9 -9 18 -13q21 -12 52 -12q79 0 140 130l-240 505h-105v45h140z" />
    <glyph glyph-name="afii10038" unicode="&#x424;" horiz-adv-x="890" 
d="M470 160v-115h115v-45h-280v45h115v115h-135q-114 0 -187 67.5t-73 162.5t73 162.5t187 67.5h135v110h-115v45h165v-155h135q114 0 187 -67.5t73 -162.5t-73 -162.5t-187 -67.5h-135zM470 205h135q88 0 146.5 54.5t58.5 130.5t-58.5 130.5t-146.5 54.5h-135v-370z
M285 205h135v370h-135q-88 0 -146.5 -54.5t-58.5 -130.5t58.5 -130.5t146.5 -54.5z" />
    <glyph glyph-name="afii10039" unicode="&#x425;" horiz-adv-x="705" 
d="M350 410h5l180 290h140v-45h-105l-180 -285l210 -325h105v-45h-140l-210 330h-5l-210 -330h-140v45h105l210 325l-180 285h-105v45h140z" />
    <glyph glyph-name="afii10040" unicode="&#x426;" horiz-adv-x="800" 
d="M770 -155h-50v155h-690v45h115v610h-115v45h165v-655h410v610h-115v45h280v-45h-115v-610h115v-200z" />
    <glyph glyph-name="afii10041" unicode="&#x427;" horiz-adv-x="780" 
d="M585 45v265q-27 -20 -56 -33q-70 -32 -139 -32q-117 0 -186 70t-69 192v148h-115v45h165v-193q0 -102 55 -159.5t150 -57.5q75 0 139 35q27 13 56 35v295h-115v45h280v-45h-115v-610h115v-45h-280v45h115z" />
    <glyph glyph-name="afii10042" unicode="&#x428;" horiz-adv-x="1110" 
d="M580 45h335v610h-115v45h280v-45h-115v-610h115v-45h-1050v45h115v610h-115v45h165v-655h335v610h-115v45h165v-655z" />
    <glyph glyph-name="afii10043" unicode="&#x429;" horiz-adv-x="1110" 
d="M580 45h335v610h-115v45h280v-45h-115v-610h115v-200h-50v155h-1000v45h115v610h-115v45h165v-655h335v610h-115v45h165v-655z" />
    <glyph glyph-name="afii10044" unicode="&#x42a;" horiz-adv-x="765" 
d="M300 655v-235h195q110 0 175 -59t65 -151t-65 -151t-175 -59h-360v45h115v610h-175v-175h-45v220h385v-45h-115zM300 375v-330h195q85 0 135 46t50 119t-50 119t-135 46h-195z" />
    <glyph glyph-name="afii10045" unicode="&#x42b;" horiz-adv-x="1010" 
d="M805 45v610h-125v45h300v-45h-125v-610h125v-45h-300v45h125zM195 655v-235h195q110 0 175 -59t65 -151t-65 -151t-175 -59h-360v45h115v610h-115v45h280v-45h-115zM195 375v-330h195q85 0 135 46t50 119t-50 119t-135 46h-195z" />
    <glyph glyph-name="afii10046" unicode="&#x42c;" 
d="M195 655v-235h215q110 0 175 -59t65 -151t-65 -151t-175 -59h-380v45h115v610h-115v45h280v-45h-115zM195 375v-330h215q85 0 135 46t50 119t-50 119t-135 46h-215z" />
    <glyph glyph-name="afii10047" unicode="&#x42d;" horiz-adv-x="740" 
d="M60 480v140q30 30 68 52q86 53 192 53q161 0 268 -107t107 -268t-107 -268t-268 -107q-113 0 -207 62q-38 26 -68 63l30 30q27 -31 64 -55q84 -55 181 -55q131 0 219.5 87t100.5 223h-355v45h355q-12 133 -100.5 219t-219.5 86q-86 0 -160 -43q-34 -19 -55 -42v-115h-45z
" />
    <glyph glyph-name="afii10048" unicode="&#x42e;" horiz-adv-x="1085" 
d="M705 725q141 0 238 -105t97 -270t-97 -270t-238 -105q-136 0 -231.5 99.5t-103.5 255.5h-175v-285h115v-45h-280v45h115v610h-115v45h280v-45h-115v-280h175q8 152 103.5 251t231.5 99zM705 20q112 0 196 93.5t84 236.5t-84 236.5t-196 93.5t-196 -93.5t-84 -236.5
t84 -236.5t196 -93.5z" />
    <glyph glyph-name="afii10049" unicode="&#x42f;" horiz-adv-x="740" 
d="M545 45v245h-220l-190 -290h-135v45h105l165 245v5q-49 10 -88 36q-87 56 -87 164q0 88 64.5 146.5t170.5 58.5h380v-45h-115v-610h115v-45h-280v45h115zM545 335v320h-215q-81 0 -130.5 -45.5t-49.5 -114.5t49.5 -114.5t130.5 -45.5h215z" />
    <glyph glyph-name="afii10065" unicode="&#x430;" horiz-adv-x="600" 
d="M485 335v-290h95v-45h-140l-5 70h-5q-25 -25 -56 -45q-68 -45 -134 -45q-90 0 -142.5 44.5t-52.5 110.5q0 70 52 115t143 45h195v40q0 64 -43.5 107t-111.5 43q-58 0 -114 -33q-24 -14 -41 -32l-30 35q25 23 49 37q64 38 136 38q89 0 147 -56t58 -139zM240 25
q65 0 137 50q37 26 58 50v125h-195q-66 0 -103 -32t-37 -83q0 -47 37 -78.5t103 -31.5z" />
    <glyph glyph-name="afii10066" unicode="&#x431;" horiz-adv-x="590" 
d="M50 245v85q0 304 225 345l135 25q39 7 68 26q17 10 27 19l25 -30q-9 -14 -28 -27q-35 -27 -92 -38l-135 -25q-77 -15 -127.5 -82.5t-52.5 -187.5h5q16 31 45 57q64 58 155 58q108 0 179 -70t71 -175q0 -103 -71 -174t-179 -71q-110 0 -180 73t-70 192zM495 225
q0 82 -58 141t-137 59t-137 -59t-58 -141t58 -141t137 -59t137 59t58 141z" />
    <glyph glyph-name="afii10067" unicode="&#x432;" horiz-adv-x="575" 
d="M355 0h-325v45h95v420h-95v45h295q80 0 125 -38t45 -97q0 -53 -45 -82q-20 -12 -45 -18v-5q38 -5 65 -19q65 -35 65 -106q0 -62 -48 -103.5t-132 -41.5zM175 245v-200h180q62 0 93.5 26.5t31.5 73.5t-31.5 73.5t-93.5 26.5h-180zM175 465v-175h150q115 0 115 85
q0 90 -115 90h-150z" />
    <glyph glyph-name="afii10068" unicode="&#x433;" horiz-adv-x="530" 
d="M445 330v135h-270v-420h95v-45h-240v45h95v420h-95v45h460v-180h-45z" />
    <glyph glyph-name="afii10069" unicode="&#x434;" horiz-adv-x="620" 
d="M50 0v-135h-50v180h35q21 12 43 34q43 43 52 101l35 285h-90v45h515v-45h-95v-420h95v-180h-50v135h-490zM100 50v-5h345v420h-230l-35 -285q-9 -61 -44 -99q-15 -17 -36 -31z" />
    <glyph glyph-name="afii10070" unicode="&#x435;" horiz-adv-x="590" 
d="M535 235h-435q0 -82 64 -146t146 -64q73 0 131 42q27 19 44 43l30 -35q-23 -28 -52 -48q-69 -47 -153 -47q-113 0 -189 78t-76 197q0 118 73.5 196.5t176.5 78.5q106 0 178 -71t72 -164q0 -25 -5 -43zM295 485q-76 0 -135.5 -61.5t-59.5 -143.5h390v15q0 73 -57.5 131.5
t-137.5 58.5z" />
    <glyph glyph-name="afii10072" unicode="&#x436;" horiz-adv-x="850" 
d="M400 290v175h-95v45h145v-220h115l145 220h110v-45h-80l-130 -195l150 -225h85v-45h-120l-160 246h-115v-201h96v-45h-242v45h96v201h-115l-160 -246h-120v45h85l150 225l-130 195h-80v45h110l145 -220h115z" />
    <glyph glyph-name="afii10073" unicode="&#x437;" horiz-adv-x="510" 
d="M65 350v100q21 21 51 40q64 40 134 40q94 0 147 -42.5t53 -102.5q0 -59 -58 -93q-24 -14 -57 -22v-5q37 -8 65 -24q65 -39 65 -106q0 -64 -58.5 -109.5t-161.5 -45.5q-89 0 -158 47q-30 20 -52 48l35 35q17 -24 44 -43q58 -42 131 -42q77 0 121 32.5t44 77.5t-44 77.5
t-121 32.5h-55v45h60q69 0 107 27.5t38 67.5q0 41 -38.5 70.5t-106.5 29.5q-57 0 -102 -28q-22 -13 -38 -27v-80h-45z" />
    <glyph glyph-name="afii10074" unicode="&#x438;" horiz-adv-x="665" 
d="M485 430l-310 -430h-145v45h95v420h-95v45h240v-45h-95v-385h5l310 430h145v-45h-95v-420h95v-45h-240v45h95v385h-5z" />
    <glyph glyph-name="afii10075" unicode="&#x439;" horiz-adv-x="665" 
d="M485 430l-310 -430h-145v45h95v420h-95v45h240v-45h-95v-385h5l310 430h145v-45h-95v-420h95v-45h-240v45h95v385h-5zM335 640q48 0 79 30t31 75h45q0 -69 -41.5 -109.5t-113.5 -40.5t-113.5 40.5t-41.5 109.5h45q0 -45 31 -75t79 -30z" />
    <glyph glyph-name="afii10076" unicode="&#x43a;" horiz-adv-x="595" 
d="M175 465v-175h135l145 220h110v-45h-80l-130 -195l150 -225h85v-45h-120l-160 246h-135v-201h96v-45h-241v45h95v420h-95v45h240v-45h-95z" />
    <glyph glyph-name="afii10077" unicode="&#x43b;" horiz-adv-x="670" 
d="M640 0h-240v45h95v420h-230l-35 -285q-12 -103 -55.5 -154t-109.5 -51q-26 0 -48 10q-10 4 -17 10l15 40q2 -2 7 -4.5l7 -3.5q15 -7 36 -7q41 0 72.5 40.5t42.5 119.5l35 285h-90v45h515v-45h-95v-420h95v-45z" />
    <glyph glyph-name="afii10078" unicode="&#x43c;" horiz-adv-x="765" 
d="M370 160l-190 260h-5v-375h95v-45h-240v45h95v420h-95v45h145l205 -285h5l205 285h145v-45h-95v-420h95v-45h-240v45h95v375h-5l-190 -260h-25z" />
    <glyph glyph-name="afii10079" unicode="&#x43d;" horiz-adv-x="655" 
d="M625 0h-145v235h-305v-190h95v-45h-240v45h95v420h-95v45h145v-230h305v185h-96v45h241v-45h-95v-420h95v-45z" />
    <glyph glyph-name="afii10080" unicode="&#x43e;" horiz-adv-x="620" 
d="M45 255q0 116 77.5 195.5t187.5 79.5t187.5 -79.5t77.5 -195.5t-77.5 -195.5t-187.5 -79.5t-187.5 79.5t-77.5 195.5zM520 255q0 96 -63 163t-147 67q-83 0 -146.5 -67.5t-63.5 -162.5q0 -96 63 -163t147 -67t147 67t63 163z" />
    <glyph glyph-name="afii10081" unicode="&#x43f;" horiz-adv-x="655" 
d="M480 0v465h-305v-420h95v-45h-240v45h95v420h-95v45h595v-45h-95v-420h95v-45h-145z" />
    <glyph glyph-name="afii10082" unicode="&#x440;" horiz-adv-x="660" 
d="M20 -200v45h95v620h-95v45h140l5 -70h5q27 27 56 45q68 45 139 45q102 0 176 -77t74 -188t-74 -188t-176 -77q-71 0 -139 45q-29 18 -56 45h-5v-245h95v-45h-240zM365 485q-69 0 -141 -50q-36 -26 -59 -50v-240q23 -24 59 -50q72 -50 141 -50q77 0 136 64.5t59 155.5
t-59 155.5t-136 64.5z" />
    <glyph glyph-name="afii10083" unicode="&#x441;" horiz-adv-x="565" 
d="M475 335v85q-19 19 -42 32q-56 33 -113 33q-91 0 -155.5 -66.5t-64.5 -163.5t64.5 -163.5t155.5 -66.5q68 0 126 42q27 19 44 43l35 -35q-23 -28 -52 -48q-69 -47 -153 -47q-120 0 -197.5 77.5t-77.5 197.5t77.5 197.5t197.5 77.5q73 0 145 -43q30 -17 55 -42v-110h-45z
" />
    <glyph glyph-name="afii10084" unicode="&#x442;" horiz-adv-x="560" 
d="M40 330v180h480v-180h-45v135h-170v-420h95v-45h-240v45h95v420h-170v-135h-45z" />
    <glyph glyph-name="afii10085" unicode="&#x443;" horiz-adv-x="590" 
d="M280 0l-190 465h-90v45h125l178 -450h4l158 450h125v-45h-90l-165 -465q-42 -119 -90.5 -169.5t-119.5 -50.5q-40 0 -75 20q-14 8 -30 20l20 36q8 -6 26 -16q30 -15 59 -15q50 0 88 41.5t67 133.5z" />
    <glyph glyph-name="afii10086" unicode="&#x444;" horiz-adv-x="710" 
d="M380 700v-190q133 -8 211.5 -79.5t78.5 -175.5t-78.5 -175.5t-211.5 -79.5v-155h95v-45h-240v45h95v155q-133 8 -211.5 79.5t-78.5 175.5t78.5 175.5t211.5 79.5v145h-95v45h145zM615 255q0 88 -61.5 145t-173.5 65v-420q112 8 173.5 65t61.5 145zM95 255
q0 -88 61.5 -145t173.5 -65v420q-112 -8 -173.5 -65t-61.5 -145z" />
    <glyph glyph-name="afii10087" unicode="&#x445;" horiz-adv-x="540" 
d="M268 230l-148 -230h-120v45h90l140 220l-125 200h-85v45h115l133 -210h4l133 210h115v-45h-85l-125 -200l140 -220h90v-45h-120l-148 230h-4z" />
    <glyph glyph-name="afii10088" unicode="&#x446;" horiz-adv-x="645" 
d="M175 510v-465h295v420h-95v45h240v-45h-95v-420h95v-180h-50v135h-535v45h95v420h-95v45h145z" />
    <glyph glyph-name="afii10089" unicode="&#x447;" horiz-adv-x="630" 
d="M600 0h-240v45h95v180q-16 -10 -45 -23q-56 -22 -105 -22q-190 0 -190 190v95h-95v45h145v-140q0 -145 140 -145q51 0 105 25q19 8 45 25v190h-95v45h240v-45h-95v-420h95v-45z" />
    <glyph glyph-name="afii10090" unicode="&#x448;" horiz-adv-x="900" 
d="M475 45h250v420h-95v45h240v-45h-95v-420h95v-45h-840v45h95v420h-95v45h145v-465h250v420h-95v45h145v-465z" />
    <glyph glyph-name="afii10091" unicode="&#x449;" horiz-adv-x="900" 
d="M475 45h250v420h-95v45h240v-45h-95v-420h95v-180h-50v135h-790v45h95v420h-95v45h145v-465h250v420h-95v45h145v-465z" />
    <glyph glyph-name="afii10092" unicode="&#x44a;" horiz-adv-x="620" 
d="M30 510h325v-45h-95v-155h135q90 0 142.5 -44.5t52.5 -110.5t-52.5 -110.5t-142.5 -44.5h-280v45h95v420h-135v-135h-45v180zM260 265v-220h135q66 0 103 31.5t37 78.5t-37 78.5t-103 31.5h-135z" />
    <glyph glyph-name="afii10093" unicode="&#x44b;" horiz-adv-x="815" 
d="M545 510h240v-45h-95v-420h95v-45h-240v45h95v420h-95v45zM30 510h240v-45h-95v-155h135q90 0 142.5 -44.5t52.5 -110.5t-52.5 -110.5t-142.5 -44.5h-280v45h95v420h-95v45zM175 265v-220h135q66 0 103 31.5t37 78.5t-37 78.5t-103 31.5h-135z" />
    <glyph glyph-name="afii10094" unicode="&#x44c;" horiz-adv-x="555" 
d="M30 510h240v-45h-95v-155h155q90 0 142.5 -44.5t52.5 -110.5t-52.5 -110.5t-142.5 -44.5h-300v45h95v420h-95v45zM175 265v-220h155q66 0 103 31.5t37 78.5t-37 78.5t-103 31.5h-155z" />
    <glyph glyph-name="afii10095" unicode="&#x44d;" horiz-adv-x="565" 
d="M90 420v-85h-45v110q25 25 55 42q72 43 145 43q120 0 197.5 -77.5t77.5 -197.5t-77.5 -197.5t-197.5 -77.5q-84 0 -153 47q-29 20 -52 48l35 35q17 -24 44 -43q58 -42 126 -42q89 0 150.5 59.5t69.5 150.5h-255v45h255q-8 88 -69.5 146.5t-150.5 58.5q-57 0 -113 -33
q-23 -13 -42 -32z" />
    <glyph glyph-name="afii10096" unicode="&#x44e;" horiz-adv-x="870" 
d="M175 465v-185h150q4 105 76 177.5t174 72.5q107 0 178.5 -77t71.5 -198t-71.5 -198t-178.5 -77q-102 0 -174 73t-76 182h-150v-190h95v-45h-240v45h95v420h-95v45h240v-45h-95zM770 255q0 102 -57 166t-138 64t-138 -64t-57 -166q0 -103 57 -166.5t138 -63.5t138 63.5
t57 166.5z" />
    <glyph glyph-name="afii10097" unicode="&#x44f;" horiz-adv-x="590" 
d="M560 0h-240v45h95v155h-165l-130 -200h-120v45h85l110 160v5q-35 7 -63 26q-62 42 -62 119q0 66 52.5 110.5t142.5 44.5h295v-45h-95v-420h95v-45zM415 245v220h-150q-66 0 -103 -31.5t-37 -78.5t37 -78.5t103 -31.5h150z" />
    <glyph glyph-name="afii10071" unicode="&#x451;" horiz-adv-x="590" 
d="M535 235h-435q0 -82 64 -146t146 -64q73 0 131 42q27 19 44 43l30 -35q-23 -28 -52 -48q-69 -47 -153 -47q-113 0 -189 78t-76 197q0 118 73.5 196.5t176.5 78.5q106 0 178 -71t72 -164q0 -25 -5 -43zM295 485q-76 0 -135.5 -61.5t-59.5 -143.5h390v15q0 73 -57.5 131.5
t-137.5 58.5zM235 675q0 -15 -12.5 -27.5t-27.5 -12.5t-27.5 12.5t-12.5 27.5t12.5 27.5t27.5 12.5t27.5 -12.5t12.5 -27.5zM435 675q0 -15 -12.5 -27.5t-27.5 -12.5t-27.5 12.5t-12.5 27.5t12.5 27.5t27.5 12.5t27.5 -12.5t12.5 -27.5z" />
    <glyph glyph-name="afii10099" unicode="&#x452;" horiz-adv-x="615" 
d="M565 260v-60q0 -121 -88 -193q-40 -32 -87 -47l-15 40q37 11 70 38q70 58 70 162v60q0 68 -38 106.5t-102 38.5q-69 0 -141 -50q-36 -26 -59 -50v-260h95v-45h-240v45h95v515h-95v45h95l25 155h25v-155h180v-45h-180v-200h5q27 27 56 45q68 45 139 45q87 0 138.5 -51.5
t51.5 -138.5z" />
    <glyph glyph-name="afii10100" unicode="&#x453;" horiz-adv-x="530" 
d="M445 330v135h-270v-420h95v-45h-240v45h95v420h-95v45h460v-180h-45zM370 780h60l-125 -200h-40z" />
    <glyph glyph-name="afii10101" unicode="&#x454;" horiz-adv-x="565" 
d="M475 335v85q-19 19 -42 32q-56 33 -113 33q-89 0 -150.5 -58.5t-69.5 -146.5h255v-45h-255q8 -91 69.5 -150.5t150.5 -59.5q68 0 126 42q27 19 44 43l35 -35q-23 -28 -52 -48q-69 -47 -153 -47q-120 0 -197.5 77.5t-77.5 197.5t77.5 197.5t197.5 77.5q73 0 145 -43
q30 -17 55 -42v-110h-45z" />
    <glyph glyph-name="afii10102" unicode="&#x455;" horiz-adv-x="515" 
d="M470 140q0 -68 -58 -114t-162 -46q-89 0 -158 47q-30 20 -52 48l30 35q19 -24 45 -43q62 -42 135 -42q78 0 121.5 33.5t43.5 81.5q0 35 -35.5 56.5t-86 33t-101.5 26t-86.5 46.5t-35.5 83q0 60 53.5 102.5t146.5 42.5q72 0 136 -40q28 -18 49 -40v-100h-45v80
q-16 14 -38 27q-45 28 -102 28q-68 0 -106.5 -29.5t-38.5 -70.5q0 -37 35.5 -59.5t86 -34t101.5 -25.5t86.5 -45t35.5 -81z" />
    <glyph glyph-name="afii10103" unicode="&#x456;" horiz-adv-x="290" 
d="M30 510h145v-465h95v-45h-240v45h95v420h-95v45zM195 665q0 -19 -13 -32t-32 -13t-32 13t-13 32t13 32t32 13t32 -13t13 -32z" />
    <glyph glyph-name="afii10104" unicode="&#x457;" horiz-adv-x="300" 
d="M30 510h145v-465h95v-45h-240v45h95v420h-95v45zM91 666q0 -15 -12.5 -27.5t-27.5 -12.5t-27.5 12.5t-12.5 27.5t12.5 27.5t27.5 12.5t27.5 -12.5t12.5 -27.5zM291 666q0 -15 -12.5 -27.5t-27.5 -12.5t-27.5 12.5t-12.5 27.5t12.5 27.5t27.5 12.5t27.5 -12.5t12.5 -27.5z
" />
    <glyph glyph-name="afii10105" unicode="&#x458;" horiz-adv-x="305" 
d="M155 -35v500h-95v45h145v-545q0 -89 -44.5 -137t-120.5 -48q-41 0 -73 17q-17 7 -27 18l20 40q10 -8 23 -15q28 -15 57 -15q51 0 83 37t32 103zM225 665q0 -19 -13 -32t-32 -13t-32 13t-13 32t13 32t32 13t32 -13t13 -32z" />
    <glyph glyph-name="afii10106" unicode="&#x459;" horiz-adv-x="890" 
d="M665 0h-290v45h95v420h-205l-35 -285q-12 -103 -55.5 -154t-109.5 -51q-26 0 -48 10q-10 4 -17 10l15 40q2 -2 7 -4.5l7 -3.5q15 -7 36 -7q41 0 72.5 40.5t42.5 119.5l35 285h-90v45h490v-45h-95v-155h145q90 0 142.5 -44.5t52.5 -110.5t-52.5 -110.5t-142.5 -44.5z
M520 265v-220h145q66 0 103 31.5t37 78.5t-37 78.5t-103 31.5h-145z" />
    <glyph glyph-name="afii10107" unicode="&#x45a;" horiz-adv-x="880" 
d="M354 510h241v-45h-95v-165h160q87 0 138.5 -43.5t51.5 -106.5t-51.5 -106.5t-138.5 -43.5h-210v255h-275v-210h95v-45h-240v45h95v420h-95v45h145v-210h275v165h-96v45zM500 255v-210h160q66 0 100.5 29t34.5 76t-34.5 76t-100.5 29h-160z" />
    <glyph glyph-name="afii10108" unicode="&#x45b;" 
d="M565 260v-215h95v-45h-240v45h95v215q0 68 -38 106.5t-102 38.5q-69 0 -141 -50q-36 -26 -59 -50v-260h95v-45h-240v45h95v515h-95v45h95l25 155h25v-155h180v-45h-180v-200h5q27 27 56 45q68 45 139 45q87 0 138.5 -51.5t51.5 -138.5z" />
    <glyph glyph-name="afii10109" unicode="&#x45c;" horiz-adv-x="595" 
d="M175 465v-175h135l145 220h110v-45h-80l-130 -195l150 -225h85v-45h-120l-160 246h-135v-201h96v-45h-241v45h95v420h-95v45h240v-45h-95zM400 780h60l-125 -200h-40z" />
    <glyph glyph-name="afii10110" unicode="&#x45e;" horiz-adv-x="590" 
d="M280 0l-190 465h-90v45h125l178 -450h4l158 450h125v-45h-90l-165 -465q-42 -119 -90.5 -169.5t-119.5 -50.5q-40 0 -75 20q-14 8 -30 20l20 36q8 -6 26 -16q30 -15 59 -15q50 0 88 41.5t67 133.5zM295 635q48 0 79 30t31 75h45q0 -69 -41.5 -109.5t-113.5 -40.5
t-113.5 40.5t-41.5 109.5h45q0 -45 31 -75t79 -30z" />
    <glyph glyph-name="afii10193" unicode="&#x45f;" horiz-adv-x="660" 
d="M175 510v-465h310v420h-95v45h240v-45h-95v-420h95v-45h-275v-135h-50v135h-275v45h95v420h-95v45h145z" />
    <glyph glyph-name="afii10050" unicode="&#x490;" horiz-adv-x="635" 
d="M30 700h520v140h45v-185h-400v-610h115v-45h-280v45h115v610h-115v45z" />
    <glyph glyph-name="afii10098" unicode="&#x491;" horiz-adv-x="520" 
d="M175 465v-420h95v-45h-240v45h95v420h-95v45h415v125h45v-170h-315z" />
    <glyph glyph-name="uni1E9E" unicode="&#x1e9e;" horiz-adv-x="730" 
d="M430 335h-60v45l210 270v5h-185q-91 0 -155.5 -68.5t-64.5 -171.5v-415h-165v44h115v371q0 125 76.5 205t193.5 80h250v-45l-215 -270v-5q123 0 191.5 -57t68.5 -143q0 -89 -66.5 -147t-183.5 -58q-62 0 -116 25q-19 8 -44 25l20 40q15 -11 40 -23q50 -22 100 -22
q91 0 143 45t52 115q0 66 -54 110.5t-151 44.5z" />
    <glyph glyph-name="endash" unicode="&#x2013;" horiz-adv-x="635" 
d="M40 335h555v-45h-555v45z" />
    <glyph glyph-name="emdash" unicode="&#x2014;" horiz-adv-x="845" 
d="M40 335h765v-45h-765v45z" />
    <glyph glyph-name="quoteleft" unicode="&#x2018;" horiz-adv-x="200" 
d="M145 570q0 -19 -13 -32t-32 -13q-20 0 -32.5 15.5t-12.5 44.5q0 61 37 98q16 16 38 27l10 -20l-20 -21q-20 -24 -20 -54q19 0 32 -13t13 -32z" />
    <glyph glyph-name="quoteright" unicode="&#x2019;" horiz-adv-x="200" 
d="M55 665q0 19 13 32t32 13q20 0 32.5 -15.5t12.5 -44.5q0 -60 -38 -98q-15 -15 -37 -27l-10 20l20 21q20 24 20 54q-19 0 -32 13t-13 32z" />
    <glyph glyph-name="quotesinglbase" unicode="&#x201a;" horiz-adv-x="200" 
d="M55 35q0 19 13 32t32 13q20 0 32.5 -15.5t12.5 -44.5q0 -60 -38 -98q-15 -15 -37 -27l-10 20l20 21q20 24 20 54q-19 0 -32 13t-13 32z" />
    <glyph glyph-name="quotedblleft" unicode="&#x201c;" horiz-adv-x="360" 
d="M145 570q0 -19 -13 -32t-32 -13q-20 0 -32.5 15.5t-12.5 44.5q0 61 37 98q16 16 38 27l10 -20l-20 -21q-20 -24 -20 -54q19 0 32 -13t13 -32zM305 570q0 -19 -13 -32t-32 -13q-20 0 -32.5 15.5t-12.5 44.5q0 61 37 98q16 16 38 27l10 -20l-20 -21q-20 -24 -20 -54
q19 0 32 -13t13 -32z" />
    <glyph glyph-name="quotedblright" unicode="&#x201d;" horiz-adv-x="360" 
d="M215 665q0 19 13 32t32 13q20 0 32.5 -15.5t12.5 -44.5q0 -60 -38 -98q-15 -15 -37 -27l-10 20l20 21q20 24 20 54q-19 0 -32 13t-13 32zM55 665q0 19 13 32t32 13q20 0 32.5 -15.5t12.5 -44.5q0 -60 -38 -98q-15 -15 -37 -27l-10 20l20 21q20 24 20 54q-19 0 -32 13
t-13 32z" />
    <glyph glyph-name="quotedblbase" unicode="&#x201e;" horiz-adv-x="360" 
d="M55 35q0 19 13 32t32 13q20 0 32.5 -15.5t12.5 -44.5q0 -60 -38 -98q-15 -15 -37 -27l-10 20l20 21q20 24 20 54q-19 0 -32 13t-13 32zM215 35q0 19 13 32t32 13q20 0 32.5 -15.5t12.5 -44.5q0 -60 -38 -98q-15 -15 -37 -27l-10 20l20 21q20 24 20 54q-19 0 -32 13
t-13 32z" />
    <glyph glyph-name="dagger" unicode="&#x2020;" horiz-adv-x="580" 
d="M265 425v275h50v-275h225v-45h-225v-560h-50v560h-225v45h225z" />
    <glyph glyph-name="daggerdbl" unicode="&#x2021;" horiz-adv-x="580" 
d="M265 470v230h50v-230h225v-45h-225v-330h225v-45h-225v-230h-50v230h-225v45h225v330h-225v45h225z" />
    <glyph glyph-name="bullet" unicode="&#x2022;" horiz-adv-x="330" 
d="M245 310q0 -34 -23 -57t-57 -23t-57 23t-23 57t23 57t57 23t57 -23t23 -57z" />
    <glyph glyph-name="ellipsis" unicode="&#x2026;" horiz-adv-x="640" 
d="M145 35q0 -19 -13 -32t-32 -13t-32 13t-13 32t13 32t32 13t32 -13t13 -32zM365 35q0 -19 -13 -32t-32 -13t-32 13t-13 32t13 32t32 13t32 -13t13 -32zM585 35q0 -19 -13 -32t-32 -13t-32 13t-13 32t13 32t32 13t32 -13t13 -32z" />
    <glyph glyph-name="perthousand" unicode="&#x2030;" horiz-adv-x="1260" 
d="M245 0h-55l445 700h55zM95 540q0 -58 34.5 -96.5t80.5 -38.5t80.5 38.5t34.5 96.5t-34.5 96.5t-80.5 38.5t-80.5 -38.5t-34.5 -96.5zM380 540q0 -78 -49 -129t-121 -51t-121 51t-49 129t49 129t121 51t121 -51t49 -129zM820 160q0 -78 -49 -129t-121 -51t-121 51t-49 129
t49 129t121 51t121 -51t49 -129zM1220 160q0 -78 -49 -129t-121 -51t-121 51t-49 129t49 129t121 51t121 -51t49 -129zM535 160q0 -58 34.5 -96.5t80.5 -38.5t80.5 38.5t34.5 96.5t-34.5 96.5t-80.5 38.5t-80.5 -38.5t-34.5 -96.5zM935 160q0 -58 34.5 -96.5t80.5 -38.5
t80.5 38.5t34.5 96.5t-34.5 96.5t-80.5 38.5t-80.5 -38.5t-34.5 -96.5z" />
    <glyph glyph-name="guilsinglleft" unicode="&#x2039;" horiz-adv-x="340" 
d="M105 260l175 -230h-55l-175 230l175 230h55z" />
    <glyph glyph-name="guilsinglright" unicode="&#x203a;" horiz-adv-x="340" 
d="M60 30l175 230l-175 230h55l175 -230l-175 -230h-55z" />
    <glyph glyph-name="fraction" unicode="&#x2044;" horiz-adv-x="580" 
d="M95 0h-55l445 700h55z" />
    <glyph glyph-name="foursuperior" unicode="&#x2074;" horiz-adv-x="360" 
d="M30 470l130 230h55l-130 -225v-5h140v105h50v-105h55v-45h-55v-75h-50v75h-195v45z" />
    <glyph glyph-name="Euro" unicode="&#x20ac;" horiz-adv-x="820" 
d="M550 410h-365l-3 -19q-2 -22 -2 -41t2 -41l3 -19h365v-40h-356q32 -99 112.5 -164.5t193.5 -65.5q97 0 181 55q37 24 64 55l30 -30q-30 -37 -68 -63q-94 -62 -207 -62q-139 0 -234 78t-129 197h-117v40h110l-3 19q-2 22 -2 41t2 41l3 19h-110v40h117q34 119 129 197
t234 78q106 0 192 -53q38 -22 68 -52v-140h-45v115q-21 23 -55 42q-74 43 -160 43q-113 0 -193.5 -65.5t-112.5 -164.5h356v-40z" />
    <glyph glyph-name="uni20B4" unicode="&#x20b4;" horiz-adv-x="681" 
d="M626 400h-571v45h450l7 19q8 24 8 46q0 76 -52 123t-138 47q-64 0 -136 -35q-34 -19 -54 -35l-20 35q22 20 56 40q72 40 154 40q110 0 177.5 -61.5t67.5 -153.5q0 -22 -8 -46l-7 -19h66v-45zM55 300h571v-45h-450l-2.5 -5t-3 -7t-2.5 -7q-7 -21 -7 -46q0 -76 52 -123
t138 -47q72 0 136 35q28 14 54 35l20 -35q-22 -20 -56 -40q-72 -40 -154 -40q-110 0 -177.5 61.5t-67.5 153.5q0 25 7 46q1 1 3.5 8.5t4.5 10.5h-66v45z" />
    <glyph glyph-name="uni20BD" unicode="&#x20bd;" horiz-adv-x="720" 
d="M50 355h125v300h-115v45h395q99 0 159.5 -55.5t60.5 -139.5t-60.5 -139.5t-159.5 -55.5h-230v-95h325v-45h-325v-125h115v-45h-280v45h115v125h-125v45h125v95h-125v45zM225 655v-300h230q77 0 123.5 42.5t46.5 107.5t-46.5 107.5t-123.5 42.5h-230z" />
    <glyph glyph-name="afii61352" unicode="&#x2116;" horiz-adv-x="1176" 
d="M806 240h300v-45h-300v45zM30 700h171l420 -615h5v610h50v-695h-55l-420 615h-5v-570h115v-45h-280v45h115v610h-116v45zM831 540q0 -63 35.5 -101.5t89.5 -38.5t89.5 38.5t35.5 101.5t-35.5 101.5t-89.5 38.5t-89.5 -38.5t-35.5 -101.5zM1126 540q0 -82 -47 -131
t-123 -49t-123 49t-47 131t47 131t123 49t123 -49t47 -131z" />
    <glyph glyph-name="trademark" unicode="&#x2122;" horiz-adv-x="1005" 
d="M850 370v260h-5l-145 -185h-15l-145 185h-5v-260h70v-40h-185v40h70v290h-70v40h115l155 -200h5l155 200h115v-40h-70v-290h70v-40h-185v40h70zM30 555v145h345v-145h-40v105h-110v-290h70v-40h-185v40h70v290h-110v-105h-40z" />
    <glyph glyph-name="minus" unicode="&#x2212;" horiz-adv-x="505" 
d="M40 360h425v-45h-425v45z" />
    <glyph glyph-name="commaaccent" unicode="&#xf6c3;" horiz-adv-x="165" 
d="M40 -130q0 40 40 40q19 0 32 -15t13 -40q0 -55 -35 -94q-18 -18 -35 -26l-10 20q11 9 20 20q20 22 20 50q-19 0 -32 13t-13 32z" />
    <glyph glyph-name="cyrBreve" unicode="&#xf6d1;" horiz-adv-x="410" 
d="M205 790q-71 0 -118 47t-47 118h40q0 -54 34 -87t91 -33t91 33t34 87h40q0 -71 -47 -118t-118 -47z" />
    <glyph glyph-name="cyrbreve" unicode="&#xf6d4;" horiz-adv-x="390" 
d="M195 635q48 0 79 30t31 75h45q0 -69 -41.5 -109.5t-113.5 -40.5t-113.5 40.5t-41.5 109.5h45q0 -45 31 -75t79 -30z" />
    <glyph glyph-name="Germandbls" horiz-adv-x="730" 
d="M430 335h-60v45l210 270v5h-185q-91 0 -155.5 -68.5t-64.5 -171.5v-415h-165v44h115v371q0 125 76.5 205t193.5 80h250v-45l-215 -270v-5q123 0 191.5 -57t68.5 -143q0 -89 -66.5 -147t-183.5 -58q-62 0 -116 25q-19 8 -44 25l20 40q15 -11 40 -23q50 -22 100 -22
q91 0 143 45t52 115q0 66 -54 110.5t-151 44.5z" />
    <glyph glyph-name="foundryicon" horiz-adv-x="1230" 
d="M100 -110v920h1030v-920h-1030zM1110 -90v880h-990v-880h990zM635 610h110q37 0 58.5 -19t21.5 -46t-21.5 -46t-58.5 -19h-55v-80h-55v210zM635 300h110q37 0 58.5 -19t21.5 -46t-21.5 -46t-58.5 -19h-55v-80h-55v210zM495 170l-75 130h60l40 -75h5l40 75h65l-80 -130
v-80h-55v80zM495 480l-75 130h60l40 -75h5l40 75h65l-80 -130v-80h-55v80zM300 255h-65v45h165l25 -45h-70v-165h-55v165zM300 565h-65v45h165l25 -45h-70v-165h-55v165zM790 400v65q20 4 38 21t22 39h80v-45h-85v-35h120v-45h-175zM790 90v65q20 4 38 21t22 39h80v-45h-85
v-35h120v-45h-175zM810 300h155v-45h-115q-9 37 -40 45zM810 610h155v-45h-115q-9 37 -40 45zM765 545q0 8 -6 14t-14 6h-55v-40h55q8 0 14 6t6 14zM765 235q0 8 -6 14t-14 6h-55v-40h55q8 0 14 6t6 14z" />
    </font>
</defs>
</svg>
