<?xml version="1.0" standalone="no"?>
<!DOCTYPE svg PUBLIC "-//W3C//DTD SVG 1.1//EN" "http://www.w3.org/Graphics/SVG/1.1/DTD/svg11.dtd" >
<svg xmlns="http://www.w3.org/2000/svg" xmlns:xlink="http://www.w3.org/1999/xlink" version="1.1">
<metadata>
Created by FontForge 20150102 at Sun Feb  8 13:32:24 2015
 By uniteet7
Copyright (c) 2014 by Typetype. Designer Ivan Gladkikh, technical designers Kirill Troshin, Olexa Volochay, Nadyr Rakhimov. All rights reserved.
</metadata>
<defs>
<font id="TTSlabsRegular" horiz-adv-x="685" >
  <font-face 
    font-family="TTSlabsRegular"
    font-weight="400"
    font-stretch="normal"
    units-per-em="1000"
    panose-1="2 0 5 3 4 0 0 2 0 3"
    ascent="766"
    descent="-234"
    x-height="510"
    cap-height="700"
    bbox="-85 -290 1235 1020"
    underline-thickness="50"
    underline-position="-50"
    unicode-range="U+000D-F6D4"
  />
<missing-glyph horiz-adv-x="0" 
 />
    <glyph glyph-name=".notdef" horiz-adv-x="0" 
 />
    <glyph glyph-name=".null" horiz-adv-x="0" 
 />
    <glyph glyph-name="nonmarkingreturn" horiz-adv-x="333" 
 />
    <glyph glyph-name="CR" unicode="&#xd;" horiz-adv-x="0" 
 />
    <glyph glyph-name="space" unicode=" " horiz-adv-x="245" 
 />
    <glyph glyph-name="exclam" unicode="!" horiz-adv-x="290" 
d="M125 180l-20 170v350h80v-350l-20 -170h-40zM200 45q0 -23 -16 -39t-39 -16t-39 16t-16 39t16 39t39 16t39 -16t16 -39z" />
    <glyph glyph-name="quotedbl" unicode="&#x22;" horiz-adv-x="405" 
d="M130 435h-30l-20 130v135h70v-135zM305 435h-30l-20 130v135h70v-135z" />
    <glyph glyph-name="numbersign" unicode="#" horiz-adv-x="780" 
d="M185 0h-80l60 175h-125v65h145l70 220h-150v65h170l60 175h80l-60 -175h180l60 175h80l-60 -175h125v-65h-145l-70 -220h150v-65h-170l-60 -175h-80l60 175h-180zM335 460l-70 -220h180l70 220h-180z" />
    <glyph glyph-name="dollar" unicode="$" horiz-adv-x="625" 
d="M350 -115h-70v91q-94 5 -178 60q-37 25 -62 54l45 55q26 -30 59 -53q75 -52 161 -52q84 0 134.5 45t50.5 110q0 47 -42 76.5t-102.5 47t-121 38t-102.5 63.5t-42 110q0 72 57 127t143 65v93h70v-92q77 -5 147 -50q36 -22 58 -43v-140h-70v105q-22 20 -44 32
q-58 33 -116 33q-70 0 -115 -39.5t-45 -91.5q0 -34 22.5 -58.5t59 -39.5t80 -28.5t87 -29t80 -36.5t59 -57t22.5 -85q0 -84 -61 -144.5t-164 -72.5v-93z" />
    <glyph glyph-name="percent" unicode="%" horiz-adv-x="895" 
d="M270 0h-85l440 700h85zM215 420q43 0 74 34.5t31 85.5t-31 85.5t-74 34.5t-74 -34.5t-31 -85.5t31 -85.5t74 -34.5zM215 360q-72 0 -123.5 52.5t-51.5 127.5t51.5 127.5t123.5 52.5t123.5 -52.5t51.5 -127.5t-51.5 -127.5t-123.5 -52.5zM680 40q43 0 74 34.5t31 85.5
t-31 85.5t-74 34.5t-74 -34.5t-31 -85.5t31 -85.5t74 -34.5zM680 -20q-72 0 -123.5 52.5t-51.5 127.5t51.5 127.5t123.5 52.5t123.5 -52.5t51.5 -127.5t-51.5 -127.5t-123.5 -52.5z" />
    <glyph glyph-name="ampersand" unicode="&#x26;" horiz-adv-x="725" 
d="M580 0l-90 95q-28 -35 -63 -60q-77 -60 -167 -60q-102 0 -163.5 53.5t-61.5 131.5q0 81 92 153q39 29 93 52v5q-32 24 -53 49q-52 60 -52 131q0 73 55 124t140 51t140 -51t55 -124q0 -78 -80 -142q-34 -28 -80 -48v-5l150 -155l85 95l50 -45l-90 -100l80 -80h95v-70h-135
zM260 40q67 0 129 52q28 22 51 53l-170 175q-44 -20 -75 -43q-75 -54 -75 -117q0 -46 41 -83t99 -37zM190 550q0 -53 50 -109q23 -26 50 -46q41 20 70 44q70 54 70 111q0 45 -34.5 77.5t-85.5 32.5t-85.5 -32.5t-34.5 -77.5z" />
    <glyph glyph-name="quotesingle" unicode="'" horiz-adv-x="230" 
d="M130 435h-30l-20 130v135h70v-135z" />
    <glyph glyph-name="parenleft" unicode="(" horiz-adv-x="345" 
d="M170 310q0 -173 72 -355q29 -73 73 -145h-70q-44 67 -78 145q-77 173 -77 355q0 175 77 355q34 78 78 145h70q-44 -72 -73 -145q-72 -182 -72 -355z" />
    <glyph glyph-name="parenright" unicode=")" horiz-adv-x="345" 
d="M175 310q0 170 -73 355q-31 78 -72 145h70q41 -63 77 -145q78 -175 78 -355q0 -178 -78 -355q-36 -82 -77 -145h-70q41 67 72 145q73 185 73 355z" />
    <glyph glyph-name="asterisk" unicode="*" horiz-adv-x="500" 
d="M215 540v160h70v-160l140 45l25 -65l-140 -50l90 -125l-55 -40l-95 130l-95 -130l-55 40l90 125l-140 50l25 65z" />
    <glyph glyph-name="plus" unicode="+" horiz-adv-x="525" 
d="M40 370h190v190h65v-190h190v-65h-190v-190h-65v190h-190v65z" />
    <glyph glyph-name="comma" unicode="," horiz-adv-x="220" 
d="M55 45q0 23 16 39t39 16q24 0 39.5 -18.5t15.5 -51.5q0 -62 -43 -109q-17 -19 -42 -31l-15 30q11 7 22 18q23 25 23 52q-23 0 -39 16t-16 39z" />
    <glyph glyph-name="hyphen" unicode="-" horiz-adv-x="510" 
d="M40 370h430v-65h-430v65z" />
    <glyph glyph-name="period" unicode="." horiz-adv-x="220" 
d="M165 45q0 -23 -16 -39t-39 -16t-39 16t-16 39t16 39t39 16t39 -16t16 -39z" />
    <glyph glyph-name="slash" unicode="/" horiz-adv-x="510" 
d="M390 750h80l-350 -800h-80z" />
    <glyph glyph-name="zero" unicode="0" horiz-adv-x="720" 
d="M130 350q0 -147 66 -228.5t164 -81.5t164 81.5t66 228.5t-66 228.5t-164 81.5t-164 -81.5t-66 -228.5zM45 350q0 172 90 273.5t225 101.5t225 -101.5t90 -273.5t-90 -273.5t-225 -101.5t-225 101.5t-90 273.5z" />
    <glyph glyph-name="one" unicode="1" horiz-adv-x="450" 
d="M205 605l-150 -115l-35 50l195 160h75v-630h130v-70h-340v70h130v535h-5z" />
    <glyph glyph-name="two" unicode="2" horiz-adv-x="610" 
d="M65 490v140q29 26 65 47q82 48 170 48q113 0 186.5 -66t73.5 -159q0 -69 -43.5 -127t-126.5 -123l-220 -175v-5h400v-70h-520v70l280 225q78 63 111.5 106.5t33.5 98.5q0 65 -50.5 112.5t-124.5 47.5q-60 0 -120 -33q-24 -13 -45 -32v-105h-70z" />
    <glyph glyph-name="three" unicode="3" horiz-adv-x="615" 
d="M300 40q84 0 134.5 43.5t50.5 106.5q0 62 -49 106t-126 44h-90v65l240 220v5h-310v-140h-75v210h485v-75l-240 -220v-5q113 0 181.5 -60t68.5 -150t-73.5 -152.5t-196.5 -62.5q-101 0 -185 55q-40 25 -65 55l45 55q23 -26 57 -50q72 -50 148 -50z" />
    <glyph glyph-name="four" unicode="4" horiz-adv-x="620" 
d="M495 420v-185h115v-70h-115v-165h-80v165h-395v75l280 460h90l-280 -460v-5h305v185h80z" />
    <glyph glyph-name="five" unicode="5" horiz-adv-x="610" 
d="M300 40q85 0 135 46t50 119q0 71 -47 118t-118 47q-61 0 -133 -33q-31 -15 -57 -33l-50 30l32 366h433v-70h-360l-20 -245h5q21 16 41 25q56 25 109 25q111 0 180.5 -65.5t69.5 -164.5q0 -101 -72.5 -165.5t-197.5 -64.5q-101 0 -185 55q-40 25 -65 55l45 55
q23 -26 57 -50q72 -50 148 -50z" />
    <glyph glyph-name="six" unicode="6" horiz-adv-x="635" 
d="M335 40q75 0 125 50t50 125t-51 125t-129 50q-71 0 -139 -45q-29 -18 -56 -45q0 -119 58.5 -189.5t141.5 -70.5zM335 -25q-122 0 -203.5 97t-81.5 263q0 190 87 290t233 100q73 0 145 -35q34 -18 55 -35l-40 -55q-18 15 -46 30q-58 30 -114 30q-104 0 -172 -78t-68 -212
h5q23 25 52 42q72 43 143 43q114 0 189.5 -70t75.5 -170t-74.5 -170t-185.5 -70z" />
    <glyph glyph-name="seven" unicode="7" horiz-adv-x="585" 
d="M40 480v220h515v-75l-295 -625h-85l295 625v5h-355v-150h-75z" />
    <glyph glyph-name="eight" unicode="8" horiz-adv-x="640" 
d="M320 725q119 0 184.5 -54t65.5 -136t-68 -129q-29 -20 -67 -31v-5q43 -10 82 -34q83 -55 83 -146q0 -87 -77 -151t-203 -64t-203 64t-77 151q0 92 82 146q38 24 83 34v5q-40 11 -68 31q-67 46 -67 129q0 82 65.5 136t184.5 54zM320 40q86 0 140.5 45.5t54.5 104.5
t-54.5 104.5t-140.5 45.5t-140.5 -45.5t-54.5 -104.5t54.5 -104.5t140.5 -45.5zM320 405q76 0 120.5 38t44.5 92q0 51 -44.5 88t-120.5 37t-120.5 -37t-44.5 -88q0 -54 44.5 -92t120.5 -38z" />
    <glyph glyph-name="nine" unicode="9" horiz-adv-x="635" 
d="M300 660q-75 0 -125 -50t-50 -125t51 -125t129 -50q71 0 139 45q29 18 56 45q0 119 -58.5 189.5t-141.5 70.5zM300 725q122 0 203.5 -97t81.5 -263q0 -190 -87 -290t-233 -100q-81 0 -145 35q-29 14 -55 35l40 55q18 -15 46 -30q58 -30 114 -30q104 0 172 78t68 212h-5
q-21 -24 -53 -43q-70 -42 -142 -42q-114 0 -189.5 70t-75.5 170t74.5 170t185.5 70z" />
    <glyph glyph-name="colon" unicode=":" horiz-adv-x="240" 
d="M175 45q0 -23 -16 -39t-39 -16t-39 16t-16 39t16 39t39 16t39 -16t16 -39zM175 465q0 -23 -16 -39t-39 -16t-39 16t-16 39t16 39t39 16t39 -16t16 -39z" />
    <glyph glyph-name="semicolon" unicode=";" horiz-adv-x="240" 
d="M175 465q0 -23 -16 -39t-39 -16t-39 16t-16 39t16 39t39 16t39 -16t16 -39zM65 45q0 23 16 39t39 16q24 0 39.5 -18.5t15.5 -51.5q0 -62 -43 -109q-17 -19 -42 -31l-15 30q11 7 22 18q23 25 23 52q-23 0 -39 16t-16 39z" />
    <glyph glyph-name="less" unicode="&#x3c;" horiz-adv-x="550" 
d="M490 430l-370 -170v-5l370 -170v-75l-460 215v65l460 215v-75z" />
    <glyph glyph-name="equal" unicode="=" horiz-adv-x="530" 
d="M50 475h430v-65h-430v65zM50 260h430v-65h-430v65z" />
    <glyph glyph-name="greater" unicode="&#x3e;" horiz-adv-x="550" 
d="M430 260l-370 170v75l460 -215v-65l-460 -215v75l370 170v5z" />
    <glyph glyph-name="question" unicode="?" horiz-adv-x="575" 
d="M40 490v140q28 26 62 47q80 48 168 48q119 0 192 -62t73 -148q0 -43 -24 -81t-58.5 -65.5t-69.5 -53t-59 -53.5t-24 -57v-25h-70v25q0 34 16.5 64t40.5 51t53 44t53 43t40.5 48t16.5 60q0 59 -50 102t-130 43q-58 0 -116 -33q-22 -12 -44 -32v-105h-70zM320 45
q0 -23 -16 -39t-39 -16t-39 16t-16 39t16 39t39 16t39 -16t16 -39z" />
    <glyph glyph-name="at" unicode="@" horiz-adv-x="830" 
d="M615 195q-41 0 -70 20q-15 10 -25 20h-5q-11 -12 -28 -23q-38 -22 -77 -22q-58 0 -91.5 27.5t-33.5 67.5t34 67.5t92 27.5h94q0 38 -23 61.5t-57 23.5q-32 0 -64 -16l-26 -15l-20 40q13 10 32 18q40 18 78 18q60 0 97.5 -36.5t37.5 -93.5v-120q7 -5 16 -10q22 -10 39 -10
q41 0 68 37t27 108q0 110 -84.5 190t-210.5 80q-124 0 -209.5 -86.5t-85.5 -213.5t85.5 -213.5t209.5 -86.5q104 0 183 35q38 15 67 35l30 -55q-36 -22 -82 -40q-102 -40 -198 -40q-154 0 -259.5 105.5t-105.5 259.5t105.5 259.5t259.5 105.5q155 0 260 -99t105 -236
q0 -88 -46 -139t-119 -51zM505 280v55h-95q-29 0 -47 -15t-18 -35t18 -35t47 -15q34 0 68 22q17 12 27 23z" />
    <glyph glyph-name="A" unicode="A" horiz-adv-x="775" 
d="M595 70l-65 170h-285l-65 -170h95v-70h-275v70h95l245 630h95l245 -630h95v-70h-275v70h95zM385 620l-120 -320h245l-120 320h-5z" />
    <glyph glyph-name="B" unicode="B" horiz-adv-x="715" 
d="M440 0h-405v70h110v560h-110v70h365q106 0 163 -50t57 -135q0 -74 -60 -111q-26 -16 -60 -24v-5q47 -7 87 -29q88 -49 88 -146q0 -84 -65 -142t-170 -58zM225 330v-260h215q66 0 108 38.5t42 91.5t-42 91.5t-108 38.5h-215zM225 630v-230h175q62 0 98.5 32.5t36.5 82.5
t-36.5 82.5t-98.5 32.5h-175z" />
    <glyph glyph-name="C" unicode="C" horiz-adv-x="760" 
d="M690 610v-145h-75v115q-19 21 -48 40q-64 40 -142 40q-125 0 -210 -88t-85 -222t85 -222t210 -88q93 0 172 60q36 26 63 60l50 -50q-33 -40 -73 -68q-92 -67 -212 -67q-165 0 -272.5 106.5t-107.5 268.5t107.5 268.5t272.5 106.5q100 0 194 -58q38 -24 71 -57z" />
    <glyph glyph-name="D" unicode="D" horiz-adv-x="770" 
d="M225 70h135q120 0 202.5 81.5t82.5 198.5t-82.5 198.5t-202.5 81.5h-135v-560zM730 350q0 -148 -105 -249t-265 -101h-325v70h110v560h-110v70h325q160 0 265 -101t105 -249z" />
    <glyph glyph-name="E" unicode="E" horiz-adv-x="710" 
d="M35 0v70h110v560h-110v70h605v-220h-75v150h-340v-235h240v-70h-240v-255h340v150h75v-220h-605z" />
    <glyph glyph-name="F" unicode="F" 
d="M35 0v70h110v560h-110v70h600v-230h-75v160h-335v-255h245v-70h-245v-235h110v-70h-300z" />
    <glyph glyph-name="G" unicode="G" horiz-adv-x="770" 
d="M700 385v-295q-39 -35 -76 -58q-94 -57 -199 -57q-165 0 -272.5 106.5t-107.5 268.5t107.5 268.5t272.5 106.5q109 0 203 -58q40 -25 72 -57l-50 -55q-29 32 -58 52q-77 53 -167 53q-125 0 -210 -88t-85 -222t85 -222t210 -88q77 0 147 40q32 20 53 40v200h-213v65h288z
" />
    <glyph glyph-name="H" unicode="H" horiz-adv-x="830" 
d="M225 700v-305h380v235h-110v70h300v-70h-110v-560h110v-70h-190v325h-380v-255h110v-70h-300v70h110v560h-110v70h190z" />
    <glyph glyph-name="I" unicode="I" horiz-adv-x="390" 
d="M235 630v-560h120v-70h-320v70h120v560h-120v70h320v-70h-120z" />
    <glyph glyph-name="J" unicode="J" horiz-adv-x="496" 
d="M271 210v420h-120v70h320v-70h-120v-420q0 -106 -59 -170.5t-151 -64.5q-56 0 -101 27q-23 12 -40 28l36 60q11 -11 30 -23q38 -22 75 -22q59 0 94.5 42t35.5 123z" />
    <glyph glyph-name="K" unicode="K" horiz-adv-x="750" 
d="M390 325h-165v-255h110v-70h-300v70h110v560h-110v70h300v-70h-110v-235h160l195 305h145v-70h-100l-165 -260l190 -300h100v-70h-155z" />
    <glyph glyph-name="L" unicode="L" horiz-adv-x="665" 
d="M35 630v70h300v-70h-110v-560h325v155h75v-225h-590v70h110v560h-110z" />
    <glyph glyph-name="M" unicode="M" horiz-adv-x="995" 
d="M765 565l-255 -355h-25l-255 355h-5v-495h110v-70h-300v70h110v560h-110v70h185l275 -380h5l275 380h185v-70h-110v-560h110v-70h-300v70h110v495h-5z" />
    <glyph glyph-name="N" unicode="N" horiz-adv-x="830" 
d="M35 700h190l385 -560h5v490h-110v70h300v-70h-110v-630h-80l-385 560h-5v-490h110v-70h-300v70h110v560h-110v70z" />
    <glyph glyph-name="O" unicode="O" horiz-adv-x="830" 
d="M700 350q0 133 -83 221.5t-202 88.5t-202 -88.5t-83 -221.5t83 -221.5t202 -88.5t202 88.5t83 221.5zM785 350q0 -161 -106 -268t-264 -107t-264 107t-106 268t106 268t264 107t264 -107t106 -268z" />
    <glyph glyph-name="P" unicode="P" horiz-adv-x="700" 
d="M225 280v-210h110v-70h-300v70h110v560h-110v70h395q114 0 179.5 -59t65.5 -151t-65.5 -151t-179.5 -59h-205zM225 630v-280h205q74 0 117 39.5t43 100.5t-43 100.5t-117 39.5h-205z" />
    <glyph glyph-name="Q" unicode="Q" horiz-adv-x="840" 
d="M45 350q0 161 106 268t264 107t264 -107t106 -268q0 -101 -45 -185q-20 -39 -45 -65l120 -120l-50 -50l-120 120q-30 -22 -63 -38q-78 -37 -167 -37q-158 0 -264 107t-106 268zM700 350q0 133 -83 221.5t-202 88.5t-202 -88.5t-83 -221.5t83 -221.5t202 -88.5
q65 0 127 32q27 14 48 33l-135 135l50 50l135 -135q17 23 30 52q30 70 30 143z" />
    <glyph glyph-name="R" unicode="R" horiz-adv-x="760" 
d="M225 300v-230h110v-70h-300v70h110v560h-110v70h395q110 0 172.5 -55.5t62.5 -144.5q0 -97 -80 -151q-33 -23 -80 -34v-5l155 -240h100v-70h-155l-190 300h-190zM225 630v-260h205q71 0 110.5 36t39.5 94t-39.5 94t-110.5 36h-205z" />
    <glyph glyph-name="S" unicode="S" horiz-adv-x="625" 
d="M575 195q0 -93 -73 -156.5t-197 -63.5q-112 0 -198 57q-36 23 -67 58l45 55q26 -30 59 -53q75 -52 161 -52q84 0 134.5 45t50.5 110q0 47 -42 76.5t-102.5 47t-121 38t-102.5 63.5t-42 110q0 78 68.5 136.5t176.5 58.5q84 0 166 -48q33 -19 64 -47v-140h-70v105
q-22 20 -44 32q-58 33 -116 33q-70 0 -115 -39.5t-45 -91.5q0 -34 22.5 -58.5t59 -39.5t80 -28.5t87 -29t80 -36.5t59 -57t22.5 -85z" />
    <glyph glyph-name="T" unicode="T" horiz-adv-x="720" 
d="M320 70v560h-195v-160h-75v230h620v-230h-75v160h-195v-560h110v-70h-300v70h110z" />
    <glyph glyph-name="U" unicode="U" horiz-adv-x="810" 
d="M215 700v-450q0 -101 51 -155.5t139 -54.5t139 54.5t51 155.5v380h-110v70h300v-70h-110v-380q0 -128 -73 -201.5t-197 -73.5t-197 73.5t-73 201.5v380h-110v70h190z" />
    <glyph glyph-name="V" unicode="V" horiz-adv-x="755" 
d="M375 100h5l215 600h160v-70h-95l-235 -630h-95l-235 630h-95v70h160z" />
    <glyph glyph-name="W" unicode="W" horiz-adv-x="1065" 
d="M700 0l-165 565h-5l-165 -565h-95l-175 630h-95v70h160l155 -580h5l165 580h95l165 -580h5l155 580h160v-70h-95l-175 -630h-95z" />
    <glyph glyph-name="X" unicode="X" horiz-adv-x="725" 
d="M360 420h5l170 280h155v-70h-100l-165 -265l190 -295h100v-70h-155l-195 310h-5l-195 -310h-155v70h100l190 295l-165 265h-100v70h155z" />
    <glyph glyph-name="Y" unicode="Y" horiz-adv-x="710" 
d="M395 270v-200h110v-70h-300v70h110v200l-220 360h-95v70h150l203 -340h4l203 340h150v-70h-95z" />
    <glyph glyph-name="Z" unicode="Z" 
d="M55 75l466 550v5h-381v-150h-75v220h555v-75l-465 -550v-5h400v150h75v-220h-575v75z" />
    <glyph glyph-name="bracketleft" unicode="[" horiz-adv-x="365" 
d="M90 -180v980h245v-70h-165v-840h165v-70h-245z" />
    <glyph glyph-name="backslash" unicode="\" horiz-adv-x="510" 
d="M40 750h80l350 -800h-80z" />
    <glyph glyph-name="bracketright" unicode="]" horiz-adv-x="365" 
d="M275 800v-980h-245v70h165v840h-165v70h245z" />
    <glyph glyph-name="asciicircum" unicode="^" horiz-adv-x="555" 
d="M435 360l-155 245h-5l-155 -245h-80l205 330h65l205 -330h-80z" />
    <glyph glyph-name="underscore" unicode="_" horiz-adv-x="480" 
d="M30 -100h420v-65h-420v65z" />
    <glyph glyph-name="grave" unicode="`" horiz-adv-x="270" 
d="M40 700h90l100 -200h-60z" />
    <glyph glyph-name="a" unicode="a" horiz-adv-x="605" 
d="M495 330v-265h90v-65h-155l-5 70h-5q-26 -26 -54 -45q-65 -45 -126 -45q-94 0 -147 45t-53 115t53 115t147 45h180v30q0 60 -40 100t-100 40q-56 0 -106 -30q-22 -14 -39 -30l-40 50q16 16 47 35q64 35 138 35q96 0 155.5 -56.5t59.5 -143.5zM240 40q61 0 126 49
q32 25 54 50v96h-180q-55 0 -87.5 -27.5t-32.5 -67.5q0 -43 32.5 -71.5t87.5 -28.5z" />
    <glyph glyph-name="b" unicode="b" horiz-adv-x="675" 
d="M30 635v65h165v-270h5q21 21 51 40q64 40 129 40q106 0 180.5 -77t74.5 -188t-74.5 -188t-180.5 -77q-67 0 -132 45q-30 20 -53 45h-5l-5 -70h-155v65h90v570h-90zM380 40q70 0 122.5 58.5t52.5 146.5t-52.5 146.5t-122.5 58.5q-66 0 -132 -50q-33 -26 -53 -50v-210
q20 -24 53 -50q66 -50 132 -50z" />
    <glyph glyph-name="c" unicode="c" horiz-adv-x="580" 
d="M450 330v90q-22 18 -35 25q-48 25 -95 25q-83 0 -141.5 -61.5t-58.5 -153.5t58.5 -153.5t141.5 -61.5q69 0 126 45q27 20 44 45l45 -45q-22 -30 -55 -53q-69 -52 -160 -52q-120 0 -200 79t-80 196t80 196t200 79q73 0 145 -43q30 -17 55 -42v-115h-70z" />
    <glyph glyph-name="d" unicode="d" horiz-adv-x="665" 
d="M555 700v-635h90v-65h-155l-5 70h-5q-23 -25 -53 -45q-65 -45 -132 -45q-106 0 -180.5 77t-74.5 188t74.5 188t180.5 77q65 0 129 -40q30 -19 51 -40h5v205h-90v65h165zM295 40q66 0 132 50q33 26 53 50v210q-20 24 -53 50q-66 50 -132 50q-70 0 -122.5 -58.5
t-52.5 -146.5t52.5 -146.5t122.5 -58.5z" />
    <glyph glyph-name="e" unicode="e" horiz-adv-x="585" 
d="M535 225h-415q0 -69 59.5 -127t130.5 -58q69 0 126 45q27 20 44 45l45 -45q-22 -30 -55 -53q-69 -52 -160 -52q-113 0 -191.5 79.5t-78.5 195.5q0 118 74.5 196.5t180.5 78.5q100 0 175 -72.5t75 -167.5q0 -26 -5 -46zM295 470q-68 0 -121.5 -54.5t-53.5 -125.5h350
q0 71 -53.5 125.5t-121.5 54.5z" />
    <glyph glyph-name="f" unicode="f" horiz-adv-x="385" 
d="M195 510v-20h170v-65h-170v-360h90v-65h-255v65h90v360h-90v65h90v21q0 100 51 154.5t139 54.5q41 0 77 -20q16 -8 33 -20l-25 -55q-11 7 -24 15q-32 15 -61 15q-51 0 -83 -37.5t-32 -107.5z" />
    <glyph glyph-name="g" unicode="g" horiz-adv-x="665" 
d="M120 275q0 -81 52.5 -138t122.5 -57q66 0 132 50q33 26 53 50v190q-20 24 -53 50q-66 50 -132 50q-69 0 -122 -57.5t-53 -137.5zM480 55v45h-5q-21 -21 -51 -40q-64 -40 -129 -40q-105 0 -180 75t-75 180t75 180t180 75q67 0 132 -45q30 -20 53 -45h5l5 70h155v-65h-90
v-390q0 -117 -79 -196t-196 -79q-91 0 -160 52q-33 23 -55 53l45 45q17 -25 44 -45q57 -45 126 -45q83 0 141.5 61.5t58.5 153.5z" />
    <glyph glyph-name="h" unicode="h" 
d="M500 65v270q0 63 -34 99t-91 36q-60 0 -126 -50q-32 -25 -54 -50v-305h90v-65h-255v65h90v570h-90v65h165v-255h5q25 25 52 42q66 43 123 43q90 0 145 -54t55 -141v-270h90v-65h-255v65h90z" />
    <glyph glyph-name="i" unicode="i" horiz-adv-x="305" 
d="M30 510h165v-445h90v-65h-255v65h90v380h-90v65zM210 665q0 -23 -16 -39t-39 -16t-39 16t-16 39t16 39t39 16t39 -16t16 -39z" />
    <glyph glyph-name="j" unicode="j" horiz-adv-x="310" 
d="M145 -25v470h-90v65h165v-535q0 -93 -48 -144t-132 -51q-41 0 -73 17q-17 7 -27 18l20 55q16 -10 25 -13q26 -12 55 -12q47 0 76 34t29 96zM235 665q0 -23 -16 -39t-39 -16t-39 16t-16 39t16 39t39 16t39 -16t16 -39z" />
    <glyph glyph-name="k" unicode="k" horiz-adv-x="605" 
d="M195 700v-395h115l135 205h125v-65h-75l-115 -170l135 -210h85v-65h-135l-150 240h-120v-175h90v-65h-255v65h90v570h-90v65h165z" />
    <glyph glyph-name="l" unicode="l" horiz-adv-x="305" 
d="M30 700h165v-635h90v-65h-255v65h90v570h-90v65z" />
    <glyph glyph-name="m" unicode="m" horiz-adv-x="985" 
d="M120 445h-90v65h155l5 -70h5q21 27 44 45q55 45 116 45q69 0 123 -50q25 -25 37 -50h5q22 27 52 50q64 50 123 50q76 0 128 -55t52 -140v-270h90v-65h-165v335q0 62 -30.5 98.5t-74.5 36.5q-60 0 -116 -50q-25 -22 -44 -50v-305h90v-65h-165v335q0 62 -30.5 98.5
t-74.5 36.5q-60 0 -116 -50q-25 -22 -44 -50v-305h90v-65h-255v65h90v380z" />
    <glyph glyph-name="n" unicode="n" 
d="M500 65v270q0 63 -34 99t-91 36q-60 0 -126 -50q-32 -25 -54 -50v-305h90v-65h-255v65h90v380h-90v65h155l5 -70h5q25 26 54 45q65 45 126 45q90 0 145 -54t55 -141v-270h90v-65h-255v65h90z" />
    <glyph glyph-name="o" unicode="o" horiz-adv-x="620" 
d="M40 255q0 116 78.5 195.5t191.5 79.5t191.5 -79.5t78.5 -195.5t-78.5 -195.5t-191.5 -79.5t-191.5 79.5t-78.5 195.5zM500 255q0 92 -56.5 153.5t-133.5 61.5t-133.5 -61.5t-56.5 -153.5t56.5 -153.5t133.5 -61.5t133.5 61.5t56.5 153.5z" />
    <glyph glyph-name="p" unicode="p" horiz-adv-x="665" 
d="M20 -200v65h90v580h-90v65h155l5 -70h5q23 25 53 45q65 45 132 45q106 0 180.5 -77t74.5 -188t-74.5 -188t-180.5 -77q-65 0 -129 40q-30 19 -51 40h-5v-215h90v-65h-255zM370 470q-66 0 -132 -50q-33 -26 -53 -50v-210q20 -24 53 -50q66 -50 132 -50q70 0 122.5 58.5
t52.5 146.5t-52.5 146.5t-122.5 58.5z" />
    <glyph glyph-name="q" unicode="q" horiz-adv-x="665" 
d="M645 -135v-65h-255v65h90v215h-5q-21 -21 -51 -40q-64 -40 -129 -40q-106 0 -180.5 77t-74.5 188t74.5 188t180.5 77q67 0 132 -45q30 -20 53 -45h5l5 70h155v-65h-90v-580h90zM295 470q-70 0 -122.5 -58.5t-52.5 -146.5t52.5 -146.5t122.5 -58.5q66 0 132 50
q33 26 53 50v210q-20 24 -53 50q-66 50 -132 50z" />
    <glyph glyph-name="r" unicode="r" horiz-adv-x="435" 
d="M435 515l-20 -70l-18 7q-22 8 -47 8q-57 0 -111 -40q-24 -17 -44 -40v-315h90v-65h-255v65h90v380h-90v65h155l5 -70h5q21 27 44 45q53 45 111 45q31 0 61 -8z" />
    <glyph glyph-name="s" unicode="s" horiz-adv-x="530" 
d="M480 145q0 -72 -58.5 -118.5t-166.5 -46.5q-91 0 -160 52q-33 23 -55 53l45 45q17 -25 44 -45q57 -45 126 -45q68 0 106.5 30.5t38.5 74.5q0 31 -34 50.5t-82.5 31t-97 25.5t-82.5 46t-34 82q0 64 54 107t151 43q69 0 141 -43q30 -18 54 -42v-95h-70v70q-19 17 -34 25
q-48 25 -91 25q-57 0 -91 -27t-34 -63q0 -31 34 -50.5t82.5 -31t97 -25.5t82.5 -46t34 -82z" />
    <glyph glyph-name="t" unicode="t" horiz-adv-x="420" 
d="M185 445v-255q0 -70 32 -107.5t83 -37.5q33 0 61 15q13 6 24 15l25 -55q-17 -12 -33 -20q-36 -20 -77 -20q-88 0 -139 54.5t-51 154.5v256h-90v65h90l40 150h35v-150h170v-65h-170z" />
    <glyph glyph-name="u" unicode="u" 
d="M185 510v-335q0 -63 34 -99t91 -36q60 0 126 50q32 25 54 50v305h-90v65h255v-65h-90v-380h90v-65h-155l-5 70h-5q-26 -26 -54 -45q-65 -45 -126 -45q-90 0 -145 54t-55 141v270h-90v65h165z" />
    <glyph glyph-name="v" unicode="v" horiz-adv-x="595" 
d="M145 510l150 -425h5l150 425h145v-65h-85l-165 -445h-95l-165 445h-85v65h145z" />
    <glyph glyph-name="w" unicode="w" horiz-adv-x="875" 
d="M440 410h-5l-125 -410h-90l-135 445h-85v65h145l120 -410h5l120 410h95l120 -410h5l120 410h145v-65h-85l-135 -445h-90z" />
    <glyph glyph-name="x" unicode="x" horiz-adv-x="565" 
d="M420 0l-135 215h-5l-135 -215h-135v65h85l130 200l-115 180h-75v65h125l120 -195h5l120 195h125v-65h-75l-115 -180l130 -200h85v-65h-135z" />
    <glyph glyph-name="y" unicode="y" horiz-adv-x="595" 
d="M265 0l-180 445h-85v65h145l160 -410h5l140 410h145v-65h-85l-160 -445q-42 -115 -94.5 -167.5t-130.5 -52.5q-41 0 -73 17q-16 7 -27 18l20 55q16 -10 25 -13q26 -12 55 -12q92 0 140 155z" />
    <glyph glyph-name="z" unicode="z" horiz-adv-x="555" 
d="M500 440l-360 -370v-5h300v115h70v-180h-465v70l360 370v5h-280v-115h-70v180h445v-70z" />
    <glyph glyph-name="braceleft" unicode="{" horiz-adv-x="390" 
d="M220 190v-190q0 -53 28 -81.5t77 -28.5h35v-70h-35q-89 0 -137 48t-48 132v190q0 38 -23.5 61.5t-61.5 23.5h-25v65h25q38 0 61.5 23.5t23.5 61.5v195q0 84 48 132t137 48h35v-70h-35q-49 0 -77 -28.5t-28 -81.5v-195q0 -59 -40 -93q-17 -14 -40 -22v-5q23 -8 40 -22
q40 -34 40 -93z" />
    <glyph glyph-name="bar" unicode="|" horiz-adv-x="280" 
d="M180 -180h-80v990h80v-990z" />
    <glyph glyph-name="braceright" unicode="}" horiz-adv-x="390" 
d="M170 0v190q0 59 40 93q17 14 40 22v5q-23 8 -40 22q-40 34 -40 93v195q0 53 -28 81.5t-77 28.5h-35v70h35q89 0 137 -48t48 -132v-195q0 -38 23.5 -61.5t61.5 -23.5h25v-65h-25q-38 0 -61.5 -23.5t-23.5 -61.5v-190q0 -84 -48 -132t-137 -48h-35v70h35q49 0 77 28.5
t28 81.5z" />
    <glyph glyph-name="asciitilde" unicode="~" horiz-adv-x="530" 
d="M170 355q-27 0 -43.5 -17.5t-16.5 -47.5v-40h-70v40q0 60 36.5 97.5t93.5 37.5q31 0 59.5 -17t47 -38t41 -38t42.5 -17q27 0 43.5 17.5t16.5 47.5v40h70v-40q0 -60 -36.5 -97.5t-93.5 -37.5q-30 0 -59 17t-47.5 38t-41.5 38t-42 17z" />
    <glyph glyph-name="nbspace" unicode="&#xa0;" horiz-adv-x="245" 
 />
    <glyph glyph-name="exclamdown" unicode="&#xa1;" horiz-adv-x="290" 
d="M105 160l20 170h40l20 -170v-360h-80v360zM200 465q0 -23 -16 -39t-39 -16t-39 16t-16 39t16 39t39 16t39 -16t16 -39z" />
    <glyph glyph-name="cent" unicode="&#xa2;" horiz-adv-x="580" 
d="M345 -110h-65v93q-105 12 -172.5 89t-67.5 183t67.5 182t172.5 90v103h65v-101q67 -6 127 -45q27 -18 48 -39v-115h-70v90q-22 18 -35 25q-48 25 -95 25q-83 0 -141.5 -61.5t-58.5 -153.5t58.5 -153.5t141.5 -61.5q69 0 126 45q27 20 44 45l45 -45q-23 -28 -50 -49
q-66 -50 -140 -55v-91z" />
    <glyph glyph-name="sterling" unicode="&#xa3;" horiz-adv-x="605" 
d="M575 0h-545v70h40q28 13 52 37q53 53 53 123v120h-90v65h90v95q0 100 51 155t139 55q44 0 79 -20q18 -10 31 -20l-25 -55q-10 7 -24 15q-32 15 -61 15q-51 0 -83 -37.5t-32 -107.5v-95h170v-65h-170v-120q0 -74 -45 -121q-19 -20 -45 -34v-5h340v130h75v-200z" />
    <glyph glyph-name="currency" unicode="&#xa4;" horiz-adv-x="720" 
d="M51 300v70h120v260h-110v70h395q110 0 172.5 -55.5t62.5 -144.5t-62.5 -144.5t-172.5 -55.5h-205v-70h310v-70h-310v-90h110v-70h-300v70h110v90h-120v70h120v70h-120zM251 630v-260h205q71 0 110.5 36t39.5 94t-39.5 94t-110.5 36h-205z" />
    <glyph glyph-name="yen" unicode="&#xa5;" horiz-adv-x="710" 
d="M625 195h-230v-125h120v-70h-320v70h120v125h-230v60h230v15l-55 90h-175v60h138l-128 210h-95v70h150l203 -340h4l203 340h150v-70h-95l-129 -210h139v-60h-175l-55 -90v-15h230v-60z" />
    <glyph glyph-name="brokenbar" unicode="&#xa6;" horiz-adv-x="260" 
d="M170 -180h-80v395h80v-395zM170 810v-395h-80v395h80z" />
    <glyph glyph-name="section" unicode="&#xa7;" horiz-adv-x="530" 
d="M490 250q0 -78 -63 -127q-27 -21 -62 -33v-5q30 -15 55 -34q55 -47 55 -101q0 -71 -60.5 -120.5t-164.5 -49.5q-84 0 -154 45q-33 20 -56 45l40 50q19 -20 47 -40q62 -40 123 -40q68 0 106.5 33t38.5 77q0 30 -26 53.5t-65 37.5t-84 33t-84 38.5t-65 55t-26 82.5
q0 75 70 125q29 21 70 35v5q-29 13 -53 34q-52 44 -52 101q0 71 58.5 120.5t156.5 49.5q71 0 137 -38q26 -15 53 -37l-39 -50q-22 20 -43 32q-56 33 -108 33q-62 0 -98.5 -31.5t-36.5 -78.5q0 -35 34 -61t82.5 -44.5t97 -39.5t82.5 -60.5t34 -94.5zM410 250q0 56 -83 99
q-34 17 -82 31q-36 -11 -60 -28q-60 -39 -60 -102q0 -56 85 -99q36 -17 85 -31q31 9 57 27q58 40 58 103z" />
    <glyph glyph-name="dieresis" unicode="&#xa8;" horiz-adv-x="390" 
d="M140 670q0 -23 -13.5 -36.5t-36.5 -13.5t-36.5 13.5t-13.5 36.5t13.5 36.5t36.5 13.5t36.5 -13.5t13.5 -36.5zM350 670q0 -23 -13.5 -36.5t-36.5 -13.5t-36.5 13.5t-13.5 36.5t13.5 36.5t36.5 13.5t36.5 -13.5t13.5 -36.5z" />
    <glyph glyph-name="copyright" unicode="&#xa9;" horiz-adv-x="830" 
d="M495 385v60q-6 5 -18 10q-22 10 -47 10q-46 0 -75.5 -31.5t-29.5 -83.5t29.5 -83.5t75.5 -31.5q38 0 70 22q18 14 25 23l30 -35q-15 -16 -34 -28q-41 -27 -91 -27q-72 0 -116 44t-44 116t44 116t116 44q42 0 84 -23q18 -11 31 -22v-80h-50zM780 355q0 -154 -105.5 -259.5
t-259.5 -105.5t-259.5 105.5t-105.5 259.5t105.5 259.5t259.5 105.5t259.5 -105.5t105.5 -259.5zM120 355q0 -127 85.5 -213.5t209.5 -86.5t209.5 86.5t85.5 213.5t-85.5 213.5t-209.5 86.5t-209.5 -86.5t-85.5 -213.5z" />
    <glyph glyph-name="ordfeminine" unicode="&#xaa;" horiz-adv-x="445" 
d="M280 550v10q0 42 -25.5 68.5t-64.5 26.5q-27 0 -59 -18q-13 -7 -26 -17l-25 40q13 10 31 20q35 20 79 20q67 0 108.5 -39.5t41.5 -100.5v-160h65v-50h-115l-5 40h-5q-14 -14 -31 -25q-37 -25 -79 -25q-58 0 -94 30.5t-36 74.5t36.5 74.5t98.5 30.5h105zM280 445v55h-105
q-37 0 -56 -15.5t-19 -39.5t18.5 -39.5t51.5 -15.5q45 0 79 27q20 15 31 28z" />
    <glyph glyph-name="guillemotleft" unicode="&#xab;" horiz-adv-x="530" 
d="M265 445l-150 -185l150 -185l-55 -41l-180 226l180 225zM480 445l-150 -185l150 -185l-55 -41l-180 226l180 225z" />
    <glyph glyph-name="logicalnot" unicode="&#xac;" horiz-adv-x="540" 
d="M415 220v145h-375v65h450v-210h-75z" />
    <glyph glyph-name="uni00AD" unicode="&#xad;" horiz-adv-x="510" 
d="M40 370h430v-65h-430v65z" />
    <glyph glyph-name="registered" unicode="&#xae;" horiz-adv-x="830" 
d="M415 200h-145v45h45v210h-45v45h175q52 0 83.5 -27.5t31.5 -67.5q0 -39 -35 -64q-20 -12 -35 -16v-5l50 -75h40v-45h-80l-65 110h-65v-65h45v-45zM370 455v-100h75q60 0 60 50t-60 50h-75zM780 355q0 -154 -105.5 -259.5t-259.5 -105.5t-259.5 105.5t-105.5 259.5
t105.5 259.5t259.5 105.5t259.5 -105.5t105.5 -259.5zM120 355q0 -127 85.5 -213.5t209.5 -86.5t209.5 86.5t85.5 213.5t-85.5 213.5t-209.5 86.5t-209.5 -86.5t-85.5 -213.5z" />
    <glyph glyph-name="macron" unicode="&#xaf;" horiz-adv-x="410" 
d="M40 705h330v-65h-330v65z" />
    <glyph glyph-name="degree" unicode="&#xb0;" horiz-adv-x="420" 
d="M105 540q0 -45 31.5 -77.5t73.5 -32.5t73.5 32.5t31.5 77.5q0 44 -31.5 77t-73.5 33t-73.5 -33t-31.5 -77zM380 540q0 -69 -49 -117t-121 -48t-121 48t-49 117t49 117t121 48t121 -48t49 -117z" />
    <glyph glyph-name="plusminus" unicode="&#xb1;" horiz-adv-x="545" 
d="M50 70v65h190v180h-190v65h190v190h65v-190h190v-65h-190v-180h190v-65h-445z" />
    <glyph glyph-name="twosuperior" unicode="&#xb2;" horiz-adv-x="375" 
d="M40 350v55l135 90q24 13 42 30q43 39 43 75q0 25 -21.5 42.5t-58.5 17.5q-30 0 -54 -13q-10 -5 -21 -12v-55h-50v85q12 8 38 22q48 23 87 23q61 0 100.5 -33.5t39.5 -76.5q0 -52 -45 -97q-19 -19 -45 -33l-100 -65v-5h195v-50h-285z" />
    <glyph glyph-name="threesuperior" unicode="&#xb3;" horiz-adv-x="370" 
d="M310 645l-110 -90v-5q32 -1 60 -13q60 -25 60 -87q0 -47 -38 -78.5t-107 -31.5q-55 0 -98 27q-21 12 -37 28l25 40q10 -10 32 -23q40 -22 78 -22q40 0 62.5 17.5t22.5 42.5t-22.5 42.5t-62.5 17.5h-50v40l110 90v5h-175v55h250v-55z" />
    <glyph glyph-name="acute" unicode="&#xb4;" horiz-adv-x="270" 
d="M140 770h90l-130 -200h-60z" />
    <glyph glyph-name="mu" unicode="&#xb5;" 
d="M110 -200v645h-90v65h165v-335q0 -63 34 -99t91 -36q60 0 126 50q32 25 54 50v305h-90v65h255v-65h-90v-380h90v-65h-155l-5 70h-5q-26 -26 -54 -45q-65 -45 -126 -45q-55 0 -92 25q-17 11 -28 25h-5v-230h-75z" />
    <glyph glyph-name="paragraph" unicode="&#xb6;" horiz-adv-x="610" 
d="M245 700h325v-70h-95v-830h-70v830h-90v-830h-70v520q-82 0 -138.5 55.5t-56.5 134.5t56.5 134.5t138.5 55.5z" />
    <glyph glyph-name="periodcentered" unicode="&#xb7;" horiz-adv-x="250" 
d="M180 350q0 -23 -16 -39t-39 -16t-39 16t-16 39t16 39t39 16t39 -16t16 -39z" />
    <glyph glyph-name="cedilla" unicode="&#xb8;" horiz-adv-x="310" 
d="M210 -180q0 27 -21 46t-54 19q-3 0 -30 -3l-15 -2l25 130h50l-10 -80q48 0 81.5 -32.5t33.5 -77.5q0 -47 -36.5 -78.5t-98.5 -31.5q-36 0 -68 15q-15 6 -27 15l20 45q14 -10 21 -13q22 -12 54 -12q33 0 54 18t21 42z" />
    <glyph glyph-name="onesuperior" unicode="&#xb9;" horiz-adv-x="330" 
d="M150 630l-85 -55l-25 40l129 85h46v-300h75v-50h-215v50h80v230h-5z" />
    <glyph glyph-name="ordmasculine" unicode="&#xba;" horiz-adv-x="440" 
d="M390 525q0 -78 -47.5 -129t-122.5 -51t-122.5 51t-47.5 129t47.5 129t122.5 51t122.5 -51t47.5 -129zM330 525q0 55 -32.5 92.5t-77.5 37.5q-46 0 -78 -37t-32 -93t32 -93t78 -37q45 0 77.5 37.5t32.5 92.5z" />
    <glyph glyph-name="guillemotright" unicode="&#xbb;" horiz-adv-x="530" 
d="M415 260l-150 185l55 40l180 -225l-180 -226l-55 41zM200 260l-150 185l55 40l180 -225l-180 -226l-55 41z" />
    <glyph glyph-name="onequarter" unicode="&#xbc;" horiz-adv-x="880" 
d="M170 630l-85 -55l-25 40l129 85h46v-300h75v-50h-215v50h80v230h-5zM265 0h-85l440 700h85zM525 126l125 225h65l-120 -219v-6h125v100h60v-100h50v-50h-50v-75h-60v75h-195v50z" />
    <glyph glyph-name="onehalf" unicode="&#xbd;" horiz-adv-x="885" 
d="M170 630l-85 -55l-25 40l129 85h46v-300h75v-50h-215v50h80v230h-5zM265 0h-85l440 700h85zM540 1v55l135 90q24 14 42 30q43 39 43 75q0 25 -21.5 42.5t-58.5 17.5q-30 0 -54 -13q-10 -4 -21 -12v-55h-50v85q12 8 38 22q48 23 87 23q61 0 100.5 -33.5t39.5 -76.5
q0 -52 -45 -97q-19 -20 -45 -33l-100 -65v-5h195v-50h-285z" />
    <glyph glyph-name="threequarters" unicode="&#xbe;" horiz-adv-x="866" 
d="M310 645l-110 -90v-5q32 -1 60 -13q60 -25 60 -87q0 -47 -38 -78.5t-107 -31.5q-55 0 -98 27q-21 12 -37 28l25 40q10 -10 32 -23q40 -22 78 -22q40 0 62.5 17.5t22.5 42.5t-22.5 42.5t-62.5 17.5h-50v40l110 90v5h-175v55h250v-55zM251 0h-85l440 700h85zM511 126
l125 225h65l-120 -219v-6h125v100h60v-100h50v-50h-50v-75h-60v75h-195v50z" />
    <glyph glyph-name="questiondown" unicode="&#xbf;" horiz-adv-x="575" 
d="M535 10v-140q-29 -27 -63 -48q-78 -47 -167 -47q-119 0 -192 62t-73 148q0 43 24 82t59 68t69.5 55.5t58.5 56t24 58.5v25h70v-25q0 -40 -22.5 -75.5t-55 -62l-65 -53t-55 -59.5t-22.5 -70q0 -59 50 -102t130 -43q60 0 116 32q23 12 44 33v105h70zM255 465q0 23 16 39
t39 16t39 -16t16 -39t-16 -39t-39 -16t-39 16t-16 39z" />
    <glyph glyph-name="Agrave" unicode="&#xc0;" horiz-adv-x="775" 
d="M595 70l-65 170h-285l-65 -170h95v-70h-275v70h95l245 630h95l245 -630h95v-70h-275v70h95zM385 620l-120 -320h245l-120 320h-5zM225 970h90l100 -200h-60z" />
    <glyph glyph-name="Aacute" unicode="&#xc1;" horiz-adv-x="775" 
d="M595 70l-65 170h-285l-65 -170h95v-70h-275v70h95l245 630h95l245 -630h95v-70h-275v70h95zM385 620l-120 -320h245l-120 320h-5zM465 970h90l-130 -200h-60z" />
    <glyph glyph-name="Acircumflex" unicode="&#xc2;" horiz-adv-x="775" 
d="M595 70l-65 170h-285l-65 -170h95v-70h-275v70h95l245 630h95l245 -630h95v-70h-275v70h95zM385 620l-120 -320h245l-120 320h-5zM195 770l155 205h75l155 -205h-75l-115 145h-5l-115 -145h-75z" />
    <glyph glyph-name="Atilde" unicode="&#xc3;" horiz-adv-x="775" 
d="M595 70l-65 170h-285l-65 -170h95v-70h-275v70h95l245 630h95l245 -630h95v-70h-275v70h95zM385 620l-120 -320h245l-120 320h-5zM470 840q16 0 28 14t12 36v40h60v-40q0 -52 -27 -81t-73 -29q-27 0 -50 15.5t-36.5 34.5t-30.5 34.5t-33 15.5t-28 -14t-12 -36v-40h-60v40
q0 52 27 81t73 29q27 0 50 -15.5t36.5 -34.5t30.5 -34.5t33 -15.5z" />
    <glyph glyph-name="Adieresis" unicode="&#xc4;" horiz-adv-x="775" 
d="M595 70l-65 170h-285l-65 -170h95v-70h-275v70h95l245 630h95l245 -630h95v-70h-275v70h95zM385 620l-120 -320h245l-120 320h-5zM330 860q0 -23 -13.5 -36.5t-36.5 -13.5t-36.5 13.5t-13.5 36.5t13.5 36.5t36.5 13.5t36.5 -13.5t13.5 -36.5zM540 860q0 -23 -13.5 -36.5
t-36.5 -13.5t-36.5 13.5t-13.5 36.5t13.5 36.5t36.5 13.5t36.5 -13.5t13.5 -36.5z" />
    <glyph glyph-name="Aring" unicode="&#xc5;" horiz-adv-x="775" 
d="M595 70l-65 170h-285l-65 -170h95v-70h-275v70h95l245 630h95l245 -630h95v-70h-275v70h95zM385 620l-120 -320h245l-120 320h-5zM305 875q0 -34 23 -57t57 -23t57 23t23 57t-23 57t-57 23t-57 -23t-23 -57zM525 875q0 -53 -40.5 -91.5t-99.5 -38.5t-99.5 38.5
t-40.5 91.5t40.5 91.5t99.5 38.5t99.5 -38.5t40.5 -91.5z" />
    <glyph glyph-name="AE" unicode="&#xc6;" horiz-adv-x="1090" 
d="M440 0v70h110v190h-295l-80 -190h100v-70h-275v70h95l270 630h655v-220h-75v150h-315v-235h215v-70h-215v-255h315v150h75v-220h-580zM415 630l-130 -300h265v300h-135z" />
    <glyph glyph-name="Ccedilla" unicode="&#xc7;" horiz-adv-x="760" 
d="M474 -180q0 27 -21 46t-54 19q-3 0 -30 -3l-15 -2l21 100q-146 14 -238 118t-92 252q0 162 107.5 268.5t272.5 106.5q100 0 194 -58q38 -24 71 -57v-145h-75v115q-19 21 -48 40q-64 40 -142 40q-125 0 -210 -88t-85 -222t85 -222t210 -88q93 0 172 60q36 26 63 60l50 -50
q-33 -40 -73 -68q-92 -67 -212 -67l-6 -45q48 0 81.5 -32.5t33.5 -77.5q0 -47 -36.5 -78.5t-98.5 -31.5q-36 0 -68 15q-15 6 -27 15l20 45q14 -10 21 -13q22 -12 54 -12q33 0 54 18t21 42z" />
    <glyph glyph-name="Egrave" unicode="&#xc8;" horiz-adv-x="710" 
d="M35 0v70h110v560h-110v70h605v-220h-75v150h-340v-235h240v-70h-240v-255h340v150h75v-220h-605zM235 970h90l100 -200h-60z" />
    <glyph glyph-name="Eacute" unicode="&#xc9;" horiz-adv-x="710" 
d="M35 0v70h110v560h-110v70h605v-220h-75v150h-340v-235h240v-70h-240v-255h340v150h75v-220h-605zM440 970h90l-130 -200h-60z" />
    <glyph glyph-name="Ecircumflex" unicode="&#xca;" horiz-adv-x="710" 
d="M35 0v70h110v560h-110v70h605v-220h-75v150h-340v-235h240v-70h-240v-255h340v150h75v-220h-605zM170 770l155 205h75l155 -205h-75l-115 145h-5l-115 -145h-75z" />
    <glyph glyph-name="Edieresis" unicode="&#xcb;" horiz-adv-x="710" 
d="M35 0v70h110v560h-110v70h605v-220h-75v150h-340v-235h240v-70h-240v-255h340v150h75v-220h-605zM310 860q0 -23 -13.5 -36.5t-36.5 -13.5t-36.5 13.5t-13.5 36.5t13.5 36.5t36.5 13.5t36.5 -13.5t13.5 -36.5zM520 860q0 -23 -13.5 -36.5t-36.5 -13.5t-36.5 13.5
t-13.5 36.5t13.5 36.5t36.5 13.5t36.5 -13.5t13.5 -36.5z" />
    <glyph glyph-name="Igrave" unicode="&#xcc;" horiz-adv-x="390" 
d="M235 630v-560h120v-70h-320v70h120v560h-120v70h320v-70h-120zM45 970h90l100 -200h-60z" />
    <glyph glyph-name="Iacute" unicode="&#xcd;" horiz-adv-x="390" 
d="M235 630v-560h120v-70h-320v70h120v560h-120v70h320v-70h-120zM265 970h90l-130 -200h-60z" />
    <glyph glyph-name="Icircumflex" unicode="&#xce;" horiz-adv-x="395" 
d="M231 630v-560h120v-70h-320v70h120v560h-120v70h320v-70h-120zM6 770l155 205h75l155 -205h-75l-115 145h-5l-115 -145h-75z" />
    <glyph glyph-name="Idieresis" unicode="&#xcf;" horiz-adv-x="390" 
d="M235 630v-560h120v-70h-320v70h120v560h-120v70h320v-70h-120zM140 860q0 -23 -13.5 -36.5t-36.5 -13.5t-36.5 13.5t-13.5 36.5t13.5 36.5t36.5 13.5t36.5 -13.5t13.5 -36.5zM350 860q0 -23 -13.5 -36.5t-36.5 -13.5t-36.5 13.5t-13.5 36.5t13.5 36.5t36.5 13.5
t36.5 -13.5t13.5 -36.5z" />
    <glyph glyph-name="Eth" unicode="&#xd0;" horiz-adv-x="785" 
d="M45 320v60h115v250h-110v70h325q160 0 265 -101t105 -249t-105 -249t-265 -101h-325v70h110v250h-115zM240 70h135q123 0 204 79.5t81 200.5q0 120 -81 200t-204 80h-135v-250h205v-60h-205v-250z" />
    <glyph glyph-name="Ntilde" unicode="&#xd1;" horiz-adv-x="830" 
d="M35 700h190l385 -560h5v490h-110v70h300v-70h-110v-630h-80l-385 560h-5v-490h110v-70h-300v70h110v560h-110v70zM495 850q16 0 28 14t12 36v40h60v-40q0 -52 -27 -81t-73 -29q-27 0 -50 15.5t-36.5 34.5t-30.5 34.5t-33 15.5t-28 -14t-12 -36v-40h-60v40q0 52 27 81
t73 29q27 0 50 -15.5t36.5 -34.5t30.5 -34.5t33 -15.5z" />
    <glyph glyph-name="Ograve" unicode="&#xd2;" horiz-adv-x="830" 
d="M700 350q0 133 -83 221.5t-202 88.5t-202 -88.5t-83 -221.5t83 -221.5t202 -88.5t202 88.5t83 221.5zM785 350q0 -161 -106 -268t-264 -107t-264 107t-106 268t106 268t264 107t264 -107t106 -268zM265 980h90l100 -200h-60z" />
    <glyph glyph-name="Oacute" unicode="&#xd3;" horiz-adv-x="830" 
d="M700 350q0 133 -83 221.5t-202 88.5t-202 -88.5t-83 -221.5t83 -221.5t202 -88.5t202 88.5t83 221.5zM785 350q0 -161 -106 -268t-264 -107t-264 107t-106 268t106 268t264 107t264 -107t106 -268zM485 980h90l-130 -200h-60z" />
    <glyph glyph-name="Ocircumflex" unicode="&#xd4;" horiz-adv-x="830" 
d="M700 350q0 133 -83 221.5t-202 88.5t-202 -88.5t-83 -221.5t83 -221.5t202 -88.5t202 88.5t83 221.5zM785 350q0 -161 -106 -268t-264 -107t-264 107t-106 268t106 268t264 107t264 -107t106 -268zM225 780l155 205h75l155 -205h-75l-115 145h-5l-115 -145h-75z" />
    <glyph glyph-name="Otilde" unicode="&#xd5;" horiz-adv-x="830" 
d="M700 350q0 133 -83 221.5t-202 88.5t-202 -88.5t-83 -221.5t83 -221.5t202 -88.5t202 88.5t83 221.5zM785 350q0 -161 -106 -268t-264 -107t-264 107t-106 268t106 268t264 107t264 -107t106 -268zM495 850q16 0 28 14t12 36v40h60v-40q0 -52 -27 -81t-73 -29
q-27 0 -50 15.5t-36.5 34.5t-30.5 34.5t-33 15.5t-28 -14t-12 -36v-40h-60v40q0 52 27 81t73 29q27 0 50 -15.5t36.5 -34.5t30.5 -34.5t33 -15.5z" />
    <glyph glyph-name="Odieresis" unicode="&#xd6;" horiz-adv-x="830" 
d="M700 350q0 133 -83 221.5t-202 88.5t-202 -88.5t-83 -221.5t83 -221.5t202 -88.5t202 88.5t83 221.5zM785 350q0 -161 -106 -268t-264 -107t-264 107t-106 268t106 268t264 107t264 -107t106 -268zM365 870q0 -23 -13.5 -36.5t-36.5 -13.5t-36.5 13.5t-13.5 36.5
t13.5 36.5t36.5 13.5t36.5 -13.5t13.5 -36.5zM575 870q0 -23 -13.5 -36.5t-36.5 -13.5t-36.5 13.5t-13.5 36.5t13.5 36.5t36.5 13.5t36.5 -13.5t13.5 -36.5z" />
    <glyph glyph-name="multiply" unicode="&#xd7;" horiz-adv-x="490" 
d="M200 335l-140 140l45 45l140 -140l140 140l45 -45l-140 -140l140 -140l-45 -45l-140 140l-140 -140l-45 45z" />
    <glyph glyph-name="Oslash" unicode="&#xd8;" horiz-adv-x="830" 
d="M45 350q0 161 106 268t264 107q82 0 164 -38q31 -14 66 -37l65 70h85l-105 -115q26 -29 47 -68q48 -88 48 -187q0 -161 -106 -268t-264 -107q-84 0 -164 37q-34 16 -66 38l-65 -70h-85l105 115q-28 29 -48 67q-47 86 -47 188zM700 350q0 76 -33 144q-13 27 -32 51
l-395 -440q18 -18 46 -33q62 -32 129 -32q114 0 199.5 90.5t85.5 219.5zM130 350q0 -78 32 -144q14 -28 33 -51l395 440q-19 18 -46 32q-64 33 -129 33q-114 0 -199.5 -90.5t-85.5 -219.5z" />
    <glyph glyph-name="Ugrave" unicode="&#xd9;" horiz-adv-x="810" 
d="M215 700v-450q0 -101 51 -155.5t139 -54.5t139 54.5t51 155.5v380h-110v70h300v-70h-110v-380q0 -128 -73 -201.5t-197 -73.5t-197 73.5t-73 201.5v380h-110v70h190zM250 970h90l100 -200h-60z" />
    <glyph glyph-name="Uacute" unicode="&#xda;" horiz-adv-x="810" 
d="M215 700v-450q0 -101 51 -155.5t139 -54.5t139 54.5t51 155.5v380h-110v70h300v-70h-110v-380q0 -128 -73 -201.5t-197 -73.5t-197 73.5t-73 201.5v380h-110v70h190zM460 970h90l-130 -200h-60z" />
    <glyph glyph-name="Ucircumflex" unicode="&#xdb;" horiz-adv-x="810" 
d="M215 700v-450q0 -101 51 -155.5t139 -54.5t139 54.5t51 155.5v380h-110v70h300v-70h-110v-380q0 -128 -73 -201.5t-197 -73.5t-197 73.5t-73 201.5v380h-110v70h190zM210 770l155 205h75l155 -205h-75l-115 145h-5l-115 -145h-75z" />
    <glyph glyph-name="Udieresis" unicode="&#xdc;" horiz-adv-x="810" 
d="M215 700v-450q0 -101 51 -155.5t139 -54.5t139 54.5t51 155.5v380h-110v70h300v-70h-110v-380q0 -128 -73 -201.5t-197 -73.5t-197 73.5t-73 201.5v380h-110v70h190zM345 850q0 -23 -13.5 -36.5t-36.5 -13.5t-36.5 13.5t-13.5 36.5t13.5 36.5t36.5 13.5t36.5 -13.5
t13.5 -36.5zM555 850q0 -23 -13.5 -36.5t-36.5 -13.5t-36.5 13.5t-13.5 36.5t13.5 36.5t36.5 13.5t36.5 -13.5t13.5 -36.5z" />
    <glyph glyph-name="Yacute" unicode="&#xdd;" horiz-adv-x="710" 
d="M395 270v-200h110v-70h-300v70h110v200l-220 360h-95v70h150l203 -340h4l203 340h150v-70h-95zM425 970h90l-130 -200h-60z" />
    <glyph glyph-name="Thorn" unicode="&#xde;" horiz-adv-x="720" 
d="M225 170v-100h110v-70h-300v70h110v560h-110v70h190v-110h220q110 0 177.5 -60.5t67.5 -149.5t-67.5 -149.5t-177.5 -60.5h-220zM225 520v-280h220q73 0 116.5 39.5t43.5 100.5t-43.5 100.5t-116.5 39.5h-220z" />
    <glyph glyph-name="germandbls" unicode="&#xdf;" horiz-adv-x="640" 
d="M510 545q0 -41 -17.5 -77t-35 -65t-17.5 -53q0 -21 17.5 -40t42.5 -35t50 -34t42.5 -46.5t17.5 -64.5q0 -62 -49 -106t-126 -44q-41 0 -77 17q-15 7 -28 18l20 55q11 -8 26 -15q30 -15 59 -15q45 0 70 24t25 66q0 33 -26.5 59.5t-58.5 43t-58.5 47t-26.5 70.5q0 33 35 92
t35 103q0 46 -34 80.5t-81 34.5q-53 0 -89 -37.5t-36 -96.5v-526h-160v65h90v375h-90v65h90v21q0 86 55 140t143 54q82 0 137 -51.5t55 -123.5z" />
    <glyph glyph-name="agrave" unicode="&#xe0;" horiz-adv-x="605" 
d="M495 330v-265h90v-65h-155l-5 70h-5q-26 -26 -54 -45q-65 -45 -126 -45q-94 0 -147 45t-53 115t53 115t147 45h180v30q0 60 -40 100t-100 40q-56 0 -106 -30q-22 -14 -39 -30l-40 50q16 16 47 35q64 35 138 35q96 0 155.5 -56.5t59.5 -143.5zM240 40q61 0 126 49
q32 25 54 50v96h-180q-55 0 -87.5 -27.5t-32.5 -67.5q0 -43 32.5 -71.5t87.5 -28.5zM155 790h90l100 -200h-60z" />
    <glyph glyph-name="aacute" unicode="&#xe1;" horiz-adv-x="605" 
d="M495 330v-265h90v-65h-155l-5 70h-5q-26 -26 -54 -45q-65 -45 -126 -45q-94 0 -147 45t-53 115t53 115t147 45h180v30q0 60 -40 100t-100 40q-56 0 -106 -30q-22 -14 -39 -30l-40 50q16 16 47 35q64 35 138 35q96 0 155.5 -56.5t59.5 -143.5zM240 40q61 0 126 49
q32 25 54 50v96h-180q-55 0 -87.5 -27.5t-32.5 -67.5q0 -43 32.5 -71.5t87.5 -28.5zM360 790h90l-130 -200h-60z" />
    <glyph glyph-name="acircumflex" unicode="&#xe2;" horiz-adv-x="605" 
d="M495 330v-265h90v-65h-155l-5 70h-5q-26 -26 -54 -45q-65 -45 -126 -45q-94 0 -147 45t-53 115t53 115t147 45h180v30q0 60 -40 100t-100 40q-56 0 -106 -30q-22 -14 -39 -30l-40 50q16 16 47 35q64 35 138 35q96 0 155.5 -56.5t59.5 -143.5zM240 40q61 0 126 49
q32 25 54 50v96h-180q-55 0 -87.5 -27.5t-32.5 -67.5q0 -43 32.5 -71.5t87.5 -28.5zM105 590l155 205h75l155 -205h-75l-115 145h-5l-115 -145h-75z" />
    <glyph glyph-name="atilde" unicode="&#xe3;" horiz-adv-x="605" 
d="M495 330v-265h90v-65h-155l-5 70h-5q-26 -26 -54 -45q-65 -45 -126 -45q-94 0 -147 45t-53 115t53 115t147 45h180v30q0 60 -40 100t-100 40q-56 0 -106 -30q-22 -14 -39 -30l-40 50q16 16 47 35q64 35 138 35q96 0 155.5 -56.5t59.5 -143.5zM240 40q61 0 126 49
q32 25 54 50v96h-180q-55 0 -87.5 -27.5t-32.5 -67.5q0 -43 32.5 -71.5t87.5 -28.5zM370 660q16 0 28 14t12 36v40h60v-40q0 -52 -27 -81t-73 -29q-27 0 -50 15.5t-36.5 34.5t-30.5 34.5t-33 15.5t-28 -14t-12 -36v-40h-60v40q0 52 27 81t73 29q27 0 50 -15.5t36.5 -34.5
t30.5 -34.5t33 -15.5z" />
    <glyph glyph-name="adieresis" unicode="&#xe4;" horiz-adv-x="605" 
d="M495 330v-265h90v-65h-155l-5 70h-5q-26 -26 -54 -45q-65 -45 -126 -45q-94 0 -147 45t-53 115t53 115t147 45h180v30q0 60 -40 100t-100 40q-56 0 -106 -30q-22 -14 -39 -30l-40 50q16 16 47 35q64 35 138 35q96 0 155.5 -56.5t59.5 -143.5zM240 40q61 0 126 49
q32 25 54 50v96h-180q-55 0 -87.5 -27.5t-32.5 -67.5q0 -43 32.5 -71.5t87.5 -28.5zM230 670q0 -23 -13.5 -36.5t-36.5 -13.5t-36.5 13.5t-13.5 36.5t13.5 36.5t36.5 13.5t36.5 -13.5t13.5 -36.5zM440 670q0 -23 -13.5 -36.5t-36.5 -13.5t-36.5 13.5t-13.5 36.5t13.5 36.5
t36.5 13.5t36.5 -13.5t13.5 -36.5z" />
    <glyph glyph-name="aring" unicode="&#xe5;" horiz-adv-x="605" 
d="M495 330v-265h90v-65h-155l-5 70h-5q-26 -26 -54 -45q-65 -45 -126 -45q-94 0 -147 45t-53 115t53 115t147 45h180v30q0 60 -40 100t-100 40q-56 0 -106 -30q-22 -14 -39 -30l-40 50q16 16 47 35q64 35 138 35q96 0 155.5 -56.5t59.5 -143.5zM240 40q61 0 126 49
q32 25 54 50v96h-180q-55 0 -87.5 -27.5t-32.5 -67.5q0 -43 32.5 -71.5t87.5 -28.5zM220 720q0 -34 23 -57t57 -23t57 23t23 57t-23 57t-57 23t-57 -23t-23 -57zM440 720q0 -53 -40.5 -91.5t-99.5 -38.5t-99.5 38.5t-40.5 91.5t40.5 91.5t99.5 38.5t99.5 -38.5t40.5 -91.5z
" />
    <glyph glyph-name="ae" unicode="&#xe6;" horiz-adv-x="935" 
d="M465 400h5q15 39 38 65q57 65 147 65q98 0 169 -71t71 -169q0 -26 -5 -46l-5 -19h-390q0 -75 54 -130t126 -55q62 0 117 37q23 15 43 38l40 -50q-21 -24 -53 -43q-70 -42 -147 -42q-72 0 -129 37.5t-85 102.5h-6q-18 -36 -52 -70q-72 -70 -168 -70q-94 0 -144.5 44
t-50.5 111q0 65 51 110t144 45h180v40q0 60 -40 100t-100 40q-56 0 -106 -30q-23 -14 -39 -30l-40 50q16 16 47 35q64 35 138 35q96 0 153 -65q24 -27 37 -65zM655 470q-62 0 -111 -53t-49 -127h325q0 74 -50.5 127t-114.5 53zM235 40q73 0 126.5 54t53.5 131h-180
q-52 0 -83.5 -28.5t-31.5 -61.5q0 -40 31.5 -67.5t83.5 -27.5z" />
    <glyph glyph-name="ccedilla" unicode="&#xe7;" horiz-adv-x="580" 
d="M370 -180q0 27 -21 46t-54 19q-3 0 -30 -3l-15 -2l20 104q-101 16 -165.5 91.5t-64.5 179.5q0 117 80 196t200 79q73 0 145 -43q30 -17 55 -42v-115h-70v90q-22 18 -35 25q-48 25 -95 25q-83 0 -141.5 -61.5t-58.5 -153.5t58.5 -153.5t141.5 -61.5q69 0 126 45
q27 20 44 45l45 -45q-23 -29 -55 -52q-71 -53 -159 -53l-6 -50q48 0 81.5 -32.5t33.5 -77.5q0 -47 -36.5 -78.5t-98.5 -31.5q-36 0 -68 15q-15 6 -27 15l20 45q14 -10 21 -13q22 -12 54 -12q33 0 54 18t21 42z" />
    <glyph glyph-name="egrave" unicode="&#xe8;" horiz-adv-x="585" 
d="M535 225h-415q0 -69 59.5 -127t130.5 -58q69 0 126 45q27 20 44 45l45 -45q-22 -30 -55 -53q-69 -52 -160 -52q-113 0 -191.5 79.5t-78.5 195.5q0 118 74.5 196.5t180.5 78.5q100 0 175 -72.5t75 -167.5q0 -26 -5 -46zM295 470q-68 0 -121.5 -54.5t-53.5 -125.5h350
q0 71 -53.5 125.5t-121.5 54.5zM155 790h90l100 -200h-60z" />
    <glyph glyph-name="eacute" unicode="&#xe9;" horiz-adv-x="585" 
d="M535 225h-415q0 -69 59.5 -127t130.5 -58q69 0 126 45q27 20 44 45l45 -45q-22 -30 -55 -53q-69 -52 -160 -52q-113 0 -191.5 79.5t-78.5 195.5q0 118 74.5 196.5t180.5 78.5q100 0 175 -72.5t75 -167.5q0 -26 -5 -46zM295 470q-68 0 -121.5 -54.5t-53.5 -125.5h350
q0 71 -53.5 125.5t-121.5 54.5zM365 790h90l-130 -200h-60z" />
    <glyph glyph-name="ecircumflex" unicode="&#xea;" horiz-adv-x="585" 
d="M535 225h-415q0 -69 59.5 -127t130.5 -58q69 0 126 45q27 20 44 45l45 -45q-22 -30 -55 -53q-69 -52 -160 -52q-113 0 -191.5 79.5t-78.5 195.5q0 118 74.5 196.5t180.5 78.5q100 0 175 -72.5t75 -167.5q0 -26 -5 -46zM295 470q-68 0 -121.5 -54.5t-53.5 -125.5h350
q0 71 -53.5 125.5t-121.5 54.5zM105 590l155 205h75l155 -205h-75l-115 145h-5l-115 -145h-75z" />
    <glyph glyph-name="edieresis" unicode="&#xeb;" horiz-adv-x="585" 
d="M535 225h-415q0 -69 59.5 -127t130.5 -58q69 0 126 45q27 20 44 45l45 -45q-22 -30 -55 -53q-69 -52 -160 -52q-113 0 -191.5 79.5t-78.5 195.5q0 118 74.5 196.5t180.5 78.5q100 0 175 -72.5t75 -167.5q0 -26 -5 -46zM295 470q-68 0 -121.5 -54.5t-53.5 -125.5h350
q0 71 -53.5 125.5t-121.5 54.5zM240 670q0 -23 -13.5 -36.5t-36.5 -13.5t-36.5 13.5t-13.5 36.5t13.5 36.5t36.5 13.5t36.5 -13.5t13.5 -36.5zM450 670q0 -23 -13.5 -36.5t-36.5 -13.5t-36.5 13.5t-13.5 36.5t13.5 36.5t36.5 13.5t36.5 -13.5t13.5 -36.5z" />
    <glyph glyph-name="igrave" unicode="&#xec;" horiz-adv-x="305" 
d="M30 510h165v-445h90v-65h-255v65h90v380h-90v65zM-9 790h90l100 -200h-60z" />
    <glyph glyph-name="iacute" unicode="&#xed;" horiz-adv-x="305" 
d="M30 510h165v-445h90v-65h-255v65h90v380h-90v65zM225 790h90l-130 -200h-60z" />
    <glyph glyph-name="icircumflex" unicode="&#xee;" horiz-adv-x="305" 
d="M30 510h165v-445h90v-65h-255v65h90v380h-90v65zM-39 590l155 205h75l155 -205h-75l-115 145h-5l-115 -145h-75z" />
    <glyph glyph-name="idieresis" unicode="&#xef;" horiz-adv-x="305" 
d="M30 510h165v-445h90v-65h-255v65h90v380h-90v65zM96 670q0 -23 -13.5 -36.5t-36.5 -13.5t-36.5 13.5t-13.5 36.5t13.5 36.5t36.5 13.5t36.5 -13.5t13.5 -36.5zM306 670q0 -23 -13.5 -36.5t-36.5 -13.5t-36.5 13.5t-13.5 36.5t13.5 36.5t36.5 13.5t36.5 -13.5t13.5 -36.5z
" />
    <glyph glyph-name="eth" unicode="&#xf0;" horiz-adv-x="615" 
d="M565 290v-60q0 -102 -77 -176t-188 -74t-188 74t-77 176t77 176t188 74q63 0 129 -43q29 -18 51 -42h5q-20 104 -109 187q-42 39 -86 63l-65 -85l-45 35l60 75l-29 9q-8 3 -18.5 6.5t-24.5 7.5t-23 7l25 50q28 -5 71 -21q21 -9 29 -14l65 90l45 -35l-60 -80
q68 -38 122 -95q123 -129 123 -305zM110 230q0 -79 55.5 -134.5t134.5 -55.5t134.5 55.5t55.5 134.5t-55.5 134.5t-134.5 55.5t-134.5 -55.5t-55.5 -134.5z" />
    <glyph glyph-name="ntilde" unicode="&#xf1;" 
d="M500 65v270q0 63 -34 99t-91 36q-60 0 -126 -50q-32 -25 -54 -50v-305h90v-65h-255v65h90v380h-90v65h155l5 -70h5q25 26 54 45q65 45 126 45q90 0 145 -54t55 -141v-270h90v-65h-255v65h90zM420 670q16 0 28 14t12 36v40h60v-40q0 -52 -27 -81t-73 -29q-27 0 -50 15.5
t-36.5 34.5t-30.5 34.5t-33 15.5t-28 -14t-12 -36v-40h-60v40q0 52 27 81t73 29q27 0 50 -15.5t36.5 -34.5t30.5 -34.5t33 -15.5z" />
    <glyph glyph-name="ograve" unicode="&#xf2;" horiz-adv-x="620" 
d="M40 255q0 116 78.5 195.5t191.5 79.5t191.5 -79.5t78.5 -195.5t-78.5 -195.5t-191.5 -79.5t-191.5 79.5t-78.5 195.5zM500 255q0 92 -56.5 153.5t-133.5 61.5t-133.5 -61.5t-56.5 -153.5t56.5 -153.5t133.5 -61.5t133.5 61.5t56.5 153.5zM165 790h90l100 -200h-60z" />
    <glyph glyph-name="oacute" unicode="&#xf3;" horiz-adv-x="620" 
d="M40 255q0 116 78.5 195.5t191.5 79.5t191.5 -79.5t78.5 -195.5t-78.5 -195.5t-191.5 -79.5t-191.5 79.5t-78.5 195.5zM500 255q0 92 -56.5 153.5t-133.5 61.5t-133.5 -61.5t-56.5 -153.5t56.5 -153.5t133.5 -61.5t133.5 61.5t56.5 153.5zM375 790h90l-130 -200h-60z" />
    <glyph glyph-name="ocircumflex" unicode="&#xf4;" horiz-adv-x="620" 
d="M40 255q0 116 78.5 195.5t191.5 79.5t191.5 -79.5t78.5 -195.5t-78.5 -195.5t-191.5 -79.5t-191.5 79.5t-78.5 195.5zM500 255q0 92 -56.5 153.5t-133.5 61.5t-133.5 -61.5t-56.5 -153.5t56.5 -153.5t133.5 -61.5t133.5 61.5t56.5 153.5zM115 590l155 205h75l155 -205
h-75l-115 145h-5l-115 -145h-75z" />
    <glyph glyph-name="otilde" unicode="&#xf5;" horiz-adv-x="620" 
d="M40 255q0 116 78.5 195.5t191.5 79.5t191.5 -79.5t78.5 -195.5t-78.5 -195.5t-191.5 -79.5t-191.5 79.5t-78.5 195.5zM500 255q0 92 -56.5 153.5t-133.5 61.5t-133.5 -61.5t-56.5 -153.5t56.5 -153.5t133.5 -61.5t133.5 61.5t56.5 153.5zM380 660q16 0 28 14t12 36v40h60
v-40q0 -52 -27 -81t-73 -29q-27 0 -50 15.5t-36.5 34.5t-30.5 34.5t-33 15.5t-28 -14t-12 -36v-40h-60v40q0 52 27 81t73 29q27 0 50 -15.5t36.5 -34.5t30.5 -34.5t33 -15.5z" />
    <glyph glyph-name="odieresis" unicode="&#xf6;" horiz-adv-x="620" 
d="M40 255q0 116 78.5 195.5t191.5 79.5t191.5 -79.5t78.5 -195.5t-78.5 -195.5t-191.5 -79.5t-191.5 79.5t-78.5 195.5zM500 255q0 92 -56.5 153.5t-133.5 61.5t-133.5 -61.5t-56.5 -153.5t56.5 -153.5t133.5 -61.5t133.5 61.5t56.5 153.5zM250 670q0 -23 -13.5 -36.5
t-36.5 -13.5t-36.5 13.5t-13.5 36.5t13.5 36.5t36.5 13.5t36.5 -13.5t13.5 -36.5zM460 670q0 -23 -13.5 -36.5t-36.5 -13.5t-36.5 13.5t-13.5 36.5t13.5 36.5t36.5 13.5t36.5 -13.5t13.5 -36.5z" />
    <glyph glyph-name="divide" unicode="&#xf7;" horiz-adv-x="540" 
d="M40 370h460v-70h-460v70zM325 545q0 -23 -16 -39t-39 -16t-39 16t-16 39t16 39t39 16t39 -16t16 -39zM215 125q0 23 16 39t39 16t39 -16t16 -39t-16 -39t-39 -16t-39 16t-16 39z" />
    <glyph glyph-name="oslash" unicode="&#xf8;" horiz-adv-x="630" 
d="M45 255q0 116 78.5 195.5t191.5 79.5q59 0 115 -25q22 -10 40 -25l45 50h80l-80 -90q17 -18 35 -48q35 -64 35 -137q0 -116 -78.5 -195.5t-191.5 -79.5q-63 0 -115 25q-22 10 -40 25l-45 -50h-80l80 90q-20 20 -35 47q-35 57 -35 138zM125 255q0 -55 20 -97q8 -18 20 -33
l260 305q-13 10 -31 20q-35 20 -79 20q-77 0 -133.5 -61.5t-56.5 -153.5zM505 255q0 55 -20 97q-8 18 -20 33l-260 -305q13 -10 31 -20q35 -20 79 -20q77 0 133.5 61.5t56.5 153.5z" />
    <glyph glyph-name="ugrave" unicode="&#xf9;" 
d="M185 510v-335q0 -63 34 -99t91 -36q60 0 126 50q32 25 54 50v305h-90v65h255v-65h-90v-380h90v-65h-155l-5 70h-5q-26 -26 -54 -45q-65 -45 -126 -45q-90 0 -145 54t-55 141v270h-90v65h165zM180 780h90l100 -200h-60z" />
    <glyph glyph-name="uacute" unicode="&#xfa;" 
d="M185 510v-335q0 -63 34 -99t91 -36q60 0 126 50q32 25 54 50v305h-90v65h255v-65h-90v-380h90v-65h-155l-5 70h-5q-26 -26 -54 -45q-65 -45 -126 -45q-90 0 -145 54t-55 141v270h-90v65h165zM395 780h90l-130 -200h-60z" />
    <glyph glyph-name="ucircumflex" unicode="&#xfb;" 
d="M185 510v-335q0 -63 34 -99t91 -36q60 0 126 50q32 25 54 50v305h-90v65h255v-65h-90v-380h90v-65h-155l-5 70h-5q-26 -26 -54 -45q-65 -45 -126 -45q-90 0 -145 54t-55 141v270h-90v65h165zM150 590l155 205h75l155 -205h-75l-115 145h-5l-115 -145h-75z" />
    <glyph glyph-name="udieresis" unicode="&#xfc;" 
d="M185 510v-335q0 -63 34 -99t91 -36q60 0 126 50q32 25 54 50v305h-90v65h255v-65h-90v-380h90v-65h-155l-5 70h-5q-26 -26 -54 -45q-65 -45 -126 -45q-90 0 -145 54t-55 141v270h-90v65h165zM277 661q0 -23 -13.5 -36.5t-36.5 -13.5t-36.5 13.5t-13.5 36.5t13.5 36.5
t36.5 13.5t36.5 -13.5t13.5 -36.5zM487 661q0 -23 -13.5 -36.5t-36.5 -13.5t-36.5 13.5t-13.5 36.5t13.5 36.5t36.5 13.5t36.5 -13.5t13.5 -36.5z" />
    <glyph glyph-name="yacute" unicode="&#xfd;" horiz-adv-x="595" 
d="M265 0l-180 445h-85v65h145l160 -410h5l140 410h145v-65h-85l-160 -445q-42 -115 -94.5 -167.5t-130.5 -52.5q-41 0 -73 17q-16 7 -27 18l20 55q16 -10 25 -13q26 -12 55 -12q92 0 140 155zM360 780h90l-130 -200h-60z" />
    <glyph glyph-name="thorn" unicode="&#xfe;" horiz-adv-x="675" 
d="M30 -200v65h90v770h-90v65h165v-255h5q22 24 51 42q66 43 129 43q106 0 180.5 -77t74.5 -188t-74.5 -188t-180.5 -77q-65 0 -129 40q-30 19 -51 40h-5v-215h90v-65h-255zM380 470q-66 0 -132 -50q-33 -26 -53 -50v-210q20 -24 53 -50q66 -50 132 -50q70 0 122.5 58.5
t52.5 146.5q0 85 -53 145t-122 60z" />
    <glyph glyph-name="ydieresis" unicode="&#xff;" horiz-adv-x="595" 
d="M265 0l-180 445h-85v65h145l160 -410h5l140 410h145v-65h-85l-160 -445q-42 -115 -94.5 -167.5t-130.5 -52.5q-41 0 -73 17q-16 7 -27 18l20 55q16 -10 25 -13q26 -12 55 -12q92 0 140 155zM240 661q0 -23 -13.5 -36.5t-36.5 -13.5t-36.5 13.5t-13.5 36.5t13.5 36.5
t36.5 13.5t36.5 -13.5t13.5 -36.5zM450 661q0 -23 -13.5 -36.5t-36.5 -13.5t-36.5 13.5t-13.5 36.5t13.5 36.5t36.5 13.5t36.5 -13.5t13.5 -36.5z" />
    <glyph glyph-name="Amacron" unicode="&#x100;" horiz-adv-x="775" 
d="M595 70l-65 170h-285l-65 -170h95v-70h-275v70h95l245 630h95l245 -630h95v-70h-275v70h95zM385 620l-120 -320h245l-120 320h-5zM225 881h330v-65h-330v65z" />
    <glyph glyph-name="amacron" unicode="&#x101;" horiz-adv-x="605" 
d="M495 330v-265h90v-65h-155l-5 70h-5q-26 -26 -54 -45q-65 -45 -126 -45q-94 0 -147 45t-53 115t53 115t147 45h180v30q0 60 -40 100t-100 40q-56 0 -106 -30q-22 -14 -39 -30l-40 50q16 16 47 35q64 35 138 35q96 0 155.5 -56.5t59.5 -143.5zM240 40q61 0 126 49
q32 25 54 50v96h-180q-55 0 -87.5 -27.5t-32.5 -67.5q0 -43 32.5 -71.5t87.5 -28.5zM140 705h330v-65h-330v65z" />
    <glyph glyph-name="Abreve" unicode="&#x102;" horiz-adv-x="775" 
d="M595 70l-65 170h-285l-65 -170h95v-70h-275v70h95l245 630h95l245 -630h95v-70h-275v70h95zM385 620l-120 -320h245l-120 320h-5zM385 845q49 0 79.5 30.5t30.5 79.5h65q0 -79 -48 -127t-127 -48t-127 48t-48 127h65q0 -49 30.5 -79.5t79.5 -30.5z" />
    <glyph glyph-name="abreve" unicode="&#x103;" horiz-adv-x="605" 
d="M495 330v-265h90v-65h-155l-5 70h-5q-26 -26 -54 -45q-65 -45 -126 -45q-94 0 -147 45t-53 115t53 115t147 45h180v30q0 60 -40 100t-100 40q-56 0 -106 -30q-22 -14 -39 -30l-40 50q16 16 47 35q64 35 138 35q96 0 155.5 -56.5t59.5 -143.5zM240 40q61 0 126 49
q32 25 54 50v96h-180q-55 0 -87.5 -27.5t-32.5 -67.5q0 -43 32.5 -71.5t87.5 -28.5zM295 665q49 0 79.5 30.5t30.5 79.5h65q0 -79 -48 -127t-127 -48t-127 48t-48 127h65q0 -49 30.5 -79.5t79.5 -30.5z" />
    <glyph glyph-name="Aogonek" unicode="&#x104;" horiz-adv-x="775" 
d="M680 -265q-56 0 -90.5 32.5t-34.5 82.5q0 17 4.5 32.5t12.5 28t18 24t21.5 20t22.5 16t22 12.5t19 8.5t14 6.5l6 2h-195v70h95l-65 170h-285l-65 -170h95v-70h-275v70h95l245 630h95l245 -630h95v-70h-6q-11 -3 -42.5 -20.5t-69 -55t-37.5 -74.5q0 -30 16.5 -47.5
t43.5 -17.5q32 0 54 12q7 3 21 13l20 -45q-12 -9 -27 -15q-32 -15 -68 -15zM385 620l-120 -320h245l-120 320h-5z" />
    <glyph glyph-name="aogonek" unicode="&#x105;" horiz-adv-x="600" 
d="M495 -265q-56 0 -90.5 32.5t-34.5 82.5q0 17 4.5 32.5t12.5 28t18 24t21.5 20t22.5 16t22 12.5t19 8.5t14 6.5l6 2h-80l-5 70h-5q-26 -26 -54 -45q-65 -45 -126 -45q-94 0 -147 45t-53 115t53 115t147 45h180v30q0 60 -40 100t-100 40q-56 0 -106 -30q-22 -14 -39 -30
l-40 50q16 16 47 35q64 35 138 35q96 0 155.5 -56.5t59.5 -143.5v-265h90v-65q-11 -3 -42.5 -20.5t-69.5 -55t-38 -74.5q0 -30 16.5 -47.5t43.5 -17.5q32 0 54 12q7 3 21 13l20 -45q-12 -9 -27 -15q-32 -15 -68 -15zM240 40q61 0 126 49q32 25 54 50v96h-180
q-55 0 -87.5 -27.5t-32.5 -67.5q0 -43 32.5 -71.5t87.5 -28.5z" />
    <glyph glyph-name="Cacute" unicode="&#x106;" horiz-adv-x="760" 
d="M690 610v-145h-75v115q-19 21 -48 40q-64 40 -142 40q-125 0 -210 -88t-85 -222t85 -222t210 -88q93 0 172 60q36 26 63 60l50 -50q-33 -40 -73 -68q-92 -67 -212 -67q-165 0 -272.5 106.5t-107.5 268.5t107.5 268.5t272.5 106.5q100 0 194 -58q38 -24 71 -57zM490 980
h90l-130 -200h-60z" />
    <glyph glyph-name="cacute" unicode="&#x107;" horiz-adv-x="580" 
d="M450 330v90q-22 18 -35 25q-48 25 -95 25q-83 0 -141.5 -61.5t-58.5 -153.5t58.5 -153.5t141.5 -61.5q69 0 126 45q27 20 44 45l45 -45q-22 -30 -55 -53q-69 -52 -160 -52q-120 0 -200 79t-80 196t80 196t200 79q73 0 145 -43q30 -17 55 -42v-115h-70zM385 790h90
l-130 -200h-60z" />
    <glyph glyph-name="Ccircumflex" unicode="&#x108;" horiz-adv-x="760" 
d="M690 610v-145h-75v115q-19 21 -48 40q-64 40 -142 40q-125 0 -210 -88t-85 -222t85 -222t210 -88q93 0 172 60q36 26 63 60l50 -50q-33 -40 -73 -68q-92 -67 -212 -67q-165 0 -272.5 106.5t-107.5 268.5t107.5 268.5t272.5 106.5q100 0 194 -58q38 -24 71 -57zM215 780
l155 205h75l155 -205h-75l-115 145h-5l-115 -145h-75z" />
    <glyph glyph-name="ccircumflex" unicode="&#x109;" horiz-adv-x="580" 
d="M450 330v90q-22 18 -35 25q-48 25 -95 25q-83 0 -141.5 -61.5t-58.5 -153.5t58.5 -153.5t141.5 -61.5q69 0 126 45q27 20 44 45l45 -45q-22 -30 -55 -53q-69 -52 -160 -52q-120 0 -200 79t-80 196t80 196t200 79q73 0 145 -43q30 -17 55 -42v-115h-70zM120 590l155 205
h75l155 -205h-75l-115 145h-5l-115 -145h-75z" />
    <glyph glyph-name="Ccaron" unicode="&#x10c;" horiz-adv-x="760" 
d="M690 610v-145h-75v115q-19 21 -48 40q-64 40 -142 40q-125 0 -210 -88t-85 -222t85 -222t210 -88q93 0 172 60q36 26 63 60l50 -50q-33 -40 -73 -68q-92 -67 -212 -67q-165 0 -272.5 106.5t-107.5 268.5t107.5 268.5t272.5 106.5q100 0 194 -58q38 -24 71 -57zM370 785
l-155 205h75l115 -145h5l115 145h75l-155 -205h-75z" />
    <glyph glyph-name="ccaron" unicode="&#x10d;" horiz-adv-x="580" 
d="M450 330v90q-22 18 -35 25q-48 25 -95 25q-83 0 -141.5 -61.5t-58.5 -153.5t58.5 -153.5t141.5 -61.5q69 0 126 45q27 20 44 45l45 -45q-22 -30 -55 -53q-69 -52 -160 -52q-120 0 -200 79t-80 196t80 196t200 79q73 0 145 -43q30 -17 55 -42v-115h-70zM273 585l-155 205
h75l115 -145h5l115 145h75l-155 -205h-75z" />
    <glyph glyph-name="Dcaron" unicode="&#x10e;" horiz-adv-x="780" 
d="M225 70h135q120 0 202.5 81.5t82.5 198.5t-82.5 198.5t-202.5 81.5h-135v-560zM730 350q0 -148 -105 -249t-265 -101h-325v70h110v560h-110v70h325q160 0 265 -101t105 -249zM310 770l-155 205h75l115 -145h5l115 145h75l-155 -205h-75z" />
    <glyph glyph-name="dcaron" unicode="&#x10f;" horiz-adv-x="774" 
d="M555 700v-635h90v-65h-155l-5 70h-5q-23 -25 -53 -45q-65 -45 -132 -45q-106 0 -180.5 77t-74.5 188t74.5 188t180.5 77q65 0 129 -40q30 -19 51 -40h5v205h-90v65h165zM295 40q66 0 132 50q33 26 53 50v210q-20 24 -53 50q-66 50 -132 50q-70 0 -122.5 -58.5
t-52.5 -146.5t52.5 -146.5t122.5 -58.5zM644 646q0 23 16 39t39 16q24 0 39.5 -18.5t15.5 -51.5q0 -62 -43 -109q-17 -19 -42 -31l-15 30q11 7 22 18q23 25 23 52q-23 0 -39 16t-16 39z" />
    <glyph glyph-name="Dcroat" unicode="&#x110;" horiz-adv-x="785" 
d="M45 320v60h115v250h-110v70h325q160 0 265 -101t105 -249t-105 -249t-265 -101h-325v70h110v250h-115zM240 70h135q123 0 204 79.5t81 200.5q0 120 -81 200t-204 80h-135v-250h205v-60h-205v-250z" />
    <glyph glyph-name="dcroat" unicode="&#x111;" horiz-adv-x="665" 
d="M295 -20q-111 0 -183 69t-72 171t72 171t183 69q65 0 129 -40q30 -19 51 -40h5v160h-170v65h170v95h75v-95h90v-65h-90v-475h90v-65h-155l-5 70h-5q-23 -25 -53 -45q-65 -45 -132 -45zM295 40q66 0 132 50q33 26 53 50v160q-20 24 -53 50q-66 50 -132 50q-75 0 -125 -51
t-50 -129t50 -129t125 -51z" />
    <glyph glyph-name="Emacron" unicode="&#x112;" horiz-adv-x="710" 
d="M35 0v70h110v560h-110v70h605v-220h-75v150h-340v-235h240v-70h-240v-255h340v150h75v-220h-605zM205 890h330v-65h-330v65z" />
    <glyph glyph-name="emacron" unicode="&#x113;" horiz-adv-x="585" 
d="M535 225h-415q0 -69 59.5 -127t130.5 -58q69 0 126 45q27 20 44 45l45 -45q-22 -30 -55 -53q-69 -52 -160 -52q-113 0 -191.5 79.5t-78.5 195.5q0 118 74.5 196.5t180.5 78.5q100 0 175 -72.5t75 -167.5q0 -26 -5 -46zM295 470q-68 0 -121.5 -54.5t-53.5 -125.5h350
q0 71 -53.5 125.5t-121.5 54.5zM130 705h330v-65h-330v65z" />
    <glyph glyph-name="Edotaccent" unicode="&#x116;" horiz-adv-x="710" 
d="M35 0v70h110v560h-110v70h605v-220h-75v150h-340v-235h240v-70h-240v-255h340v150h75v-220h-605zM435 850q0 -23 -16 -39t-39 -16t-39 16t-16 39t16 39t39 16t39 -16t16 -39z" />
    <glyph glyph-name="edotaccent" unicode="&#x117;" horiz-adv-x="585" 
d="M535 225h-415q0 -69 59.5 -127t130.5 -58q69 0 126 45q27 20 44 45l45 -45q-22 -30 -55 -53q-69 -52 -160 -52q-113 0 -191.5 79.5t-78.5 195.5q0 118 74.5 196.5t180.5 78.5q100 0 175 -72.5t75 -167.5q0 -26 -5 -46zM295 470q-68 0 -121.5 -54.5t-53.5 -125.5h350
q0 71 -53.5 125.5t-121.5 54.5zM360 675q0 -23 -16 -39t-39 -16t-39 16t-16 39t16 39t39 16t39 -16t16 -39z" />
    <glyph glyph-name="Eogonek" unicode="&#x118;" horiz-adv-x="710" 
d="M35 0v70h110v560h-110v70h605v-220h-75v150h-340v-235h240v-70h-240v-255h340v150h75v-220h-176q-11 -3 -42.5 -20.5t-69 -55t-37.5 -74.5q0 -30 16.5 -47.5t43.5 -17.5q32 0 54 12q7 3 21 13l20 -45q-12 -9 -27 -15q-32 -15 -68 -15q-56 0 -90.5 32.5t-34.5 82.5
q0 21 7.5 40.5t19.5 34t26 27t29.5 21t27 14.5t20.5 9l9 4h-354z" />
    <glyph glyph-name="eogonek" unicode="&#x119;" horiz-adv-x="590" 
d="M335 -270q-57 0 -91 33t-34 87q0 73 97 130q-115 0 -191 78.5t-76 196.5t74.5 196.5t180.5 78.5q109 0 182 -65.5t73 -154.5q0 -40 -5 -65l-5 -20h-420q0 -75 56 -130t134 -55q70 0 126 37q26 17 44 38l40 -50q-14 -14 -27 -23q-37 -28 -74 -42q-6 -2 -26.5 -13t-50 -30
t-51 -48t-21.5 -59q0 -33 17.5 -51.5t47.5 -18.5q28 0 54 10q14 6 21 10l20 -40q-12 -9 -27 -15q-32 -15 -68 -15zM295 470q-72 0 -123.5 -52.5t-51.5 -127.5h350v20q0 61 -52.5 110.5t-122.5 49.5z" />
    <glyph glyph-name="Ecaron" unicode="&#x11a;" horiz-adv-x="710" 
d="M35 0v70h110v560h-110v70h605v-220h-75v150h-340v-235h240v-70h-240v-255h340v150h75v-220h-605zM335 770l-155 205h75l115 -145h5l115 145h75l-155 -205h-75z" />
    <glyph glyph-name="ecaron" unicode="&#x11b;" horiz-adv-x="585" 
d="M535 225h-415q0 -69 59.5 -127t130.5 -58q69 0 126 45q27 20 44 45l45 -45q-22 -30 -55 -53q-69 -52 -160 -52q-113 0 -191.5 79.5t-78.5 195.5q0 118 74.5 196.5t180.5 78.5q100 0 175 -72.5t75 -167.5q0 -26 -5 -46zM295 470q-68 0 -121.5 -54.5t-53.5 -125.5h350
q0 71 -53.5 125.5t-121.5 54.5zM270 590l-155 205h75l115 -145h5l115 145h75l-155 -205h-75z" />
    <glyph glyph-name="Gbreve" unicode="&#x11e;" horiz-adv-x="770" 
d="M700 385v-295q-39 -35 -76 -58q-94 -57 -199 -57q-165 0 -272.5 106.5t-107.5 268.5t107.5 268.5t272.5 106.5q109 0 203 -58q40 -25 72 -57l-50 -55q-29 32 -58 52q-77 53 -167 53q-125 0 -210 -88t-85 -222t85 -222t210 -88q77 0 147 40q32 20 53 40v200h-213v65h288z
M410 850q49 0 79.5 30.5t30.5 79.5h65q0 -79 -48 -127t-127 -48t-127 48t-48 127h65q0 -49 30.5 -79.5t79.5 -30.5z" />
    <glyph glyph-name="gbreve" unicode="&#x11f;" horiz-adv-x="665" 
d="M120 275q0 -81 52.5 -138t122.5 -57q66 0 132 50q33 26 53 50v190q-20 24 -53 50q-66 50 -132 50q-69 0 -122 -57.5t-53 -137.5zM480 55v45h-5q-21 -21 -51 -40q-64 -40 -129 -40q-105 0 -180 75t-75 180t75 180t180 75q67 0 132 -45q30 -20 53 -45h5l5 70h155v-65h-90
v-390q0 -117 -79 -196t-196 -79q-91 0 -160 52q-33 23 -55 53l45 45q17 -25 44 -45q57 -45 126 -45q83 0 141.5 61.5t58.5 153.5zM315 670q49 0 79.5 30.5t30.5 79.5h65q0 -79 -48 -127t-127 -48t-127 48t-48 127h65q0 -49 30.5 -79.5t79.5 -30.5z" />
    <glyph glyph-name="Gcommaaccent" unicode="&#x122;" horiz-adv-x="770" 
d="M700 385v-295q-39 -35 -76 -58q-94 -57 -199 -57q-165 0 -272.5 106.5t-107.5 268.5t107.5 268.5t272.5 106.5q109 0 203 -58q40 -25 72 -57l-50 -55q-29 32 -58 52q-77 53 -167 53q-125 0 -210 -88t-85 -222t85 -222t210 -88q77 0 147 40q32 20 53 40v200h-213v65h288z
M358 -140q0 23 14.5 36.5t40.5 13.5q19 0 34.5 -17.5t15.5 -42.5q0 -57 -40 -103q-17 -18 -40 -32l-15 30q10 7 20 19q20 22 20 46q-23 0 -36.5 13.5t-13.5 36.5z" />
    <glyph glyph-name="gcommaaccent" unicode="&#x123;" horiz-adv-x="665" 
d="M120 275q0 -81 52.5 -138t122.5 -57q66 0 132 50q33 26 53 50v190q-20 24 -53 50q-66 50 -132 50q-69 0 -122 -57.5t-53 -137.5zM480 55v45h-5q-21 -21 -51 -40q-64 -40 -129 -40q-105 0 -180 75t-75 180t75 180t180 75q67 0 132 -45q30 -20 53 -45h5l5 70h155v-65h-90
v-390q0 -117 -79 -196t-196 -79q-91 0 -160 52q-33 23 -55 53l45 45q17 -25 44 -45q57 -45 126 -45q83 0 141.5 61.5t58.5 153.5zM355 665q0 -23 -14.5 -36.5t-40.5 -13.5q-19 0 -34.5 17.5t-15.5 42.5q0 57 40 103q17 18 40 32l15 -30q-10 -7 -20 -19q-20 -22 -20 -46
q23 0 36.5 -13.5t13.5 -36.5z" />
    <glyph glyph-name="Imacron" unicode="&#x12a;" horiz-adv-x="400" 
d="M240 630v-560h120v-70h-320v70h120v560h-120v70h320v-70h-120zM36 885h330v-65h-330v65z" />
    <glyph glyph-name="imacron" unicode="&#x12b;" horiz-adv-x="305" 
d="M30 510h165v-445h90v-65h-255v65h90v380h-90v65zM-24 710h330v-65h-330v65z" />
    <glyph glyph-name="Iogonek" unicode="&#x12e;" horiz-adv-x="390" 
d="M235 630v-560h120v-70h-320v70h120v560h-120v70h320v-70h-120zM210 -265q-56 0 -90.5 32.5t-34.5 82.5q0 66 70 114q32 21 70 36h74q-11 -3 -42.5 -20.5t-69 -55t-37.5 -74.5q0 -30 16.5 -47.5t43.5 -17.5q32 0 54 12q7 3 21 13l20 -45q-12 -9 -27 -15q-32 -15 -68 -15z
" />
    <glyph glyph-name="iogonek" unicode="&#x12f;" horiz-adv-x="305" 
d="M165 -270q-57 0 -91 33t-34 87q0 62 70 112q29 21 70 38h-150v65h90v380h-90v65h165v-445h90v-65h-35q-40 -17 -75 -41q-75 -52 -75 -109q0 -33 17.5 -51.5t47.5 -18.5q28 0 54 10q14 6 21 10l20 -40q-12 -9 -27 -15q-32 -15 -68 -15zM210 665q0 -23 -16 -39t-39 -16
t-39 16t-16 39t16 39t39 16t39 -16t16 -39z" />
    <glyph glyph-name="Idotaccent" unicode="&#x130;" horiz-adv-x="390" 
d="M235 630v-560h120v-70h-320v70h120v560h-120v70h320v-70h-120zM255 850q0 -23 -16 -39t-39 -16t-39 16t-16 39t16 39t39 16t39 -16t16 -39z" />
    <glyph glyph-name="dotlessi" unicode="&#x131;" horiz-adv-x="305" 
d="M30 510h165v-445h90v-65h-255v65h90v380h-90v65z" />
    <glyph glyph-name="Kcommaaccent" unicode="&#x136;" horiz-adv-x="750" 
d="M390 325h-165v-255h110v-70h-300v70h110v560h-110v70h300v-70h-110v-235h160l195 305h145v-70h-100l-165 -260l190 -300h100v-70h-155zM345 -139q0 23 14.5 36.5t40.5 13.5q19 0 34.5 -17.5t15.5 -42.5q0 -57 -40 -103q-17 -18 -40 -32l-15 30q10 7 20 19q20 22 20 46
q-23 0 -36.5 13.5t-13.5 36.5z" />
    <glyph glyph-name="kcommaaccent" unicode="&#x137;" horiz-adv-x="605" 
d="M195 700v-395h115l135 205h125v-65h-75l-115 -170l135 -210h85v-65h-135l-150 240h-120v-175h90v-65h-255v65h90v570h-90v65h165zM254 -130q0 23 14.5 36.5t40.5 13.5q19 0 34.5 -17.5t15.5 -42.5q0 -57 -40 -103q-17 -18 -40 -32l-15 30q10 7 20 19q20 22 20 46
q-23 0 -36.5 13.5t-13.5 36.5z" />
    <glyph glyph-name="Lacute" unicode="&#x139;" horiz-adv-x="665" 
d="M35 630v70h300v-70h-110v-560h325v155h75v-225h-590v70h110v560h-110zM260 970h90l-130 -200h-60z" />
    <glyph glyph-name="lacute" unicode="&#x13a;" horiz-adv-x="305" 
d="M30 700h165v-635h90v-65h-255v65h90v570h-90v65zM215 970h90l-130 -200h-60z" />
    <glyph glyph-name="Lcommaaccent" unicode="&#x13b;" horiz-adv-x="665" 
d="M35 630v70h300v-70h-110v-560h325v155h75v-225h-590v70h110v560h-110zM310 -140q0 23 14.5 36.5t40.5 13.5q19 0 34.5 -17.5t15.5 -42.5q0 -57 -40 -103q-17 -18 -40 -32l-15 30q10 7 20 19q20 22 20 46q-23 0 -36.5 13.5t-13.5 36.5z" />
    <glyph glyph-name="lcommaaccent" unicode="&#x13c;" horiz-adv-x="305" 
d="M30 700h165v-635h90v-65h-255v65h90v570h-90v65zM110 -140q0 23 14.5 36.5t40.5 13.5q19 0 34.5 -17.5t15.5 -42.5q0 -57 -40 -103q-17 -18 -40 -32l-15 30q10 7 20 19q20 22 20 46q-23 0 -36.5 13.5t-13.5 36.5z" />
    <glyph glyph-name="Lcaron" unicode="&#x13d;" horiz-adv-x="665" 
d="M35 630v70h300v-70h-110v-560h325v155h75v-225h-590v70h110v560h-110zM395 651q0 23 14.5 36.5t40.5 13.5q19 0 34.5 -17.5t15.5 -42.5q0 -57 -40 -103q-17 -18 -40 -32l-15 30q10 7 20 19q20 22 20 46q-23 0 -36.5 13.5t-13.5 36.5z" />
    <glyph glyph-name="lcaron" unicode="&#x13e;" horiz-adv-x="400" 
d="M30 700h165v-635h90v-65h-255v65h90v570h-90v65zM275 651q0 23 14.5 36.5t40.5 13.5q19 0 34.5 -17.5t15.5 -42.5q0 -57 -40 -103q-17 -18 -40 -32l-15 30q10 7 20 19q20 22 20 46q-23 0 -36.5 13.5t-13.5 36.5z" />
    <glyph glyph-name="Lslash" unicode="&#x141;" horiz-adv-x="670" 
d="M40 630v70h300v-70h-110v-235l140 65v-70l-140 -65v-255h330v155h70v-225h-590v70h110v220l-120 -55v70l120 55v270h-110z" />
    <glyph glyph-name="lslash" unicode="&#x142;" horiz-adv-x="335" 
d="M35 700h165v-290l125 60v-75l-125 -60v-270h90v-65h-255v65h90v235l-115 -55v75l115 55v260h-90v65z" />
    <glyph glyph-name="Nacute" unicode="&#x143;" horiz-adv-x="830" 
d="M35 700h190l385 -560h5v490h-110v70h300v-70h-110v-630h-80l-385 560h-5v-490h110v-70h-300v70h110v560h-110v70zM480 970h90l-130 -200h-60z" />
    <glyph glyph-name="nacute" unicode="&#x144;" 
d="M500 65v270q0 63 -34 99t-91 36q-60 0 -126 -50q-32 -25 -54 -50v-305h90v-65h-255v65h90v380h-90v65h155l5 -70h5q25 26 54 45q65 45 126 45q90 0 145 -54t55 -141v-270h90v-65h-255v65h90zM410 790h90l-130 -200h-60z" />
    <glyph glyph-name="Ncommaaccent" unicode="&#x145;" horiz-adv-x="830" 
d="M35 700h190l385 -560h5v490h-110v70h300v-70h-110v-630h-80l-385 560h-5v-490h110v-70h-300v70h110v560h-110v70zM365 -130q0 23 14.5 36.5t40.5 13.5q19 0 34.5 -17.5t15.5 -42.5q0 -57 -40 -103q-17 -18 -40 -32l-15 30q10 7 20 19q20 22 20 46q-23 0 -36.5 13.5
t-13.5 36.5z" />
    <glyph glyph-name="ncommaaccent" unicode="&#x146;" 
d="M500 65v270q0 63 -34 99t-91 36q-60 0 -126 -50q-32 -25 -54 -50v-305h90v-65h-255v65h90v380h-90v65h155l5 -70h5q25 26 54 45q65 45 126 45q90 0 145 -54t55 -141v-270h90v-65h-255v65h90zM290 -130q0 23 14.5 36.5t40.5 13.5q19 0 34.5 -17.5t15.5 -42.5
q0 -57 -40 -103q-17 -18 -40 -32l-15 30q10 7 20 19q20 22 20 46q-23 0 -36.5 13.5t-13.5 36.5z" />
    <glyph glyph-name="Ncaron" unicode="&#x147;" horiz-adv-x="830" 
d="M35 700h190l385 -560h5v490h-110v70h300v-70h-110v-630h-80l-385 560h-5v-490h110v-70h-300v70h110v560h-110v70zM380 770l-155 205h75l115 -145h5l115 145h75l-155 -205h-75z" />
    <glyph glyph-name="ncaron" unicode="&#x148;" 
d="M500 65v270q0 63 -34 99t-91 36q-60 0 -126 -50q-32 -25 -54 -50v-305h90v-65h-255v65h90v380h-90v65h155l5 -70h5q25 26 54 45q65 45 126 45q90 0 145 -54t55 -141v-270h90v-65h-255v65h90zM305 590l-155 205h75l115 -145h5l115 145h75l-155 -205h-75z" />
    <glyph glyph-name="Omacron" unicode="&#x14c;" horiz-adv-x="830" 
d="M700 350q0 133 -83 221.5t-202 88.5t-202 -88.5t-83 -221.5t83 -221.5t202 -88.5t202 88.5t83 221.5zM785 350q0 -161 -106 -268t-264 -107t-264 107t-106 268t106 268t264 107t264 -107t106 -268zM250 885h330v-65h-330v65z" />
    <glyph glyph-name="omacron" unicode="&#x14d;" horiz-adv-x="620" 
d="M40 255q0 116 78.5 195.5t191.5 79.5t191.5 -79.5t78.5 -195.5t-78.5 -195.5t-191.5 -79.5t-191.5 79.5t-78.5 195.5zM500 255q0 92 -56.5 153.5t-133.5 61.5t-133.5 -61.5t-56.5 -153.5t56.5 -153.5t133.5 -61.5t133.5 61.5t56.5 153.5zM150 705h330v-65h-330v65z" />
    <glyph glyph-name="Ohungarumlaut" unicode="&#x150;" horiz-adv-x="830" 
d="M700 350q0 133 -83 221.5t-202 88.5t-202 -88.5t-83 -221.5t83 -221.5t202 -88.5t202 88.5t83 221.5zM785 350q0 -161 -106 -268t-264 -107t-264 107t-106 268t106 268t264 107t264 -107t106 -268zM400 980h85l-130 -200h-55zM585 980h85l-130 -200h-55z" />
    <glyph glyph-name="ohungarumlaut" unicode="&#x151;" horiz-adv-x="620" 
d="M40 255q0 116 78.5 195.5t191.5 79.5t191.5 -79.5t78.5 -195.5t-78.5 -195.5t-191.5 -79.5t-191.5 79.5t-78.5 195.5zM500 255q0 92 -56.5 153.5t-133.5 61.5t-133.5 -61.5t-56.5 -153.5t56.5 -153.5t133.5 -61.5t133.5 61.5t56.5 153.5zM275 790h85l-130 -200h-55z
M460 790h85l-130 -200h-55z" />
    <glyph glyph-name="OE" unicode="&#x152;" horiz-adv-x="1070" 
d="M1000 0h-595q-160 0 -265 101t-105 249t105 249t265 101h595v-220h-75v150h-330v-235h230v-70h-230v-255h330v150h75v-220zM120 350q0 -117 82.5 -198.5t202.5 -81.5h110v560h-110q-120 0 -202.5 -81.5t-82.5 -198.5z" />
    <glyph glyph-name="oe" unicode="&#x153;" horiz-adv-x="1000" 
d="M515 400h5q19 35 49 65q67 65 151 65q98 0 169 -71t71 -169q0 -26 -5 -46l-5 -19h-390q0 -77 49 -131t126 -54q60 0 113 37q23 16 42 38l40 -50q-21 -24 -53 -43q-70 -42 -142 -42q-108 0 -173 65q-30 28 -46 65h-6q-16 -36 -45 -65q-65 -65 -165 -65q-110 0 -185 78
t-75 197t75 197t185 78q93 0 164 -65q31 -28 51 -65zM720 470q-62 0 -111 -53t-49 -127h325q0 74 -50.5 127t-114.5 53zM300 470q-74 0 -127 -60t-53 -155t53 -155t127 -60t127 60t53 155t-53 155t-127 60z" />
    <glyph glyph-name="Racute" unicode="&#x154;" horiz-adv-x="760" 
d="M225 300v-230h110v-70h-300v70h110v560h-110v70h395q110 0 172.5 -55.5t62.5 -144.5q0 -97 -80 -151q-33 -23 -80 -34v-5l155 -240h100v-70h-155l-190 300h-190zM225 630v-260h205q71 0 110.5 36t39.5 94t-39.5 94t-110.5 36h-205zM455 970h90l-130 -200h-60z" />
    <glyph glyph-name="racute" unicode="&#x155;" horiz-adv-x="435" 
d="M435 515l-20 -70l-18 7q-22 8 -47 8q-57 0 -111 -40q-24 -17 -44 -40v-315h90v-65h-255v65h90v380h-90v65h155l5 -70h5q21 27 44 45q53 45 111 45q31 0 61 -8zM320 790h90l-130 -200h-60z" />
    <glyph glyph-name="Rcommaaccent" unicode="&#x156;" horiz-adv-x="760" 
d="M225 300v-230h110v-70h-300v70h110v560h-110v70h395q110 0 172.5 -55.5t62.5 -144.5q0 -97 -80 -151q-33 -23 -80 -34v-5l155 -240h100v-70h-155l-190 300h-190zM225 630v-260h205q71 0 110.5 36t39.5 94t-39.5 94t-110.5 36h-205zM355 -120q0 23 14.5 36.5t40.5 13.5
q19 0 34.5 -17.5t15.5 -42.5q0 -57 -40 -103q-17 -18 -40 -32l-15 30q10 7 20 19q20 22 20 46q-23 0 -36.5 13.5t-13.5 36.5z" />
    <glyph glyph-name="rcommaaccent" unicode="&#x157;" horiz-adv-x="435" 
d="M435 515l-20 -70l-18 7q-22 8 -47 8q-57 0 -111 -40q-24 -17 -44 -40v-315h90v-65h-255v65h90v380h-90v65h155l5 -70h5q21 27 44 45q53 45 111 45q31 0 61 -8zM105 -130q0 23 14.5 36.5t40.5 13.5q19 0 34.5 -17.5t15.5 -42.5q0 -57 -40 -103q-17 -18 -40 -32l-15 30
q10 7 20 19q20 22 20 46q-23 0 -36.5 13.5t-13.5 36.5z" />
    <glyph glyph-name="Rcaron" unicode="&#x158;" horiz-adv-x="760" 
d="M225 300v-230h110v-70h-300v70h110v560h-110v70h395q110 0 172.5 -55.5t62.5 -144.5q0 -97 -80 -151q-33 -23 -80 -34v-5l155 -240h100v-70h-155l-190 300h-190zM225 630v-260h205q71 0 110.5 36t39.5 94t-39.5 94t-110.5 36h-205zM331 770l-155 205h75l115 -145h5
l115 145h75l-155 -205h-75z" />
    <glyph glyph-name="rcaron" unicode="&#x159;" horiz-adv-x="440" 
d="M435 515l-20 -70l-18 7q-22 8 -47 8q-57 0 -111 -40q-24 -17 -44 -40v-315h90v-65h-255v65h90v380h-90v65h155l5 -70h5q21 27 44 45q53 45 111 45q31 0 61 -8zM210 590l-155 205h75l115 -145h5l115 145h75l-155 -205h-75z" />
    <glyph glyph-name="Sacute" unicode="&#x15a;" horiz-adv-x="625" 
d="M575 195q0 -93 -73 -156.5t-197 -63.5q-112 0 -198 57q-36 23 -67 58l45 55q26 -30 59 -53q75 -52 161 -52q84 0 134.5 45t50.5 110q0 47 -42 76.5t-102.5 47t-121 38t-102.5 63.5t-42 110q0 78 68.5 136.5t176.5 58.5q84 0 166 -48q33 -19 64 -47v-140h-70v105
q-22 20 -44 32q-58 33 -116 33q-70 0 -115 -39.5t-45 -91.5q0 -34 22.5 -58.5t59 -39.5t80 -28.5t87 -29t80 -36.5t59 -57t22.5 -85zM390 980h90l-130 -200h-60z" />
    <glyph glyph-name="sacute" unicode="&#x15b;" horiz-adv-x="530" 
d="M480 145q0 -72 -58.5 -118.5t-166.5 -46.5q-91 0 -160 52q-33 23 -55 53l45 45q17 -25 44 -45q57 -45 126 -45q68 0 106.5 30.5t38.5 74.5q0 31 -34 50.5t-82.5 31t-97 25.5t-82.5 46t-34 82q0 64 54 107t151 43q69 0 141 -43q30 -18 54 -42v-95h-70v70q-19 17 -34 25
q-48 25 -91 25q-57 0 -91 -27t-34 -63q0 -31 34 -50.5t82.5 -31t97 -25.5t82.5 -46t34 -82zM330 790h90l-130 -200h-60z" />
    <glyph glyph-name="Scedilla" unicode="&#x15e;" horiz-adv-x="625" 
d="M377 -180q0 27 -21 46t-54 19q-3 0 -30 -3l-15 -2l18 97q-101 9 -176 61q-33 23 -59 52l45 55q26 -30 59 -53q75 -52 161 -52q84 0 134.5 45t50.5 110q0 47 -42 76.5t-102.5 47t-121 38t-102.5 63.5t-42 110q0 78 68.5 136.5t176.5 58.5q84 0 166 -48q33 -19 64 -47v-140
h-70v105q-22 20 -44 32q-58 33 -116 33q-70 0 -115 -39.5t-45 -91.5q0 -34 22.5 -58.5t59 -39.5t80 -28.5t87 -29t80 -36.5t59 -57t22.5 -85q0 -89 -67 -151t-181 -68l-5 -46q48 0 81.5 -32.5t33.5 -77.5q0 -47 -36.5 -78.5t-98.5 -31.5q-36 0 -68 15q-15 6 -27 15l20 45
q14 -10 21 -13q22 -12 54 -12q33 0 54 18t21 42z" />
    <glyph glyph-name="scedilla" unicode="&#x15f;" horiz-adv-x="530" 
d="M327 -180q0 27 -21 46t-54 19q-3 0 -30 -3l-15 -2l19 102q-77 9 -138 56q-26 20 -48 47l45 45q17 -25 44 -45q57 -45 126 -45q68 0 106.5 30.5t38.5 74.5q0 31 -34 50.5t-82.5 31t-97 25.5t-82.5 46t-34 82q0 64 54 107t151 43q69 0 141 -43q30 -18 54 -42v-95h-70v70
q-19 17 -34 25q-48 25 -91 25q-57 0 -91 -27t-34 -63q0 -31 34 -50.5t82.5 -31t97 -25.5t82.5 -46t34 -82q0 -67 -52.5 -112.5t-149.5 -51.5l-6 -51q48 0 81.5 -32.5t33.5 -77.5q0 -47 -36.5 -78.5t-98.5 -31.5q-36 0 -68 15q-15 6 -27 15l20 45q14 -10 21 -13
q22 -12 54 -12q33 0 54 18t21 42z" />
    <glyph glyph-name="Scaron" unicode="&#x160;" horiz-adv-x="625" 
d="M575 195q0 -93 -73 -156.5t-197 -63.5q-112 0 -198 57q-36 23 -67 58l45 55q26 -30 59 -53q75 -52 161 -52q84 0 134.5 45t50.5 110q0 47 -42 76.5t-102.5 47t-121 38t-102.5 63.5t-42 110q0 78 68.5 136.5t176.5 58.5q84 0 166 -48q33 -19 64 -47v-140h-70v105
q-22 20 -44 32q-58 33 -116 33q-70 0 -115 -39.5t-45 -91.5q0 -34 22.5 -58.5t59 -39.5t80 -28.5t87 -29t80 -36.5t59 -57t22.5 -85zM285 780l-155 205h75l115 -145h5l115 145h75l-155 -205h-75z" />
    <glyph glyph-name="scaron" unicode="&#x161;" horiz-adv-x="530" 
d="M480 145q0 -72 -58.5 -118.5t-166.5 -46.5q-91 0 -160 52q-33 23 -55 53l45 45q17 -25 44 -45q57 -45 126 -45q68 0 106.5 30.5t38.5 74.5q0 31 -34 50.5t-82.5 31t-97 25.5t-82.5 46t-34 82q0 64 54 107t151 43q69 0 141 -43q30 -18 54 -42v-95h-70v70q-19 17 -34 25
q-48 25 -91 25q-57 0 -91 -27t-34 -63q0 -31 34 -50.5t82.5 -31t97 -25.5t82.5 -46t34 -82zM230 590l-155 205h75l115 -145h5l115 145h75l-155 -205h-75z" />
    <glyph glyph-name="Tcommaaccent" unicode="&#x162;" horiz-adv-x="720" 
d="M320 70v560h-195v-160h-75v230h620v-230h-75v160h-195v-560h110v-70h-300v70h110zM305 -140q0 23 14.5 36.5t40.5 13.5q19 0 34.5 -17.5t15.5 -42.5q0 -57 -40 -103q-17 -18 -40 -32l-15 30q10 7 20 19q20 22 20 46q-23 0 -36.5 13.5t-13.5 36.5z" />
    <glyph glyph-name="tcommaaccent" unicode="&#x163;" horiz-adv-x="420" 
d="M185 445v-255q0 -70 32 -107.5t83 -37.5q33 0 61 15q13 6 24 15l25 -55q-17 -12 -33 -20q-36 -20 -77 -20q-88 0 -139 54.5t-51 154.5v256h-90v65h90l40 150h35v-150h170v-65h-170zM205 -140q0 23 14.5 36.5t40.5 13.5q19 0 34.5 -17.5t15.5 -42.5q0 -57 -40 -103
q-17 -18 -40 -32l-15 30q10 7 20 19q20 22 20 46q-23 0 -36.5 13.5t-13.5 36.5z" />
    <glyph glyph-name="Tcaron" unicode="&#x164;" horiz-adv-x="720" 
d="M320 70v560h-195v-160h-75v230h620v-230h-75v160h-195v-560h110v-70h-300v70h110zM325 770l-155 205h75l115 -145h5l115 145h75l-155 -205h-75z" />
    <glyph glyph-name="tcaron" unicode="&#x165;" horiz-adv-x="505" 
d="M185 445v-255q0 -70 32 -107.5t83 -37.5q33 0 61 15q13 6 24 15l25 -55q-17 -12 -33 -20q-36 -20 -77 -20q-88 0 -139 54.5t-51 154.5v256h-90v65h90l40 150h35v-150h170v-65h-170zM380 652q0 23 14.5 36.5t40.5 13.5q19 0 34.5 -17.5t15.5 -42.5q0 -57 -40 -103
q-17 -18 -40 -32l-15 30q10 7 20 19q20 22 20 46q-23 0 -36.5 13.5t-13.5 36.5z" />
    <glyph glyph-name="Umacron" unicode="&#x16a;" horiz-adv-x="810" 
d="M215 700v-450q0 -101 51 -155.5t139 -54.5t139 54.5t51 155.5v380h-110v70h300v-70h-110v-380q0 -128 -73 -201.5t-197 -73.5t-197 73.5t-73 201.5v380h-110v70h190zM240 885h330v-65h-330v65z" />
    <glyph glyph-name="umacron" unicode="&#x16b;" 
d="M185 510v-335q0 -63 34 -99t91 -36q60 0 126 50q32 25 54 50v305h-90v65h255v-65h-90v-380h90v-65h-155l-5 70h-5q-26 -26 -54 -45q-65 -45 -126 -45q-90 0 -145 54t-55 141v270h-90v65h165zM185 720h330v-65h-330v65z" />
    <glyph glyph-name="Uring" unicode="&#x16e;" horiz-adv-x="810" 
d="M215 700v-450q0 -101 51 -155.5t139 -54.5t139 54.5t51 155.5v380h-110v70h300v-70h-110v-380q0 -128 -73 -201.5t-197 -73.5t-197 73.5t-73 201.5v380h-110v70h190zM320 890q0 -34 23 -57t57 -23t57 23t23 57t-23 57t-57 23t-57 -23t-23 -57zM540 890q0 -53 -40.5 -91.5
t-99.5 -38.5t-99.5 38.5t-40.5 91.5t40.5 91.5t99.5 38.5t99.5 -38.5t40.5 -91.5z" />
    <glyph glyph-name="uring" unicode="&#x16f;" 
d="M185 510v-335q0 -63 34 -99t91 -36q60 0 126 50q32 25 54 50v305h-90v65h255v-65h-90v-380h90v-65h-155l-5 70h-5q-26 -26 -54 -45q-65 -45 -126 -45q-90 0 -145 54t-55 141v270h-90v65h165zM260 710q0 -34 23 -57t57 -23t57 23t23 57t-23 57t-57 23t-57 -23t-23 -57z
M480 710q0 -53 -40.5 -91.5t-99.5 -38.5t-99.5 38.5t-40.5 91.5t40.5 91.5t99.5 38.5t99.5 -38.5t40.5 -91.5z" />
    <glyph glyph-name="Uhungarumlaut" unicode="&#x170;" horiz-adv-x="810" 
d="M215 700v-450q0 -101 51 -155.5t139 -54.5t139 54.5t51 155.5v380h-110v70h300v-70h-110v-380q0 -128 -73 -201.5t-197 -73.5t-197 73.5t-73 201.5v380h-110v70h190zM365 970h85l-130 -200h-55zM550 970h85l-130 -200h-55z" />
    <glyph glyph-name="uhungarumlaut" unicode="&#x171;" 
d="M185 510v-335q0 -63 34 -99t91 -36q60 0 126 50q32 25 54 50v305h-90v65h255v-65h-90v-380h90v-65h-155l-5 70h-5q-26 -26 -54 -45q-65 -45 -126 -45q-90 0 -145 54t-55 141v270h-90v65h165zM305 780h85l-130 -200h-55zM490 780h85l-130 -200h-55z" />
    <glyph glyph-name="Uogonek" unicode="&#x172;" horiz-adv-x="810" 
d="M440 -265q-56 0 -90.5 32.5t-34.5 82.5q0 74 86 125q-124 2 -195 75t-71 200v380h-110v70h190v-450q0 -101 51 -155.5t139 -54.5t139 54.5t51 155.5v380h-110v70h300v-70h-110v-380q0 -96 -41 -162t-117 -94q-137 -70 -137 -144q0 -30 16.5 -47.5t43.5 -17.5q32 0 54 12
q7 3 21 13l20 -45q-12 -9 -27 -15q-32 -15 -68 -15z" />
    <glyph glyph-name="uogonek" unicode="&#x173;" 
d="M560 -265q-56 0 -90.5 32.5t-34.5 82.5q0 21 7.5 40.5t19.5 34t26 27t29.5 21t27 14.5t20.5 9l9 4h-74l-5 70h-5q-26 -26 -54 -45q-65 -45 -126 -45q-90 0 -145 54t-55 141v270h-90v65h165v-335q0 -63 34 -99t91 -36q60 0 126 50q32 25 54 50v305h-90v65h255v-65h-90
v-380h90v-65h-6q-11 -3 -42.5 -20.5t-69 -55t-37.5 -74.5q0 -30 16.5 -47.5t43.5 -17.5q32 0 54 12q7 3 21 13l20 -45q-12 -9 -27 -15q-32 -15 -68 -15z" />
    <glyph glyph-name="Ydieresis" unicode="&#x178;" horiz-adv-x="710" 
d="M395 270v-200h110v-70h-300v70h110v200l-220 360h-95v70h150l203 -340h4l203 340h150v-70h-95zM295 850q0 -23 -13.5 -36.5t-36.5 -13.5t-36.5 13.5t-13.5 36.5t13.5 36.5t36.5 13.5t36.5 -13.5t13.5 -36.5zM505 850q0 -23 -13.5 -36.5t-36.5 -13.5t-36.5 13.5
t-13.5 36.5t13.5 36.5t36.5 13.5t36.5 -13.5t13.5 -36.5z" />
    <glyph glyph-name="Zacute" unicode="&#x179;" 
d="M55 75l466 550v5h-381v-150h-75v220h555v-75l-465 -550v-5h400v150h75v-220h-575v75zM410 980h90l-130 -200h-60z" />
    <glyph glyph-name="zacute" unicode="&#x17a;" horiz-adv-x="555" 
d="M500 440l-360 -370v-5h300v115h70v-180h-465v70l360 370v5h-280v-115h-70v180h445v-70zM345 780h90l-130 -200h-60z" />
    <glyph glyph-name="Zdotaccent" unicode="&#x17b;" 
d="M55 75l466 550v5h-381v-150h-75v220h555v-75l-465 -550v-5h400v150h75v-220h-575v75zM400 855q0 -23 -16 -39t-39 -16t-39 16t-16 39t16 39t39 16t39 -16t16 -39z" />
    <glyph glyph-name="zdotaccent" unicode="&#x17c;" horiz-adv-x="555" 
d="M500 440l-360 -370v-5h300v115h70v-180h-465v70l360 370v5h-280v-115h-70v180h445v-70zM335 661q0 -23 -16 -39t-39 -16t-39 16t-16 39t16 39t39 16t39 -16t16 -39z" />
    <glyph glyph-name="Zcaron" unicode="&#x17d;" 
d="M55 75l466 550v5h-381v-150h-75v220h555v-75l-465 -550v-5h400v150h75v-220h-575v75zM310 770l-155 205h75l115 -145h5l115 145h75l-155 -205h-75z" />
    <glyph glyph-name="zcaron" unicode="&#x17e;" horiz-adv-x="555" 
d="M500 440l-360 -370v-5h300v115h70v-180h-465v70l360 370v5h-280v-115h-70v180h445v-70zM245 580l-155 205h75l115 -145h5l115 145h75l-155 -205h-75z" />
    <glyph glyph-name="florin" unicode="&#x192;" horiz-adv-x="390" 
d="M120 -25v450h-90v65h90v21q0 100 51 154.5t139 54.5q44 0 79 -20q18 -10 31 -20l-25 -55q-11 7 -24 15q-32 15 -61 15q-51 0 -83 -37.5t-32 -107.5v-20h170v-65h-170v-450q0 -93 -48 -144t-132 -51q-41 0 -73 17q-16 7 -27 18l20 55q16 -10 25 -13q26 -12 55 -12
q47 0 76 34t29 96z" />
    <glyph glyph-name="Scommaaccent" unicode="&#x218;" horiz-adv-x="625" 
d="M575 195q0 -93 -73 -156.5t-197 -63.5q-112 0 -198 57q-36 23 -67 58l45 55q26 -30 59 -53q75 -52 161 -52q84 0 134.5 45t50.5 110q0 47 -42 76.5t-102.5 47t-121 38t-102.5 63.5t-42 110q0 78 68.5 136.5t176.5 58.5q84 0 166 -48q33 -19 64 -47v-140h-70v105
q-22 20 -44 32q-58 33 -116 33q-70 0 -115 -39.5t-45 -91.5q0 -34 22.5 -58.5t59 -39.5t80 -28.5t87 -29t80 -36.5t59 -57t22.5 -85zM265 -140q0 23 14.5 36.5t40.5 13.5q19 0 34.5 -17.5t15.5 -42.5q0 -57 -40 -103q-17 -18 -40 -32l-15 30q10 7 20 19q20 22 20 46
q-23 0 -36.5 13.5t-13.5 36.5z" />
    <glyph glyph-name="scommaaccent" unicode="&#x219;" horiz-adv-x="530" 
d="M480 145q0 -72 -58.5 -118.5t-166.5 -46.5q-91 0 -160 52q-33 23 -55 53l45 45q17 -25 44 -45q57 -45 126 -45q68 0 106.5 30.5t38.5 74.5q0 31 -34 50.5t-82.5 31t-97 25.5t-82.5 46t-34 82q0 64 54 107t151 43q69 0 141 -43q30 -18 54 -42v-95h-70v70q-19 17 -34 25
q-48 25 -91 25q-57 0 -91 -27t-34 -63q0 -31 34 -50.5t82.5 -31t97 -25.5t82.5 -46t34 -82zM210 -140q0 23 14.5 36.5t40.5 13.5q19 0 34.5 -17.5t15.5 -42.5q0 -57 -40 -103q-17 -18 -40 -32l-15 30q10 7 20 19q20 22 20 46q-23 0 -36.5 13.5t-13.5 36.5z" />
    <glyph glyph-name="afii57929" unicode="&#x2bc;" horiz-adv-x="185" 
d="M40 665q0 23 14.5 36.5t40.5 13.5q19 0 34.5 -17.5t15.5 -42.5q0 -57 -40 -103q-17 -18 -40 -32l-15 30q10 7 20 19q20 22 20 46q-23 0 -36.5 13.5t-13.5 36.5z" />
    <glyph glyph-name="circumflex" unicode="&#x2c6;" horiz-adv-x="465" 
d="M40 565l155 205h75l155 -205h-75l-115 145h-5l-115 -145h-75z" />
    <glyph glyph-name="caron" unicode="&#x2c7;" horiz-adv-x="465" 
d="M195 565l-155 205h75l115 -145h5l115 145h75l-155 -205h-75z" />
    <glyph glyph-name="breve" unicode="&#x2d8;" horiz-adv-x="430" 
d="M215 645q49 0 79.5 30.5t30.5 79.5h65q0 -79 -48 -127t-127 -48t-127 48t-48 127h65q0 -49 30.5 -79.5t79.5 -30.5z" />
    <glyph glyph-name="dotaccent" unicode="&#x2d9;" horiz-adv-x="190" 
d="M150 665q0 -23 -16 -39t-39 -16t-39 16t-16 39t16 39t39 16t39 -16t16 -39z" />
    <glyph glyph-name="ring" unicode="&#x2da;" horiz-adv-x="360" 
d="M100 700q0 -34 23 -57t57 -23t57 23t23 57t-23 57t-57 23t-57 -23t-23 -57zM320 700q0 -53 -40.5 -91.5t-99.5 -38.5t-99.5 38.5t-40.5 91.5t40.5 91.5t99.5 38.5t99.5 -38.5t40.5 -91.5z" />
    <glyph glyph-name="ogonek" unicode="&#x2db;" horiz-adv-x="300" 
d="M165 -265q-56 0 -90.5 32.5t-34.5 82.5q0 66 70 114q32 21 70 36h75q-44 -20 -75 -43q-75 -52 -75 -107q0 -30 16.5 -47.5t43.5 -17.5q32 0 54 12q7 3 21 13l20 -45q-12 -9 -27 -15q-32 -15 -68 -15z" />
    <glyph glyph-name="tilde" unicode="&#x2dc;" horiz-adv-x="430" 
d="M290 650q16 0 28 14t12 36v40h60v-40q0 -52 -27 -81t-73 -29q-27 0 -50 15.5t-36.5 34.5t-30.5 34.5t-33 15.5t-28 -14t-12 -36v-40h-60v40q0 52 27 81t73 29q27 0 50 -15.5t36.5 -34.5t30.5 -34.5t33 -15.5z" />
    <glyph glyph-name="hungarumlaut" unicode="&#x2dd;" horiz-adv-x="450" 
d="M140 770h85l-130 -200h-55zM325 770h85l-130 -200h-55z" />
    <glyph glyph-name="afii10023" unicode="&#x401;" horiz-adv-x="710" 
d="M35 0v70h110v560h-110v70h605v-220h-75v150h-340v-235h240v-70h-240v-255h340v150h75v-220h-605zM315 865q0 -23 -13.5 -36.5t-36.5 -13.5t-36.5 13.5t-13.5 36.5t13.5 36.5t36.5 13.5t36.5 -13.5t13.5 -36.5zM525 865q0 -23 -13.5 -36.5t-36.5 -13.5t-36.5 13.5
t-13.5 36.5t13.5 36.5t36.5 13.5t36.5 -13.5t13.5 -36.5z" />
    <glyph glyph-name="afii10051" unicode="&#x402;" horiz-adv-x="845" 
d="M720 210q0 89 -50.5 142t-129.5 53q-64 0 -128 -30q-31 -15 -52 -30v-275h110v-70h-300v70h110v560h-165v-160h-75v230h540v-70h-220v-210q25 15 52 25q67 25 128 25q120 0 192.5 -71.5t72.5 -188.5q0 -134 -108 -204q-50 -33 -107 -46l-20 60q44 11 75 35q75 55 75 155z
" />
    <glyph glyph-name="afii10052" unicode="&#x403;" horiz-adv-x="655" 
d="M35 0v70h110v560h-110v70h580v-230h-75v160h-315v-560h110v-70h-300zM420 970h90l-130 -200h-60z" />
    <glyph glyph-name="afii10053" unicode="&#x404;" horiz-adv-x="760" 
d="M690 610v-145h-75v115q-19 21 -48 40q-64 40 -142 40q-119 0 -199 -76.5t-94 -198.5h333v-70h-333q14 -122 94 -198.5t199 -76.5q93 0 172 60q36 26 63 60l50 -50q-33 -40 -73 -68q-92 -67 -212 -67q-165 0 -272.5 106.5t-107.5 268.5t107.5 268.5t272.5 106.5
q100 0 194 -58q38 -24 71 -57z" />
    <glyph glyph-name="afii10054" unicode="&#x405;" horiz-adv-x="625" 
d="M575 195q0 -93 -73 -156.5t-197 -63.5q-112 0 -198 57q-36 23 -67 58l45 55q26 -30 59 -53q75 -52 161 -52q84 0 134.5 45t50.5 110q0 47 -42 76.5t-102.5 47t-121 38t-102.5 63.5t-42 110q0 78 68.5 136.5t176.5 58.5q84 0 166 -48q33 -19 64 -47v-140h-70v105
q-22 20 -44 32q-58 33 -116 33q-70 0 -115 -39.5t-45 -91.5q0 -34 22.5 -58.5t59 -39.5t80 -28.5t87 -29t80 -36.5t59 -57t22.5 -85z" />
    <glyph glyph-name="afii10055" unicode="&#x406;" horiz-adv-x="390" 
d="M235 630v-560h120v-70h-320v70h120v560h-120v70h320v-70h-120z" />
    <glyph glyph-name="afii10056" unicode="&#x407;" horiz-adv-x="380" 
d="M231 630v-560h120v-70h-320v70h120v560h-120v70h320v-70h-120zM136 860q0 -23 -13.5 -36.5t-36.5 -13.5t-36.5 13.5t-13.5 36.5t13.5 36.5t36.5 13.5t36.5 -13.5t13.5 -36.5zM346 860q0 -23 -13.5 -36.5t-36.5 -13.5t-36.5 13.5t-13.5 36.5t13.5 36.5t36.5 13.5
t36.5 -13.5t13.5 -36.5z" />
    <glyph glyph-name="afii10057" unicode="&#x408;" horiz-adv-x="496" 
d="M271 210v420h-120v70h320v-70h-120v-420q0 -106 -59 -170.5t-151 -64.5q-56 0 -101 27q-23 12 -40 28l36 60q11 -11 30 -23q38 -22 75 -22q59 0 94.5 42t35.5 123z" />
    <glyph glyph-name="afii10058" unicode="&#x409;" horiz-adv-x="1115" 
d="M335 630l-44 -380q-17 -138 -73 -206.5t-138 -68.5q-27 0 -57 10q-16 6 -23 10l20 65q4 -2 17 -8q19 -7 43 -7q45 0 81 50t49 155l45 380h-105v70h615v-70h-110v-200h180q117 0 183.5 -59.5t66.5 -155.5t-66.5 -155.5t-183.5 -59.5h-370v70h110v560h-240zM655 360v-290
h180q77 0 121 40t44 105t-44 105t-121 40h-180z" />
    <glyph glyph-name="afii10059" unicode="&#x40a;" horiz-adv-x="1120" 
d="M225 700v-280h340v210h-110v70h300v-70h-110v-210h200q114 0 179.5 -59t65.5 -151t-65.5 -151t-179.5 -59h-280v350h-340v-280h110v-70h-300v70h110v560h-110v70h190zM645 350v-280h200q73 0 116.5 39.5t43.5 100.5t-43.5 100.5t-116.5 39.5h-200z" />
    <glyph glyph-name="afii10060" unicode="&#x40b;" horiz-adv-x="900" 
d="M710 70v135q0 92 -50 146t-130 54q-65 0 -129 -30q-29 -13 -51 -30v-275h110v-70h-300v70h110v560h-165v-160h-75v230h540v-70h-220v-210q27 16 51 25q67 25 129 25q117 0 188.5 -72.5t71.5 -192.5v-135h110v-70h-300v70h110z" />
    <glyph glyph-name="afii10061" unicode="&#x40c;" horiz-adv-x="750" 
d="M390 325h-165v-255h110v-70h-300v70h110v560h-110v70h300v-70h-110v-235h160l195 305h145v-70h-100l-165 -260l190 -300h100v-70h-155zM460 970h90l-130 -200h-60z" />
    <glyph glyph-name="afii10062" unicode="&#x40e;" horiz-adv-x="735" 
d="M160 700l213 -455h4l203 455h155v-70h-100l-215 -470q-42 -91 -95 -138t-125 -47q-37 0 -64 12q-11 4 -26 13l20 65q6 -4 20 -10q24 -10 50 -10q84 0 130 115l-225 470h-105v70h160zM365 846q49 0 79.5 30.5t30.5 79.5h65q0 -79 -48 -127t-127 -48t-127 48t-48 127h65
q0 -49 30.5 -79.5t79.5 -30.5z" />
    <glyph glyph-name="afii10145" unicode="&#x40f;" horiz-adv-x="830" 
d="M795 0h-340v-150h-80v150h-340v70h110v560h-110v70h190v-630h380v560h-110v70h300v-70h-110v-560h110v-70z" />
    <glyph glyph-name="afii10017" unicode="&#x410;" horiz-adv-x="775" 
d="M595 70l-65 170h-285l-65 -170h95v-70h-275v70h95l245 630h95l245 -630h95v-70h-275v70h95zM385 620l-120 -320h245l-120 320h-5z" />
    <glyph glyph-name="afii10018" unicode="&#x411;" horiz-adv-x="725" 
d="M225 630v-210h210q114 0 179.5 -59t65.5 -151t-65.5 -151t-179.5 -59h-400v70h110v560h-110v70h590v-210h-75v140h-325zM225 350v-280h210q73 0 116.5 39.5t43.5 100.5t-43.5 100.5t-116.5 39.5h-210z" />
    <glyph glyph-name="afii10019" unicode="&#x412;" horiz-adv-x="715" 
d="M440 0h-405v70h110v560h-110v70h365q106 0 163 -50t57 -135q0 -74 -60 -111q-26 -16 -60 -24v-5q47 -7 87 -29q88 -49 88 -146q0 -84 -65 -142t-170 -58zM225 330v-260h215q66 0 108 38.5t42 91.5t-42 91.5t-108 38.5h-215zM225 630v-230h175q62 0 98.5 32.5t36.5 82.5
t-36.5 82.5t-98.5 32.5h-175z" />
    <glyph glyph-name="afii10020" unicode="&#x413;" horiz-adv-x="655" 
d="M35 0v70h110v560h-110v70h580v-230h-75v160h-315v-560h110v-70h-300z" />
    <glyph glyph-name="afii10021" unicode="&#x414;" horiz-adv-x="780" 
d="M670 0h-590v-150h-80v220h55q26 18 52 47q55 63 63 133l45 380h-105v70h640v-70h-110v-560h110v-220h-80v150zM145 75v-5h415v560h-265l-44 -380q-9 -74 -58 -131q-24 -27 -48 -44z" />
    <glyph glyph-name="afii10022" unicode="&#x415;" horiz-adv-x="710" 
d="M35 0v70h110v560h-110v70h605v-220h-75v150h-340v-235h240v-70h-240v-255h340v150h75v-220h-605z" />
    <glyph glyph-name="afii10024" unicode="&#x416;" horiz-adv-x="1090" 
d="M730 325h-145v-255h110v-70h-300v70h110v255h-145l-205 -325h-155v70h100l190 300l-165 260h-100v70h145l195 -305h140v235h-110v70h190v-305h140l195 305h145v-70h-100l-165 -260l190 -300h100v-70h-155z" />
    <glyph glyph-name="afii10025" unicode="&#x417;" horiz-adv-x="625" 
d="M305 -25q-112 0 -198 57q-36 23 -67 58l45 55q26 -30 59 -53q75 -52 161 -52q84 0 134.5 43t50.5 102t-50.5 102t-134.5 43h-90v70h95q69 0 114.5 39.5t45.5 90.5t-45.5 90.5t-114.5 39.5q-58 0 -116 -33q-22 -12 -44 -32v-105h-70v140q31 28 64 47q82 48 166 48
q108 0 176.5 -58.5t68.5 -136.5q0 -83 -78 -130q-36 -21 -77 -29v-6q47 -9 87 -32q88 -54 88 -148q0 -86 -74 -148t-196 -62z" />
    <glyph glyph-name="afii10026" unicode="&#x418;" horiz-adv-x="840" 
d="M35 0v70h110v560h-110v70h300v-70h-110v-495h5l385 565h190v-70h-110v-560h110v-70h-300v70h110v495h-5l-385 -565h-190z" />
    <glyph glyph-name="afii10027" unicode="&#x419;" horiz-adv-x="840" 
d="M35 0v70h110v560h-110v70h300v-70h-110v-495h5l385 565h190v-70h-110v-560h110v-70h-300v70h110v495h-5l-385 -565h-190zM420 850q49 0 79.5 30.5t30.5 79.5h65q0 -79 -48 -127t-127 -48t-127 48t-48 127h65q0 -49 30.5 -79.5t79.5 -30.5z" />
    <glyph glyph-name="afii10028" unicode="&#x41a;" horiz-adv-x="750" 
d="M390 325h-165v-255h110v-70h-300v70h110v560h-110v70h300v-70h-110v-235h160l195 305h145v-70h-100l-165 -260l190 -300h100v-70h-155z" />
    <glyph glyph-name="afii10029" unicode="&#x41b;" horiz-adv-x="825" 
d="M335 630l-44 -380q-17 -138 -73 -206.5t-138 -68.5q-27 0 -57 10q-16 6 -23 10l20 65q4 -2 17 -8q19 -7 43 -7q45 0 81 50t49 155l45 380h-105v70h640v-70h-110v-560h110v-70h-300v70h110v560h-265z" />
    <glyph glyph-name="afii10030" unicode="&#x41c;" horiz-adv-x="995" 
d="M765 565l-255 -355h-25l-255 355h-5v-495h110v-70h-300v70h110v560h-110v70h185l275 -380h5l275 380h185v-70h-110v-560h110v-70h-300v70h110v495h-5z" />
    <glyph glyph-name="afii10031" unicode="&#x41d;" horiz-adv-x="830" 
d="M225 700v-305h380v235h-110v70h300v-70h-110v-560h110v-70h-190v325h-380v-255h110v-70h-300v70h110v560h-110v70h190z" />
    <glyph glyph-name="afii10032" unicode="&#x41e;" horiz-adv-x="830" 
d="M700 350q0 133 -83 221.5t-202 88.5t-202 -88.5t-83 -221.5t83 -221.5t202 -88.5t202 88.5t83 221.5zM785 350q0 -161 -106 -268t-264 -107t-264 107t-106 268t106 268t264 107t264 -107t106 -268z" />
    <glyph glyph-name="afii10033" unicode="&#x41f;" horiz-adv-x="830" 
d="M35 700h760v-70h-110v-560h110v-70h-190v630h-380v-560h110v-70h-300v70h110v560h-110v70z" />
    <glyph glyph-name="afii10034" unicode="&#x420;" horiz-adv-x="700" 
d="M225 280v-210h110v-70h-300v70h110v560h-110v70h395q114 0 179.5 -59t65.5 -151t-65.5 -151t-179.5 -59h-205zM225 630v-280h205q74 0 117 39.5t43 100.5t-43 100.5t-117 39.5h-205z" />
    <glyph glyph-name="afii10035" unicode="&#x421;" horiz-adv-x="760" 
d="M690 610v-145h-75v115q-19 21 -48 40q-64 40 -142 40q-125 0 -210 -88t-85 -222t85 -222t210 -88q93 0 172 60q36 26 63 60l50 -50q-33 -40 -73 -68q-92 -67 -212 -67q-165 0 -272.5 106.5t-107.5 268.5t107.5 268.5t272.5 106.5q100 0 194 -58q38 -24 71 -57z" />
    <glyph glyph-name="afii10036" unicode="&#x422;" horiz-adv-x="720" 
d="M320 70v560h-195v-160h-75v230h620v-230h-75v160h-195v-560h110v-70h-300v70h110z" />
    <glyph glyph-name="afii10037" unicode="&#x423;" horiz-adv-x="735" 
d="M160 700l213 -455h4l203 455h155v-70h-100l-215 -470q-42 -91 -95 -138t-125 -47q-37 0 -64 12q-11 4 -26 13l20 65q6 -4 20 -10q24 -10 50 -10q84 0 130 115l-225 470h-105v70h160z" />
    <glyph glyph-name="afii10038" unicode="&#x424;" horiz-adv-x="900" 
d="M410 620v90h-110v70h190v-160h125q121 0 193 -65t72 -165t-72 -165t-193 -65h-125v-90h110v-70h-300v70h110v90h-125q-121 0 -193 65t-72 165t72 165t193 65h125zM410 550h-125q-86 0 -133 -43.5t-47 -116.5t47 -116.5t133 -43.5h125v320zM490 230h125q86 0 133 43.5
t47 116.5t-47 116.5t-133 43.5h-125v-320z" />
    <glyph glyph-name="afii10039" unicode="&#x425;" horiz-adv-x="725" 
d="M360 420h5l170 280h155v-70h-100l-165 -265l190 -295h100v-70h-155l-195 310h-5l-195 -310h-155v70h100l190 295l-165 265h-100v70h155z" />
    <glyph glyph-name="afii10040" unicode="&#x426;" horiz-adv-x="815" 
d="M785 -150h-80v150h-670v70h110v560h-110v70h190v-630h370v560h-110v70h300v-70h-110v-560h110v-220z" />
    <glyph glyph-name="afii10041" unicode="&#x427;" horiz-adv-x="800" 
d="M575 70v225q-27 -16 -51 -25q-62 -25 -129 -25q-117 0 -188.5 72.5t-71.5 192.5v120h-110v70h190v-190q0 -92 50 -146t130 -54q65 0 129 30q28 14 51 30v260h-110v70h300v-70h-110v-560h110v-70h-305v70h115z" />
    <glyph glyph-name="afii10042" unicode="&#x428;" horiz-adv-x="1130" 
d="M605 70h300v560h-110v70h300v-70h-110v-560h110v-70h-1060v70h110v560h-110v70h190v-630h300v560h-110v70h190v-630z" />
    <glyph glyph-name="afii10043" unicode="&#x429;" horiz-adv-x="1125" 
d="M605 70h300v560h-110v70h300v-70h-110v-560h110v-220h-80v150h-980v70h110v560h-110v70h190v-630h300v560h-110v70h190v-630z" />
    <glyph glyph-name="afii10044" unicode="&#x42a;" horiz-adv-x="785" 
d="M335 630v-200h170q117 0 183.5 -59.5t66.5 -155.5t-66.5 -155.5t-183.5 -59.5h-360v70h110v560h-150v-160h-75v230h415v-70h-110zM335 360v-290h170q77 0 121 40t44 105t-44 105t-121 40h-170z" />
    <glyph glyph-name="afii10045" unicode="&#x42b;" horiz-adv-x="1010" 
d="M785 70v560h-110v70h300v-70h-110v-560h110v-70h-300v70h110zM225 630v-200h170q117 0 183.5 -59.5t66.5 -155.5t-66.5 -155.5t-183.5 -59.5h-360v70h110v560h-110v70h300v-70h-110zM225 360v-290h170q77 0 121 40t44 105t-44 105t-121 40h-170z" />
    <glyph glyph-name="afii10046" unicode="&#x42c;" horiz-adv-x="695" 
d="M225 630v-200h190q117 0 183.5 -59.5t66.5 -155.5t-66.5 -155.5t-183.5 -59.5h-380v70h110v560h-110v70h300v-70h-110zM225 360v-290h190q77 0 121 40t44 105t-44 105t-121 40h-190z" />
    <glyph glyph-name="afii10047" unicode="&#x42d;" horiz-adv-x="760" 
d="M70 465v145q33 33 71 57q94 58 194 58q165 0 272.5 -106.5t107.5 -268.5t-107.5 -268.5t-272.5 -106.5q-120 0 -212 67q-40 28 -73 68l50 50q27 -34 63 -60q79 -60 172 -60q118 0 198.5 76.5t94.5 198.5h-333v70h333q-14 122 -94.5 198.5t-198.5 76.5q-78 0 -142 -40
q-29 -19 -48 -40v-115h-75z" />
    <glyph glyph-name="afii10048" unicode="&#x42e;" horiz-adv-x="1110" 
d="M225 630v-245h161q12 152 107 246t232 94q144 0 242 -104.5t98 -270.5t-98 -270.5t-242 -104.5q-137 0 -232 93.5t-107 246.5h-161v-245h110v-70h-300v70h110v560h-110v70h300v-70h-110zM980 350q0 134 -76.5 222t-178.5 88t-178.5 -88t-76.5 -222t77 -222t178 -88
q102 0 178.5 88t76.5 222z" />
    <glyph glyph-name="afii10049" unicode="&#x42f;" horiz-adv-x="755" 
d="M530 70v210h-195l-175 -280h-150v70h100l140 215v5q-46 11 -80 36q-80 58 -80 164q0 92 65.5 151t179.5 59h385v-70h-110v-560h110v-70h-300v70h110zM530 350v280h-195q-73 0 -116.5 -39.5t-43.5 -100.5t43.5 -100.5t116.5 -39.5h195z" />
    <glyph glyph-name="afii10065" unicode="&#x430;" horiz-adv-x="605" 
d="M495 330v-265h90v-65h-155l-5 70h-5q-26 -26 -54 -45q-65 -45 -126 -45q-94 0 -147 45t-53 115t53 115t147 45h180v30q0 60 -40 100t-100 40q-56 0 -106 -30q-22 -14 -39 -30l-40 50q16 16 47 35q64 35 138 35q96 0 155.5 -56.5t59.5 -143.5zM240 40q61 0 126 49
q32 25 54 50v96h-180q-55 0 -87.5 -27.5t-32.5 -67.5q0 -43 32.5 -71.5t87.5 -28.5z" />
    <glyph glyph-name="afii10066" unicode="&#x431;" horiz-adv-x="585" 
d="M35 250v90q0 291 235 340l125 20q37 6 77 29q15 9 28 21l35 -40q-14 -20 -34 -37q-48 -39 -106 -48l-125 -20q-68 -10 -116.5 -72t-48.5 -158h5q18 26 44 47q62 48 141 48q111 0 185.5 -71.5t74.5 -173.5t-74.5 -173.5t-185.5 -71.5q-119 0 -189.5 74.5t-70.5 195.5z
M475 225q0 78 -52.5 131.5t-127.5 53.5t-127.5 -53.5t-52.5 -131.5t52.5 -131.5t127.5 -53.5t127.5 53.5t52.5 131.5z" />
    <glyph glyph-name="afii10067" unicode="&#x432;" horiz-adv-x="580" 
d="M360 0h-330v65h90v380h-90v65h300q84 0 129.5 -39t45.5 -101q0 -47 -43 -78q-19 -13 -42 -17v-5q35 -6 62 -21q63 -35 63 -99q0 -66 -49 -108t-136 -42zM195 235v-170h165q52 0 78.5 23t26.5 62t-26.5 62t-78.5 23h-165zM195 445v-150h135q47 0 71 20t24 55t-24 55
t-71 20h-135z" />
    <glyph glyph-name="afii10068" unicode="&#x433;" horiz-adv-x="530" 
d="M430 320v125h-235v-380h90v-65h-255v65h90v380h-90v65h470v-190h-70z" />
    <glyph glyph-name="afii10069" unicode="&#x434;" horiz-adv-x="625" 
d="M75 0v-130h-75v195h40q21 12 39 30q40 40 46 90l30 260h-85v65h525v-65h-90v-380h90v-195h-75v130h-445zM230 445l-30 -260q-6 -50 -38 -88q-13 -16 -32 -27v-5h300v380h-200z" />
    <glyph glyph-name="afii10070" unicode="&#x435;" horiz-adv-x="585" 
d="M535 225h-415q0 -69 59.5 -127t130.5 -58q69 0 126 45q27 20 44 45l45 -45q-22 -30 -55 -53q-69 -52 -160 -52q-113 0 -191.5 79.5t-78.5 195.5q0 118 74.5 196.5t180.5 78.5q100 0 175 -72.5t75 -167.5q0 -26 -5 -46zM295 470q-68 0 -121.5 -54.5t-53.5 -125.5h350
q0 71 -53.5 125.5t-121.5 54.5z" />
    <glyph glyph-name="afii10072" unicode="&#x436;" horiz-adv-x="865" 
d="M395 295v150h-95v65h170v-215h100l135 215h125v-65h-75l-115 -180l135 -200h85v-65h-135l-150 230h-105v-165h90v-65h-255v65h90v165h-105l-150 -230h-135v65h85l135 200l-115 180h-75v65h125l135 -215h100z" />
    <glyph glyph-name="afii10073" unicode="&#x437;" horiz-adv-x="515" 
d="M60 350v95q24 24 54 42q72 43 141 43q97 0 151 -43t54 -107q0 -57 -58 -89q-26 -13 -57 -21v-5q34 -9 62 -26q63 -39 63 -104q0 -64 -59 -109.5t-166 -45.5q-91 0 -160 52q-33 23 -55 53l45 45q17 -25 44 -45q57 -45 126 -45q67 0 106 29t39 66t-39 66t-106 29h-55v65h65
q57 0 91 26t34 59q0 36 -34 63t-91 27q-43 0 -91 -25q-15 -8 -34 -25v-70h-70z" />
    <glyph glyph-name="afii10074" unicode="&#x438;" horiz-adv-x="670" 
d="M470 395l-275 -395h-165v65h90v380h-90v65h255v-65h-90v-330h5l275 395h165v-65h-90v-380h90v-65h-255v65h90v330h-5z" />
    <glyph glyph-name="afii10075" unicode="&#x439;" horiz-adv-x="670" 
d="M470 395l-275 -395h-165v65h90v380h-90v65h255v-65h-90v-330h5l275 395h165v-65h-90v-380h90v-65h-255v65h90v330h-5zM340 646q45 0 72.5 27.5t27.5 72.5h60q0 -72 -44 -116t-116 -44t-116 44t-44 116h60q0 -45 27.5 -72.5t72.5 -27.5z" />
    <glyph glyph-name="afii10076" unicode="&#x43a;" horiz-adv-x="605" 
d="M195 445v-150h115l135 215h125v-65h-75l-115 -180l135 -200h85v-65h-135l-150 230h-120v-165h90v-65h-255v65h90v380h-90v65h255v-65h-90z" />
    <glyph glyph-name="afii10077" unicode="&#x43b;" horiz-adv-x="670" 
d="M640 0h-255v65h90v380h-200l-30 -260q-12 -104 -59 -157t-121 -53q-30 0 -48 7q-13 6 -17 8l20 60q8 -4 13 -5q15 -5 32 -5q36 0 66.5 38.5t38.5 106.5l30 260h-85v65h525v-65h-90v-380h90v-65z" />
    <glyph glyph-name="afii10078" unicode="&#x43c;" horiz-adv-x="770" 
d="M570 385l-170 -225h-30l-170 225h-5v-320h90v-65h-255v65h90v380h-90v65h160l193 -255h4l193 255h160v-65h-90v-380h90v-65h-255v65h90v320h-5z" />
    <glyph glyph-name="afii10079" unicode="&#x43d;" horiz-adv-x="660" 
d="M630 0h-165v225h-270v-160h90v-65h-255v65h90v380h-90v65h165v-220h270v155h-90v65h255v-65h-90v-380h90v-65z" />
    <glyph glyph-name="afii10080" unicode="&#x43e;" horiz-adv-x="620" 
d="M40 255q0 116 78.5 195.5t191.5 79.5t191.5 -79.5t78.5 -195.5t-78.5 -195.5t-191.5 -79.5t-191.5 79.5t-78.5 195.5zM500 255q0 92 -56.5 153.5t-133.5 61.5t-133.5 -61.5t-56.5 -153.5t56.5 -153.5t133.5 -61.5t133.5 61.5t56.5 153.5z" />
    <glyph glyph-name="afii10081" unicode="&#x43f;" horiz-adv-x="660" 
d="M465 0v445h-270v-380h90v-65h-255v65h90v380h-90v65h600v-65h-90v-380h90v-65h-165z" />
    <glyph glyph-name="afii10082" unicode="&#x440;" horiz-adv-x="665" 
d="M20 -200v65h90v580h-90v65h155l5 -70h5q23 25 53 45q65 45 132 45q106 0 180.5 -77t74.5 -188t-74.5 -188t-180.5 -77q-65 0 -129 40q-30 19 -51 40h-5v-215h90v-65h-255zM370 470q-66 0 -132 -50q-33 -26 -53 -50v-210q20 -24 53 -50q66 -50 132 -50q70 0 122.5 58.5
t52.5 146.5t-52.5 146.5t-122.5 58.5z" />
    <glyph glyph-name="afii10083" unicode="&#x441;" horiz-adv-x="580" 
d="M450 330v90q-22 18 -35 25q-48 25 -95 25q-83 0 -141.5 -61.5t-58.5 -153.5t58.5 -153.5t141.5 -61.5q69 0 126 45q27 20 44 45l45 -45q-22 -30 -55 -53q-69 -52 -160 -52q-120 0 -200 79t-80 196t80 196t200 79q73 0 145 -43q30 -17 55 -42v-115h-70z" />
    <glyph glyph-name="afii10084" unicode="&#x442;" horiz-adv-x="585" 
d="M545 510v-190h-70v125h-145v-380h90v-65h-255v65h90v380h-145v-125h-70v190h505z" />
    <glyph glyph-name="afii10085" unicode="&#x443;" horiz-adv-x="595" 
d="M265 0l-180 445h-85v65h145l160 -410h5l140 410h145v-65h-85l-160 -445q-42 -115 -94.5 -167.5t-130.5 -52.5q-41 0 -73 17q-16 7 -27 18l20 55q16 -10 25 -13q26 -12 55 -12q92 0 140 155z" />
    <glyph glyph-name="afii10086" unicode="&#x444;" horiz-adv-x="715" 
d="M395 445v-380q97 8 151 59t54 131t-54 131t-151 59zM320 510v125h-90v65h165v-190q129 -8 207 -79.5t78 -175.5t-78 -175.5t-207 -79.5v-135h90v-65h-255v65h90v135q-129 8 -207 79.5t-78 175.5t78 175.5t207 79.5zM320 65v380q-97 -8 -151 -59t-54 -131t54 -131t151 -59
z" />
    <glyph glyph-name="afii10087" unicode="&#x445;" horiz-adv-x="565" 
d="M420 0l-135 215h-5l-135 -215h-135v65h85l130 200l-115 180h-75v65h125l120 -195h5l120 195h125v-65h-75l-115 -180l130 -200h85v-65h-135z" />
    <glyph glyph-name="afii10088" unicode="&#x446;" horiz-adv-x="650" 
d="M530 65h90v-195h-75v130h-515v65h90v380h-90v65h165v-445h260v380h-90v65h255v-65h-90v-380z" />
    <glyph glyph-name="afii10089" unicode="&#x447;" horiz-adv-x="630" 
d="M600 0h-255v65h90v150q-21 -12 -39 -20q-44 -20 -91 -20q-94 0 -144.5 50.5t-50.5 144.5v75h-90v65h165v-140q0 -63 31.5 -96.5t88.5 -33.5q43 0 91 22q25 12 39 23v160h-90v65h255v-65h-90v-380h90v-65z" />
    <glyph glyph-name="afii10090" unicode="&#x448;" horiz-adv-x="905" 
d="M875 65v-65h-845v65h90v380h-90v65h165v-445h220v380h-90v65h165v-445h220v380h-90v65h255v-65h-90v-380h90z" />
    <glyph glyph-name="afii10091" unicode="&#x449;" horiz-adv-x="905" 
d="M875 65v-195h-75v130h-770v65h90v380h-90v65h165v-445h220v380h-90v65h165v-445h220v380h-90v65h255v-65h-90v-380h90z" />
    <glyph glyph-name="afii10092" unicode="&#x44a;" horiz-adv-x="625" 
d="M30 510h350v-65h-90v-125h120q91 0 143 -45t52 -115t-52 -115t-143 -45h-285v65h90v380h-115v-125h-70v190zM290 255v-190h120q56 0 85.5 26t29.5 69t-29.5 69t-85.5 26h-120z" />
    <glyph glyph-name="afii10093" unicode="&#x44b;" horiz-adv-x="820" 
d="M30 510h255v-65h-90v-125h120q91 0 143 -45t52 -115t-52 -115t-143 -45h-285v65h90v380h-90v65zM535 510h255v-65h-90v-380h90v-65h-255v65h90v380h-90v65zM195 255v-190h120q56 0 85.5 26t29.5 69t-29.5 69t-85.5 26h-120z" />
    <glyph glyph-name="afii10094" unicode="&#x44c;" horiz-adv-x="550" 
d="M30 510h255v-65h-90v-125h140q91 0 143 -45t52 -115t-52 -115t-143 -45h-305v65h90v380h-90v65zM195 255v-190h140q56 0 85.5 26t29.5 69t-29.5 69t-85.5 26h-140z" />
    <glyph glyph-name="afii10095" unicode="&#x44d;" horiz-adv-x="580" 
d="M130 420v-90h-70v115q25 25 55 42q72 43 145 43q119 0 199.5 -79t80.5 -196t-80.5 -196t-199.5 -79q-91 0 -160 52q-33 23 -55 53l45 45q17 -25 44 -45q57 -45 126 -45q78 0 133 52.5t65 132.5h-233v60h233q-10 80 -65 132.5t-133 52.5q-47 0 -95 -25q-18 -10 -35 -25z
" />
    <glyph glyph-name="afii10096" unicode="&#x44e;" horiz-adv-x="880" 
d="M285 0h-255v65h90v380h-90v65h255v-65h-90v-160h135q12 110 81 177.5t174 67.5q110 0 182.5 -76.5t72.5 -198.5t-72.5 -198.5t-182.5 -76.5q-104 0 -173.5 66.5t-81.5 173.5h-135v-155h90v-65zM760 255q0 98 -50.5 156.5t-124.5 58.5t-124.5 -58.5t-50.5 -156.5
t50.5 -156.5t124.5 -58.5t124.5 58.5t50.5 156.5z" />
    <glyph glyph-name="afii10097" unicode="&#x44f;" horiz-adv-x="600" 
d="M570 0h-255v65h90v135h-140l-130 -200h-135v65h85l95 140v5q-33 11 -55 29q-55 45 -55 116q0 66 51.5 110.5t138.5 44.5h310v-65h-90v-380h90v-65zM405 265v180h-145q-52 0 -81 -25t-29 -65t29 -65t81 -25h145z" />
    <glyph glyph-name="afii10071" unicode="&#x451;" horiz-adv-x="585" 
d="M535 225h-415q0 -69 59.5 -127t130.5 -58q69 0 126 45q27 20 44 45l45 -45q-22 -30 -55 -53q-69 -52 -160 -52q-113 0 -191.5 79.5t-78.5 195.5q0 118 74.5 196.5t180.5 78.5q100 0 175 -72.5t75 -167.5q0 -26 -5 -46zM295 470q-68 0 -121.5 -54.5t-53.5 -125.5h350
q0 71 -53.5 125.5t-121.5 54.5zM240 670q0 -23 -13.5 -36.5t-36.5 -13.5t-36.5 13.5t-13.5 36.5t13.5 36.5t36.5 13.5t36.5 -13.5t13.5 -36.5zM450 670q0 -23 -13.5 -36.5t-36.5 -13.5t-36.5 13.5t-13.5 36.5t13.5 36.5t36.5 13.5t36.5 -13.5t13.5 -36.5z" />
    <glyph glyph-name="afii10099" unicode="&#x452;" horiz-adv-x="620" 
d="M575 255v-55q0 -123 -90 -191q-43 -33 -90 -49l-25 55q37 11 65 36q65 55 65 149v55q0 63 -34 99t-91 36q-60 0 -126 -50q-32 -25 -54 -50v-225h90v-65h-255v65h90v480h-90v65h90l40 150h35v-150h170v-65h-170v-180h5q25 25 52 42q66 43 123 43q90 0 145 -54t55 -141z
" />
    <glyph glyph-name="afii10100" unicode="&#x453;" horiz-adv-x="540" 
d="M430 320v125h-235v-380h90v-65h-255v65h90v380h-90v65h470v-190h-70zM355 780h90l-130 -200h-60z" />
    <glyph glyph-name="afii10101" unicode="&#x454;" horiz-adv-x="580" 
d="M450 330v90q-22 18 -35 25q-48 25 -95 25q-78 0 -133 -52.5t-65 -132.5h233v-60h-233q10 -80 65 -132.5t133 -52.5q69 0 126 45q27 20 44 45l45 -45q-22 -30 -55 -53q-69 -52 -160 -52q-120 0 -200 79t-80 196t80 196t200 79q73 0 145 -43q30 -17 55 -42v-115h-70z" />
    <glyph glyph-name="afii10102" unicode="&#x455;" horiz-adv-x="530" 
d="M480 145q0 -72 -58.5 -118.5t-166.5 -46.5q-91 0 -160 52q-33 23 -55 53l45 45q17 -25 44 -45q57 -45 126 -45q68 0 106.5 30.5t38.5 74.5q0 31 -34.5 50.5t-83.5 31t-98.5 25.5t-84 46t-34.5 82q0 64 54 107t151 43q69 0 141 -43q30 -18 54 -42v-95h-70v70
q-19 17 -34 25q-48 25 -91 25q-57 0 -91 -27t-34 -63q0 -31 34.5 -50.5t83.5 -31t98.5 -25.5t84 -46t34.5 -82z" />
    <glyph glyph-name="afii10103" unicode="&#x456;" horiz-adv-x="305" 
d="M30 510h165v-445h90v-65h-255v65h90v380h-90v65zM210 665q0 -23 -16 -39t-39 -16t-39 16t-16 39t16 39t39 16t39 -16t16 -39z" />
    <glyph glyph-name="afii10104" unicode="&#x457;" horiz-adv-x="310" 
d="M35 510h165v-445h90v-65h-255v65h90v380h-90v65zM101 661q0 -23 -13.5 -36.5t-36.5 -13.5t-36.5 13.5t-13.5 36.5t13.5 36.5t36.5 13.5t36.5 -13.5t13.5 -36.5zM311 661q0 -23 -13.5 -36.5t-36.5 -13.5t-36.5 13.5t-13.5 36.5t13.5 36.5t36.5 13.5t36.5 -13.5t13.5 -36.5
z" />
    <glyph glyph-name="afii10105" unicode="&#x458;" horiz-adv-x="310" 
d="M145 -25v470h-90v65h165v-535q0 -93 -48 -144t-132 -51q-41 0 -73 17q-17 7 -27 18l20 55q16 -10 25 -13q26 -12 55 -12q47 0 76 34t29 96zM235 665q0 -23 -16 -39t-39 -16t-39 16t-16 39t16 39t39 16t39 -16t16 -39z" />
    <glyph glyph-name="afii10106" unicode="&#x459;" horiz-adv-x="885" 
d="M665 0h-300v65h90v380h-180l-30 -260q-12 -104 -59 -157t-121 -53q-30 0 -48 7q-13 6 -17 8l20 60q8 -4 13 -5q15 -5 32 -5q36 0 66.5 38.5t38.5 106.5l30 260h-85v65h505v-65h-90v-125h135q91 0 143 -45t52 -115t-52 -115t-143 -45zM530 255v-190h135q56 0 85.5 26
t29.5 69t-29.5 69t-85.5 26h-135z" />
    <glyph glyph-name="afii10107" unicode="&#x45a;" horiz-adv-x="880" 
d="M605 445h-90v-135h150q91 0 140.5 -42.5t49.5 -112.5t-49.5 -112.5t-140.5 -42.5h-225v245h-245v-180h90v-65h-255v65h90v380h-90v65h165v-200h245v135h-90v65h255v-65zM515 245v-180h150q110 0 110 90t-110 90h-150z" />
    <glyph glyph-name="afii10108" unicode="&#x45b;" 
d="M575 65h90v-65h-255v65h90v190q0 63 -34 99t-91 36q-60 0 -126 -50q-32 -25 -54 -50v-225h90v-65h-255v65h90v480h-90v65h90l40 150h35v-150h170v-65h-170v-180h5q25 25 52 42q66 43 123 43q90 0 145 -54t55 -141v-190z" />
    <glyph glyph-name="afii10109" unicode="&#x45c;" horiz-adv-x="605" 
d="M195 445v-150h115l135 215h125v-65h-75l-115 -180l135 -200h85v-65h-135l-150 230h-120v-165h90v-65h-255v65h90v380h-90v65h255v-65h-90zM380 780h90l-130 -200h-60z" />
    <glyph glyph-name="afii10110" unicode="&#x45e;" horiz-adv-x="595" 
d="M265 0l-180 445h-85v65h145l160 -410h5l140 410h145v-65h-85l-160 -445q-42 -115 -94.5 -167.5t-130.5 -52.5q-41 0 -73 17q-16 7 -27 18l20 55q16 -10 25 -13q26 -12 55 -12q92 0 140 155zM300 646q45 0 72.5 27.5t27.5 72.5h60q0 -72 -44 -116t-116 -44t-116 44
t-44 116h60q0 -45 27.5 -72.5t72.5 -27.5z" />
    <glyph glyph-name="afii10193" unicode="&#x45f;" horiz-adv-x="660" 
d="M195 510v-445h270v380h-90v65h255v-65h-90v-380h90v-65h-265v-130h-70v130h-265v65h90v380h-90v65h165z" />
    <glyph glyph-name="afii10050" unicode="&#x490;" horiz-adv-x="645" 
d="M35 700h505v121h75v-191h-390v-560h110v-70h-300v70h110v560h-110v70z" />
    <glyph glyph-name="afii10098" unicode="&#x491;" horiz-adv-x="520" 
d="M195 445v-380h90v-65h-255v65h90v380h-90v65h400v115h70v-180h-305z" />
    <glyph glyph-name="uni1E9E" unicode="&#x1e9e;" horiz-adv-x="750" 
d="M445 320h-75v65l190 240v5h-160q-83 0 -141.5 -61.5t-58.5 -153.5v-415h-190v70h110v345q0 123 79.5 204t200.5 81h255v-70l-195 -240v-5q109 0 174.5 -58.5t65.5 -146.5q0 -90 -67.5 -147.5t-187.5 -57.5q-58 0 -112 22q-27 12 -43 23l25 60q20 -12 38 -20
q42 -20 92 -20q76 0 123 41t47 99t-47 99t-123 41z" />
    <glyph glyph-name="endash" unicode="&#x2013;" horiz-adv-x="645" 
d="M40 345h565v-65h-565v65z" />
    <glyph glyph-name="emdash" unicode="&#x2014;" horiz-adv-x="850" 
d="M40 345h770v-65h-770v65z" />
    <glyph glyph-name="quoteleft" unicode="&#x2018;" horiz-adv-x="220" 
d="M165 555q0 -23 -16 -39t-39 -16q-24 0 -39.5 18.5t-15.5 51.5q0 63 42 109q18 19 43 31l15 -30q-11 -6 -23 -18q-22 -24 -22 -52q23 0 39 -16t16 -39z" />
    <glyph glyph-name="quoteright" unicode="&#x2019;" horiz-adv-x="220" 
d="M55 655q0 23 16 39t39 16q24 0 39.5 -18.5t15.5 -51.5q0 -62 -43 -109q-17 -19 -42 -31l-15 30q11 7 22 18q23 25 23 52q-23 0 -39 16t-16 39z" />
    <glyph glyph-name="quotesinglbase" unicode="&#x201a;" horiz-adv-x="220" 
d="M55 45q0 23 16 39t39 16q24 0 39.5 -18.5t15.5 -51.5q0 -62 -43 -109q-17 -19 -42 -31l-15 30q11 7 22 18q23 25 23 52q-23 0 -39 16t-16 39z" />
    <glyph glyph-name="quotedblleft" unicode="&#x201c;" horiz-adv-x="395" 
d="M340 555q0 -23 -16 -39t-39 -16q-24 0 -39.5 18.5t-15.5 51.5q0 63 42 109q18 19 43 31l15 -30q-11 -6 -23 -18q-22 -24 -22 -52q23 0 39 -16t16 -39zM165 555q0 -23 -16 -39t-39 -16q-24 0 -39.5 18.5t-15.5 51.5q0 63 42 109q18 19 43 31l15 -30q-11 -6 -23 -18
q-22 -24 -22 -52q23 0 39 -16t16 -39z" />
    <glyph glyph-name="quotedblright" unicode="&#x201d;" horiz-adv-x="395" 
d="M55 655q0 23 16 39t39 16q24 0 39.5 -18.5t15.5 -51.5q0 -62 -43 -109q-17 -19 -42 -31l-15 30q11 7 22 18q23 25 23 52q-23 0 -39 16t-16 39zM230 655q0 23 16 39t39 16q24 0 39.5 -18.5t15.5 -51.5q0 -62 -43 -109q-17 -19 -42 -31l-15 30q11 7 22 18q23 25 23 52
q-23 0 -39 16t-16 39z" />
    <glyph glyph-name="quotedblbase" unicode="&#x201e;" horiz-adv-x="395" 
d="M55 45q0 23 16 39t39 16q24 0 39.5 -18.5t15.5 -51.5q0 -62 -43 -109q-17 -19 -42 -31l-15 30q11 7 22 18q23 25 23 52q-23 0 -39 16t-16 39zM230 45q0 23 16 39t39 16q24 0 39.5 -18.5t15.5 -51.5q0 -62 -43 -109q-17 -19 -42 -31l-15 30q11 7 22 18q23 25 23 52
q-23 0 -39 16t-16 39z" />
    <glyph glyph-name="dagger" unicode="&#x2020;" horiz-adv-x="590" 
d="M255 435v265h80v-265h215v-70h-215v-545h-80v545h-215v70h215z" />
    <glyph glyph-name="daggerdbl" unicode="&#x2021;" horiz-adv-x="590" 
d="M255 480v220h80v-220h215v-70h-215v-300h215v-70h-215v-220h-80v220h-215v70h215v300h-215v70h215z" />
    <glyph glyph-name="bullet" unicode="&#x2022;" horiz-adv-x="360" 
d="M270 310q0 -38 -26 -64t-64 -26t-64 26t-26 64t26 64t64 26t64 -26t26 -64z" />
    <glyph glyph-name="ellipsis" unicode="&#x2026;" horiz-adv-x="690" 
d="M165 45q0 -23 -16 -39t-39 -16t-39 16t-16 39t16 39t39 16t39 -16t16 -39zM400 45q0 -23 -16 -39t-39 -16t-39 16t-16 39t16 39t39 16t39 -16t16 -39zM635 45q0 -23 -16 -39t-39 -16t-39 16t-16 39t16 39t39 16t39 -16t16 -39z" />
    <glyph glyph-name="perthousand" unicode="&#x2030;" horiz-adv-x="1275" 
d="M270 0h-85l440 700h85zM215 420q43 0 74 34.5t31 85.5t-31 85.5t-74 34.5t-74 -34.5t-31 -85.5t31 -85.5t74 -34.5zM215 360q-72 0 -123.5 52.5t-51.5 127.5t51.5 127.5t123.5 52.5t123.5 -52.5t51.5 -127.5t-51.5 -127.5t-123.5 -52.5zM660 40q43 0 74 34.5t31 85.5
t-31 85.5t-74 34.5t-74 -34.5t-31 -85.5t31 -85.5t74 -34.5zM660 -20q-72 0 -123.5 52.5t-51.5 127.5t51.5 127.5t123.5 52.5t123.5 -52.5t51.5 -127.5t-51.5 -127.5t-123.5 -52.5zM1060 40q43 0 74 34.5t31 85.5t-31 85.5t-74 34.5t-74 -34.5t-31 -85.5t31 -85.5t74 -34.5z
M1060 -20q-72 0 -123.5 52.5t-51.5 127.5t51.5 127.5t123.5 52.5t123.5 -52.5t51.5 -127.5t-51.5 -127.5t-123.5 -52.5z" />
    <glyph glyph-name="guilsinglleft" unicode="&#x2039;" horiz-adv-x="350" 
d="M300 490l-165 -230l165 -230h-85l-165 230l165 230h85z" />
    <glyph glyph-name="guilsinglright" unicode="&#x203a;" horiz-adv-x="340" 
d="M225 260l-165 230h85l165 -230l-165 -230h-85z" />
    <glyph glyph-name="fraction" unicode="&#x2044;" horiz-adv-x="605" 
d="M125 0h-85l440 700h85z" />
    <glyph glyph-name="foursuperior" unicode="&#x2074;" horiz-adv-x="365" 
d="M30 475l125 225h65l-120 -219v-6h125v100h60v-100h50v-50h-50v-75h-60v75h-195v50z" />
    <glyph glyph-name="Euro" unicode="&#x20ac;" horiz-adv-x="835" 
d="M30 395v65h115q37 117 130 191t235 74q100 0 194 -58q38 -24 71 -57v-145h-75v115q-20 23 -47 40q-64 40 -143 40q-102 0 -176 -59.5t-99 -140.5h325v-65h-340l-3 -15q-2 -18 -2 -30t2 -30l3 -15h340v-65h-325q24 -81 98.5 -140.5t176.5 -59.5q93 0 172 60q36 26 63 60
l50 -50q-33 -40 -73 -68q-92 -67 -212 -67q-142 0 -239.5 78t-125.5 187h-115v65h105l-3 15q-2 18 -2 30t2 30l3 15h-105z" />
    <glyph glyph-name="uni20B4" unicode="&#x20b4;" 
d="M635 390h-585v60h428q17 20 17 50q0 72 -45 116t-120 44q-68 0 -134 -35q-32 -19 -51 -35l-35 60q27 22 57 37q74 38 163 38q110 0 180 -65t70 -160q0 -30 -7 -50h62v-60zM50 310h585v-60h-428q-17 -20 -17 -50q0 -72 45 -116t120 -44q73 0 134 35q27 14 51 35l35 -60
q-28 -23 -58 -38q-76 -37 -162 -37q-110 0 -180 65t-70 160q0 30 7 50h-62v60z" />
    <glyph glyph-name="uni20BD" unicode="&#x20bd;" horiz-adv-x="730" 
d="M60 300v70h120v260h-110v70h395q110 0 172.5 -55.5t62.5 -144.5t-62.5 -144.5t-172.5 -55.5h-205v-70h310v-70h-310v-90h110v-70h-300v70h110v90h-120v70h120v70h-120zM260 630v-260h205q71 0 110.5 36t39.5 94t-39.5 94t-110.5 36h-205z" />
    <glyph glyph-name="afii61352" unicode="&#x2116;" horiz-adv-x="1185" 
d="M810 270h320v-70h-320v70zM35 700h190l385 -560h5v560h80v-700h-80l-385 560h-5v-490h110v-70h-300v70h110v560h-110v70zM970 420q43 0 74 34.5t31 85.5t-31 85.5t-74 34.5t-74 -34.5t-31 -85.5t31 -85.5t74 -34.5zM970 360q-72 0 -123.5 52.5t-51.5 127.5t51.5 127.5
t123.5 52.5t123.5 -52.5t51.5 -127.5t-51.5 -127.5t-123.5 -52.5z" />
    <glyph glyph-name="trademark" unicode="&#x2122;" horiz-adv-x="1010" 
d="M30 550v150h360v-150h-55v95h-95v-265h65v-50h-190v50h65v265h-95v-95h-55zM835 380v225h-5l-130 -160h-15l-130 160h-5v-225h65v-50h-190v50h65v265h-65v55h125l140 -175h5l140 175h125v-55h-65v-265h65v-50h-190v50h65z" />
    <glyph glyph-name="minus" unicode="&#x2212;" horiz-adv-x="510" 
d="M40 370h430v-65h-430v65z" />
    <glyph glyph-name="commaaccent" unicode="&#xf6c3;" horiz-adv-x="185" 
d="M40 -140q0 23 14.5 36.5t40.5 13.5q19 0 34.5 -17.5t15.5 -42.5q0 -57 -40 -103q-17 -18 -40 -32l-15 30q10 7 20 19q20 22 20 46q-23 0 -36.5 13.5t-13.5 36.5z" />
    <glyph glyph-name="cyrBreve" unicode="&#xf6d1;" horiz-adv-x="430" 
d="M215 850q49 0 79.5 30.5t30.5 79.5h65q0 -79 -48 -127t-127 -48t-127 48t-48 127h65q0 -49 30.5 -79.5t79.5 -30.5z" />
    <glyph glyph-name="cyrbreve" unicode="&#xf6d4;" horiz-adv-x="400" 
d="M200 650q45 0 72.5 27.5t27.5 72.5h60q0 -72 -44 -116t-116 -44t-116 44t-44 116h60q0 -45 27.5 -72.5t72.5 -27.5z" />
    <glyph glyph-name="Germandbls" horiz-adv-x="750" 
d="M445 320h-75v65l190 240v5h-160q-83 0 -141.5 -61.5t-58.5 -153.5v-415h-190v70h110v345q0 123 79.5 204t200.5 81h255v-70l-195 -240v-5q109 0 174.5 -58.5t65.5 -146.5q0 -90 -67.5 -147.5t-187.5 -57.5q-58 0 -112 22q-27 12 -43 23l25 60q20 -12 38 -20
q42 -20 92 -20q76 0 123 41t47 99t-47 99t-123 41z" />
    <glyph glyph-name="foundryicon" horiz-adv-x="1230" 
d="M100 -110v920h1030v-920h-1030zM1110 -90v880h-990v-880h990zM635 610h110q37 0 58.5 -19t21.5 -46t-21.5 -46t-58.5 -19h-55v-80h-55v210zM635 300h110q37 0 58.5 -19t21.5 -46t-21.5 -46t-58.5 -19h-55v-80h-55v210zM495 170l-75 130h60l40 -75h5l40 75h65l-80 -130
v-80h-55v80zM495 480l-75 130h60l40 -75h5l40 75h65l-80 -130v-80h-55v80zM300 255h-65v45h165l25 -45h-70v-165h-55v165zM300 565h-65v45h165l25 -45h-70v-165h-55v165zM790 400v65q20 4 38 21t22 39h80v-45h-85v-35h120v-45h-175zM790 90v65q20 4 38 21t22 39h80v-45h-85
v-35h120v-45h-175zM810 300h155v-45h-115q-9 37 -40 45zM810 610h155v-45h-115q-9 37 -40 45zM765 545q0 8 -6 14t-14 6h-55v-40h55q8 0 14 6t6 14zM765 235q0 8 -6 14t-14 6h-55v-40h55q8 0 14 6t6 14z" />
    </font>
</defs>
</svg>
